<svg width="291" height="190" viewBox="0 0 291 190" xmlns="http://www.w3.org/2000/svg" xmlns:xlink="http://www.w3.org/1999/xlink"><defs><path id="a" d="M.5 0h291.25v195.598H.5z"/></defs><g transform="translate(-.6 -5)" fill="none" fill-rule="evenodd"><mask id="b" fill="#fff"><use xlink:href="#a"/></mask><g mask="url(#b)"><path stroke="#748599" fill="#F7FAFF" d="M205.09 305.413h-69.51V112.881l34.754-19.902 34.754 19.902z"/><path stroke="#748599" d="M136.437 113.032l34.754 19.901 33.747-20.052"/><path stroke="#748599" d="M136.437 125.596l34.754 19.901 33.747-20.052"/><path stroke="#748599" d="M136.437 116.047l34.754 19.902 33.747-20.053"/><path stroke="#748599" d="M136.437 135.647l34.754 19.902 33.747-20.053"/><path stroke="#748599" d="M136.437 145.698l34.754 19.902 33.747-20.052"/><path stroke="#748599" d="M136.437 155.75l34.754 19.901 33.747-20.052"/><path stroke="#748599" d="M136.437 165.801l34.754 19.902 33.747-20.053"/><path stroke="#748599" d="M136.437 175.852l34.754 19.902 33.747-20.052"/><path d="M136.437 185.904l34.754 19.901 33.747-20.052m-33.596-48.447v78.902" stroke="#748599"/><g><path stroke="#748599" fill="#F7FAFF" d="M291.219 358.183h-69.508V165.65l34.754-19.901 34.754 19.901z"/><path stroke="#748599" d="M222.567 165.801l34.754 19.902 33.746-20.053"/><path stroke="#748599" d="M222.567 178.365l34.754 19.902 33.746-20.053"/><path stroke="#748599" d="M222.567 168.816l34.754 19.902 33.746-20.052"/><path d="M222.567 188.416l34.754 19.902 33.746-20.052m-33.595 1.809v78.902" stroke="#748599"/></g><g><path stroke="#748599" fill="#F7FAFF" d="M70.606 356.675H1.098V164.143l34.754-19.902 34.754 19.902z"/><path stroke="#748599" d="M1.954 164.293l34.754 19.902 33.747-20.052"/><path stroke="#748599" d="M1.954 176.857l34.754 19.902 33.747-20.052"/><path stroke="#748599" d="M1.954 167.309l34.754 19.901 33.747-20.052"/><path d="M1.954 186.909l34.754 19.901 33.747-20.052m-33.595 1.809v78.903" stroke="#748599"/></g><g><path stroke="#748599" fill="#F7FAFF" d="M123.996 334.06H54.488V141.526l34.754-19.901 34.754 19.901z"/><path stroke="#748599" d="M55.345 141.678l34.754 19.901 33.746-20.052"/><path stroke="#748599" d="M55.345 154.242l34.754 19.902 33.746-20.053"/><path stroke="#748599" d="M55.345 144.693l34.754 19.902 33.746-20.052"/><path stroke="#748599" d="M55.345 164.293l34.754 19.902 33.746-20.052"/><path stroke="#748599" d="M55.345 174.345l34.754 19.901 33.746-20.052"/><path stroke="#748599" d="M55.345 184.396l34.754 19.901 33.746-20.052"/><path d="M55.345 194.447l34.754 19.902 33.746-20.053M90.25 165.952v78.902" stroke="#748599"/></g><path d="M-824.335 42.472l33.445 19.851s9.72 7.488 12.39-2.01c2.67-9.499-2.82-19.047-7.505-23.52 0 0 .152-22.515-18.233-29.4 0 0-7.051-2.161-9.016 4.523 0 0-2.367-5.177-8.21-6.03-5.842-.855-4.382 8.693-4.382 8.693s-6.346-3.316-8.21 5.177c0 0-1.36 5.528.151 10.202.05 0 1.864 7.488 9.57 12.514zm92.073 37.592l23.22 13.77s6.75 5.227 8.613-1.407c1.864-6.584-1.964-13.218-5.238-16.334 0 0 .1-15.63-12.643-20.404 0 0-4.885-1.507-6.245 3.116 0 0-1.612-3.568-5.692-4.171-4.08-.603-3.022 6.03-3.022 6.03s-4.432-2.311-5.692 3.569c0 0-.906 3.82.101 7.086-.05.05 1.26 5.227 6.598 8.745zm832.585 0l23.22 13.77s6.75 5.227 8.613-1.407c1.864-6.584-1.964-13.218-5.238-16.334 0 0 .1-15.63-12.643-20.404 0 0-4.885-1.507-6.245 3.116 0 0-1.612-3.568-5.692-4.171-4.08-.603-3.022 6.03-3.022 6.03s-4.432-2.311-5.692 3.569c0 0-.906 3.82.101 7.086-.05.05 1.26 5.227 6.598 8.745zm109.551 13.468l35.56 21.108s10.325 7.99 13.146-2.11c2.82-10.102-3.022-20.204-8.009-25.028 0 0 .202-23.973-19.391-31.21 0 0-7.455-2.311-9.62 4.775 0 0-2.469-5.478-8.714-6.383-6.246-.905-4.634 9.247-4.634 9.247s-6.75-3.568-8.714 5.478c0 0-1.41 5.83.202 10.805 0 0 1.964 7.991 10.174 13.318zm-89.454 75.787l29.768 17.69s8.613 6.684 11.03-1.759c2.368-8.443-2.518-16.936-6.699-20.957 0 0 .152-20.052-16.218-26.133 0 0-6.246-1.91-8.059 4.02 0 0-2.065-4.623-7.303-5.327-5.188-.754-3.879 7.74-3.879 7.74s-5.64-2.965-7.303 4.623c0 0-1.209 4.926.151 9.047.05-.05 1.713 6.633 8.512 11.056zm-950.799-3.216l33.445 19.85s9.72 7.49 12.39-2.01c2.67-9.498-2.82-19.047-7.505-23.52 0 0 .151-22.514-18.233-29.4 0 0-7.051-2.16-9.016 4.524 0 0-2.367-5.177-8.21-6.031-5.843-.854-4.382 8.694-4.382 8.694s-6.346-3.317-8.21 5.177c0 0-1.36 5.528.151 10.202.05 0 1.864 7.488 9.57 12.514z" stroke="#526881" fill="#FFF" fill-rule="nonzero"/></g></g></svg>