<svg width="466" height="377" viewBox="0 0 466 377" xmlns="http://www.w3.org/2000/svg"><g fill="none" fill-rule="evenodd"><g stroke="#748599"><path fill="#F7FAFF" d="M283.568 361.925h-79.72V24.556l79.72-15.597z"/><path d="M203.585 33.327h80.351M203.585 38.053h80.351M203.585 43.305h80.351M203.585 48.031h80.351M203.585 52.758h80.351M203.585 58.535h80.351M203.585 63.261h80.351M203.585 68.513h80.351M203.585 72.714h80.351M203.585 77.966h80.351M203.585 83.218h80.351M203.585 87.419h80.351M203.585 92.67h80.351M203.585 97.922h80.351M203.585 102.649h80.351M203.585 107.9h80.351M203.585 113.152h80.351M203.585 117.354h80.351M203.585 122.605h80.351M203.585 127.332h80.351M203.585 132.059h80.351M203.585 137.31h80.351M203.585 142.562h80.351M203.585 147.288h80.351M203.585 152.54h80.351M203.585 157.267h80.351M203.585 162.518h80.351M203.585 166.72h80.351M203.585 171.971h80.351M203.585 177.223h80.351M203.585 181.95h80.351M203.585 187.201h80.351M203.585 192.453h80.351M203.585 196.654h80.351M203.585 201.906h80.351M203.585 207.158h80.351M203.585 211.36h80.351M203.585 216.61h80.351M203.585 221.337h80.351M203.585 226.59h80.351M203.585 231.84h80.351M203.585 236.567h80.351M203.585 241.819h80.351M203.585 246.546h80.351M203.585 251.272h80.351M203.585 256.524h80.351M203.585 260.725h80.351M203.585 265.977h80.351M203.585 271.229h80.351M203.585 275.955h80.351M203.585 281.207h80.351M203.585 286.459h80.351M203.585 290.66h80.351M203.585 295.912h80.351M203.585 301.163h80.351M203.585 305.365h80.351M203.585 310.616h80.351M203.585 315.868h80.351M203.585 320.595h80.351M203.585 325.846h80.351"/></g><g stroke="#748599"><path fill="#F7FAFF" d="M303.114 109.108h98.627v266.42h-98.627zM303.114 102.438h98.627v6.67h-98.627zM304.899 95.716h95.213v6.67h-95.213z"/><path fill="#F7FAFF" d="M309.626 90.57h86.338v5.147h-86.338z"/><path d="M310.36 126.334h9.717v20.692h-9.716zM309.626 147.183h11.5v2.626h-11.5zM309.626 123.655h11.5v2.626h-11.5z"/><path d="M320.234 135.735h-4.727v-9.453h-.525v9.453h-4.726v1.05h4.726v10.503h.525v-10.503h4.727zM325.066 126.334h9.716v20.692h-9.716zM324.383 147.183h11.5v2.626h-11.5zM324.383 123.655h11.5v2.626h-11.5z"/><path d="M334.414 135.735h-3.677v-9.453h-1.05v9.453h-4.726v1.05h4.726v10.503h1.05v-10.503h3.677zM339.823 126.334h9.716v20.692h-9.716zM339.14 147.183h11.5v2.626h-11.5zM339.14 123.655h11.5v2.626h-11.5z"/><path d="M349.644 135.735h-4.727v-9.453h-.525v9.453h-4.727v1.05h4.727v10.503h.525v-10.503h4.727zM354.58 126.334h9.716v20.692h-9.716zM353.898 147.183h11.5v2.626h-11.5zM353.898 123.655h11.5v2.626h-11.5z"/><path d="M364.873 135.735h-5.251v-9.453h-.525v9.453h-4.727v1.05h4.727v10.503h.525v-10.503h5.251zM369.338 126.334h9.716v20.692h-9.716zM368.602 147.183h11.5v2.626h-11.5zM368.602 123.655h11.5v2.626h-11.5z"/><path d="M379.053 135.735h-4.201v-9.453h-1.05v9.453H369.6v1.05h4.201v10.503h1.05v-10.503h4.202zM384.095 126.334h9.716v20.692h-9.716zM383.36 147.183h11.5v2.626h-11.5zM383.36 123.655h11.5v2.626h-11.5z"/><path d="M393.758 135.735h-4.202v-9.453h-1.05v9.453h-4.201v1.05h4.201v10.503h1.05v-10.503h4.202zM310.36 159.577h9.717v20.692h-9.716zM309.626 180.374h11.5V183h-11.5zM309.626 156.9h11.5v2.625h-11.5z"/><path d="M320.234 168.82h-4.727v-8.927h-.525v8.927h-4.726v1.576h4.726v9.978h.525v-9.978h4.727zM325.066 159.577h9.716v20.692h-9.716zM324.383 180.374h11.5V183h-11.5zM324.383 156.9h11.5v2.625h-11.5z"/><path d="M334.414 168.82h-3.677v-8.927h-1.05v8.927h-4.726v1.576h4.726v9.978h1.05v-9.978h3.677zM339.823 159.577h9.716v20.692h-9.716zM339.14 180.374h11.5V183h-11.5zM339.14 156.9h11.5v2.625h-11.5z"/><path d="M349.644 168.82h-4.727v-8.927h-.525v8.927h-4.727v1.576h4.727v9.978h.525v-9.978h4.727zM354.58 159.577h9.716v20.692h-9.716zM353.898 180.374h11.5V183h-11.5zM353.898 156.9h11.5v2.625h-11.5z"/><path d="M364.873 168.82h-5.251v-8.927h-.525v8.927h-4.727v1.576h4.727v9.978h.525v-9.978h5.251zM369.338 159.577h9.716v20.692h-9.716zM368.602 180.374h11.5V183h-11.5zM368.602 156.9h11.5v2.625h-11.5z"/><path d="M379.053 168.82h-4.201v-8.927h-1.05v8.927H369.6v1.576h4.201v9.978h1.05v-9.978h4.202zM384.095 159.577h9.716v20.692h-9.716zM383.36 180.374h11.5V183h-11.5zM383.36 156.9h11.5v2.625h-11.5z"/><path d="M393.758 168.82h-4.202v-8.927h-1.05v8.927h-4.201v1.576h4.201v9.978h1.05v-9.978h4.202zM310.36 193.135h9.717v20.692h-9.716zM309.626 213.985h11.5v2.626h-11.5zM309.626 190.457h11.5v2.626h-11.5z"/><path d="M320.234 202.431h-4.727v-8.928h-.525v8.928h-4.726v1.05h4.726v10.504h.525v-10.503h4.727zM325.066 193.135h9.716v20.692h-9.716zM324.383 213.985h11.5v2.626h-11.5zM324.383 190.457h11.5v2.626h-11.5z"/><path d="M334.414 202.431h-3.677v-8.928h-1.05v8.928h-4.726v1.05h4.726v10.504h1.05v-10.503h3.677zM339.823 193.135h9.716v20.692h-9.716zM339.14 213.985h11.5v2.626h-11.5zM339.14 190.457h11.5v2.626h-11.5z"/><path d="M349.644 202.431h-4.727v-8.928h-.525v8.928h-4.727v1.05h4.727v10.504h.525v-10.503h4.727zM354.58 193.135h9.716v20.692h-9.716zM353.898 213.985h11.5v2.626h-11.5zM353.898 190.457h11.5v2.626h-11.5z"/><path d="M364.873 202.431h-5.251v-8.928h-.525v8.928h-4.727v1.05h4.727v10.504h.525v-10.503h5.251zM369.338 193.135h9.716v20.692h-9.716zM368.602 213.985h11.5v2.626h-11.5zM368.602 190.457h11.5v2.626h-11.5z"/><path d="M379.053 202.431h-4.201v-8.928h-1.05v8.928H369.6v1.05h4.201v10.504h1.05v-10.503h4.202zM384.095 193.135h9.716v20.692h-9.716zM383.36 213.985h11.5v2.626h-11.5zM383.36 190.457h11.5v2.626h-11.5z"/><path d="M393.758 202.431h-4.202v-8.928h-1.05v8.928h-4.201v1.05h4.201v10.504h1.05v-10.503h4.202zM310.36 226.746h9.717v20.692h-9.716zM309.626 247.543h11.5v2.626h-11.5zM309.626 224.068h11.5v2.626h-11.5z"/><path d="M320.234 236.567h-4.727v-9.978h-.525v9.978h-4.726v.526h4.726v9.978h.525v-9.978h4.727zM325.066 226.746h9.716v20.692h-9.716zM324.383 247.543h11.5v2.626h-11.5zM324.383 224.068h11.5v2.626h-11.5z"/><path d="M334.414 236.567h-3.677v-9.978h-1.05v9.978h-4.726v.526h4.726v9.978h1.05v-9.978h3.677zM339.823 226.746h9.716v20.692h-9.716zM339.14 247.543h11.5v2.626h-11.5zM339.14 224.068h11.5v2.626h-11.5z"/><path d="M349.644 236.567h-4.727v-9.978h-.525v9.978h-4.727v.526h4.727v9.978h.525v-9.978h4.727zM354.58 226.746h9.716v20.692h-9.716zM353.898 247.543h11.5v2.626h-11.5zM353.898 224.068h11.5v2.626h-11.5z"/><path d="M364.873 236.567h-5.251v-9.978h-.525v9.978h-4.727v.526h4.727v9.978h.525v-9.978h5.251zM369.338 226.746h9.716v20.692h-9.716zM368.602 247.543h11.5v2.626h-11.5zM368.602 224.068h11.5v2.626h-11.5z"/><path d="M379.053 236.567h-4.201v-9.978h-1.05v9.978H369.6v.526h4.201v9.978h1.05v-9.978h4.202zM384.095 226.746h9.716v20.692h-9.716zM383.36 247.543h11.5v2.626h-11.5zM383.36 224.068h11.5v2.626h-11.5z"/><path d="M393.758 236.567h-4.202v-9.978h-1.05v9.978h-4.201v.526h4.201v9.978h1.05v-9.978h4.202zM310.36 260.305h9.717v20.692h-9.716zM309.626 281.154h11.5v2.626h-11.5zM309.626 257.626h11.5v2.626h-11.5z"/><path d="M320.234 269.653h-4.727V260.2h-.525v9.453h-4.726v1.05h4.726v10.504h.525v-10.504h4.727zM325.066 260.305h9.716v20.692h-9.716zM324.383 281.154h11.5v2.626h-11.5zM324.383 257.626h11.5v2.626h-11.5z"/><path d="M334.414 269.653h-3.677V260.2h-1.05v9.453h-4.726v1.05h4.726v10.504h1.05v-10.504h3.677zM339.823 260.305h9.716v20.692h-9.716zM339.14 281.154h11.5v2.626h-11.5zM339.14 257.626h11.5v2.626h-11.5z"/><path d="M349.644 269.653h-4.727V260.2h-.525v9.453h-4.727v1.05h4.727v10.504h.525v-10.504h4.727zM354.58 260.305h9.716v20.692h-9.716zM353.898 281.154h11.5v2.626h-11.5zM353.898 257.626h11.5v2.626h-11.5z"/><path d="M364.873 269.653h-5.251V260.2h-.525v9.453h-4.727v1.05h4.727v10.504h.525v-10.504h5.251zM369.338 260.305h9.716v20.692h-9.716zM368.602 281.154h11.5v2.626h-11.5zM368.602 257.626h11.5v2.626h-11.5z"/><path d="M379.053 269.653h-4.201V260.2h-1.05v9.453H369.6v1.05h4.201v10.504h1.05v-10.504h4.202zM384.095 260.305h9.716v20.692h-9.716zM383.36 281.154h11.5v2.626h-11.5zM383.36 257.626h11.5v2.626h-11.5z"/><path d="M393.758 269.653h-4.202V260.2h-1.05v9.453h-4.201v1.05h4.201v10.504h1.05v-10.504h4.202zM310.36 293.915h9.717v20.692h-9.716zM309.626 314.712h11.5v2.626h-11.5zM309.626 291.237h11.5v2.626h-11.5z"/><path d="M320.234 303.264h-4.727v-8.928h-.525v8.928h-4.726v1.575h4.726v9.979h.525v-9.979h4.727zM325.066 293.915h9.716v20.692h-9.716zM324.383 314.712h11.5v2.626h-11.5zM324.383 291.237h11.5v2.626h-11.5z"/><path d="M334.414 303.264h-3.677v-8.928h-1.05v8.928h-4.726v1.575h4.726v9.979h1.05v-9.979h3.677zM339.823 293.915h9.716v20.692h-9.716zM339.14 314.712h11.5v2.626h-11.5zM339.14 291.237h11.5v2.626h-11.5z"/><path d="M349.644 303.264h-4.727v-8.928h-.525v8.928h-4.727v1.575h4.727v9.979h.525v-9.979h4.727zM354.58 293.915h9.716v20.692h-9.716zM353.898 314.712h11.5v2.626h-11.5zM353.898 291.237h11.5v2.626h-11.5z"/><path d="M364.873 303.264h-5.251v-8.928h-.525v8.928h-4.727v1.575h4.727v9.979h.525v-9.979h5.251zM369.338 293.915h9.716v20.692h-9.716zM368.602 314.712h11.5v2.626h-11.5zM368.602 291.237h11.5v2.626h-11.5z"/><path d="M379.053 303.264h-4.201v-8.928h-1.05v8.928H369.6v1.575h4.201v9.979h1.05v-9.979h4.202zM384.095 293.915h9.716v20.692h-9.716zM383.36 314.712h11.5v2.626h-11.5zM383.36 291.237h11.5v2.626h-11.5z"/><path d="M393.758 303.264h-4.202v-8.928h-1.05v8.928h-4.201v1.575h4.201v9.979h1.05v-9.979h4.202zM310.36 327.474h9.717v20.692h-9.716zM309.626 324.795h11.5v2.626h-11.5z"/><path d="M320.234 336.875h-4.727v-8.928h-.525v8.928h-4.726v1.05h4.726v9.978h.525v-9.978h4.727zM325.066 327.474h9.716v20.692h-9.716zM324.383 324.795h11.5v2.626h-11.5z"/><path d="M334.414 336.875h-3.677v-8.928h-1.05v8.928h-4.726v1.05h4.726v9.978h1.05v-9.978h3.677zM339.823 327.474h9.716v20.692h-9.716zM339.14 324.795h11.5v2.626h-11.5z"/><path d="M349.644 336.875h-4.727v-8.928h-.525v8.928h-4.727v1.05h4.727v9.978h.525v-9.978h4.727zM354.58 327.474h9.716v20.692h-9.716zM353.898 324.795h11.5v2.626h-11.5z"/><path d="M364.873 336.875h-5.251v-8.928h-.525v8.928h-4.727v1.05h4.727v9.978h.525v-9.978h5.251zM369.338 327.474h9.716v20.692h-9.716zM368.602 324.795h11.5v2.626h-11.5z"/><path d="M379.053 336.875h-4.201v-8.928h-1.05v8.928H369.6v1.05h4.201v9.978h1.05v-9.978h4.202zM384.095 327.474h9.716v20.692h-9.716zM383.36 324.795h11.5v2.626h-11.5z"/><path d="M393.758 336.875h-4.202v-8.928h-1.05v8.928h-4.201v1.05h4.201v9.978h1.05v-9.978h4.202z"/></g><path d="M460.393 29.65h-68.902c-2.468 0-4.884 1.838-4.884 4.307v4.464c0 .63.525 1.155.788 2.205H357.46c-2.468 0-4.464 1.576-4.464 4.044v4.464c0 2.468 1.996 4.622 4.464 4.622h13.917v3.886c0 2.468 2.416 4.516 4.884 4.516h68.955c2.468 0 4.411-2.048 4.411-4.516v-4.464c0-2.468-1.995-4.149-4.411-4.149H430.72V44.67c0-.63 0-.893-.21-1.418h29.935c2.468 0 4.464-2.416 4.464-4.831v-4.464c-.053-2.469-2.049-4.307-4.517-4.307zM453.144 260.725h-68.955c-2.468 0-4.884 1.786-4.884 4.254v4.464c0 .63.577 1.26.788 1.786h-29.935c-2.468 0-4.464 1.995-4.464 4.464v4.463c0 2.469 2.048 4.727 4.464 4.727h13.917v3.781c0 2.469 2.468 4.622 4.884 4.622h68.955c2.468 0 4.411-2.153 4.411-4.622V284.2c0-2.468-1.943-4.044-4.411-4.044h-14.495v-4.463c0-.63.053-1.313-.21-1.313h29.935c2.468 0 4.411-2.469 4.411-4.937v-4.464c0-2.468-1.943-4.254-4.411-4.254z" stroke="#526881" fill="#FFF"/><g stroke="#748599"><path fill="#F7FAFF" d="M193.817 375.16l-32.14-285.115H122.55L89.045 375.58z"/><path d="M120.085 114.203h44.375l1.05 11.028h-47.108zM119.042 135.21h42.485l.983 11.028h-44.108zM119.085 158.317h45.375l1.05 9.978h-47.108zM119.085 180.374h45.375l1.05 10.504h-47.108zM119.085 201.381h45.375l1.05 10.503h-47.108zM119.085 222.913h45.375l1.05 10.503h-47.108zM119.085 246.02h45.375l1.05 9.979h-47.108zM119.085 267.027h45.375l1.05 9.978h-47.108zM119.085 289.084h45.375l1.05 11.029h-47.108zM119.085 311.667h45.375l1.05 10.503h-47.108z"/><path fill="#F7FAFF" d="M135.838 89.572h11.186v285.8h-11.186z"/><path fill="#F7FAFF" d="M138.149 89.358h6.355v286h-6.355z"/><path fill="#F7FAFF" d="M127.435 89.95l9.086-43.494h9.82l8.35 43.491z"/></g><path d="M125.912 132.059h-7.142c-.473 0-.893-.316-.998-.736v-7.142c0-2.888-2.31-5.2-5.199-5.2H33.955c-3.046 0-5.514 2.47-5.514 5.515v5.62c0 3.098 2.573 5.671 5.672 5.671h7.825c-.053 0-.368.473-.368.735v3.467c0 .577-.473 1.05-1.05 1.05H7.066c-3.256 0-5.934 2.678-5.934 5.934v5.515c0 3.203 2.626 5.882 5.882 5.882h78.565c2.994 0 5.41-2.416 5.41-5.41v-2.468c0-.578.472-1.05 1.05-1.05h33.82c3.047 0 5.515-2.469 5.515-5.515v-6.302c0-3.098-2.468-5.566-5.462-5.566zM137.519 1.291H80.695c-2.048 0-3.939 1.628-3.939 3.676v3.677c0 .525.368 1.05.526 1.575H52.599c-2.049 0-3.73 1.576-3.73 3.571v3.676c0 2.049 1.681 3.73 3.73 3.73h12.026v3.255c0 2.048 1.418 4.096 3.466 4.096h56.824c2.048 0 3.256-2.048 3.256-4.096v-3.676c0-2.048-1.26-3.781-3.256-3.781H112.94v-3.256c0-.525.052-.946-.158-.946h24.683c2.048 0 3.309-2.153 3.309-4.201V4.915c.052-1.996-1.26-3.624-3.256-3.624z" stroke="#526881" fill="#FFF"/><g fill-rule="nonzero"><path d="M243.511 143c-.913 0-1.826.274-2.648.731l-47.215 27.244c-1.643.914-2.648 2.651-2.648 4.48v54.578c0 1.828 1.005 3.565 2.648 4.48l47.215 27.243c1.553.914 3.653.914 5.205 0l47.215-27.244c1.644-.914 2.649-2.65 2.649-4.48v-54.578c0-1.828-1.005-3.565-2.649-4.48l-47.215-27.243c-.73-.548-1.643-.731-2.557-.731z" stroke="#526881" stroke-width="1.5" fill="#F7FAFF"/><path d="M211.881 190.731H198l1.37 2.194h12.42c1.552 0 2.922.64 4.018 1.737 1.096 1.098 1.644 2.56 1.644 4.114 0 1.463-.548 2.834-1.644 3.932-1.004 1.005-2.466 1.645-4.018 1.828h-5.753l1.187 2.103h1.826l.092.182 5.388 9.143c.274.274.548.365.913.365.64 0 1.187-.548 1.187-1.188 0-.275-.091-.366-.183-.457 0-.092-.09-.092-.182-.275l-4.475-7.588c2.1 0 4.018-.822 5.48-2.376 1.46-1.555 2.283-3.566 2.283-5.669.273-4.388-3.288-8.045-7.672-8.045zM230.511 191.006c-.182-.366-.548-.549-1.004-.549-.365 0-.822.183-1.005.549l-.091.182c-.183.275-.091.64.091.915l1.918 3.29 7.215 12.617H228.046l1.37 2.377h9.68l2.922 5.028c.183.274.457.731 1.096.731.64 0 1.187-.548 1.187-1.188 0-.183-.091-.457-.182-.64l-13.608-23.312zM287.315 213.952h-12.42v-22.306c0-.64-.548-1.189-1.187-1.189-.64 0-1.187.549-1.187 1.189v23.495c0 .64.547 1.188 1.187 1.188h14.977l-1.37-2.377zM262.84 191.554c0-.64-.548-1.188-1.187-1.188h-.091-.092c-.456 0-.822.183-1.004.548l-7.671 13.713-7.763-13.621c-.183-.366-.548-.549-1.005-.549-.365 0-.822.183-1.004.549l-.091.182c-.183.275-.092.64.09.915l8.585 15.176c.183.274.457.73 1.096.73.64 0 .913-.456 1.096-.73l6.575-11.61v19.38c0 .64.548 1.189 1.188 1.189.639 0 1.187-.549 1.187-1.189l.091-23.495z" fill="#526881"/></g><g fill-rule="nonzero"><path d="M98.427 271.515c-.967 0-1.935-.242-2.741-.727l-38.541-22.3c-1.694-.97-2.742-2.829-2.742-4.768V199.2c0-1.94 1.048-3.798 2.742-4.768l38.54-22.22c1.694-.97 3.871-.97 5.484 0l38.541 22.22c1.693.97 2.742 2.828 2.742 4.767v44.521c0 1.94-1.049 3.798-2.742 4.767l-38.46 22.22c-.888.566-1.855.808-2.823.808z" fill="#526881"/><path d="M98.427 173.1c-.645 0-1.37.162-1.935.486l-38.541 22.3c-1.21.728-1.935 2.02-1.935 3.394v44.44c0 1.374.725 2.666 1.935 3.394l38.46 22.22c1.21.646 2.742.646 3.87 0l38.462-22.22c1.209-.728 1.935-2.02 1.935-3.394V199.2c0-1.374-.726-2.667-1.935-3.394l-38.38-22.22c-.565-.324-1.29-.485-1.936-.485z" fill="#26D3FF"/><g fill="#FFF"><path d="M82.543 234.9l-12.981-12.12 15.642-15.191 1.129 1.212L71.9 222.779l11.772 10.908zM111.086 237.889l-1.128-1.131 14.997-13.979-13.95-13.412 1.13-1.132 15.158 14.544zM103.971 201.38l1.51.566-14.844 39.65-1.51-.565z"/></g></g><g fill-rule="nonzero"><path d="M392.427 275.515c-.967 0-1.935-.242-2.741-.727l-38.541-22.3c-1.694-.97-2.742-2.829-2.742-4.768V203.2c0-1.94 1.048-3.798 2.742-4.768l38.54-22.22c1.694-.97 3.871-.97 5.484 0l38.541 22.22c1.693.97 2.742 2.828 2.742 4.767v44.521c0 1.94-1.049 3.798-2.742 4.767l-38.46 22.22c-.888.566-1.855.808-2.823.808z" fill="#526881"/><path d="M392.427 177.1c-.645 0-1.37.162-1.935.486l-38.541 22.3c-1.21.728-1.935 2.02-1.935 3.394v44.44c0 1.374.725 2.666 1.935 3.394l38.46 22.22c1.21.646 2.742.646 3.87 0l38.462-22.22c1.209-.728 1.935-2.02 1.935-3.394V203.2c0-1.374-.726-2.667-1.935-3.394l-38.38-22.22c-.565-.324-1.29-.485-1.936-.485z" fill="#26D3FF"/><path d="M374.205 223.022l-6.854-3.717v-7.433l6.854-3.636 6.853 3.636v7.433l-6.853 3.717zm-5.241-4.686l5.24 2.828 5.242-2.828v-5.495l-5.241-2.828-5.241 2.828v5.495zM410.892 223.507l-6.45-3.717v-7.353l6.45-3.716 6.45 3.716v7.434l-6.45 3.636zm-4.838-4.606l4.838 2.748 4.838-2.748v-5.575l-4.838-2.747-4.838 2.747v5.575zM392.354 215.023l-6.854-3.636v-7.434l6.854-3.636 6.853 3.636v7.434l-6.853 3.636zm-5.241-4.606l5.24 2.828 5.242-2.828v-5.494l-5.241-2.828-5.241 2.828v5.494zM392.75 251.545l-8.466-4.525v-9.13l8.466-4.525 8.466 4.524v9.13l-8.466 4.526zm-6.854-5.495l6.854 3.636 6.853-3.636v-7.191l-6.853-3.636-6.854 3.636v7.191z" fill="#FFF"/><path fill="#FFF" d="M377.885 220.282l10.986 15.635-1.322.93-10.986-15.636zM407.087 220.674l1.325.92-10.6 15.265-1.325-.92zM391.54 213.861h1.613v21.2h-1.613z"/></g><g fill-rule="nonzero"><path d="M360.427 164.515c-.967 0-1.935-.242-2.741-.727l-38.541-22.3c-1.694-.97-2.742-2.829-2.742-4.768V92.2c0-1.94 1.048-3.798 2.742-4.768l38.54-22.22c1.694-.97 3.871-.97 5.484 0l38.541 22.22c1.693.97 2.742 2.828 2.742 4.767v44.521c0 1.94-1.049 3.798-2.742 4.767l-38.46 22.22c-.888.566-1.855.808-2.823.808z" fill="#526881"/><path d="M360.427 66.1c-.645 0-1.37.162-1.935.486l-38.541 22.3c-1.21.728-1.935 2.02-1.935 3.394v44.44c0 1.374.725 2.666 1.935 3.394l38.46 22.22c1.21.646 2.742.646 3.87 0l38.462-22.22c1.209-.728 1.935-2.02 1.935-3.394V92.2c0-1.374-.726-2.667-1.935-3.394l-38.38-22.22c-.565-.324-1.29-.485-1.936-.485z" fill="#26D3FF"/><g fill="#FFF"><path d="M347.286 99.653h16.126v1.616h-16.126zM347.286 105.309h13.707v1.616h-13.707zM347.286 110.965h16.126v1.616h-16.126zM347.286 116.621h21.77v1.616h-21.77zM347.286 122.277h21.77v1.616h-21.77zM347.286 127.933h21.77v1.616h-21.77zM371.072 109.672l-3.79-3.717 1.13-1.212 2.66 2.667 8.144-8.161 1.128 1.131z"/><path d="M371.878 113.793c-4.193 0-7.66-3.474-7.66-7.676s3.467-7.676 7.66-7.676 7.66 3.474 7.66 7.676-3.467 7.676-7.66 7.676zm0-13.736c-3.306 0-6.047 2.747-6.047 6.06 0 3.313 2.741 6.06 6.047 6.06 3.306 0 6.048-2.666 6.048-6.06 0-3.394-2.742-6.06-6.048-6.06z"/><path d="M374.7 135.205h-32.252V93.997H374.7v3.232h-1.612v-1.616H344.06v37.976h29.027v-16.968h1.612z"/></g></g><g fill-rule="nonzero"><path d="M243.427 123.515c-.967 0-1.935-.242-2.741-.727l-38.541-22.3c-1.694-.97-2.742-2.829-2.742-4.768V51.2c0-1.94 1.048-3.798 2.742-4.768l38.54-22.22c1.694-.97 3.871-.97 5.484 0l38.541 22.22c1.693.97 2.742 2.828 2.742 4.767V95.72c0 1.94-1.049 3.798-2.742 4.767l-38.46 22.22c-.888.566-1.855.808-2.823.808z" fill="#526881"/><path d="M243.427 25.1c-.645 0-1.37.162-1.935.486l-38.541 22.3c-1.21.728-1.935 2.02-1.935 3.394v44.44c0 1.374.725 2.666 1.935 3.394l38.46 22.22c1.21.646 2.742.646 3.87 0l38.462-22.22c1.209-.728 1.935-2.02 1.935-3.394V51.2c0-1.374-.726-2.667-1.935-3.394l-38.38-22.22c-.565-.324-1.29-.485-1.936-.485z" fill="#26D3FF"/><path d="M237.3 89.33l-3.629-1.94v-4.12l3.628-2.02 3.629 2.02v4.12l-3.629 1.94zm-2.016-2.909l2.015 1.131 2.016-1.13V84.24l-2.016-1.132-2.015 1.132v2.181zM244.96 94.824l-3.226-1.939v-3.797l3.225-1.94 3.226 1.94v3.797l-3.226 1.94zm-1.613-2.908l1.612.97 1.613-.97v-1.94l-1.613-.97-1.612.97v1.94zM251.813 90.784l-2.822-1.616v-3.232l2.822-1.616 2.822 1.616v3.232l-2.822 1.616zm-1.21-2.504l1.21.727 1.21-.727v-1.374l-1.21-.727-1.21.646v1.455z" fill="#FFF"/><path d="M262.537 98.056h-38.3c-.645 0-1.129-.323-1.451-.888-.323-.566-.323-1.212 0-1.697l15.481-26.745V54.02l-2.58-.646v-4.686h14.916v4.282l-2.66.808v14.706l16.045 26.906c.323.566.323 1.212 0 1.697-.322.485-.806.97-1.451.97zm-25.238-45.894l2.58.646v16.403l-15.722 27.068v.08c0 .081.08.081.08.081h38.3s.08 0 .08-.08v-.081l-16.206-27.31V52.565l2.66-.808v-1.374H237.3v1.778z" fill="#FFF"/></g><g fill-rule="nonzero"><path d="M130.427 164.515c-.967 0-1.935-.242-2.741-.727l-38.541-22.3c-1.694-.97-2.742-2.829-2.742-4.768V92.2c0-1.94 1.048-3.798 2.742-4.768l38.54-22.22c1.694-.97 3.871-.97 5.484 0l38.541 22.22c1.693.97 2.742 2.828 2.742 4.767v44.521c0 1.94-1.049 3.798-2.742 4.767l-38.46 22.22c-.888.566-1.855.808-2.823.808z" fill="#526881"/><path d="M130.427 66.1c-.645 0-1.37.162-1.935.486l-38.541 22.3c-1.21.728-1.935 2.02-1.935 3.394v44.44c0 1.374.725 2.666 1.935 3.394l38.46 22.22c1.21.646 2.742.646 3.87 0l38.462-22.22c1.209-.728 1.935-2.02 1.935-3.394V92.2c0-1.374-.726-2.667-1.935-3.394l-38.38-22.22c-.565-.324-1.29-.485-1.936-.485z" fill="#26D3FF"/><g fill="#FFF"><path d="M142.119 134.013l-3.71-3.797 1.371-5.09 5.08-1.374 3.71 3.716-1.372 5.09-5.08 1.455zm-1.935-4.282l2.419 2.424 3.305-.889.887-3.313-2.419-2.424-3.305.889-.887 3.313z"/><path d="M143.731 138.7c-2.58 0-5.08-1.05-6.934-2.91-2.58-2.585-3.064-6.544-2.5-9.453l-16.448-15.756c-.645.081-1.29.162-1.935.162-2.66 0-5.241-1.05-7.015-2.828-2.5-2.505-3.306-6.222-2.096-9.858l.403-1.293 6.047 6.06 3.387-1.292 1.209-3.232-6.047-6.06 1.29-.404c1.048-.324 2.177-.566 3.306-.566 2.5 0 4.837.97 6.53 2.666 2.258 2.263 3.226 5.656 2.662 8.97l15.722 16.563c.726-.161 1.532-.242 2.258-.242 2.822 0 5.483.97 7.176 2.666 3.79 3.798 3.79 10.02 0 13.898-1.935 1.939-4.434 2.909-7.015 2.909zm-25.398-29.816l17.738 16.968-.08.485c-.645 2.505-.323 6.141 1.935 8.403 1.532 1.536 3.628 2.424 5.805 2.424 2.177 0 4.274-.888 5.806-2.424 3.225-3.232 3.225-8.403 0-11.554-1.452-1.454-3.629-2.262-6.048-2.262-.806 0-1.612.08-2.338.323l-.484.08-16.932-17.856.08-.404c.646-2.909-.16-5.899-2.096-7.919-1.774-1.777-4.273-2.504-6.853-2.1l4.838 4.848-1.774 4.928-5 1.94-4.918-4.93c-.484 2.586.323 5.091 2.096 6.95 1.532 1.535 3.629 2.343 5.887 2.343.645 0 1.37-.081 2.015-.243h.323z"/></g></g></g></svg>