<svg width="350" height="190" viewBox="0 0 350 190" xmlns="http://www.w3.org/2000/svg" xmlns:xlink="http://www.w3.org/1999/xlink">
	<defs><path id="a" d="M0 0h1163v195.598H0z"/></defs>
<g transform="translate(-12 -6)" fill="none" fill-rule="evenodd"><mask id="b" fill="#fff"><use xlink:href="#a"/></mask>
<g mask="url(#b)"><path stroke="#748599" fill="#F7FAFF" fill-rule="nonzero" d="M274.28 306.413h-69.508V113.881l34.754-19.902 34.754 19.902z"/><path stroke="#748599" d="M205.628 114.032l34.754 19.901 33.747-20.052"/>
<path stroke="#748599" d="M205.628 126.596l34.754 19.901 33.747-20.052"/>
<path stroke="#748599" d="M205.628 117.047l34.754 19.902 33.747-20.053"/>
<path stroke="#748599" d="M205.628 136.647l34.754 19.902 33.747-20.053"/>
<path stroke="#748599" d="M205.628 146.698l34.754 19.902 33.747-20.052"/>
<path stroke="#748599" d="M205.628 156.75l34.754 19.901L274.13 156.6"/>
<path stroke="#748599" d="M205.628 166.801l34.754 19.902 33.747-20.053"/>
<path stroke="#748599" d="M205.628 176.852l34.754 19.902 33.747-20.052"/>
<path stroke="#748599" d="M205.628 186.904l34.754 19.901 33.747-20.052M240.533 138.306v78.902"/>
<path stroke="#748599" fill="#F7FAFF" fill-rule="nonzero" d="M360.41 359.183h-69.508V166.65l34.754-19.901 34.754 19.901z"/>
<path stroke="#748599" d="M291.758 166.801l34.754 19.902 33.746-20.053"/>
<path stroke="#748599" d="M291.758 179.365l34.754 19.902 33.746-20.053"/>
<path stroke="#748599" d="M291.758 169.816l34.754 19.902 33.746-20.052"/>
<path stroke="#748599" d="M291.758 189.416l34.754 19.902 33.746-20.052M326.663 191.075v78.902"/>
<path d="M190.165 156.398l26.242 15.58s7.606 5.88 9.721-1.559c2.116-7.437-2.216-14.926-5.893-18.444 0 0 .151-17.69-14.304-23.017 0 0-5.49-1.709-7.102 3.518 0 0-1.814-4.07-6.448-4.724-4.583-.654-3.425 6.784-3.425 6.784s-4.986-2.613-6.447 4.071c0 0-1.057 4.322.151 7.99 0 0 1.461 5.88 7.505 9.8z" stroke="#526881" fill="#FFF" fill-rule="nonzero"/>
	<g>
		<path stroke="#748599" fill="#F7FAFF" fill-rule="nonzero" d="M139.797 289.326H70.29V96.794l34.754-19.902 34.754 19.902z"/>
		<path stroke="#748599" d="M71.145 96.945l34.754 19.901 33.747-20.052"/>
		<path stroke="#748599" d="M71.145 109.509L105.9 129.41l33.747-20.052"/>
		<path stroke="#748599" d="M71.145 99.96l34.754 19.902 33.747-20.053"/>
		<path stroke="#748599" d="M71.145 119.56l34.754 19.902 33.747-20.053"/>
		<path stroke="#748599" d="M71.145 129.611l34.754 19.902 33.747-20.052"/>
		<path stroke="#748599" d="M71.145 139.663l34.754 19.901 33.747-20.052"/>
		<path stroke="#748599" d="M71.145 149.714l34.754 19.901 33.747-20.052"/>
		<path stroke="#748599" d="M71.145 159.765l34.754 19.902 33.747-20.053"/>
		<path stroke="#748599" d="M71.145 169.816l34.754 19.902 33.747-20.052"/>
		<path stroke="#748599" d="M71.145 179.868l34.754 19.901 33.747-20.052"/>
		<path stroke="#748599" d="M71.145 189.919l34.754 19.902 33.747-20.053M106.05 121.218v78.903"/>
	</g>
	<g>
		<path stroke="#748599" fill="#F7FAFF" fill-rule="nonzero" d="M76.333 266.208H6.825V73.676L41.58 53.774l34.754 19.902z"/>
		<path stroke="#748599" d="M7.682 73.827l34.754 19.901 33.746-20.052"/>
		<path stroke="#748599" d="M7.682 86.39l34.754 19.902L76.182 86.24"/>
		<path stroke="#748599" d="M7.682 76.842l34.754 19.902L76.182 76.69"/>
		<path stroke="#748599" d="M7.682 96.442l34.754 19.902L76.182 96.29"/>
		<path stroke="#748599" d="M7.682 106.493l34.754 19.902 33.746-20.052"/>
		<path stroke="#748599" d="M7.682 116.545l34.754 19.901 33.746-20.052"/>
		<path stroke="#748599" d="M7.682 126.596l34.754 19.901 33.746-20.052"/>
		<path stroke="#748599" d="M7.682 136.647l34.754 19.902 33.746-20.053"/>
		<path stroke="#748599" d="M7.682 146.698L42.436 166.6l33.746-20.052"/>
		<path stroke="#748599" d="M7.682 156.75l34.754 19.901L76.182 156.6"/>
		<path stroke="#748599" d="M7.682 166.801l34.754 19.902 33.746-20.053"/>
		<path stroke="#748599" d="M7.682 176.852l34.754 19.902 33.746-20.052"/>
		<path stroke="#748599" d="M7.682 186.904l34.754 19.901 33.746-20.052M42.587 98.1v78.903M42.587 188.562v78.903"/>
	</g>
	<g>
		<path stroke="#748599" fill="#F7FAFF" fill-rule="nonzero" d="M193.187 335.06H123.68V142.526l34.754-19.901 34.754 19.901z"/>
		<path stroke="#748599" d="M124.536 142.678l34.754 19.901 33.746-20.052"/>
		<path stroke="#748599" d="M124.536 155.242l34.754 19.902 33.746-20.053"/>
		<path stroke="#748599" d="M124.536 145.693l34.754 19.902 33.746-20.052"/>
		<path stroke="#748599" d="M124.536 165.293l34.754 19.902 33.746-20.052"/>
		<path stroke="#748599" d="M124.536 175.345l34.754 19.901 33.746-20.052"/>
		<path stroke="#748599" d="M124.536 185.396l34.754 19.901 33.746-20.052"/>
		<path stroke="#748599" d="M124.536 195.447l34.754 19.902 33.746-20.053M159.44 166.952v78.902"/>
	</g>

	<path d="M39.665 43.472L73.11 63.323s9.72 7.488 12.39-2.01c2.67-9.499-2.82-19.047-7.505-23.52 0 0 .152-22.515-18.233-29.4 0 0-7.051-2.161-9.016 4.523 0 0-2.367-5.177-8.21-6.03-5.842-.855-4.382 8.693-4.382 8.693s-6.346-3.316-8.21 5.177c0 0-1.36 5.528.151 10.202.05 0 1.864 7.488 9.57 12.514zM131.738 81.064l23.22 13.77s6.75 5.227 8.613-1.407c1.864-6.584-1.964-13.218-5.238-16.334 0 0 .1-15.63-12.643-20.404 0 0-4.885-1.507-6.245 3.116 0 0-1.612-3.568-5.692-4.171-4.08-.603-3.022 6.03-3.022 6.03s-4.432-2.311-5.692 3.569c0 0-.906 3.82.101 7.086-.05.05 1.26 5.227 6.598 8.745zM33.621 167.103l33.445 19.85s9.72 7.49 12.39-2.01c2.67-9.498-2.82-19.047-7.505-23.52 0 0 .151-22.514-18.233-29.4 0 0-7.051-2.16-9.016 4.524 0 0-2.367-5.177-8.21-6.031-5.843-.854-4.382 8.694-4.382 8.694s-6.346-3.317-8.21 5.177c0 0-1.36 5.528.151 10.202.05 0 1.864 7.488 9.57 12.514z" stroke="#526881" fill="#FFF" fill-rule="nonzero"/></g></g></svg>