<?xml version="1.0" encoding="UTF-8" standalone="no"?>
<svg
   xmlns:dc="http://purl.org/dc/elements/1.1/"
   xmlns:cc="http://creativecommons.org/ns#"
   xmlns:rdf="http://www.w3.org/1999/02/22-rdf-syntax-ns#"
   xmlns:svg="http://www.w3.org/2000/svg"
   xmlns="http://www.w3.org/2000/svg"
   xml:space="preserve"
   enable-background="new 0 0 71.8 73.8"
   viewBox="0 0 71.8 73.8"
   y="0px"
   x="0px"
   id="Layer_1"
   version="1.1"><metadata
     id="metadata19"><rdf:RDF><cc:Work
         rdf:about=""><dc:format>image/svg+xml</dc:format><dc:type
           rdf:resource="http://purl.org/dc/dcmitype/StillImage" /></cc:Work></rdf:RDF></metadata><defs
     id="defs17" /><rect
     id="rect3"
     height="38.3"
     width="64.5"
     stroke-miterlimit="10"
     stroke="#5C5C5C"
     fill="none"
     y="33"
     x="3.5" /><rect
     id="rect5"
     height="14.1"
     width="68.5"
     stroke-miterlimit="10"
     stroke="#5C5C5C"
     fill="none"
     y="18.9"
     x="1.5" /><rect
     id="rect7"
     height="14"
     width="22"
     stroke-miterlimit="10"
     stroke-width="0.9667"
     stroke="#5C5C5C"
     fill="none"
     y="18.9"
     x="25" /><polygon
     id="polygon9"
     points="45.9,71.3 26.1,71.3 26.1,38.9 45.9,32.9 "
     stroke-miterlimit="10"
     stroke="#5C5C5C"
     fill="none" /><path
     id="path11"
     d="M36,15.2c0,4.6-3.7,3.2-8.2,3.2s-8.2-3.7-8.2-8.2  S23.2,2,27.8,2S36,10.7,36,15.2z"
     stroke-miterlimit="10"
     stroke-width="2"
     stroke="#5C5C5C"
     fill="none" /><path
     id="path13"
     d="M36.5,15.2c0,4.6,3.7,3.2,8.2,3.2s8.2-3.7,8.2-8.2  S49.3,2,44.8,2S36.5,10.7,36.5,15.2z"
     stroke-miterlimit="10"
     stroke-width="2"
     stroke="#5C5C5C"
     fill="none" /></svg>