<svg width="53" height="60" viewBox="0 0 53 60" xmlns="http://www.w3.org/2000/svg"><g fill-rule="nonzero" fill="none"><path d="M26.457 59.712c-.576 0-1.153-.144-1.633-.432L1.873 46.032C.864 45.456.24 44.352.24 43.2V16.752c0-1.152.624-2.256 1.633-2.832L24.824.72c1.009-.576 2.305-.576 3.265 0l22.952 13.2c1.008.576 1.632 1.68 1.632 2.832V43.2c0 1.152-.624 2.256-1.632 2.832l-22.904 13.2c-.528.336-1.104.48-1.68.48z" fill="#18F2B2"/><path d="M26.457 1.248c-.384 0-.817.096-1.153.288L2.353 14.784c-.72.432-1.153 1.2-1.153 2.016v26.4c0 .816.433 1.584 1.153 2.016l22.903 13.2c.72.384 1.633.384 2.305 0l22.904-13.2c.72-.432 1.152-1.2 1.152-2.016V16.752c0-.816-.432-1.584-1.152-2.016l-22.856-13.2c-.336-.192-.768-.288-1.152-.288z" fill="#18F2B2"/><g fill="#FFF" stroke="#FFF"><path d="M33.419 41.592l-2.209-2.256.817-3.024 3.025-.816 2.208 2.208-.816 3.024-3.025.864zm-1.152-2.544l1.44 1.44 1.969-.528.528-1.968-1.44-1.44-1.97.528-.527 1.968z" stroke-width=".25"/><path d="M34.38 44.376c-1.537 0-3.026-.624-4.13-1.728-1.537-1.536-1.825-3.888-1.488-5.616l-9.796-9.36c-.384.048-.768.096-1.152.096-1.585 0-3.121-.624-4.177-1.68-1.489-1.488-1.97-3.696-1.249-5.856l.24-.768 3.601 3.6 2.017-.768.72-1.92-3.6-3.6.767-.24c.625-.192 1.297-.336 1.969-.336 1.488 0 2.88.576 3.89 1.584 1.344 1.344 1.92 3.36 1.584 5.328l9.363 9.84c.432-.096.912-.144 1.344-.144 1.68 0 3.265.576 4.274 1.584 2.256 2.256 2.256 5.952 0 8.256-1.153 1.152-2.641 1.728-4.178 1.728zM19.253 26.664l10.564 10.08-.048.288c-.384 1.488-.192 3.648 1.152 4.992.913.912 2.16 1.44 3.457 1.44 1.297 0 2.545-.528 3.458-1.44 1.92-1.92 1.92-4.992 0-6.864-.865-.864-2.161-1.344-3.602-1.344-.48 0-.96.048-1.392.192l-.288.048L22.47 23.448l.048-.24c.385-1.728-.096-3.504-1.248-4.704-1.056-1.056-2.545-1.488-4.081-1.248l2.88 2.88-1.056 2.928-2.977 1.152-2.929-2.928c-.288 1.536.192 3.024 1.249 4.128.912.912 2.16 1.392 3.505 1.392.384 0 .816-.048 1.2-.144h.192z" stroke-width=".75"/></g></g></svg>