<?xml version="1.0" encoding="utf-8"?>
<!-- Generator: Adobe Illustrator 19.1.0, SVG Export Plug-In . SVG Version: 6.00 Build 0)  -->
<svg version="1.1" id="Layer_1" xmlns="http://www.w3.org/2000/svg" xmlns:xlink="http://www.w3.org/1999/xlink" x="0px" y="0px"
	 width="120px" height="130px" viewBox="246 331 120 130" style="enable-background:new 246 331 120 130;" xml:space="preserve">
<style type="text/css">
	.st0{fill:#F6F6F6;stroke:#16B3D7;stroke-width:2;stroke-miterlimit:10;}
	.st1{fill:none;stroke:#16B3D7;stroke-width:2;stroke-miterlimit:10;}
	.st2{fill:#16B3D7;}
</style>
<path class="st0" d="M356.8,429.1L309,456.6c-1.8,1-4,1-5.8,0l-47.7-27.5c-1.8-1-2.9-3-2.9-5.1v-55.1c0-2.1,1.1-4,2.9-5.1l47.7-27.5
	c1.8-1,4-1,5.8,0l47.7,27.5c1.8,1,2.9,3,2.9,5.1V424C359.7,426.1,358.6,428,356.8,429.1z"/>
<g>
	<polygon class="st1" points="327.5,406.7 326.1,411.9 320.9,413.3 317.1,409.4 318.5,404.2 323.7,402.9 	"/>
	<path class="st1" d="M319.1,397.6l-20.3-21.2c0.8-3.6,0-7.8-2.9-10.7c-2.9-2.9-7.2-3.7-11.2-2.4l6.8,6.8l-1.8,5l-5.2,2l-6.8-6.8
		c-1.3,4-0.5,8.3,2.4,11.2s7.2,3.7,10.7,2.9l21.2,20.3c-0.9,3.7-0.2,8.5,2.7,11.4c4.3,4.3,11.4,4.3,15.7,0c4.3-4.3,4.3-11.4,0-15.7
		C327.6,397.3,322.8,396.6,319.1,397.6z"/>
</g>
<g>
	<path class="st2" d="M293.3,426.8h2.9c0.6,0,1,0,1.3,0.1c0.3,0,0.5,0.1,0.7,0.3c0.2,0.1,0.4,0.3,0.5,0.6c0.1,0.2,0.2,0.5,0.2,0.8
		s-0.1,0.6-0.3,0.9c-0.2,0.3-0.4,0.5-0.7,0.6c0.4,0.1,0.8,0.3,1,0.6s0.4,0.7,0.4,1.1c0,0.3-0.1,0.6-0.2,1c-0.2,0.3-0.4,0.6-0.6,0.7
		c-0.3,0.2-0.6,0.3-1,0.3c-0.2,0-0.8,0-1.7,0h-2.4L293.3,426.8L293.3,426.8z M294.7,428v1.7h0.9c0.6,0,0.9,0,1,0
		c0.2,0,0.4-0.1,0.6-0.3c0.1-0.1,0.2-0.3,0.2-0.6c0-0.2-0.1-0.4-0.2-0.5s-0.3-0.2-0.5-0.3c-0.1,0-0.6,0-1.2,0
		C295.5,428,294.7,428,294.7,428z M294.7,430.9v1.9h1.3c0.5,0,0.9,0,1,0c0.2,0,0.4-0.1,0.5-0.3s0.2-0.4,0.2-0.6s-0.1-0.4-0.2-0.5
		s-0.3-0.3-0.5-0.3c-0.2-0.1-0.6-0.1-1.3-0.1h-1V430.9z"/>
	<path class="st2" d="M300.5,426.8h1.4v3.9c0,0.6,0,1,0.1,1.2c0.1,0.3,0.2,0.5,0.4,0.7c0.2,0.2,0.6,0.3,1,0.3s0.7-0.1,0.9-0.3
		c0.2-0.2,0.3-0.4,0.4-0.6s0.1-0.6,0.1-1.2v-4h1.4v3.8c0,0.9,0,1.5-0.1,1.8s-0.2,0.7-0.4,0.9c-0.2,0.2-0.5,0.4-0.8,0.6
		c-0.4,0.1-0.8,0.2-1.4,0.2c-0.7,0-1.2-0.1-1.6-0.2c-0.4-0.2-0.6-0.4-0.8-0.6c-0.2-0.3-0.3-0.5-0.4-0.8c-0.1-0.4-0.1-1-0.1-1.8
		L300.5,426.8L300.5,426.8z"/>
	<path class="st2" d="M307.7,434v-7.2h1.4v7.2H307.7z"/>
	<path class="st2" d="M310.5,434v-7.1h1.4v5.9h3.6v1.2H310.5z"/>
	<path class="st2" d="M316.6,426.8h2.6c0.6,0,1,0,1.4,0.1s0.8,0.3,1.1,0.7s0.5,0.7,0.7,1.2s0.2,1,0.2,1.7c0,0.6-0.1,1.1-0.2,1.5
		c-0.2,0.5-0.4,0.9-0.8,1.3c-0.3,0.2-0.6,0.4-1,0.6c-0.3,0.1-0.7,0.2-1.3,0.2h-2.7L316.6,426.8L316.6,426.8z M318.1,428v4.7h1.1
		c0.4,0,0.7,0,0.9-0.1s0.4-0.2,0.6-0.3c0.2-0.1,0.3-0.4,0.4-0.7c0.1-0.3,0.1-0.8,0.1-1.3s0-1-0.1-1.3s-0.2-0.5-0.4-0.7
		c-0.2-0.2-0.4-0.3-0.7-0.3c-0.2,0-0.6-0.1-1.2-0.1L318.1,428L318.1,428L318.1,428z"/>
</g>
</svg>
