<?xml version="1.0" encoding="utf-8"?>
<!-- Generator: Adobe Illustrator 18.1.1, SVG Export Plug-In . SVG Version: 6.00 Build 0)  -->
<svg version="1.1" id="Layer_1" xmlns="http://www.w3.org/2000/svg" xmlns:xlink="http://www.w3.org/1999/xlink" x="0px" y="0px"
	 width="120px" height="135px" viewBox="45 -52 120 135" enable-background="new 45 -52 120 135" xml:space="preserve">
<g>
	<path fill="#13B3D8" d="M120.6,32.4l-4.6-4.7l1.7-6.3l6.3-1.7l4.6,4.6l-1.7,6.3L120.6,32.4z M118.2,27.1l3,3l4.1-1.1l1.1-4.1l-3-3
		l-4.1,1.1L118.2,27.1z"/>
	<path fill="#13B3D8" d="M122.6,38.2c-3.2,0-6.3-1.3-8.6-3.6c-3.2-3.2-3.8-8.1-3.1-11.7L90.5,3.4c-0.8,0.1-1.6,0.2-2.4,0.2
		c-3.3,0-6.5-1.3-8.7-3.5c-3.1-3.1-4.1-7.7-2.6-12.2l0.5-1.6l7.5,7.5L89-7.8l1.5-4L83-19.3l1.6-0.5c1.3-0.4,2.7-0.7,4.1-0.7
		c3.1,0,6,1.2,8.1,3.3c2.8,2.8,4,7,3.3,11.1l19.5,20.5c0.9-0.2,1.9-0.3,2.8-0.3c3.5,0,6.8,1.2,8.9,3.3c4.7,4.7,4.7,12.4,0,17.2
		C128.9,37,125.8,38.2,122.6,38.2z M91.1,1.3l22,21l-0.1,0.6c-0.8,3.1-0.4,7.6,2.4,10.4c1.9,1.9,4.5,3,7.2,3s5.3-1.1,7.2-3
		c4-4,4-10.4,0-14.3c-1.8-1.8-4.5-2.8-7.5-2.8c-1,0-2,0.1-2.9,0.4l-0.6,0.1l-21-22.1l0.1-0.5c0.8-3.6-0.2-7.3-2.6-9.8
		c-2.2-2.2-5.3-3.1-8.5-2.6l6,6l-2.2,6.1l-6.2,2.4l-6.1-6.1c-0.6,3.2,0.4,6.3,2.6,8.6c1.9,1.9,4.5,2.9,7.3,2.9
		c0.8,0,1.7-0.1,2.5-0.3L91.1,1.3z"/>
</g>
<path fill="#13B3D8" stroke="#13B3D8" stroke-width="2" stroke-miterlimit="10" d="M106.1,76.4c-1.2,0-2.4-0.3-3.4-0.9L54.9,47.9
	c-2.1-1.2-3.4-3.5-3.4-5.9v-55.1c0-2.4,1.3-4.7,3.4-5.9l47.8-27.5c2.1-1.2,4.8-1.2,6.8,0L157.3-19c2.1,1.2,3.4,3.5,3.4,5.9V42
	c0,2.4-1.3,4.7-3.4,5.9l-47.7,27.5C108.5,76.1,107.3,76.4,106.1,76.4z M106.1-45.4c-0.8,0-1.7,0.2-2.4,0.6L55.9-17.2
	c-1.5,0.9-2.4,2.5-2.4,4.2v55c0,1.7,0.9,3.3,2.4,4.2l47.7,27.5c1.5,0.8,3.4,0.8,4.8,0l47.7-27.5c1.5-0.9,2.4-2.5,2.4-4.2v-55.1
	c0-1.7-0.9-3.3-2.4-4.2l-47.6-27.5C107.8-45.2,106.9-45.4,106.1-45.4z"/>
<g>
	<path fill="#13B3D8" d="M93.3,44.8h2.9c0.6,0,1,0,1.3,0.1c0.3,0,0.5,0.1,0.7,0.3c0.2,0.1,0.4,0.3,0.5,0.6c0.1,0.2,0.2,0.5,0.2,0.8
		s-0.1,0.6-0.3,0.9c-0.2,0.3-0.4,0.5-0.7,0.6c0.4,0.1,0.8,0.3,1,0.6s0.4,0.7,0.4,1.1c0,0.3-0.1,0.6-0.2,1c-0.2,0.3-0.4,0.6-0.6,0.7
		c-0.3,0.2-0.6,0.3-1,0.3c-0.2,0-0.8,0-1.7,0h-2.4L93.3,44.8L93.3,44.8z M94.7,46v1.7h0.9c0.6,0,0.9,0,1,0c0.2,0,0.4-0.1,0.6-0.3
		c0.1-0.1,0.2-0.3,0.2-0.6c0-0.2-0.1-0.4-0.2-0.5c-0.1-0.1-0.3-0.2-0.5-0.3c-0.1,0-0.6,0-1.2,0C95.5,46,94.7,46,94.7,46z M94.7,48.9
		v1.9H96c0.5,0,0.9,0,1,0c0.2,0,0.4-0.1,0.5-0.3c0.1-0.2,0.2-0.4,0.2-0.6s-0.1-0.4-0.2-0.5s-0.3-0.3-0.5-0.3
		C96.8,49,96.4,49,95.7,49L94.7,48.9L94.7,48.9z"/>
	<path fill="#13B3D8" d="M100.5,44.8h1.4v3.9c0,0.6,0,1,0.1,1.2c0.1,0.3,0.2,0.5,0.4,0.7s0.6,0.3,1,0.3s0.7-0.1,0.9-0.3
		c0.2-0.2,0.3-0.4,0.4-0.6s0.1-0.6,0.1-1.2v-4h1.4v3.8c0,0.9,0,1.5-0.1,1.8s-0.2,0.7-0.4,0.9c-0.2,0.2-0.5,0.4-0.8,0.6
		c-0.4,0.1-0.8,0.2-1.4,0.2c-0.7,0-1.2-0.1-1.6-0.2c-0.4-0.2-0.6-0.4-0.8-0.6c-0.2-0.3-0.3-0.5-0.4-0.8c-0.1-0.4-0.1-1-0.1-1.8v-3.9
		H100.5z"/>
	<path fill="#13B3D8" d="M107.7,52v-7.2h1.4V52H107.7z"/>
	<path fill="#13B3D8" d="M110.5,52v-7.1h1.5v5.9h3.6V52H110.5z"/>
	<path fill="#13B3D8" d="M116.6,44.8h2.6c0.6,0,1,0,1.4,0.1s0.8,0.3,1.1,0.7s0.5,0.7,0.7,1.2s0.2,1,0.2,1.7c0,0.6-0.1,1.1-0.2,1.5
		c-0.2,0.5-0.4,0.9-0.8,1.3c-0.3,0.2-0.6,0.4-1,0.6c-0.3,0.1-0.7,0.2-1.3,0.2h-2.7C116.6,52.1,116.6,44.8,116.6,44.8z M118.1,46v4.7
		h1.1c0.4,0,0.7,0,0.9-0.1c0.2-0.1,0.4-0.2,0.6-0.3c0.2-0.1,0.3-0.4,0.4-0.7c0.1-0.3,0.1-0.8,0.1-1.3s0-1-0.1-1.3s-0.2-0.5-0.4-0.7
		S120.3,46,120,46c-0.2,0-0.6-0.1-1.2-0.1h-0.7V46z"/>
</g>
</svg>
