<?xml version="1.0" encoding="utf-8"?>
<!-- Generator: Adobe Illustrator 18.1.1, SVG Export Plug-In . SVG Version: 6.00 Build 0)  -->
<svg version="1.1" id="Layer_1" xmlns="http://www.w3.org/2000/svg" xmlns:xlink="http://www.w3.org/1999/xlink" x="0px" y="0px"
	 width="120px" height="135px" viewBox="45 -52 120 135" enable-background="new 45 -52 120 135" xml:space="preserve">
<path fill="#66AAED" d="M97.5,27.8L93,25.4v-5.1l4.5-2.5l4.5,2.5v5.1L97.5,27.8z M95,24.2l2.5,1.4l2.5-1.4v-2.7l-2.5-1.4L95,21.5
	V24.2z"/>
<path fill="#66AAED" d="M107,34.6l-4-2.4v-4.7l4-2.4l4,2.4v4.7L107,34.6z M105,31l2,1.2l2-1.2v-2.4l-2-1.2l-2,1.2V31z"/>
<path fill="#66AAED" d="M115.5,29.6l-3.5-2v-4l3.5-2l3.5,2v4L115.5,29.6z M114,26.5l1.5,0.9l1.5-0.9v-1.7l-1.5-0.9l-1.5,0.8V26.5z"
	/>
<path fill="#66AAED" stroke="#66AAED" stroke-width="2" stroke-miterlimit="10" d="M105.1,77.4c-1.2,0-2.4-0.3-3.4-0.9L53.9,48.9
	c-2.1-1.2-3.4-3.5-3.4-5.9v-55.1c0-2.4,1.3-4.7,3.4-5.9l47.8-27.5c2.1-1.2,4.8-1.2,6.8,0L156.3-18c2.1,1.2,3.4,3.5,3.4,5.9V43
	c0,2.4-1.3,4.7-3.4,5.9l-47.7,27.5C107.5,77.1,106.3,77.4,105.1,77.4z M105.1-44.4c-0.8,0-1.7,0.2-2.4,0.6L54.9-16.2
	c-1.5,0.9-2.4,2.5-2.4,4.2v55c0,1.7,0.9,3.3,2.4,4.2l47.7,27.5c1.5,0.8,3.4,0.8,4.8,0l47.7-27.5c1.5-0.9,2.4-2.5,2.4-4.2v-55.1
	c0-1.7-0.9-3.3-2.4-4.2l-47.6-27.5C106.8-44.2,105.9-44.4,105.1-44.4z"/>
<g>
	<path fill="#66AAED" d="M96.4,53v-6h-2.1v-1.2h5.7V47h-2.1v5.9L96.4,53L96.4,53z"/>
	<path fill="#66AAED" d="M100.9,53v-7.2h5.3V47h-3.9v1.6h3.6v1.2h-3.6v1.9h4v1.2h-5.4V53z"/>
	<path fill="#66AAED" d="M107.2,50.6l1.4-0.1c0.1,0.5,0.3,0.8,0.5,1c0.3,0.2,0.6,0.3,1,0.3c0.5,0,0.8-0.1,1.1-0.3
		c0.2-0.2,0.4-0.4,0.4-0.7c0-0.2,0-0.3-0.1-0.4s-0.3-0.2-0.5-0.3c-0.2-0.1-0.6-0.2-1.2-0.3c-0.8-0.2-1.3-0.4-1.6-0.7
		c-0.4-0.4-0.7-0.9-0.7-1.4c0-0.4,0.1-0.7,0.3-1s0.5-0.6,0.9-0.7c0.4-0.2,0.9-0.2,1.4-0.2c0.9,0,1.6,0.2,2,0.6
		c0.5,0.4,0.7,0.9,0.7,1.6l-1.4,0.1c-0.1-0.4-0.2-0.6-0.4-0.8c-0.2-0.2-0.5-0.2-0.9-0.2s-0.7,0.1-1,0.3c-0.2,0.1-0.2,0.3-0.2,0.4
		c0,0.2,0.1,0.3,0.2,0.4c0.2,0.2,0.6,0.3,1.3,0.5s1.2,0.3,1.6,0.5c0.3,0.2,0.6,0.4,0.8,0.7c0.2,0.3,0.3,0.7,0.3,1.1
		s-0.1,0.8-0.3,1.2s-0.5,0.6-1,0.8c-0.4,0.2-0.9,0.3-1.6,0.3c-0.9,0-1.6-0.2-2.1-0.6C107.6,52.1,107.3,51.4,107.2,50.6z"/>
	<path fill="#66AAED" d="M115.8,53v-6h-2.1v-1.2h5.7V47h-2.1v5.9L115.8,53L115.8,53z"/>
</g>
<path fill="#66AAED" d="M128.8,38.6H81.3c-0.8,0-1.4-0.4-1.8-1.1c-0.4-0.7-0.4-1.5,0-2.1L98.7,2.3v-18.2l-3.2-0.8v-5.8H114v5.3
	l-3.3,1V2l19.9,33.3c0.4,0.7,0.4,1.5,0,2.1C130.2,38,129.6,38.6,128.8,38.6z M97.5-18.2l3.2,0.8V2.9L81.2,36.4v0.1
	c0,0.1,0.1,0.1,0.1,0.1h47.5c0,0,0.1,0,0.1-0.1s0-0.1,0-0.1L108.8,2.6v-20.3l3.3-1v-1.7H97.5V-18.2z"/>
<rect x="103" y="-17" fill="#66AAED" width="2" height="20"/>
<rect x="93" y="14" fill="#66AAED" width="18" height="2"/>
</svg>
