<?xml version="1.0" encoding="utf-8"?>
<!-- Generator: Adobe Illustrator 18.1.1, SVG Export Plug-In . SVG Version: 6.00 Build 0)  -->
<svg version="1.1" id="Layer_1" xmlns="http://www.w3.org/2000/svg" xmlns:xlink="http://www.w3.org/1999/xlink" x="0px" y="0px"
	 width="120px" height="135px" viewBox="45 -52 120 135" enable-background="new 45 -52 120 135" xml:space="preserve">
<g>
	<g>
		<polygon fill="#F7A166" points="86.4,28 70.3,13 89.7,-5.8 91.1,-4.3 73.2,13 87.8,26.5 		"/>
		<polygon fill="#F7A166" points="121.8,31.7 120.4,30.3 139,13 121.7,-3.6 123.1,-5 141.9,13 		"/>
		
			<rect x="103.7" y="-14.8" transform="matrix(-0.9365 -0.3506 0.3506 -0.9365 198.7701 58.7923)" fill="#F7A166" width="2" height="52.4"/>
	</g>
	<path fill="#F7A166" stroke="#F7A166" stroke-width="2" stroke-miterlimit="10" d="M106.1,75.4c-1.2,0-2.4-0.3-3.4-0.9L54.9,46.9
		c-2.1-1.2-3.4-3.5-3.4-5.9v-55.1c0-2.4,1.3-4.7,3.4-5.9l47.8-27.5c2.1-1.2,4.8-1.2,6.8,0L157.3-20c2.1,1.2,3.4,3.5,3.4,5.9V41
		c0,2.4-1.3,4.7-3.4,5.9l-47.7,27.5C108.5,75.1,107.3,75.4,106.1,75.4z M106.1-46.4c-0.8,0-1.7,0.2-2.4,0.6L55.9-18.2
		c-1.5,0.9-2.4,2.5-2.4,4.2v55c0,1.7,0.9,3.3,2.4,4.2l47.7,27.5c1.5,0.8,3.4,0.8,4.8,0l47.7-27.5c1.5-0.9,2.4-2.5,2.4-4.2v-55.1
		c0-1.7-0.9-3.3-2.4-4.2l-47.6-27.5C107.8-46.2,106.9-46.4,106.1-46.4z"/>
	<g>
		<path fill="#F7A166" d="M89.4,43.8H92c0.6,0,1,0,1.4,0.1s0.8,0.3,1.1,0.7s0.5,0.7,0.7,1.2c0.2,0.5,0.2,1,0.2,1.7
			c0,0.6-0.1,1.1-0.2,1.5c-0.2,0.5-0.4,0.9-0.8,1.3c-0.3,0.2-0.6,0.4-1,0.6c-0.3,0.1-0.7,0.2-1.3,0.2h-2.7V43.8z M90.8,45v4.7h1.1
			c0.4,0,0.7,0,0.9-0.1c0.2-0.1,0.4-0.2,0.6-0.3c0.2-0.1,0.3-0.4,0.4-0.7c0.1-0.3,0.1-0.8,0.1-1.3s0-1-0.1-1.3
			c-0.1-0.3-0.2-0.5-0.4-0.7C93.2,45.1,93,45,92.7,45c-0.2,0-0.6-0.1-1.2-0.1h-0.7V45z"/>
		<path fill="#F7A166" d="M96.6,51v-7.2h5.3V45H98v1.6h3.6v1.2H98v1.9h4v1.2h-5.4V51z"/>
		<path fill="#F7A166" d="M102.9,48.6l1.4-0.1c0.1,0.5,0.3,0.8,0.5,1c0.3,0.2,0.6,0.3,1,0.3c0.5,0,0.8-0.1,1.1-0.3
			c0.2-0.2,0.4-0.4,0.4-0.7c0-0.2,0-0.3-0.1-0.4s-0.3-0.2-0.5-0.3c-0.2-0.1-0.6-0.2-1.2-0.3c-0.8-0.2-1.3-0.4-1.6-0.7
			c-0.4-0.4-0.7-0.9-0.7-1.4c0-0.4,0.1-0.7,0.3-1c0.2-0.3,0.5-0.6,0.9-0.7c0.4-0.2,0.9-0.2,1.4-0.2c0.9,0,1.6,0.2,2,0.6
			c0.5,0.4,0.7,0.9,0.7,1.6l-1.4,0.1c-0.1-0.4-0.2-0.6-0.4-0.8c-0.2-0.2-0.5-0.2-0.9-0.2s-0.7,0.1-1,0.3c-0.2,0.1-0.2,0.3-0.2,0.4
			c0,0.2,0.1,0.3,0.2,0.4c0.2,0.2,0.6,0.3,1.3,0.5c0.7,0.2,1.2,0.3,1.6,0.5c0.3,0.2,0.6,0.4,0.8,0.7c0.2,0.3,0.3,0.7,0.3,1.1
			s-0.1,0.8-0.3,1.2s-0.5,0.6-1,0.8c-0.4,0.2-0.9,0.3-1.6,0.3c-0.9,0-1.6-0.2-2.1-0.6C103.3,50.1,103,49.4,102.9,48.6z"/>
		<path fill="#F7A166" d="M109.9,51v-7.2h1.4V51H109.9z"/>
		<path fill="#F7A166" d="M116.1,48.3v-1.2h3.1V50c-0.3,0.3-0.7,0.6-1.3,0.8c-0.6,0.2-1.2,0.3-1.7,0.3c-0.7,0-1.4-0.2-2-0.5
			s-1-0.8-1.3-1.3c-0.3-0.6-0.4-1.2-0.4-1.9c0-0.7,0.2-1.4,0.5-2s0.8-1,1.4-1.3c0.5-0.2,1-0.4,1.7-0.4c0.9,0,1.6,0.2,2.1,0.6
			s0.8,0.9,1,1.5l-1.4,0.3c-0.1-0.4-0.3-0.6-0.6-0.8c-0.3-0.2-0.6-0.3-1-0.3c-0.6,0-1.1,0.2-1.5,0.6s-0.6,1-0.6,1.8s0.2,1.5,0.6,1.9
			s0.9,0.6,1.5,0.6c0.3,0,0.6-0.1,0.9-0.2s0.6-0.3,0.8-0.4v-0.9L116.1,48.3L116.1,48.3z"/>
		<path fill="#F7A166" d="M120.5,51v-7.2h1.4l2.9,4.8v-4.8h1.3V51h-1.5l-2.9-4.7V51H120.5z"/>
	</g>
</g>
</svg>
