<svg width="53" height="60" viewBox="0 0 53 60" xmlns="http://www.w3.org/2000/svg"><g fill-rule="nonzero" fill="none"><path d="M26.457 59.712c-.576 0-1.153-.144-1.633-.432L1.873 46.032C.864 45.456.24 44.352.24 43.2V16.752c0-1.152.624-2.256 1.633-2.832L24.824.72c1.009-.576 2.305-.576 3.265 0l22.952 13.2c1.008.576 1.632 1.68 1.632 2.832V43.2c0 1.152-.624 2.256-1.632 2.832l-22.904 13.2c-.528.336-1.104.48-1.68.48z" fill="#FFB647"/><path d="M26.457 1.248c-.384 0-.817.096-1.153.288L2.353 14.784c-.72.432-1.153 1.2-1.153 2.016v26.4c0 .816.433 1.584 1.153 2.016l22.903 13.2c.72.384 1.633.384 2.305 0l22.904-13.2c.72-.432 1.152-1.2 1.152-2.016V16.752c0-.816-.432-1.584-1.152-2.016l-22.856-13.2c-.336-.192-.768-.288-1.152-.288z" fill="#FFB647"/><g fill="#FFF" stroke="#FFF"><path d="M16.998 37.96l-7.73-7.2 9.314-9.024.672.72-8.594 8.304 7.01 6.48zM33.995 39.736l-.672-.672 8.931-8.304-8.307-7.968.672-.672 9.027 8.64zM29.747 18.047l.9.337-8.818 23.555-.9-.337z"/></g></g></svg>