<svg width="179" height="102" viewBox="0 0 179 102" xmlns="http://www.w3.org/2000/svg"><g fill-rule="nonzero" fill="none"><path d="M12.5 101.5V.5h166v101h-166z" stroke="#FFF" fill="#526881"/><path d="M12.5 101.5h37v-94h-37v94zM12.5 7.5h166v-7h-166v7z" stroke="#FFF"/><path d="M26.903 5.25c-.692 0-1.295-.539-1.295-1.25 0-.672.563-1.25 1.295-1.25.677 0 1.19.529 1.186 1.207.13.749-.398 1.293-1.186 1.293zM22.903 5.25c-.692 0-1.295-.539-1.295-1.25 0-.672.563-1.25 1.295-1.25.677 0 1.19.529 1.186 1.207.13.749-.398 1.293-1.186 1.293zM18.903 5.25c-.692 0-1.295-.539-1.295-1.25 0-.672.563-1.25 1.295-1.25.677 0 1.19.529 1.186 1.207.13.749-.398 1.293-1.186 1.293z" stroke="#FFF" stroke-width=".5"/><path fill="#FFF" d="M60 72h77.438v1H60zM60 66h95v1H60zM60 60h85.268v1H60zM60 54h77.438v1H60zM60 48h87.879v1H60zM60 42h85.268v1H60zM60 36h77.438v1H60zM60 30h95v1H60zM60 24h85.268v1H60zM60 18h104.41v1H60z"/><path d="M27.704 36.182c-.457 0-.913.137-1.325.364L2.757 50.118c-.823.455-1.325 1.32-1.325 2.231v27.189c0 .91.502 1.776 1.325 2.231L26.379 95.34c.777.456 1.828.456 2.605 0l23.622-13.57c.823-.456 1.326-1.322 1.326-2.232V52.349c0-.91-.503-1.776-1.326-2.231L28.984 36.546c-.366-.273-.823-.364-1.28-.364z" stroke="#FFF" fill="#526881"/><path d="M11.94 60.366H5l.685 1.097h6.21c.776 0 1.461.32 2.01.868.547.549.821 1.28.821 2.057 0 .732-.274 1.417-.822 1.966-.502.503-1.233.823-2.009.914H9.019l.593 1.051h.913l.046.092 2.694 4.57c.137.138.274.184.456.184.32 0 .594-.275.594-.595 0-.137-.046-.182-.091-.228 0-.046-.046-.046-.092-.137l-2.237-3.794c1.05 0 2.01-.412 2.74-1.189.73-.777 1.141-1.782 1.141-2.834.137-2.194-1.644-4.022-3.835-4.022zM21.256 60.503c-.092-.183-.274-.274-.503-.274-.182 0-.41.091-.502.274l-.046.091c-.09.137-.045.32.046.457l.959 1.646 3.607 6.308H20.023l.685 1.188h4.84l1.461 2.515c.091.137.228.365.548.365.32 0 .594-.274.594-.594 0-.091-.046-.229-.092-.32l-6.803-11.656zM49.658 71.976h-6.21V60.823c0-.32-.274-.594-.594-.594-.32 0-.594.274-.594.594V72.57c0 .32.274.595.594.595h7.488l-.684-1.189zM37.42 60.777c0-.32-.274-.594-.594-.594h-.045-.046c-.228 0-.41.091-.502.274l-3.836 6.857-3.881-6.811c-.091-.183-.274-.274-.502-.274-.183 0-.411.091-.503.274l-.045.091c-.092.137-.046.32.045.457l4.293 7.588c.091.137.228.366.548.366.32 0 .456-.229.548-.366l3.287-5.805v9.69c0 .32.274.595.594.595.32 0 .593-.274.593-.594l.046-11.748z" fill="#FFF"/></g></svg>