<?xml version="1.0" encoding="utf-8"?>
<!-- Generator: Adobe Illustrator 18.1.1, SVG Export Plug-In . SVG Version: 6.00 Build 0)  -->
<svg version="1.1" id="Layer_1" xmlns="http://www.w3.org/2000/svg" xmlns:xlink="http://www.w3.org/1999/xlink" x="0px" y="0px"
	 width="674px" height="384px" viewBox="0 0 674 384" enable-background="new 0 0 674 384" xml:space="preserve">
<rect x="-9.4" y="-11.7" fill="#282C35" width="692.9" height="411.8"/>
<g>
	<path fill="#686868" d="M102.2,182.6L87.1,91l-7.3,1.3l1,5.5l-18.1,4.7l-4.2-23.1l18.6-1.9l1,5.6l7.4-1.3l-2.5-6.6l16.4-3l0.1,7
		l5.7-1l-0.5-3.2c-0.1-0.7,0-1.3,0.4-1.9c0.4-0.5,1-0.9,1.6-1c0.9-0.1,1.9-0.2,3-0.2c7.5,0,21.8,3.2,34.1,24.6
		c0.2,0.4,0.2,0.8,0,1.1c-0.2,0.4-0.6,0.6-1,0.6l0,0c-0.2,0-0.4-0.1-0.6-0.2c-4-2.9-12.3-7.7-22.5-7.7c-4,0-7.9,0.7-11.7,2.2
		l-0.4,0.1l-0.9-5.3l-5.4,1l19.7,90.7L102.2,182.6z M87.7,90.3l15.1,91.6l17.8-3.2l-19.7-90.7l6.6-1.2l0.9,5.2
		c3.8-1.4,7.7-2.1,11.6-2.1c10.4,0,18.8,4.9,22.8,7.8c0.1,0.1,0.2,0.1,0.3,0.1l0,0c0.2,0,0.3-0.1,0.4-0.3c0.1-0.1,0.1-0.3,0-0.5
		c-12.2-21.1-26.3-24.3-33.6-24.3c-1,0-2,0.1-2.9,0.2c-0.5,0.1-0.9,0.3-1.2,0.7c-0.3,0.4-0.4,0.9-0.3,1.4l0.7,3.8L99,80l-0.1-7
		l-14.9,2.7l2.5,6.6l-8.7,1.6l-1-5.6L59.3,80l4,21.8l16.9-4.4l-1-5.6L87.7,90.3z"/>
	
		<rect x="54.8" y="87.2" transform="matrix(0.1794 0.9838 -0.9838 0.1794 137.6879 10.0412)" fill="#686868" width="16.1" height="0.6"/>
	
		<rect x="84.7" y="88.1" transform="matrix(0.1744 0.9847 -0.9847 0.1744 158.9038 -12.6595)" fill="#686868" width="4.5" height="0.6"/>
	
		<rect x="96.7" y="81.2" transform="matrix(0.2308 0.973 -0.973 0.2308 155.9232 -34.3113)" fill="#686868" width="5.9" height="0.6"/>
	
		<rect x="51.9" y="131.7" transform="matrix(0.1662 0.9861 -0.9861 0.1662 211.7083 13.6632)" fill="#686868" width="91.7" height="0.6"/>
</g>
<g>
	<g>
		<path fill="#282C35" d="M150.5,314.3c-0.1-0.6-0.1-1.3-0.2-2c-0.1-0.7-0.3-1.3-0.4-1.9l-3.4-22c-1.1-7.3-7.9-12.3-15.2-11.2
			L22.6,293.8C15,295,9.8,302.1,11,309.7l4.1,26.8l0.5-0.1c3.9,15.1,19.2,26,35.4,23.5c14.5-2.2,25.2-14.4,26.7-28.1
			c0.3-2.9,2.6-5.2,5.5-5.7h0c2.9-0.4,5.8,1.1,7,3.8c5.5,12.6,19.3,21.1,33.9,18.9c16.2-2.5,27.6-17.4,26.8-33l-0.2,0L150.5,314.3z"
			/>
		<path fill="#686868" d="M46.3,360.5c-14.3,0-27.3-10-31-23.8l-0.5,0.1l-4.1-27.1c-1.2-7.7,4.2-15,11.9-16.2L131.3,277
			c0.7-0.1,1.4-0.2,2.1-0.2c6.7,0,12.5,5,13.5,11.6l3.4,22c0,0.3,0.1,0.6,0.2,0.9c0.1,0.3,0.1,0.7,0.2,1c0.1,0.3,0.1,0.7,0.1,1
			c0,0.3,0.1,0.6,0.1,1l0.2,1.1l0.2,0l0,0.3c0.8,16.2-11.1,30.9-27.1,33.3c-1.6,0.2-3.1,0.4-4.7,0.4c-12.6,0-24.4-7.8-29.5-19.4
			c-1-2.2-3.2-3.7-5.7-3.7c-0.3,0-0.6,0-0.9,0.1c-2.8,0.4-4.9,2.7-5.2,5.4c-1.6,14.3-12.9,26.2-27,28.4
			C49.5,360.4,47.9,360.5,46.3,360.5z M15.8,336l0.1,0.3c3.5,13.7,16.3,23.6,30.5,23.6c1.5,0,3.1-0.1,4.6-0.3
			c13.8-2.1,24.9-13.8,26.4-27.8c0.3-3,2.7-5.5,5.8-6c0.3-0.1,0.7-0.1,1-0.1c2.7,0,5.2,1.6,6.2,4c5,11.4,16.6,19,28.9,19
			c1.5,0,3.1-0.1,4.6-0.3c15.6-2.4,27.2-16.5,26.6-32.3l-0.1,0l-0.3-1.7c0-0.3-0.1-0.7-0.1-1c0-0.3-0.1-0.6-0.1-1
			c0-0.3-0.1-0.6-0.2-1c-0.1-0.3-0.1-0.6-0.2-1l-3.4-22c-1-6.3-6.5-11.1-12.9-11.1c-0.7,0-1.3,0.1-2,0.2L22.7,294.1
			c-7.4,1.1-12.5,8.1-11.4,15.5l4,26.5L15.8,336z"/>
	</g>
	<g>
		<path fill="#282C35" d="M22.1,299.6c-5.5,0.8-9.3,6-8.4,11.4l3.4,22l0.7-0.1c3.3,14.6,17.4,24.3,32.5,22
			c12.6-1.9,22.1-11.8,24.1-23.7c0.7-4.3,4.1-7.6,8.4-8.2h0c4.3-0.7,8.5,1.5,10.4,5.3c5.5,10.8,17.5,17.4,30.1,15.5
			c15-2.3,25.6-15.8,24.4-30.7l-0.5,0.1l-3.4-22c-0.8-5.5-6-9.3-11.4-8.4L22.1,299.6z"/>
		<path fill="#686868" d="M45.8,355.6c-13.3,0-25.2-9.4-28.3-22.3l-0.7,0.1l-3.4-22.3c-0.4-2.7,0.3-5.5,1.9-7.7
			c1.6-2.2,4-3.7,6.8-4.1l110.2-16.8c0.5-0.1,1.1-0.1,1.6-0.1c5.1,0,9.5,3.8,10.2,8.8l3.3,21.7l0.5-0.1l0,0.3
			c1.2,15.1-9.7,28.8-24.7,31.1c-1.5,0.2-3,0.3-4.4,0.3c-10.9,0-21.1-6.3-26-16c-1.7-3.3-5-5.3-8.7-5.3c-0.5,0-1,0-1.5,0.1
			c-4.2,0.6-7.4,3.8-8.1,8c-2.1,12.4-11.9,22.1-24.4,24C48.8,355.5,47.3,355.6,45.8,355.6z M18,332.5l0.1,0.3
			C21,345.6,32.7,355,45.8,355c1.4,0,2.9-0.1,4.3-0.3c12.2-1.9,21.8-11.3,23.8-23.5c0.7-4.4,4.2-7.8,8.6-8.5c0.5-0.1,1-0.1,1.6-0.1
			c3.9,0,7.4,2.2,9.2,5.6c4.8,9.5,14.8,15.6,25.4,15.6c1.4,0,2.9-0.1,4.3-0.3c14.6-2.2,25.1-15.4,24.2-30.1l-0.5,0.1l-3.4-22.3
			c-0.7-4.7-4.9-8.3-9.6-8.3c-0.5,0-1,0-1.5,0.1L22.2,299.9c-2.6,0.4-4.8,1.8-6.4,3.9c-1.5,2.1-2.2,4.7-1.8,7.2l3.3,21.7L18,332.5z"
			/>
	</g>
	<g>
		<line fill="#282C35" x1="29.9" y1="341.4" x2="58.7" y2="302.3"/>
		
			<rect x="44" y="297.5" transform="matrix(0.8059 0.592 -0.592 0.8059 199.1171 36.2076)" fill="#686868" width="0.6" height="48.6"/>
	</g>
	
		<rect x="43.6" y="318.9" transform="matrix(0.8059 0.592 -0.592 0.8059 204.0195 38.1061)" fill="#686868" width="0.6" height="22.8"/>
	
		<rect x="59.3" y="298.5" transform="matrix(0.8059 0.592 -0.592 0.8059 194.6407 24.7519)" fill="#686868" width="0.6" height="21.6"/>
	<g>
		<line fill="#282C35" x1="102.7" y1="328.2" x2="128" y2="293.7"/>
		
			<rect x="115" y="289.6" transform="matrix(0.8059 0.592 -0.592 0.8059 206.4652 -7.9306)" fill="#686868" width="0.6" height="42.8"/>
	</g>
	
		<rect x="115.2" y="308.3" transform="matrix(0.8059 0.592 -0.592 0.8059 210.905 -6.6255)" fill="#686868" width="0.6" height="20.1"/>
	
		<rect x="129.1" y="290.4" transform="matrix(0.8059 0.592 -0.592 0.8059 202.642 -18.3911)" fill="#686868" width="0.6" height="19"/>
</g>
<g>
	<g>
		
			<rect x="529.7" y="140.6" transform="matrix(0.9899 -0.142 0.142 0.9899 -25.5144 86.2359)" fill="#282C35" width="123.2" height="162.5"/>
		<path fill="#686868" d="M541.6,311.4l0-0.3l-23.1-161.2l0.3,0l122.2-17.5l0,0.3l23.1,161.2l-0.3,0L541.6,311.4z M519.1,150.4
			l23,160.3l121.3-17.4l-23-160.3L519.1,150.4z"/>
	</g>
	
		<rect x="583.5" y="109.6" transform="matrix(0.1425 0.9898 -0.9898 0.1425 656.6579 -442.726)" fill="#686868" width="0.6" height="96.1"/>
	
		<rect x="575.1" y="125.1" transform="matrix(0.1425 0.9898 -0.9898 0.1425 655.6684 -429.0115)" fill="#686868" width="0.6" height="77.7"/>
	
		<rect x="580.9" y="124.9" transform="matrix(0.1425 0.9898 -0.9898 0.1425 665.3828 -430.5933)" fill="#686868" width="0.6" height="87.7"/>
	
		<rect x="573.4" y="140" transform="matrix(0.1425 0.9898 -0.9898 0.1425 665.6026 -417.4066)" fill="#686868" width="0.6" height="70.9"/>
	
		<rect x="586.6" y="131.1" transform="matrix(0.1425 0.9898 -0.9898 0.1425 680.658 -427.2964)" fill="#686868" width="0.6" height="96.1"/>
	
		<rect x="578.2" y="146.7" transform="matrix(0.1425 0.9898 -0.9898 0.1425 679.6683 -413.582)" fill="#686868" width="0.6" height="77.7"/>
	
		<rect x="584" y="146.4" transform="matrix(0.1425 0.9898 -0.9898 0.1425 689.383 -415.1641)" fill="#686868" width="0.6" height="87.7"/>
	
		<rect x="576.5" y="161.5" transform="matrix(0.1425 0.9898 -0.9898 0.1425 689.6027 -401.977)" fill="#686868" width="0.6" height="70.9"/>
	<g>
		
			<rect x="589.7" y="152.7" transform="matrix(0.1425 0.9898 -0.9898 0.1425 704.6579 -411.8668)" fill="#686868" width="0.6" height="96.1"/>
		
			<rect x="581.3" y="168.2" transform="matrix(0.1425 0.9898 -0.9898 0.1425 703.6686 -398.1526)" fill="#686868" width="0.6" height="77.7"/>
		
			<rect x="587.1" y="168" transform="matrix(0.1425 0.9898 -0.9898 0.1425 713.3833 -399.7347)" fill="#686868" width="0.6" height="87.7"/>
		
			<rect x="579.6" y="183.1" transform="matrix(0.1425 0.9898 -0.9898 0.1425 713.6024 -386.5475)" fill="#686868" width="0.6" height="70.9"/>
	</g>
	
		<rect x="592.7" y="173.7" transform="matrix(0.1425 0.9898 -0.9898 0.1425 728.0428 -396.833)" fill="#686868" width="0.6" height="96.1"/>
	
		<rect x="584.3" y="189.2" transform="matrix(0.1425 0.9898 -0.9898 0.1425 727.0534 -383.1183)" fill="#686868" width="0.6" height="77.7"/>
	
		<rect x="590.1" y="189" transform="matrix(0.1425 0.9898 -0.9898 0.1425 736.7676 -384.7005)" fill="#686868" width="0.6" height="87.7"/>
	
		<rect x="582.6" y="204.1" transform="matrix(0.1425 0.9898 -0.9898 0.1425 736.9872 -371.5133)" fill="#686868" width="0.6" height="70.9"/>
	
		<rect x="595.8" y="195.3" transform="matrix(0.1425 0.9898 -0.9898 0.1425 752.0425 -381.4036)" fill="#686868" width="0.6" height="96.1"/>
	
		<rect x="587.4" y="210.8" transform="matrix(0.1425 0.9898 -0.9898 0.1425 751.0535 -367.6887)" fill="#686868" width="0.6" height="77.7"/>
	
		<rect x="593.2" y="210.6" transform="matrix(0.1425 0.9898 -0.9898 0.1425 760.7678 -369.2711)" fill="#686868" width="0.6" height="87.7"/>
	
		<rect x="585.7" y="225.7" transform="matrix(0.1425 0.9898 -0.9898 0.1425 760.9872 -356.0836)" fill="#686868" width="0.6" height="70.9"/>
	<g>
		
			<rect x="598.9" y="216.9" transform="matrix(0.1425 0.9898 -0.9898 0.1425 776.0426 -365.9739)" fill="#686868" width="0.6" height="96.1"/>
		
			<rect x="590.5" y="232.4" transform="matrix(0.1425 0.9898 -0.9898 0.1425 775.0535 -352.259)" fill="#686868" width="0.6" height="77.7"/>
		
			<rect x="596.3" y="232.2" transform="matrix(0.1425 0.9898 -0.9898 0.1425 784.7682 -353.8417)" fill="#686868" width="0.6" height="87.7"/>
		
			<rect x="588.8" y="247.3" transform="matrix(0.1425 0.9898 -0.9898 0.1425 784.9876 -340.6543)" fill="#686868" width="0.6" height="70.9"/>
	</g>
</g>
<g>
	<g>
		<rect x="493.3" y="162.9" fill="#282C35" width="123.2" height="162.5"/>
		<path fill="#686868" d="M616.8,325.7H493V162.6h123.8V325.7z M493.7,325.1h122.6V163.2H493.7V325.1z"/>
	</g>
	<rect x="509" y="179" fill="#686868" width="95" height="1"/>
	<rect x="509" y="185" fill="#686868" width="78" height="1"/>
	<rect x="509" y="189" fill="#686868" width="88" height="1"/>
	<rect x="508.9" y="196" fill="#686868" width="71.2" height="0"/>
	<rect x="509.3" y="202" fill="#686868" width="95.6" height="0"/>
	<rect x="508.9" y="206" fill="#686868" width="77.8" height="0"/>
	<rect x="509" y="212" fill="#686868" width="88" height="1"/>
	<rect x="509.3" y="217" fill="#686868" width="70.6" height="0"/>
	<g>
		<rect x="508.9" y="223" fill="#686868" width="95.6" height="0"/>
		<rect x="509" y="228" fill="#686868" width="78" height="1"/>
		<rect x="508.9" y="233" fill="#686868" width="88.1" height="0"/>
		<rect x="509" y="239" fill="#686868" width="71" height="1"/>
	</g>
	<rect x="509" y="244" fill="#686868" width="95" height="1"/>
	<rect x="509.3" y="249" fill="#686868" width="77.2" height="0"/>
	<rect x="509" y="254" fill="#686868" width="88" height="1"/>
	<rect x="508.9" y="261" fill="#686868" width="71.2" height="0"/>
	<rect x="509" y="265" fill="#686868" width="95" height="1"/>
	<rect x="508.9" y="271" fill="#686868" width="77.8" height="0"/>
	<rect x="509" y="277" fill="#686868" width="88" height="0"/>
	<rect x="509" y="281" fill="#686868" width="71" height="1"/>
	<g>
		<rect x="508.9" y="288" fill="#686868" width="95.6" height="0"/>
		<rect x="509.3" y="293" fill="#686868" width="77.2" height="0"/>
		<rect x="509" y="298" fill="#686868" width="88" height="1"/>
		<rect x="508.9" y="305" fill="#686868" width="71.2" height="0"/>
	</g>
</g>
<g>
	<g>
		<path fill="#686868" d="M440.3,368.7H187.4V212.8h252.9V368.7z M188,368.1h251.7V213.4H188V368.1z"/>
		<path fill="#686868" d="M440.3,213H187.4V60.1h252.9V213z M188,212.3h251.7V60.7H188V212.3z"/>
		<path fill="#686868" d="M432.8,205.1H195V69.2h237.8V205.1z M195.6,204.5h236.6V69.8H195.6V204.5z"/>
		<path fill="#686868" d="M234.2,250.2h-32.4v-15h32.4V250.2z M202.4,249.6h31.2v-13.8h-31.2V249.6z"/>
		<path fill="#686868" d="M430.8,305.2H198v-74.6h232.8V305.2z M198.6,304.5h231.5v-73.4H198.6V304.5z"/>
		<path fill="#686868" d="M424.9,250.2h-32.4v-15h32.4V250.2z M393.1,249.6h31.2v-13.8h-31.2V249.6z"/>
		<g>
			<path fill="#686868" d="M252.3,250.2h-15.4v-15h15.4V250.2z M237.6,249.6h14.2v-13.8h-14.2V249.6z"/>
			<path fill="#686868" d="M269.7,250.2h-15.4v-15h15.4V250.2z M255,249.6h14.2v-13.8H255V249.6z"/>
			<path fill="#686868" d="M287.1,250.2h-15.4v-15h15.4V250.2z M272.4,249.6h14.2v-13.8h-14.2V249.6z"/>
			<path fill="#686868" d="M304.5,250.2h-15.4v-15h15.4V250.2z M289.8,249.6h14.2v-13.8h-14.2V249.6z"/>
			<path fill="#686868" d="M321.9,250.2h-15.4v-15h15.4V250.2z M307.2,249.6h14.2v-13.8h-14.2V249.6z"/>
			<path fill="#686868" d="M339.2,250.2h-15.4v-15h15.4V250.2z M324.4,249.6h14.2v-13.8h-14.2V249.6z"/>
			<path fill="#686868" d="M356.4,250.2H341v-15h15.4V250.2z M341.6,249.6h14.2v-13.8h-14.2V249.6z"/>
			<path fill="#686868" d="M374,250.2h-15.4v-15H374V250.2z M359.2,249.6h14.2v-13.8h-14.2V249.6z"/>
			<path fill="#686868" d="M391.2,250.2h-15.4v-15h15.4V250.2z M376.4,249.6h14.2v-13.8h-14.2V249.6z"/>
		</g>
		<path fill="#686868" d="M234.2,283.9h-32.4v-15h32.4V283.9z M202.4,283.3h31.2v-13.8h-31.2V283.3z"/>
		<path fill="#686868" d="M424.9,283.9h-32.4v-15h32.4V283.9z M393.1,283.3h31.2v-13.8h-31.2V283.3z"/>
		<g>
			<path fill="#686868" d="M252.3,283.9h-15.4v-15h15.4V283.9z M237.6,283.3h14.2v-13.8h-14.2V283.3z"/>
			<path fill="#686868" d="M269.7,283.9h-15.4v-15h15.4V283.9z M255,283.3h14.2v-13.8H255V283.3z"/>
			<path fill="#686868" d="M287.1,283.9h-15.4v-15h15.4V283.9z M272.4,283.3h14.2v-13.8h-14.2V283.3z"/>
			<path fill="#686868" d="M304.5,283.9h-15.4v-15h15.4V283.9z M289.8,283.3h14.2v-13.8h-14.2V283.3z"/>
			<path fill="#686868" d="M321.9,283.9h-15.4v-15h15.4V283.9z M307.2,283.3h14.2v-13.8h-14.2V283.3z"/>
			<path fill="#686868" d="M339.2,283.9h-15.4v-15h15.4V283.9z M324.4,283.3h14.2v-13.8h-14.2V283.3z"/>
			<path fill="#686868" d="M356.4,283.9H341v-15h15.4V283.9z M341.6,283.3h14.2v-13.8h-14.2V283.3z"/>
			<path fill="#686868" d="M374,283.9h-15.4v-15H374V283.9z M359.2,283.3h14.2v-13.8h-14.2V283.3z"/>
			<path fill="#686868" d="M391.2,283.9h-15.4v-15h15.4V283.9z M376.4,283.3h14.2v-13.8h-14.2V283.3z"/>
		</g>
		<path fill="#686868" d="M225.6,266.8h-15.4v-15h15.4V266.8z M210.8,266.2h14.2v-13.8h-14.2V266.2z"/>
		<path fill="#686868" d="M243,266.8h-15.4v-15H243V266.8z M228.2,266.2h14.2v-13.8h-14.2V266.2z"/>
		<path fill="#686868" d="M260.4,266.8H245v-15h15.4V266.8z M245.6,266.2h14.2v-13.8h-14.2V266.2z"/>
		<path fill="#686868" d="M225.6,300.9h-15.4v-15h15.4V300.9z M210.8,300.3h14.2v-13.8h-14.2V300.3z"/>
		<path fill="#686868" d="M243,300.9h-15.4v-15H243V300.9z M228.2,300.3h14.2v-13.8h-14.2V300.3z"/>
		<path fill="#686868" d="M260.4,300.9H245v-15h15.4V300.9z M245.6,300.3h14.2v-13.8h-14.2V300.3z"/>
		<path fill="#686868" d="M382.4,266.8H367v-15h15.4V266.8z M367.6,266.2h14.2v-13.8h-14.2V266.2z"/>
		<path fill="#686868" d="M399.8,266.8h-15.4v-15h15.4V266.8z M385,266.2h14.2v-13.8H385V266.2z"/>
		<path fill="#686868" d="M417.2,266.8h-15.4v-15h15.4V266.8z M402.4,266.2h14.2v-13.8h-14.2V266.2z"/>
		<path fill="#686868" d="M382.4,300.7H367v-15h15.4V300.7z M367.6,300.1h14.2v-13.8h-14.2V300.1z"/>
		<path fill="#686868" d="M364.7,300.7H263v-15h101.8V300.7z M263.6,300.1h100.5v-13.8H263.6V300.1z"/>
		<path fill="#686868" d="M400.8,221.8H228.2V213h172.6V221.8z M228.8,221.2h171.4v-7.6H228.8V221.2z"/>
		<path fill="#686868" d="M352.1,358.8H277v-49.5h75.1V358.8z M277.6,358.2h73.9v-48.2h-73.9V358.2z"/>
		<path fill="#686868" d="M399.8,300.7h-15.4v-15h15.4V300.7z M385,300.1h14.2v-13.8H385V300.1z"/>
		<path fill="#686868" d="M417.2,300.7h-15.4v-15h15.4V300.7z M402.4,300.1h14.2v-13.8h-14.2V300.1z"/>
		<path fill="#686868" d="M277.8,266.8h-15.4v-15h15.4V266.8z M263,266.2h14.2v-13.8H263V266.2z"/>
		<path fill="#686868" d="M295.2,266.8h-15.4v-15h15.4V266.8z M280.4,266.2h14.2v-13.8h-14.2V266.2z"/>
		<path fill="#686868" d="M312.4,266.8H297v-15h15.4V266.8z M297.6,266.2h14.2v-13.8h-14.2V266.2z"/>
		<path fill="#686868" d="M329.6,266.8h-15.4v-15h15.4V266.8z M314.8,266.2H329v-13.8h-14.2V266.2z"/>
		<path fill="#686868" d="M347.2,266.8h-15.4v-15h15.4V266.8z M332.4,266.2h14.2v-13.8h-14.2V266.2z"/>
		<path fill="#686868" d="M364.4,266.8H349v-15h15.4V266.8z M349.6,266.2h14.2v-13.8h-14.2V266.2z"/>
	</g>
	<path fill="#686868" d="M416.5,205H211.3V83.7h205.2V205z M211.9,204.4h204V84.3h-204V204.4z"/>
	<path fill="#686868" d="M254.5,205h-43.2V88.9h43.2V205z M211.9,204.4h41.9V89.5h-41.9V204.4z"/>
	<path fill="#686868" d="M416.5,89.3H211.3v-5.7h205.2V89.3z M211.9,88.7h204v-4.4h-204V88.7z"/>
	<path fill="#686868" d="M215.1,87.3c-0.5,0-1-0.4-1-1c0-0.5,0.4-1,1-1c0.5,0,1,0.4,1,1C216,86.9,215.6,87.3,215.1,87.3z M215.1,86
		c-0.2,0-0.3,0.1-0.3,0.3s0.1,0.3,0.3,0.3s0.3-0.1,0.3-0.3S215.3,86,215.1,86z"/>
	<path fill="#686868" d="M217.4,87.3c-0.5,0-1-0.4-1-1c0-0.5,0.4-1,1-1c0.5,0,1,0.4,1,1C218.3,86.9,217.9,87.3,217.4,87.3z
		 M217.4,86c-0.2,0-0.3,0.1-0.3,0.3s0.1,0.3,0.3,0.3s0.3-0.1,0.3-0.3S217.5,86,217.4,86z"/>
	<path fill="#686868" d="M219.6,87.3c-0.5,0-1-0.4-1-1c0-0.5,0.4-1,1-1c0.5,0,0.9,0.4,0.9,1C220.6,86.9,220.2,87.3,219.6,87.3z
		 M219.6,86c-0.2,0-0.3,0.1-0.3,0.3s0.1,0.3,0.3,0.3s0.3-0.1,0.3-0.3S219.8,86,219.6,86z"/>
	<rect x="263" y="98" fill="#686868" width="120" height="1"/>
	<rect x="263" y="104" fill="#686868" width="98" height="1"/>
	<rect x="263.4" y="111" fill="#686868" width="109.7" height="0"/>
	<rect x="263.4" y="117" fill="#686868" width="89" height="0"/>
	<rect x="263" y="123" fill="#686868" width="98" height="1"/>
	<rect x="263" y="129" fill="#686868" width="101" height="1"/>
	<rect x="263" y="135" fill="#686868" width="89" height="1"/>
	<rect x="263.7" y="142" fill="#686868" width="97.1" height="0"/>
	<rect x="263.4" y="148" fill="#686868" width="109.7" height="0"/>
	<rect x="263" y="154" fill="#686868" width="89" height="1"/>
</g>
<g>
	<g>
		<path fill="#282C35" d="M497.9,151.8l-49.2,28.4c-1.9,1.1-4.2,1.1-6,0l-49.2-28.4c-1.9-1.1-3-3.1-3-5.2V89.9c0-2.1,1.1-4.1,3-5.2
			l49.2-28.4c1.9-1.1,4.2-1.1,6,0l49.2,28.4c1.9,1.1,3,3.1,3,5.2v56.7C500.9,148.8,499.8,150.7,497.9,151.8z"/>
		<path fill="#686868" d="M445.7,181.3c-1.1,0-2.2-0.3-3.2-0.8l-49.2-28.4c-2-1.1-3.2-3.2-3.2-5.5V89.9c0-2.3,1.2-4.4,3.2-5.5
			L442.5,56c1.9-1.1,4.4-1.1,6.3,0l49.2,28.4c2,1.1,3.2,3.2,3.2,5.5v56.7c0,2.3-1.2,4.4-3.2,5.5l-49.2,28.4
			C447.9,181,446.8,181.3,445.7,181.3z M445.7,55.8c-1,0-2,0.3-2.9,0.8l-49.2,28.4c-1.8,1-2.9,2.9-2.9,4.9v56.7c0,2,1.1,3.9,2.9,4.9
			l49.2,28.4c1.7,1,4,1,5.7,0l49.2-28.4c1.8-1,2.9-2.9,2.9-4.9V89.9c0-2-1.1-3.9-2.9-4.9l-49.2-28.4
			C447.7,56.1,446.7,55.8,445.7,55.8z"/>
	</g>
	<g>
		<path fill="#C282F4" d="M445.7,172.4c-1,0-2-0.3-2.9-0.8l-41.7-24.1c-1.8-1-2.9-2.9-2.9-5V94.5c0-2,1.1-3.9,2.9-5l41.7-24.1
			c1.7-1,4-1,5.7,0l41.7,24.1c1.8,1,2.9,2.9,2.9,5v48.1c0,2-1.1,3.9-2.9,5l-41.7,24.1C447.7,172.1,446.7,172.4,445.7,172.4z
			 M445.7,65.9c-0.8,0-1.6,0.2-2.2,0.6l-41.7,24.1c-1.4,0.8-2.2,2.3-2.2,3.9v48.1c0,1.6,0.9,3.1,2.2,3.9l41.7,24.1
			c1.4,0.8,3.1,0.8,4.5,0l41.7-24.1c1.4-0.8,2.2-2.3,2.2-3.9V94.5c0-1.6-0.9-3.1-2.2-3.9L448,66.5C447.3,66.2,446.5,65.9,445.7,65.9
			z"/>
		<g>
			<rect x="434" y="100" fill="#C282F4" width="17" height="1"/>
			<rect x="434" y="106" fill="#C282F4" width="15" height="1"/>
			<rect x="434" y="113" fill="#C282F4" width="17" height="0"/>
			<rect x="434" y="118" fill="#C282F4" width="23" height="1"/>
			<rect x="434" y="124" fill="#C282F4" width="23" height="2"/>
			<rect x="434" y="130" fill="#C282F4" width="23" height="2"/>
			<polygon fill="#C282F4" points="459.2,110.3 455.3,106.4 456.2,105.5 459.2,108.5 468.2,99.5 469,100.4 			"/>
			<path fill="#C282F4" d="M460.1,114.9c-4.4,0-8.1-3.6-8.1-8.1c0-4.4,3.6-8.1,8.1-8.1c4.4,0,8.1,3.6,8.1,8.1
				C468.1,111.2,464.5,114.9,460.1,114.9z M460.1,100c-3.8,0-6.8,3.1-6.8,6.8s3.1,6.8,6.8,6.8s6.8-3.1,6.8-6.8S463.8,100,460.1,100z
				"/>
			<polygon fill="#C282F4" points="462,138 428,138 428,94 462,94 462,98 461,98 461,96 430,96 430,138 461,138 461,118 462,118 			
				"/>
		</g>
		<g>
			<path fill="#C282F4" d="M422.6,145.1h2.3c0.5,0,0.9,0,1.2,0.1c0.4,0.1,0.7,0.3,0.9,0.6c0.3,0.3,0.5,0.6,0.6,1
				c0.1,0.4,0.2,0.9,0.2,1.5c0,0.5-0.1,1-0.2,1.3c-0.2,0.5-0.4,0.8-0.7,1.1c-0.2,0.2-0.5,0.4-0.9,0.5c-0.3,0.1-0.7,0.1-1.1,0.1h-2.4
				V145.1z M423.9,146.1v4.1h0.9c0.4,0,0.6,0,0.8-0.1c0.2-0.1,0.4-0.1,0.5-0.3c0.1-0.1,0.2-0.3,0.3-0.6c0.1-0.3,0.1-0.7,0.1-1.1
				c0-0.5,0-0.9-0.1-1.1c-0.1-0.3-0.2-0.5-0.4-0.6c-0.2-0.1-0.3-0.2-0.6-0.3c-0.2,0-0.5-0.1-1-0.1H423.9z"/>
			<path fill="#C282F4" d="M428.7,148.2c0-0.6,0.1-1.2,0.3-1.6c0.1-0.3,0.3-0.6,0.6-0.9c0.2-0.3,0.5-0.4,0.8-0.6
				c0.4-0.2,0.8-0.2,1.3-0.2c0.9,0,1.7,0.3,2.2,0.9c0.6,0.6,0.8,1.4,0.8,2.4c0,1-0.3,1.8-0.8,2.4c-0.5,0.6-1.3,0.9-2.2,0.9
				c-0.9,0-1.7-0.3-2.2-0.9C429,150,428.7,149.2,428.7,148.2z M430,148.2c0,0.7,0.2,1.2,0.5,1.6c0.3,0.4,0.7,0.5,1.2,0.5
				c0.5,0,0.9-0.2,1.2-0.5c0.3-0.4,0.5-0.9,0.5-1.6c0-0.7-0.2-1.3-0.5-1.6c-0.3-0.4-0.7-0.5-1.3-0.5s-0.9,0.2-1.3,0.5
				C430.2,146.9,430,147.5,430,148.2z"/>
			<path fill="#C282F4" d="M439.8,149l1.2,0.4c-0.2,0.7-0.5,1.2-0.9,1.5c-0.4,0.3-1,0.5-1.7,0.5c-0.8,0-1.5-0.3-2-0.9
				c-0.5-0.6-0.8-1.3-0.8-2.3c0-1,0.3-1.8,0.8-2.4c0.5-0.6,1.2-0.9,2.1-0.9c0.8,0,1.4,0.2,1.9,0.7c0.3,0.3,0.5,0.7,0.6,1.2l-1.3,0.3
				c-0.1-0.3-0.2-0.6-0.5-0.8c-0.2-0.2-0.5-0.3-0.9-0.3c-0.5,0-0.8,0.2-1.1,0.5c-0.3,0.3-0.4,0.9-0.4,1.6c0,0.8,0.1,1.4,0.4,1.7
				s0.7,0.5,1.1,0.5c0.3,0,0.6-0.1,0.9-0.3C439.5,149.8,439.7,149.5,439.8,149z"/>
			<path fill="#C282F4" d="M442.1,145.1h1.3v3.4c0,0.5,0,0.9,0,1c0.1,0.3,0.2,0.5,0.4,0.6c0.2,0.2,0.5,0.2,0.8,0.2
				c0.4,0,0.6-0.1,0.8-0.2c0.2-0.1,0.3-0.3,0.3-0.5s0.1-0.6,0.1-1.1v-3.5h1.3v3.3c0,0.8,0,1.3-0.1,1.6c-0.1,0.3-0.2,0.6-0.4,0.8
				c-0.2,0.2-0.4,0.4-0.7,0.5c-0.3,0.1-0.7,0.2-1.2,0.2c-0.6,0-1.1-0.1-1.4-0.2c-0.3-0.1-0.6-0.3-0.7-0.5c-0.2-0.2-0.3-0.5-0.4-0.7
				c-0.1-0.4-0.1-0.9-0.1-1.6V145.1z"/>
			<path fill="#C282F4" d="M448.4,151.3v-6.3h1.9l1.1,4.3l1.1-4.3h1.9v6.3h-1.2v-4.9l-1.2,4.9h-1.2l-1.2-4.9v4.9H448.4z"/>
			<path fill="#C282F4" d="M455.7,151.3v-6.3h4.6v1.1h-3.4v1.4h3.1v1.1h-3.1v1.7h3.5v1.1H455.7z"/>
			<path fill="#C282F4" d="M461.5,151.3v-6.3h1.2l2.6,4.2v-4.2h1.2v6.3h-1.3l-2.5-4.1v4.1H461.5z"/>
			<path fill="#C282F4" d="M469.2,151.3v-5.2h-1.9v-1.1h5v1.1h-1.9v5.2H469.2z"/>
		</g>
	</g>
</g>
<g>
	<g>
		<path fill="#282C35" d="M535.5,282.7l-49.2,28.4c-1.9,1.1-4.2,1.1-6,0l-49.2-28.4c-1.9-1.1-3-3.1-3-5.2v-56.7c0-2.1,1.1-4.1,3-5.2
			l49.2-28.4c1.9-1.1,4.2-1.1,6,0l49.2,28.4c1.9,1.1,3,3.1,3,5.2v56.7C538.5,279.6,537.3,281.6,535.5,282.7z"/>
		<path fill="#686868" d="M483.3,312.2c-1.1,0-2.2-0.3-3.2-0.8L430.9,283c-2-1.1-3.2-3.2-3.2-5.5v-56.7c0-2.3,1.2-4.4,3.2-5.5
			l49.2-28.4c1.9-1.1,4.4-1.1,6.3,0l49.2,28.4c2,1.1,3.2,3.2,3.2,5.5v56.7c0,2.3-1.2,4.4-3.2,5.5l-49.2,28.4
			C485.5,311.9,484.4,312.2,483.3,312.2z M483.3,186.7c-1,0-2,0.3-2.9,0.8l-49.2,28.4c-1.8,1-2.9,2.9-2.9,4.9v56.7
			c0,2,1.1,3.9,2.9,4.9l49.2,28.4c1.7,1,4,1,5.7,0l49.2-28.4c1.8-1,2.9-2.9,2.9-4.9v-56.7c0-2-1.1-3.9-2.9-4.9l-49.2-28.4
			C485.3,186.9,484.3,186.7,483.3,186.7z"/>
	</g>
	<g>
		<path fill="#7EE16D" d="M463.5,240.1l-6.5-3.9v-7.7l6.5-3.9l6.5,3.9v7.7L463.5,240.1z M458,235.5l6,3.1l6-3.1v-6.3l-6-3.2l-6,3.2
			V235.5z"/>
		<path fill="#7EE16D" d="M503.5,240.6l-6.5-3.9V229l6.5-3.9l6.5,3.9v7.7L503.5,240.6z M498,236.1l5.5,3.2l5.5-3.2v-6.3l-5.5-3.2
			l-5.5,3.2V236.1z"/>
		<path fill="#7EE16D" d="M483.5,231.5l-6.5-3.9v-7.7l6.5-3.9l6.5,3.9v7.7L483.5,231.5z M478,226.9l5.5,3.2l5.5-3.2v-6.3l-5.5-3.2
			l-5.5,3.2V226.9z"/>
		<path fill="#7EE16D" d="M484,270.9l-9-4.7v-9.6l9-4.7l9,4.7v9.6L484,270.9z M476,265.4l8,4.1l8-4.1v-8.1l-8-4.1l-8,4.1V265.4z"/>
		
			<rect x="462.4" y="245.8" transform="matrix(0.5749 0.8182 -0.8182 0.5749 402.5601 -282.1294)" fill="#7EE16D" width="20.7" height="1.2"/>
		
			<rect x="493.5" y="236.6" transform="matrix(0.8214 0.5704 -0.5704 0.8214 228.9242 -237.8026)" fill="#7EE16D" width="1.2" height="20.1"/>
		<rect x="483" y="232" fill="#7EE16D" width="2" height="21"/>
		<path fill="#7EE16D" d="M483.3,304.1c-1,0-2-0.3-2.9-0.8l-41.7-24.1c-1.8-1-2.9-2.9-2.9-5v-48.1c0-2,1.1-3.9,2.9-5l41.7-24.1
			c1.7-1,4-1,5.7,0l41.7,24.1c1.8,1,2.9,2.9,2.9,5v48.1c0,2-1.1,3.9-2.9,5l-41.7,24.1C485.3,303.9,484.3,304.1,483.3,304.1z
			 M483.3,197.7c-0.8,0-1.6,0.2-2.2,0.6l-41.7,24.1c-1.4,0.8-2.2,2.3-2.2,3.9v48.1c0,1.6,0.9,3.1,2.2,3.9l41.7,24.1
			c1.4,0.8,3.1,0.8,4.5,0l41.7-24.1c1.4-0.8,2.2-2.3,2.2-3.9v-48.1c0-1.6-0.9-3.1-2.2-3.9l-41.7-24.1
			C484.9,197.9,484.1,197.7,483.3,197.7z"/>
		<g>
			<path fill="#7EE16D" d="M469,281l1.2-0.1c0.1,0.4,0.2,0.7,0.5,0.9c0.2,0.2,0.5,0.3,0.9,0.3c0.4,0,0.7-0.1,0.9-0.3
				c0.2-0.2,0.3-0.4,0.3-0.6c0-0.1,0-0.3-0.1-0.4c-0.1-0.1-0.2-0.2-0.5-0.3c-0.1-0.1-0.5-0.1-1-0.3c-0.7-0.2-1.2-0.4-1.4-0.6
				c-0.4-0.3-0.6-0.8-0.6-1.3c0-0.3,0.1-0.6,0.3-0.9c0.2-0.3,0.4-0.5,0.8-0.6c0.3-0.1,0.8-0.2,1.2-0.2c0.8,0,1.4,0.2,1.8,0.5
				c0.4,0.3,0.6,0.8,0.6,1.4l-1.3,0.1c-0.1-0.3-0.2-0.6-0.3-0.7c-0.2-0.1-0.4-0.2-0.8-0.2c-0.4,0-0.7,0.1-0.9,0.2
				c-0.1,0.1-0.2,0.2-0.2,0.4c0,0.1,0.1,0.3,0.2,0.4c0.2,0.1,0.5,0.3,1.2,0.4c0.6,0.1,1.1,0.3,1.4,0.4c0.3,0.2,0.5,0.4,0.7,0.6
				c0.2,0.3,0.2,0.6,0.2,1c0,0.4-0.1,0.7-0.3,1c-0.2,0.3-0.5,0.5-0.8,0.7c-0.4,0.2-0.8,0.2-1.4,0.2c-0.8,0-1.4-0.2-1.8-0.5
				C469.3,282.3,469.1,281.7,469,281z"/>
			<path fill="#7EE16D" d="M475.1,283.1v-6.3h1.3v2.5h2.5v-2.5h1.3v6.3h-1.3v-2.7h-2.5v2.7H475.1z"/>
			<path fill="#7EE16D" d="M487.1,283.1h-1.4l-0.5-1.4h-2.5l-0.5,1.4h-1.3l2.4-6.3h1.3L487.1,283.1z M484.7,280.6l-0.9-2.3l-0.8,2.3
				H484.7z"/>
			<path fill="#7EE16D" d="M487.7,283.1v-6.3h2.7c0.7,0,1.2,0.1,1.5,0.2c0.3,0.1,0.5,0.3,0.7,0.6c0.2,0.3,0.3,0.6,0.3,1
				c0,0.5-0.1,0.9-0.4,1.2c-0.3,0.3-0.7,0.5-1.2,0.6c0.3,0.2,0.5,0.3,0.7,0.5c0.2,0.2,0.4,0.5,0.7,1l0.8,1.2h-1.5l-0.9-1.4
				c-0.3-0.5-0.5-0.8-0.7-0.9c-0.1-0.1-0.2-0.2-0.4-0.3c-0.1,0-0.3-0.1-0.6-0.1H489v2.6H487.7z M489,279.5h0.9c0.6,0,1,0,1.1-0.1
				s0.3-0.1,0.4-0.3s0.1-0.3,0.1-0.5c0-0.2-0.1-0.4-0.2-0.5c-0.1-0.1-0.3-0.2-0.5-0.2c-0.1,0-0.4,0-0.9,0h-1V279.5z"/>
			<path fill="#7EE16D" d="M494.1,283.1v-6.3h4.6v1.1h-3.4v1.4h3.1v1.1h-3.1v1.7h3.5v1.1H494.1z"/>
		</g>
	</g>
</g>
<g>
	<g>
		<path fill="#282C35" d="M364.2,103.8l-49.2,28.4c-1.9,1.1-4.2,1.1-6,0l-49.2-28.4c-1.9-1.1-3-3.1-3-5.2V41.8c0-2.1,1.1-4.1,3-5.2
			L309,8.2c1.9-1.1,4.2-1.1,6,0l49.2,28.4c1.9,1.1,3,3.1,3,5.2v56.7C367.3,100.7,366.1,102.7,364.2,103.8z"/>
		<path fill="#686868" d="M312,133.3c-1.1,0-2.2-0.3-3.2-0.8L259.7,104c-2-1.1-3.2-3.2-3.2-5.5V41.8c0-2.3,1.2-4.4,3.2-5.5L308.9,8
			c1.9-1.1,4.4-1.1,6.3,0l49.2,28.4c2,1.1,3.2,3.2,3.2,5.5v56.7c0,2.3-1.2,4.4-3.2,5.5l-49.2,28.4C314.3,133,313.2,133.3,312,133.3z
			 M312,7.7c-1,0-2,0.3-2.9,0.8L260,36.9c-1.8,1-2.9,2.9-2.9,4.9v56.7c0,2,1.1,3.9,2.9,4.9l49.2,28.4c1.7,1,4,1,5.7,0l49.2-28.4
			c1.8-1,2.9-2.9,2.9-4.9V41.8c0-2-1.1-3.9-2.9-4.9L314.9,8.5C314,8,313,7.7,312,7.7z"/>
	</g>
	<g>
		<path fill="#66AAED" d="M305.5,81l-3.5-2v-4.1l3.5-2l3.5,2V79L305.5,81z M303,78.2l2,1.4l2-1.4v-2.7l-2-1.4l-2,1.4V78.2z"/>
		<path fill="#66AAED" d="M314,86.9l-4-1.9v-3.9l4-1.9l4,1.9v3.9L314,86.9z M311,84.2l2.5,1.2l2.5-1.2v-2.4l-2.5-1.2l-2.5,1.2V84.2z
			"/>
		<path fill="#66AAED" d="M321,82.5l-3-1.6v-3.3l3-1.6l3,1.6V81L321,82.5z M320,80.2l1.5,0.9l1.5-0.9v-1.7l-1.5-0.9l-1.5,0.9V80.2z"
			/>
		<path fill="#66AAED" d="M312.5,124.3c-1,0-2-0.3-2.9-0.8l-41.7-24.1c-1.8-1-2.9-2.9-2.9-5V46.4c0-2,1.1-3.9,2.9-5l41.7-24.1
			c1.7-1,4-1,5.7,0l41.7,24.1c1.8,1,2.9,2.9,2.9,5v48.1c0,2-1.1,3.9-2.9,5l-41.7,24.1C314.5,124.1,313.5,124.3,312.5,124.3z
			 M312.5,17.9c-0.8,0-1.6,0.2-2.2,0.6l-41.7,24.1c-1.4,0.8-2.2,2.3-2.2,3.9v48.1c0,1.6,0.9,3.1,2.2,3.9l41.7,24.1
			c1.4,0.8,3.1,0.8,4.5,0l41.7-24.1c1.4-0.8,2.2-2.3,2.2-3.9V46.4c0-1.6-0.9-3.1-2.2-3.9l-41.7-24.1
			C314.1,18.1,313.3,17.9,312.5,17.9z"/>
		<g>
			<path fill="#66AAED" d="M304.9,103.2v-5.2H303V97h5v1.1h-1.9v5.2H304.9z"/>
			<path fill="#66AAED" d="M308.8,103.2V97h4.6v1.1h-3.4v1.4h3.1v1.1h-3.1v1.7h3.5v1.1H308.8z"/>
			<path fill="#66AAED" d="M314.3,101.2l1.2-0.1c0.1,0.4,0.2,0.7,0.5,0.9c0.2,0.2,0.5,0.3,0.9,0.3c0.4,0,0.7-0.1,0.9-0.3
				c0.2-0.2,0.3-0.4,0.3-0.6c0-0.1,0-0.3-0.1-0.4c-0.1-0.1-0.2-0.2-0.5-0.3c-0.1-0.1-0.5-0.1-1-0.3c-0.7-0.2-1.2-0.4-1.4-0.6
				c-0.4-0.3-0.6-0.8-0.6-1.3c0-0.3,0.1-0.6,0.3-0.9c0.2-0.3,0.4-0.5,0.8-0.6c0.3-0.1,0.8-0.2,1.2-0.2c0.8,0,1.4,0.2,1.8,0.5
				c0.4,0.3,0.6,0.8,0.6,1.4l-1.3,0.1c-0.1-0.3-0.2-0.6-0.3-0.7c-0.2-0.1-0.4-0.2-0.8-0.2c-0.4,0-0.7,0.1-0.9,0.2
				c-0.1,0.1-0.2,0.2-0.2,0.4c0,0.1,0.1,0.3,0.2,0.4c0.2,0.1,0.5,0.3,1.2,0.4c0.6,0.1,1.1,0.3,1.4,0.4c0.3,0.2,0.5,0.4,0.7,0.6
				c0.2,0.3,0.2,0.6,0.2,1c0,0.4-0.1,0.7-0.3,1s-0.5,0.5-0.8,0.7c-0.4,0.2-0.8,0.2-1.4,0.2c-0.8,0-1.4-0.2-1.8-0.5
				C314.7,102.4,314.4,101.9,314.3,101.2z"/>
			<path fill="#66AAED" d="M321.9,103.2v-5.2H320V97h5v1.1h-1.9v5.2H321.9z"/>
		</g>
		<path fill="#66AAED" d="M333.2,90.4h-41.5c-0.6,0-1.1-0.3-1.4-0.8c-0.3-0.5-0.3-1.1,0-1.6l16.8-29V42.9l-2.8-0.7v-4.6h15.7v4.1
			l-2.9,0.8v16.2L334.6,88c0.3,0.5,0.3,1.1,0,1.6C334.3,90.1,333.8,90.4,333.2,90.4z M305.6,41.2l2.8,0.7v17.5l-17,29.3
			c-0.1,0.2,0,0.3,0,0.3c0,0.1,0.1,0.2,0.3,0.2h41.5c0.2,0,0.3-0.1,0.3-0.2c0-0.1,0.1-0.2,0-0.3l-17.6-29.5V41.7l2.9-0.8v-2h-13.2
			V41.2z"/>
		<rect x="310" y="42" fill="#66AAED" width="1" height="17"/>
		<rect x="302" y="69" fill="#66AAED" width="16" height="1"/>
	</g>
</g>
<g>
	<g>
		<path fill="#282C35" d="M230.7,151.8l-49.2,28.4c-1.9,1.1-4.2,1.1-6,0l-49.2-28.4c-1.9-1.1-3-3.1-3-5.2V89.9c0-2.1,1.1-4.1,3-5.2
			l49.2-28.4c1.9-1.1,4.2-1.1,6,0l49.2,28.4c1.9,1.1,3,3.1,3,5.2v56.7C233.7,148.8,232.5,150.7,230.7,151.8z"/>
		<path fill="#686868" d="M178.5,181.3c-1.1,0-2.2-0.3-3.2-0.8l-49.2-28.4c-2-1.1-3.2-3.2-3.2-5.5V89.9c0-2.3,1.2-4.4,3.2-5.5
			L175.3,56c1.9-1.1,4.4-1.1,6.3,0l49.2,28.4c2,1.1,3.2,3.2,3.2,5.5v56.7c0,2.3-1.2,4.4-3.2,5.5l-49.2,28.4
			C180.7,181,179.6,181.3,178.5,181.3z M178.5,55.8c-1,0-2,0.3-2.9,0.8l-49.2,28.4c-1.8,1-2.9,2.9-2.9,4.9v56.7c0,2,1.1,3.9,2.9,4.9
			l49.2,28.4c1.7,1,4,1,5.7,0l49.2-28.4c1.8-1,2.9-2.9,2.9-4.9V89.9c0-2-1.1-3.9-2.9-4.9l-49.2-28.4
			C180.5,56.1,179.5,55.8,178.5,55.8z"/>
	</g>
	<g>
		<g>
			<path fill="#13B3D8" d="M191.3,133.9l-3.8-3.8l1.4-5.2l5.2-1.4l3.8,3.8l-1.4,5.2L191.3,133.9z M188.8,129.7l2.8,2.8l3.8-1l1-3.8
				l-2.8-2.8l-3.8,1L188.8,129.7z"/>
			<path fill="#13B3D8" d="M192.9,139.1c-2.8,0-5.4-1.1-7.3-3c-2.7-2.7-3.3-7-2.6-10.2L165,108.6c-0.7,0.1-1.4,0.2-2.2,0.2
				c-2.8,0-5.6-1.1-7.5-3c-2.7-2.7-3.5-6.6-2.2-10.4l0.3-1l6.4,6.4l3.9-1.5l1.4-3.8l-6.4-6.4l1-0.3c1.1-0.4,2.3-0.6,3.5-0.6
				c2.7,0,5.1,1,6.9,2.8c2.4,2.4,3.5,6.1,2.8,9.6l17.2,18.1c0.8-0.2,1.7-0.3,2.6-0.3c3,0,5.8,1,7.6,2.9c4,4,4,10.6,0,14.6
				C198.3,138,195.7,139.1,192.9,139.1z M165.3,107.3l19.1,18.2l-0.1,0.4c-0.7,2.7-0.3,6.8,2.2,9.3c1.7,1.7,4,2.7,6.4,2.7
				c2.4,0,4.7-0.9,6.4-2.7c3.6-3.6,3.6-9.3,0-12.9c-1.6-1.6-4-2.5-6.7-2.5c-0.9,0-1.8,0.1-2.6,0.3l-0.4,0.1l-18.2-19.1l0.1-0.3
				c0.7-3.2-0.2-6.6-2.4-8.8c-1.6-1.6-3.7-2.5-6.1-2.5c-0.7,0-1.4,0.1-2.1,0.2l5.5,5.5l-1.8,5l-5.2,2l-5.5-5.5
				c-0.7,3.1,0.1,6.1,2.2,8.2c1.7,1.7,4.1,2.6,6.6,2.6c0.8,0,1.5-0.1,2.2-0.3L165.3,107.3z"/>
		</g>
		<path fill="#13B3D8" d="M178.5,172.4c-1,0-2-0.3-2.9-0.8l-41.7-24.1c-1.8-1-2.9-2.9-2.9-5V94.5c0-2,1.1-3.9,2.9-5l41.7-24.1
			c1.7-1,4-1,5.7,0l41.7,24.1c1.8,1,2.9,2.9,2.9,5v48.1c0,2-1.1,3.9-2.9,5l-41.7,24.1C180.5,172.1,179.5,172.4,178.5,172.4z
			 M178.5,65.9c-0.8,0-1.6,0.2-2.2,0.6l-41.7,24.1c-1.4,0.8-2.2,2.3-2.2,3.9v48.1c0,1.6,0.9,3.1,2.2,3.9l41.7,24.1
			c1.4,0.8,3.1,0.8,4.5,0l41.7-24.1c1.4-0.8,2.2-2.3,2.2-3.9V94.5c0-1.6-0.9-3.1-2.2-3.9l-41.7-24.1C180,66.2,179.3,65.9,178.5,65.9
			z"/>
		<g>
			<path fill="#13B3D8" d="M167.3,145.1h2.5c0.5,0,0.9,0,1.1,0.1c0.2,0,0.5,0.1,0.7,0.3c0.2,0.1,0.4,0.3,0.5,0.5
				c0.1,0.2,0.2,0.5,0.2,0.7c0,0.3-0.1,0.6-0.2,0.8c-0.2,0.2-0.4,0.4-0.6,0.6c0.4,0.1,0.7,0.3,0.9,0.6c0.2,0.3,0.3,0.6,0.3,0.9
				c0,0.3-0.1,0.6-0.2,0.8c-0.1,0.3-0.3,0.5-0.5,0.6c-0.2,0.2-0.5,0.3-0.8,0.3c-0.2,0-0.7,0-1.5,0h-2.1V145.1z M168.6,146.1v1.4h0.8
				c0.5,0,0.8,0,0.9,0c0.2,0,0.4-0.1,0.5-0.2c0.1-0.1,0.2-0.3,0.2-0.5c0-0.2-0.1-0.4-0.2-0.5c-0.1-0.1-0.3-0.2-0.5-0.2
				c-0.1,0-0.5,0-1.1,0H168.6z M168.6,148.6v1.7h1.2c0.5,0,0.7,0,0.9,0c0.2,0,0.3-0.1,0.5-0.2c0.1-0.1,0.2-0.3,0.2-0.5
				c0-0.2,0-0.3-0.1-0.5c-0.1-0.1-0.2-0.2-0.4-0.3c-0.2-0.1-0.5-0.1-1.1-0.1H168.6z"/>
			<path fill="#13B3D8" d="M173.6,145.1h1.3v3.4c0,0.5,0,0.9,0,1c0.1,0.3,0.2,0.5,0.4,0.6c0.2,0.2,0.5,0.2,0.8,0.2
				c0.4,0,0.6-0.1,0.8-0.2c0.2-0.1,0.3-0.3,0.3-0.5c0-0.2,0.1-0.6,0.1-1.1v-3.5h1.3v3.3c0,0.8,0,1.3-0.1,1.6
				c-0.1,0.3-0.2,0.6-0.4,0.8c-0.2,0.2-0.4,0.4-0.7,0.5c-0.3,0.1-0.7,0.2-1.2,0.2c-0.6,0-1.1-0.1-1.4-0.2c-0.3-0.1-0.6-0.3-0.7-0.5
				c-0.2-0.2-0.3-0.5-0.4-0.7c-0.1-0.4-0.1-0.9-0.1-1.6V145.1z"/>
			<path fill="#13B3D8" d="M179.9,151.3v-6.3h1.3v6.3H179.9z"/>
			<path fill="#13B3D8" d="M182.4,151.3v-6.2h1.3v5.1h3.1v1.1H182.4z"/>
			<path fill="#13B3D8" d="M187.7,145.1h2.3c0.5,0,0.9,0,1.2,0.1c0.4,0.1,0.7,0.3,0.9,0.6c0.3,0.3,0.5,0.6,0.6,1
				c0.1,0.4,0.2,0.9,0.2,1.5c0,0.5-0.1,1-0.2,1.3c-0.2,0.5-0.4,0.8-0.7,1.1c-0.2,0.2-0.5,0.4-0.9,0.5c-0.3,0.1-0.7,0.1-1.1,0.1h-2.4
				V145.1z M188.9,146.1v4.1h0.9c0.4,0,0.6,0,0.8-0.1c0.2-0.1,0.4-0.1,0.5-0.3c0.1-0.1,0.2-0.3,0.3-0.6c0.1-0.3,0.1-0.7,0.1-1.1
				c0-0.5,0-0.9-0.1-1.1c-0.1-0.3-0.2-0.5-0.4-0.6c-0.2-0.1-0.3-0.2-0.6-0.3c-0.2,0-0.5-0.1-1-0.1H188.9z"/>
		</g>
	</g>
</g>
<g>
	<path fill="#282C35" d="M377.3,275.6l-61,35.2c-2.3,1.3-5.2,1.3-7.5,0l-61-35.2c-2.3-1.3-3.7-3.8-3.7-6.5v-70.4
		c0-2.7,1.4-5.1,3.7-6.5l61-35.2c2.3-1.3,5.2-1.3,7.5,0l61,35.2c2.3,1.3,3.7,3.8,3.7,6.5v70.4C381,271.8,379.6,274.2,377.3,275.6z"
		/>
	<path fill="#686868" d="M312.6,312.1c-1.4,0-2.7-0.4-3.9-1l-61-35.2c-2.4-1.4-3.9-4-3.9-6.7v-70.4c0-2.8,1.5-5.3,3.9-6.7l61-35.2
		c2.4-1.4,5.4-1.4,7.8,0l61,35.2c2.4,1.4,3.9,4,3.9,6.7v70.4c0,2.8-1.5,5.3-3.9,6.7l-61,35.2C315.3,311.7,313.9,312.1,312.6,312.1z
		 M312.6,156.3c-1.3,0-2.5,0.3-3.6,1l-61,35.2c-2.2,1.3-3.6,3.6-3.6,6.2v70.4c0,2.5,1.4,4.9,3.6,6.2l61,35.2c2.2,1.3,5,1.3,7.1,0
		l61-35.2c2.2-1.3,3.6-3.6,3.6-6.2v-70.4c0-2.5-1.4-4.9-3.6-6.2l-61-35.2C315,156.7,313.8,156.3,312.6,156.3z"/>
</g>
<path fill="#D3D3D3" d="M312.6,300.9c-1.2,0-2.4-0.3-3.5-0.9l-51.7-29.8c-2.1-1.2-3.5-3.5-3.5-6v-59.7c0-2.5,1.3-4.8,3.5-6
	l51.7-29.8c2.1-1.2,4.8-1.2,6.9,0l51.7,29.8c2.1,1.2,3.5,3.5,3.5,6v59.7c0,2.5-1.3,4.8-3.5,6L316,300
	C315,300.6,313.8,300.9,312.6,300.9z M312.6,168.9c-1,0-2,0.3-2.9,0.8L258,199.5c-1.8,1-2.9,2.9-2.9,4.9v59.7c0,2,1.1,3.9,2.9,4.9
	l51.7,29.8c1.7,1,4,1,5.7,0l51.7-29.8c1.8-1,2.9-2.9,2.9-4.9v-59.7c0-2-1.1-3.9-2.9-4.9l-51.7-29.8
	C314.6,169.1,313.6,168.9,312.6,168.9z"/>
<g>
	<g>
		<path fill="#282C35" d="M196.3,279.1l-49.2,28.4c-1.9,1.1-4.2,1.1-6,0l-49.2-28.4c-1.9-1.1-3-3.1-3-5.2v-56.7c0-2.1,1.1-4.1,3-5.2
			l49.2-28.4c1.9-1.1,4.2-1.1,6,0l49.2,28.4c1.9,1.1,3,3.1,3,5.2v56.7C199.3,276.1,198.1,278,196.3,279.1z"/>
		<path fill="#686868" d="M144.1,308.6c-1.1,0-2.2-0.3-3.2-0.8l-49.2-28.4c-2-1.1-3.2-3.2-3.2-5.5v-56.7c0-2.3,1.2-4.4,3.2-5.5
			l49.2-28.4c1.9-1.1,4.4-1.1,6.3,0l49.2,28.4c2,1.1,3.2,3.2,3.2,5.5v56.7c0,2.3-1.2,4.4-3.2,5.5l-49.2,28.4
			C146.3,308.3,145.2,308.6,144.1,308.6z M144.1,183.1c-1,0-2,0.3-2.9,0.8L92,212.2c-1.8,1-2.9,2.9-2.9,4.9v56.7
			c0,2,1.1,3.9,2.9,4.9l49.2,28.4c1.7,1,4,1,5.7,0l49.2-28.4c1.8-1,2.9-2.9,2.9-4.9v-56.7c0-2-1.1-3.9-2.9-4.9l-49.2-28.4
			C146,183.3,145.1,183.1,144.1,183.1z"/>
	</g>
	<g>
		<g>
			<polygon fill="#F7A166" points="126.6,255.2 112.7,242.2 129.5,226 130.4,226.9 114.5,242.2 127.4,254.2 			"/>
			<polygon fill="#F7A166" points="157.1,258.4 156.3,257.5 172.7,242.2 157.5,227.6 158.3,226.7 174.5,242.2 			"/>
			
				<rect x="141.8" y="218" transform="matrix(0.9365 0.3506 -0.3506 0.9365 93.4863 -34.636)" fill="#F7A166" width="1.2" height="45.8"/>
		</g>
		<path fill="#F7A166" d="M143.6,299.7c-1,0-2-0.3-2.9-0.8l-41.7-24.1c-1.8-1-2.9-2.9-2.9-5v-48.1c0-2,1.1-3.9,2.9-5l41.7-24.1
			c1.7-1,4-1,5.7,0l41.7,24.1c1.8,1,2.9,2.9,2.9,5v48.1c0,2-1.1,3.9-2.9,5l-41.7,24.1C145.6,299.4,144.6,299.7,143.6,299.7z
			 M143.6,193.2c-0.8,0-1.6,0.2-2.2,0.6l-41.7,24.1c-1.4,0.8-2.2,2.3-2.2,3.9v48.1c0,1.6,0.9,3.1,2.2,3.9l41.7,24.1
			c1.4,0.8,3.1,0.8,4.5,0l41.7-24.1c1.4-0.8,2.2-2.3,2.2-3.9v-48.1c0-1.6-0.9-3.1-2.2-3.9l-41.7-24.1
			C145.2,193.5,144.4,193.2,143.6,193.2z"/>
		<g>
			<path fill="#F7A166" d="M129,272.3h2.3c0.5,0,0.9,0,1.2,0.1c0.4,0.1,0.7,0.3,0.9,0.6s0.5,0.6,0.6,1c0.1,0.4,0.2,0.9,0.2,1.5
				c0,0.5-0.1,1-0.2,1.3c-0.2,0.5-0.4,0.8-0.7,1.1c-0.2,0.2-0.5,0.4-0.9,0.5c-0.3,0.1-0.7,0.1-1.1,0.1H129V272.3z M130.3,273.4v4.1
				h0.9c0.4,0,0.6,0,0.8-0.1c0.2-0.1,0.4-0.1,0.5-0.3c0.1-0.1,0.2-0.3,0.3-0.6c0.1-0.3,0.1-0.7,0.1-1.1c0-0.5,0-0.9-0.1-1.1
				s-0.2-0.5-0.4-0.6c-0.2-0.1-0.3-0.2-0.6-0.3c-0.2,0-0.5-0.1-1-0.1H130.3z"/>
			<path fill="#F7A166" d="M135.3,278.6v-6.3h4.6v1.1h-3.4v1.4h3.1v1.1h-3.1v1.7h3.5v1.1H135.3z"/>
			<path fill="#F7A166" d="M140.8,276.6l1.2-0.1c0.1,0.4,0.2,0.7,0.5,0.9c0.2,0.2,0.5,0.3,0.9,0.3c0.4,0,0.7-0.1,0.9-0.3
				c0.2-0.2,0.3-0.4,0.3-0.6c0-0.1,0-0.3-0.1-0.4c-0.1-0.1-0.2-0.2-0.5-0.3c-0.1-0.1-0.5-0.1-1-0.3c-0.7-0.2-1.2-0.4-1.4-0.6
				c-0.4-0.3-0.6-0.8-0.6-1.3c0-0.3,0.1-0.6,0.3-0.9c0.2-0.3,0.4-0.5,0.8-0.6c0.3-0.1,0.8-0.2,1.2-0.2c0.8,0,1.4,0.2,1.8,0.5
				c0.4,0.3,0.6,0.8,0.6,1.4l-1.3,0.1c-0.1-0.3-0.2-0.6-0.3-0.7c-0.2-0.1-0.4-0.2-0.8-0.2c-0.4,0-0.7,0.1-0.9,0.2
				c-0.1,0.1-0.2,0.2-0.2,0.4c0,0.1,0.1,0.3,0.2,0.4c0.2,0.1,0.5,0.3,1.2,0.4c0.6,0.1,1.1,0.3,1.4,0.4c0.3,0.2,0.5,0.4,0.7,0.6
				c0.2,0.3,0.2,0.6,0.2,1c0,0.4-0.1,0.7-0.3,1c-0.2,0.3-0.5,0.5-0.8,0.7c-0.4,0.2-0.8,0.2-1.4,0.2c-0.8,0-1.4-0.2-1.8-0.5
				C141.2,277.8,140.9,277.3,140.8,276.6z"/>
			<path fill="#F7A166" d="M147,278.6v-6.3h1.3v6.3H147z"/>
			<path fill="#F7A166" d="M152.3,276.3v-1.1h2.7v2.5c-0.3,0.3-0.6,0.5-1.1,0.7c-0.5,0.2-1,0.3-1.5,0.3c-0.7,0-1.2-0.1-1.7-0.4
				c-0.5-0.3-0.9-0.7-1.1-1.2c-0.2-0.5-0.4-1.1-0.4-1.7c0-0.7,0.1-1.2,0.4-1.7c0.3-0.5,0.7-0.9,1.2-1.2c0.4-0.2,0.9-0.3,1.5-0.3
				c0.8,0,1.4,0.2,1.8,0.5c0.4,0.3,0.7,0.8,0.8,1.3l-1.3,0.2c-0.1-0.3-0.3-0.5-0.5-0.7c-0.2-0.2-0.5-0.3-0.9-0.3
				c-0.6,0-1,0.2-1.3,0.5c-0.3,0.3-0.5,0.9-0.5,1.6c0,0.7,0.2,1.3,0.5,1.7c0.3,0.4,0.8,0.6,1.3,0.6c0.3,0,0.5-0.1,0.8-0.2
				c0.3-0.1,0.5-0.2,0.7-0.4v-0.8H152.3z"/>
			<path fill="#F7A166" d="M156.2,278.6v-6.3h1.2l2.6,4.2v-4.2h1.2v6.3h-1.3l-2.5-4.1v4.1H156.2z"/>
		</g>
	</g>
</g>
<g>
	<path fill="#686868" d="M556.7,379.9l-18.4-15.3l6.3-7.6l18.4,15.3L556.7,379.9z M539.2,364.6l17.4,14.5l5.5-6.7l-17.4-14.5
		L539.2,364.6z"/>
	<g>
		<circle fill="#282C35" cx="524.2" cy="345.7" r="30.7"/>
		<path fill="#686868" d="M524.2,376.8c-7.2,0-14.2-2.5-19.8-7.1c-13.2-10.9-15-30.5-4.1-43.7c5.9-7.1,14.6-11.2,23.9-11.2
			c7.2,0,14.2,2.5,19.8,7.1c13.2,10.9,15,30.5,4.1,43.7C542.2,372.7,533.4,376.8,524.2,376.8z M524.2,315.3c-9.1,0-17.6,4-23.4,11
			c-10.7,12.9-8.9,32.1,4,42.8c5.4,4.5,12.3,7,19.4,7c9.1,0,17.6-4,23.4-11c10.7-12.9,8.9-32.1-4-42.8
			C538.1,317.8,531.3,315.3,524.2,315.3z"/>
	</g>
	<path fill="#686868" d="M524.3,371.5c-6,0-11.9-2.1-16.5-6c-5.3-4.4-8.6-10.6-9.3-17.5c-0.6-6.9,1.4-13.6,5.9-19
		c4.9-6,12.2-9.4,20-9.4c6,0,11.9,2.1,16.5,6c5.3,4.4,8.6,10.6,9.3,17.5c0.6,6.9-1.4,13.6-5.9,18.9
		C539.3,368.1,532,371.5,524.3,371.5z M524.3,320.3c-7.6,0-14.7,3.3-19.5,9.1c-4.3,5.2-6.3,11.8-5.7,18.5c0.6,6.7,3.8,12.8,9,17.1
		c4.5,3.8,10.3,5.8,16.1,5.8c7.6,0,14.7-3.3,19.5-9.1c4.3-5.2,6.3-11.8,5.7-18.5c-0.6-6.7-3.8-12.8-9-17.1
		C535.9,322.4,530.2,320.3,524.3,320.3z"/>
	<path fill="#686868" d="M522.9,352.7C522.9,352.7,522.9,352.7,522.9,352.7c-6,0-11.9-2.1-16.5-6c-2.9-2.4-5.2-5.3-6.8-8.7l-0.1-0.1
		l0-0.1c1-3.2,2.6-6.1,4.7-8.7c4.9-6,12.2-9.4,20-9.4c6,0,11.9,2.1,16.5,6c2.9,2.4,5.2,5.3,6.8,8.7l0.1,0.1l0,0.1
		c-1,3.2-2.6,6.1-4.7,8.7C538,349.3,530.7,352.7,522.9,352.7z M500.2,337.8c1.6,3.3,3.8,6.1,6.6,8.4c4.5,3.8,10.3,5.8,16.1,5.8
		c7.6,0,14.7-3.3,19.5-9.1c2.1-2.5,3.6-5.3,4.6-8.4c-1.6-3.3-3.8-6.1-6.6-8.4c-4.5-3.8-10.3-5.8-16.1-5.8c-7.6,0-14.7,3.3-19.5,9.1
		C502.7,332,501.2,334.8,500.2,337.8z"/>
</g>
<g>
	<g>
		
			<rect x="48.7" y="200.3" transform="matrix(0.9751 -0.2217 0.2217 0.9751 -49.5579 17.6219)" fill="#282C35" width="9.9" height="58.3"/>
		<path fill="#686868" d="M55.1,259.4l-0.1-0.3l-13-57.2l10.3-2.3l13.1,57.5L55.1,259.4z M42.8,202.4l12.8,56.3l9.1-2.1l-12.8-56.3
			L42.8,202.4z"/>
	</g>
	<g>
		<circle fill="#282C35" cx="41.4" cy="175.4" r="32.6"/>
		<path fill="#686868" d="M41.4,208.4c-15.4,0-28.6-10.5-32-25.6c-4-17.7,7.1-35.3,24.8-39.4c2.4-0.5,4.9-0.8,7.3-0.8
			c15.4,0,28.6,10.5,32,25.6c4,17.7-7.1,35.3-24.8,39.4C46.3,208.1,43.8,208.4,41.4,208.4z M41.5,143.2c-2.4,0-4.8,0.3-7.2,0.8
			c-8.4,1.9-15.6,7-20.2,14.3c-4.6,7.3-6.1,15.9-4.2,24.4c3.4,14.8,16.3,25.1,31.4,25.1c2.4,0,4.8-0.3,7.2-0.8
			c17.4-3.9,28.3-21.3,24.3-38.6C69.5,153.5,56.6,143.2,41.5,143.2z"/>
	</g>
	<path fill="#686868" d="M41.4,204.5c-13.5,0-25.1-9.2-28.1-22.5c-3.5-15.5,6.2-31,21.7-34.5c2.1-0.5,4.3-0.7,6.4-0.7
		c13.5,0,25.1,9.2,28.1,22.5c3.5,15.5-6.2,31-21.7,34.5C45.8,204.3,43.6,204.5,41.4,204.5z M41.5,147.4c-2.1,0-4.2,0.2-6.3,0.7
		c-15.2,3.5-24.7,18.6-21.3,33.8c2.9,12.9,14.3,22,27.5,22c2.1,0,4.2-0.2,6.3-0.7c15.2-3.5,24.7-18.6,21.3-33.8
		C66.1,156.4,54.8,147.4,41.5,147.4z"/>
	
		<rect x="43.5" y="155.5" transform="matrix(0.8466 0.5322 -0.5322 0.8466 99.0696 3.2871)" fill="#686868" width="0.6" height="36"/>
	
		<rect x="41.8" y="152.5" transform="matrix(0.8466 0.5322 -0.5322 0.8466 94.5267 2.9418)" fill="#686868" width="0.6" height="25.9"/>
	
		<rect x="30.9" y="231.4" transform="matrix(0.2217 0.9751 -0.9751 0.2217 266.8539 129.0171)" fill="#686868" width="43.5" height="0.6"/>
</g>
<g>
	<path fill="#72CEED" d="M280.2,221.8H265l1.5,2.4h13.6c1.7,0,3.2,0.7,4.4,1.9c1.2,1.2,1.8,2.8,1.8,4.5c0,1.6-0.6,3.1-1.8,4.3
		c-1.1,1.1-2.7,1.8-4.4,2h-1.7l-4.6,0l1.3,2.3h2l0.1,0.2h0l5.9,10l0,0l0,0c0.3,0.3,0.6,0.4,1,0.4c0.7,0,1.3-0.6,1.3-1.3
		c0-0.3-0.1-0.4-0.2-0.5c0-0.1-0.1-0.1-0.2-0.3l-4.9-8.3c2.3,0,4.4-0.9,6-2.6c1.6-1.7,2.5-3.9,2.5-6.2
		C288.9,225.8,285,221.8,280.2,221.8z"/>
	<path fill="#72CEED" d="M300.6,222.1c-0.2-0.4-0.6-0.6-1.1-0.6c-0.4,0-0.9,0.2-1.1,0.6l-0.1,0.2c-0.2,0.3-0.1,0.7,0.1,1l2.1,3.6
		l7.9,13.8h-0.3l0,0h-10.2l1.5,2.6h10.6l3.2,5.5l0,0c0.2,0.3,0.5,0.8,1.2,0.8c0.7,0,1.3-0.6,1.3-1.3c0-0.2-0.1-0.5-0.2-0.7
		L300.6,222.1z"/>
	<path fill="#72CEED" d="M362.8,247.2h-13.6v-24.4c0-0.7-0.6-1.3-1.3-1.3s-1.3,0.6-1.3,1.3v25.7c0,0.7,0.6,1.3,1.3,1.3h16.4
		L362.8,247.2z"/>
	<path fill="#72CEED" d="M336,222.7c0-0.7-0.6-1.3-1.3-1.3c0,0-0.1,0-0.1,0c0,0-0.1,0-0.1,0c-0.5,0-0.9,0.2-1.1,0.6L325,237
		l-8.5-14.9c-0.2-0.4-0.6-0.6-1.1-0.6c-0.4,0-0.9,0.2-1.1,0.6l-0.1,0.2c-0.2,0.3-0.1,0.7,0.1,1l9.4,16.6l0,0
		c0.2,0.3,0.5,0.8,1.2,0.8c0,0,0,0,0,0c0,0,0,0,0,0c0.7,0,1-0.5,1.2-0.8l7.2-12.7v21.2c0,0.7,0.6,1.3,1.3,1.3c0.7,0,1.3-0.6,1.3-1.3
		L336,222.7C336,222.7,336,222.7,336,222.7L336,222.7L336,222.7z"/>
</g>
<g>
	<g>
		<path fill="#282C35" d="M564.4,157L546,121.1c2.5-4.4,3.1-10.3,0.4-15.2c-2.7-5-8-7.7-13.8-7.6l6.3,11.7l-4.4,5.9l-7.7,0.6
			l-6.3-11.7c-3.3,4.8-3.9,10.7-1.2,15.7c2.7,5,8,7.7,13,8l20,35c-2.7,4.5-3.6,11.1-0.9,16c4,7.4,13.3,10.2,20.7,6.2
			s10.2-13.3,6.2-20.7C575.6,160.1,569.6,157.2,564.4,157z"/>
		<path fill="#686868" d="M564.8,187.9C564.8,187.9,564.8,187.9,564.8,187.9c-5.7,0-11-3.1-13.7-8.2c-2.8-5.2-1.6-12,0.8-16.1
			l-19.8-34.7c-5.6-0.4-10.6-3.5-13.1-8.2c-2.7-5-2.2-11,1.2-16l0.3-0.4l6.5,12l7.3-0.6l4.2-5.6l-6.5-12l0.5,0
			c6.1-0.1,11.4,2.8,14.1,7.7c2.5,4.6,2.4,10.5-0.3,15.4l18.2,35.6c4.8,0.3,11.1,2.9,14,8.1c2,3.7,2.4,7.9,1.2,11.9
			c-1.2,4-3.9,7.3-7.5,9.3C570,187.2,567.4,187.9,564.8,187.9z M520.5,105.5c-3.1,4.8-3.4,10.3-0.9,14.9c2.5,4.5,7.3,7.5,12.7,7.9
			l0.2,0l0.1,0.1l20.1,35.1l-0.1,0.2c-2.4,4-3.7,10.6-0.9,15.7c2.6,4.8,7.7,7.8,13.2,7.8h0c2.5,0,4.9-0.6,7.1-1.8
			c3.5-1.9,6.1-5.1,7.2-8.9c1.1-3.8,0.7-7.9-1.2-11.4c-2.8-5.1-9-7.6-13.6-7.8l-0.2,0l-0.1-0.2l-18.4-36l0.1-0.1
			c2.7-4.7,2.8-10.4,0.4-14.9c-2.5-4.6-7.4-7.4-13-7.4l6.2,11.4l-4.6,6.2l-8,0.7L520.5,105.5z"/>
	</g>
	<path fill="#686868" d="M568.1,178.9l-7.7-0.2l-3.7-6.8l4.1-6.6l7.7,0.2l3.7,6.8L568.1,178.9z M560.8,178.1l7,0.2l3.7-6l-3.3-6.2
		l-7-0.2l-3.7,6L560.8,178.1z"/>
</g>
</svg>
