<svg width="179" height="103" viewBox="0 0 179 103" xmlns="http://www.w3.org/2000/svg"><g fill-rule="nonzero" fill="none"><path d="M.5 96.5V.5h166v96H.5z" stroke="#FFF" fill="#526881"/><path d="M.5 96.5h37v-89H.5v89zM.5 7.5h166v-7H.5v7z" stroke="#FFF"/><path d="M14.903 5.25c-.692 0-1.295-.539-1.295-1.25 0-.672.563-1.25 1.295-1.25.677 0 1.19.529 1.186 1.207.13.749-.398 1.293-1.186 1.293zM10.903 5.25c-.692 0-1.295-.539-1.295-1.25 0-.672.563-1.25 1.295-1.25.677 0 1.19.529 1.186 1.207.13.749-.398 1.293-1.186 1.293zM6.903 5.25c-.692 0-1.295-.539-1.295-1.25 0-.672.563-1.25 1.295-1.25.677 0 1.19.529 1.186 1.207.13.749-.398 1.293-1.186 1.293z" stroke="#FFF" stroke-width=".5"/><path stroke="#FFF" d="M122 96V63h32v33M85 96V63h32v33M48 96V63h32v33M122 18h32v40h-32zM85 18h32v40H85zM48 18h32v40H48z"/><path d="M132.5 102.5v-65h46v65h-46z" stroke="#FFF" fill="#526881"/><path fill="#FFF" d="M138 86h31v1h-31zM138 80h28.448v1H138zM138 74h25.835v1H138zM138 68h29.319v1H138zM138 52h28.448v1H138zM138 46h34.834v1H138z"/></g></svg>