<svg width="180" height="103" viewBox="0 0 180 103" xmlns="http://www.w3.org/2000/svg"><g fill-rule="nonzero" fill="none"><path d="M9.5 96.5V.5h156v96H9.5z" stroke="#FFF" fill="#526881"/><path d="M9.5 96.5h37v-89h-37v89zM9.5 7.5h156v-7H9.5v7z" stroke="#FFF"/><path d="M23.903 5.25c-.692 0-1.295-.539-1.295-1.25 0-.672.563-1.25 1.295-1.25.677 0 1.19.529 1.186 1.207.13.749-.398 1.293-1.186 1.293zM19.903 5.25c-.692 0-1.295-.539-1.295-1.25 0-.672.563-1.25 1.295-1.25.677 0 1.19.529 1.186 1.207.13.749-.398 1.293-1.186 1.293zM15.903 5.25c-.692 0-1.295-.539-1.295-1.25 0-.672.563-1.25 1.295-1.25.677 0 1.19.529 1.186 1.207.13.749-.398 1.293-1.186 1.293z" stroke="#FFF" stroke-width=".5"/><g fill="#526881" stroke="#FFF" stroke-width="1.125"><path d="M152 32c-14.91 0-27 12.09-27 27s12.09 27 27 27 27-12.09 27-27-12.09-27-27-27z"/><path d="M146.375 47.75v22.5L162.125 59z"/></g><path d="M4.5 98.5v-75h56v75h-56z" stroke="#FFF" fill="#526881"/><path fill="#FFF" d="M10 79h38v1H10zM10 85h35.074v1H10zM10 73h35.074v1H10zM10 67h31.853v1H10zM10 61h39.846v1H10zM10 55h35.074v1H10zM10 49h35.074v1H10zM10 43h42.947v1H10zM10 37h31.853v1H10zM10 31h39.846v1H10z"/><g><path d="M.5 102.5v-75h56v75H.5z" stroke="#FFF" fill="#526881"/><path fill="#FFF" d="M6 83h38v1H6zM6 89h35.074v1H6zM6 77h35.074v1H6zM6 71h31.853v1H6zM6 65h39.846v1H6zM6 59h35.074v1H6zM6 53h35.074v1H6zM6 47h42.947v1H6zM6 41h31.853v1H6zM6 35h39.846v1H6z"/></g></g></svg>