<svg width="53" height="60" viewBox="0 0 53 60" xmlns="http://www.w3.org/2000/svg"><g fill-rule="nonzero" fill="none"><path d="M26.457 59.712c-.576 0-1.153-.144-1.633-.432L1.873 46.032C.864 45.456.24 44.352.24 43.2V16.752c0-1.152.624-2.256 1.633-2.832L24.824.72c1.009-.576 2.305-.576 3.265 0l22.952 13.2c1.008.576 1.632 1.68 1.632 2.832V43.2c0 1.152-.624 2.256-1.632 2.832l-22.904 13.2c-.528.336-1.104.48-1.68.48z" fill="#26D3FF"/><path d="M26.457 1.248c-.384 0-.817.096-1.153.288L2.353 14.784c-.72.432-1.153 1.2-1.153 2.016v26.4c0 .816.433 1.584 1.153 2.016l22.903 13.2c.72.384 1.633.384 2.305 0l22.904-13.2c.72-.432 1.152-1.2 1.152-2.016V16.752c0-.816-.432-1.584-1.152-2.016l-22.856-13.2c-.336-.192-.768-.288-1.152-.288z" fill="#26D3FF"/><g fill="#FFF"><path d="M18.631 21.18h9.603v1.5h-9.603zM18.631 25.54h8.163v1.5h-8.163zM18.631 33.26h12.964v1.5H18.631zM18.631 29.26h8.964v1.5h-8.964zM18.631 36.98h12.964v1.5H18.631z"/><path stroke="#FFF" stroke-width=".25" d="M33.086 28.132l-2.547-2.565.759-.836 1.788 1.84 5.473-5.631.758.78z"/><path d="M33.276 30.58c-2.497 0-4.562-2.064-4.562-4.56 0-2.496 2.065-4.56 4.562-4.56 2.497 0 4.561 2.064 4.561 4.56 0 2.496-2.064 4.56-4.561 4.56zm0-8.16c-1.969 0-3.601 1.632-3.601 3.6 0 1.968 1.632 3.6 3.6 3.6 1.97 0 3.602-1.584 3.602-3.6s-1.633-3.6-3.601-3.6z" stroke="#FFF" stroke-width=".25"/><path stroke="#FFF" d="M34.956 42.3H15.75V17.82h19.206v1.92h-.96v-.96H16.71v22.56h17.286v-9.08h.96z"/></g></g></svg>