<?xml version="1.0" encoding="utf-8"?>
<!-- Generator: Adobe Illustrator 18.1.1, SVG Export Plug-In . SVG Version: 6.00 Build 0)  -->
<svg version="1.1" id="Layer_1" xmlns="http://www.w3.org/2000/svg" xmlns:xlink="http://www.w3.org/1999/xlink" x="0px" y="0px"
	 width="120px" height="135px" viewBox="45 -52 120 135" enable-background="new 45 -52 120 135" xml:space="preserve">
<path fill="#C282F4" stroke="#C282F4" stroke-width="2" stroke-miterlimit="10" d="M104.1,76.4c-1.2,0-2.4-0.3-3.4-0.9L52.9,47.9
	c-2.1-1.2-3.4-3.5-3.4-5.9v-55.1c0-2.4,1.3-4.7,3.4-5.9l47.8-27.5c2.1-1.2,4.8-1.2,6.8,0L155.3-19c2.1,1.2,3.4,3.5,3.4,5.9V42
	c0,2.4-1.3,4.7-3.4,5.9l-47.7,27.5C106.5,76.1,105.3,76.4,104.1,76.4z M104.1-45.4c-0.8,0-1.7,0.2-2.4,0.6L53.9-17.2
	c-1.5,0.9-2.4,2.5-2.4,4.2v55c0,1.7,0.9,3.3,2.4,4.2l47.7,27.5c1.5,0.8,3.4,0.8,4.8,0l47.7-27.5c1.5-0.9,2.4-2.5,2.4-4.2v-55.1
	c0-1.7-0.9-3.3-2.4-4.2l-47.6-27.5C105.8-45.2,104.9-45.4,104.1-45.4z"/>
<g>
	<rect x="90" y="-7" fill="#C282F4" width="20" height="2"/>
	<rect x="90" fill="#C282F4" width="17" height="2"/>
	<rect x="90" y="7" fill="#C282F4" width="20" height="2"/>
	<rect x="90" y="14" fill="#C282F4" width="27" height="2"/>
	<rect x="90" y="21" fill="#C282F4" width="27" height="2"/>
	<rect x="90" y="28" fill="#C282F4" width="27" height="2"/>
	<polygon fill="#C282F4" points="119.5,5.4 114.8,0.8 116.2,-0.7 119.5,2.6 129.6,-7.5 131,-6.1 	"/>
	<path fill="#C282F4" d="M120.5,10.5c-5.2,0-9.5-4.3-9.5-9.5s4.3-9.5,9.5-9.5S130-4.2,130,1S125.7,10.5,120.5,10.5z M120.5-6.5
		c-4.1,0-7.5,3.4-7.5,7.5s3.4,7.5,7.5,7.5S128,5.2,128,1S124.6-6.5,120.5-6.5z"/>
	<polygon fill="#C282F4" points="124,37 84,37 84,-14 124,-14 124,-10 122,-10 122,-12 86,-12 86,35 122,35 122,14 124,14 	"/>
</g>
<g>
	<path fill="#C282F4" d="M77.7,44.8h2.6c0.6,0,1,0,1.4,0.1c0.4,0.1,0.8,0.3,1.1,0.7c0.3,0.4,0.5,0.7,0.7,1.2s0.2,1,0.2,1.7
		c0,0.6-0.1,1.1-0.2,1.5c-0.2,0.5-0.4,0.9-0.8,1.3c-0.3,0.2-0.6,0.4-1,0.6c-0.3,0.1-0.7,0.2-1.3,0.2h-2.7V44.8z M79.1,46v4.7h1.1
		c0.4,0,0.7,0,0.9-0.1s0.4-0.2,0.6-0.3c0.2-0.1,0.3-0.4,0.4-0.7c0.1-0.3,0.1-0.8,0.1-1.3s0-1-0.1-1.3s-0.2-0.5-0.4-0.7
		S81.3,46,81,46c-0.2,0-0.6-0.1-1.2-0.1h-0.7V46z"/>
	<path fill="#C282F4" d="M84.6,48.4c0-0.7,0.1-1.3,0.3-1.8c0.2-0.4,0.4-0.7,0.7-1s0.6-0.5,0.9-0.6c0.4-0.2,1-0.3,1.5-0.3
		c1.1,0,1.9,0.3,2.5,1s1,1.6,1,2.7c0,1.2-0.3,2.1-0.9,2.7c-0.6,0.7-1.5,1-2.5,1c-1.1,0-1.9-0.3-2.5-1C84.9,50.5,84.6,49.6,84.6,48.4
		z M86.1,48.4c0,0.8,0.2,1.4,0.6,1.8c0.4,0.4,0.8,0.6,1.4,0.6s1-0.2,1.4-0.6s0.6-1,0.6-1.9c0-0.8-0.2-1.4-0.5-1.8
		c-0.4-0.4-0.8-0.6-1.4-0.6s-1.1,0.2-1.4,0.6C86.3,46.9,86.1,47.6,86.1,48.4z"/>
	<path fill="#C282F4" d="M97.3,49.3l1.4,0.4c-0.2,0.8-0.6,1.4-1.1,1.7c-0.5,0.4-1.1,0.6-1.9,0.6c-1,0-1.7-0.3-2.3-1
		s-0.9-1.5-0.9-2.7s0.3-2.1,0.9-2.8c0.6-0.7,1.4-1,2.4-1c0.9,0,1.6,0.3,2.1,0.8c0.3,0.3,0.6,0.7,0.7,1.3l-1.4,0.3
		c-0.1-0.4-0.3-0.7-0.5-0.9c-0.3-0.2-0.6-0.3-1-0.3c-0.5,0-1,0.2-1.3,0.6s-0.5,1-0.5,1.9s0.2,1.5,0.5,1.9s0.7,0.6,1.3,0.6
		c0.4,0,0.7-0.1,1-0.4C97,50,97.1,49.9,97.3,49.3z"/>
	<path fill="#C282F4" d="M99.9,44.8h1.4v3.9c0,0.6,0,1,0.1,1.2c0.1,0.3,0.2,0.5,0.4,0.7s0.6,0.3,1,0.3s0.7-0.1,0.9-0.3
		c0.2-0.2,0.3-0.4,0.4-0.6s0.1-0.6,0.1-1.2v-4h1.4v3.8c0,0.9,0,1.5-0.1,1.8s-0.2,0.7-0.4,0.9c-0.2,0.2-0.5,0.4-0.8,0.6
		c-0.4,0.1-0.8,0.2-1.4,0.2c-0.7,0-1.2-0.1-1.6-0.2c-0.4-0.2-0.6-0.4-0.8-0.6c-0.2-0.3-0.3-0.5-0.4-0.8c-0.1-0.4-0.1-1-0.1-1.8v-3.9
		H99.9z"/>
	<path fill="#C282F4" d="M107.1,52v-7.2h2.2l1.3,4.9l1.3-4.9h2.1V52h-1.3v-5.6l-1.4,5.6h-1.4l-1.4-5.6V52H107.1z"/>
	<path fill="#C282F4" d="M115.4,52v-7.2h5.3V46h-3.9v1.6h3.6v1.2h-3.6v1.9h4v1.2h-5.4V52z"/>
	<path fill="#C282F4" d="M122.1,52v-7.2h1.4l2.9,4.8v-4.8h1.3V52h-1.5l-2.9-4.7V52H122.1z"/>
	<path fill="#C282F4" d="M131,52v-6h-2.1v-1.2h5.7V46h-2.1v5.9L131,52L131,52z"/>
</g>
</svg>
