<?xml version="1.0" encoding="utf-8"?>
<!-- Generator: Adobe Illustrator 19.1.0, SVG Export Plug-In . SVG Version: 6.00 Build 0)  -->
<svg version="1.1" id="Layer_1" xmlns="http://www.w3.org/2000/svg" xmlns:xlink="http://www.w3.org/1999/xlink" x="0px" y="0px"
	 width="120px" height="130px" viewBox="-249 331.5 120 130" style="enable-background:new -249 331.5 120 130;"
	 xml:space="preserve">
<style type="text/css">
	.st0{fill:#F6F6F6;stroke:#C282F4;stroke-width:2;stroke-miterlimit:10;}
	.st1{fill:none;stroke:#C282F4;stroke-width:2;stroke-miterlimit:10;}
	.st2{fill:#C282F4;}
</style>
<path class="st0" d="M-138.3,429.1l-47.8,27.5c-1.8,1-4,1-5.8,0l-47.7-27.5c-1.8-1-2.9-3-2.9-5.1V369c0-2.1,1.1-4,2.9-5.1l47.7-27.5
	c1.8-1,4-1,5.8,0l47.7,27.5c1.8,1,2.9,3,2.9,5.1V424C-135.4,426.1-136.5,428-138.3,429.1z"/>
<g>
	<line class="st1" x1="-203.1" y1="376" x2="-183.1" y2="376"/>
	<line class="st1" x1="-203.1" y1="383" x2="-186.1" y2="383"/>
	<line class="st1" x1="-203.1" y1="390" x2="-183.1" y2="390"/>
	<line class="st1" x1="-203.1" y1="397" x2="-176.1" y2="397"/>
	<line class="st1" x1="-203.1" y1="404" x2="-176.1" y2="404"/>
	<line class="st1" x1="-203.1" y1="411" x2="-176.1" y2="411"/>
	<polyline class="st1" points="-177.6,382 -173.6,386 -162.8,375.2 	"/>
	<circle class="st1" cx="-172.6" cy="383" r="8.5"/>
	<polyline class="st1" points="-170.1,396 -170.1,418 -208.1,418 -208.1,369 -170.1,369 -170.1,372 	"/>
</g>
<g>
	<path class="st2" d="M-215.4,426.8h2.6c0.6,0,1,0,1.4,0.1s0.8,0.3,1.1,0.7s0.5,0.7,0.7,1.2s0.2,1,0.2,1.7c0,0.6-0.1,1.1-0.2,1.5
		c-0.2,0.5-0.4,0.9-0.8,1.3c-0.3,0.2-0.6,0.4-1,0.6c-0.3,0.1-0.7,0.2-1.3,0.2h-2.7V426.8L-215.4,426.8z M-214,428v4.7h1.1
		c0.4,0,0.7,0,0.9-0.1s0.4-0.2,0.6-0.3c0.2-0.1,0.3-0.4,0.4-0.7c0.1-0.3,0.1-0.8,0.1-1.3s0-1-0.1-1.3c-0.1-0.3-0.2-0.5-0.4-0.7
		c-0.2-0.2-0.4-0.3-0.7-0.3c-0.2,0-0.6-0.1-1.2-0.1L-214,428L-214,428z"/>
	<path class="st2" d="M-208.5,430.5c0-0.7,0.1-1.3,0.3-1.8c0.2-0.4,0.4-0.7,0.7-1c0.3-0.3,0.6-0.5,0.9-0.6c0.4-0.2,1-0.3,1.5-0.3
		c1.1,0,1.9,0.3,2.5,1s1,1.6,1,2.7c0,1.2-0.3,2.1-0.9,2.7c-0.6,0.7-1.5,1-2.5,1c-1.1,0-1.9-0.3-2.5-1
		C-208.2,432.5-208.5,431.6-208.5,430.5z M-207,430.5c0,0.8,0.2,1.4,0.6,1.8c0.4,0.4,0.8,0.6,1.4,0.6s1-0.2,1.4-0.6
		c0.4-0.4,0.6-1,0.6-1.9c0-0.8-0.2-1.4-0.5-1.8c-0.4-0.4-0.8-0.6-1.4-0.6s-1.1,0.2-1.4,0.6C-206.8,429-207,429.6-207,430.5z"/>
	<path class="st2" d="M-195.8,431.4l1.4,0.4c-0.2,0.8-0.6,1.4-1.1,1.7c-0.5,0.4-1.1,0.6-1.9,0.6c-1,0-1.7-0.3-2.3-1
		c-0.6-0.7-0.9-1.5-0.9-2.7s0.3-2.1,0.9-2.8c0.6-0.7,1.4-1,2.4-1c0.9,0,1.6,0.3,2.1,0.8c0.3,0.3,0.6,0.7,0.7,1.3l-1.4,0.3
		c-0.1-0.4-0.3-0.7-0.5-0.9c-0.3-0.2-0.6-0.3-1-0.3c-0.5,0-1,0.2-1.3,0.6s-0.5,1-0.5,1.9c0,0.9,0.2,1.5,0.5,1.9
		c0.3,0.4,0.7,0.6,1.3,0.6c0.4,0,0.7-0.1,1-0.4S-196,432-195.8,431.4z"/>
	<path class="st2" d="M-193.2,426.8h1.4v3.9c0,0.6,0,1,0.1,1.2c0.1,0.3,0.2,0.5,0.4,0.7c0.2,0.2,0.6,0.3,1,0.3s0.7-0.1,0.9-0.3
		c0.2-0.2,0.3-0.4,0.4-0.6c0.1-0.2,0.1-0.6,0.1-1.2v-4h1.4v3.8c0,0.9,0,1.5-0.1,1.8s-0.2,0.7-0.4,0.9c-0.2,0.2-0.5,0.4-0.8,0.6
		c-0.4,0.1-0.8,0.2-1.4,0.2c-0.7,0-1.2-0.1-1.6-0.2c-0.4-0.2-0.6-0.4-0.8-0.6c-0.2-0.3-0.3-0.5-0.4-0.8c-0.1-0.4-0.1-1-0.1-1.8v-3.9
		H-193.2z"/>
	<path class="st2" d="M-186,434v-7.2h2.2l1.3,4.9l1.3-4.9h2.2v7.2h-1.3v-5.6l-1.4,5.6h-1.4l-1.4-5.6v5.6H-186z"/>
	<path class="st2" d="M-177.7,434v-7.2h5.3v1.2h-3.9v1.6h3.6v1.2h-3.6v1.9h4v1.2L-177.7,434L-177.7,434z"/>
	<path class="st2" d="M-171,434v-7.2h1.4l2.9,4.8v-4.8h1.3v7.2h-1.5l-2.9-4.7v4.7H-171z"/>
	<path class="st2" d="M-162.1,434v-6h-2.1v-1.2h5.7v1.2h-2.1v5.9L-162.1,434L-162.1,434z"/>
</g>
</svg>

