<?xml version="1.0" encoding="utf-8"?>
<!-- Generator: Adobe Illustrator 18.1.1, SVG Export Plug-In . SVG Version: 6.00 Build 0)  -->
<svg version="1.1" id="Layer_1" xmlns="http://www.w3.org/2000/svg" xmlns:xlink="http://www.w3.org/1999/xlink" x="0px" y="0px"
	 width="1089px" height="630px" viewBox="65 -35 1089 630" enable-background="new 65 -35 1089 630" xml:space="preserve">
<rect x="52.3" y="-47.4" fill="#282C35" width="1114.5" height="659.9"/>
<g>
	<g>
		<polygon fill="#282C35" stroke="#686868" stroke-miterlimit="10" points="704.3,660.2 552.5,660.2 552.5,17.8 704.3,-11.9 		"/>
		<g>
			<line fill="none" stroke="#686868" stroke-miterlimit="10" x1="552" y1="34.5" x2="705" y2="34.5"/>
			<line fill="none" stroke="#686868" stroke-miterlimit="10" x1="552" y1="43.5" x2="705" y2="43.5"/>
			<line fill="none" stroke="#686868" stroke-miterlimit="10" x1="552" y1="53.5" x2="705" y2="53.5"/>
			<line fill="none" stroke="#686868" stroke-miterlimit="10" x1="552" y1="62.5" x2="705" y2="62.5"/>
			<line fill="none" stroke="#686868" stroke-miterlimit="10" x1="552" y1="71.5" x2="705" y2="71.5"/>
			<line fill="none" stroke="#686868" stroke-miterlimit="10" x1="552" y1="82.5" x2="705" y2="82.5"/>
			<line fill="none" stroke="#686868" stroke-miterlimit="10" x1="552" y1="91.5" x2="705" y2="91.5"/>
		</g>
		<g>
			<line fill="none" stroke="#686868" stroke-miterlimit="10" x1="552" y1="101.5" x2="705" y2="101.5"/>
			<line fill="none" stroke="#686868" stroke-miterlimit="10" x1="552" y1="109.5" x2="705" y2="109.5"/>
			<line fill="none" stroke="#686868" stroke-miterlimit="10" x1="552" y1="119.5" x2="705" y2="119.5"/>
			<line fill="none" stroke="#686868" stroke-miterlimit="10" x1="552" y1="129.5" x2="705" y2="129.5"/>
			<line fill="none" stroke="#686868" stroke-miterlimit="10" x1="552" y1="137.5" x2="705" y2="137.5"/>
			<line fill="none" stroke="#686868" stroke-miterlimit="10" x1="552" y1="147.5" x2="705" y2="147.5"/>
			<line fill="none" stroke="#686868" stroke-miterlimit="10" x1="552" y1="157.5" x2="705" y2="157.5"/>
		</g>
		<g>
			<line fill="none" stroke="#686868" stroke-miterlimit="10" x1="552" y1="166.5" x2="705" y2="166.5"/>
			<line fill="none" stroke="#686868" stroke-miterlimit="10" x1="552" y1="176.5" x2="705" y2="176.5"/>
			<line fill="none" stroke="#686868" stroke-miterlimit="10" x1="552" y1="186.5" x2="705" y2="186.5"/>
			<line fill="none" stroke="#686868" stroke-miterlimit="10" x1="552" y1="194.5" x2="705" y2="194.5"/>
			<line fill="none" stroke="#686868" stroke-miterlimit="10" x1="552" y1="204.5" x2="705" y2="204.5"/>
			<line fill="none" stroke="#686868" stroke-miterlimit="10" x1="552" y1="213.5" x2="705" y2="213.5"/>
			<line fill="none" stroke="#686868" stroke-miterlimit="10" x1="552" y1="222.5" x2="705" y2="222.5"/>
		</g>
		<g>
			<line fill="none" stroke="#686868" stroke-miterlimit="10" x1="552" y1="232.5" x2="705" y2="232.5"/>
			<line fill="none" stroke="#686868" stroke-miterlimit="10" x1="552" y1="242.5" x2="705" y2="242.5"/>
			<line fill="none" stroke="#686868" stroke-miterlimit="10" x1="552" y1="251.5" x2="705" y2="251.5"/>
			<line fill="none" stroke="#686868" stroke-miterlimit="10" x1="552" y1="261.5" x2="705" y2="261.5"/>
			<line fill="none" stroke="#686868" stroke-miterlimit="10" x1="552" y1="270.5" x2="705" y2="270.5"/>
			<line fill="none" stroke="#686868" stroke-miterlimit="10" x1="552" y1="280.5" x2="705" y2="280.5"/>
			<line fill="none" stroke="#686868" stroke-miterlimit="10" x1="552" y1="288.5" x2="705" y2="288.5"/>
		</g>
		<g>
			<line fill="none" stroke="#686868" stroke-miterlimit="10" x1="552" y1="298.5" x2="705" y2="298.5"/>
			<line fill="none" stroke="#686868" stroke-miterlimit="10" x1="552" y1="308.5" x2="705" y2="308.5"/>
			<line fill="none" stroke="#686868" stroke-miterlimit="10" x1="552" y1="317.5" x2="705" y2="317.5"/>
			<line fill="none" stroke="#686868" stroke-miterlimit="10" x1="552" y1="327.5" x2="705" y2="327.5"/>
			<line fill="none" stroke="#686868" stroke-miterlimit="10" x1="552" y1="337.5" x2="705" y2="337.5"/>
			<line fill="none" stroke="#686868" stroke-miterlimit="10" x1="552" y1="345.5" x2="705" y2="345.5"/>
			<line fill="none" stroke="#686868" stroke-miterlimit="10" x1="552" y1="355.5" x2="705" y2="355.5"/>
		</g>
		<g>
			<line fill="none" stroke="#686868" stroke-miterlimit="10" x1="552" y1="365.5" x2="705" y2="365.5"/>
			<line fill="none" stroke="#686868" stroke-miterlimit="10" x1="552" y1="373.5" x2="705" y2="373.5"/>
			<line fill="none" stroke="#686868" stroke-miterlimit="10" x1="552" y1="383.5" x2="705" y2="383.5"/>
			<line fill="none" stroke="#686868" stroke-miterlimit="10" x1="552" y1="392.5" x2="705" y2="392.5"/>
			<line fill="none" stroke="#686868" stroke-miterlimit="10" x1="552" y1="402.5" x2="705" y2="402.5"/>
			<line fill="none" stroke="#686868" stroke-miterlimit="10" x1="552" y1="412.5" x2="705" y2="412.5"/>
			<line fill="none" stroke="#686868" stroke-miterlimit="10" x1="552" y1="421.5" x2="705" y2="421.5"/>
		</g>
		<g>
			<line fill="none" stroke="#686868" stroke-miterlimit="10" x1="552" y1="431.5" x2="705" y2="431.5"/>
			<line fill="none" stroke="#686868" stroke-miterlimit="10" x1="552" y1="440.5" x2="705" y2="440.5"/>
			<line fill="none" stroke="#686868" stroke-miterlimit="10" x1="552" y1="449.5" x2="705" y2="449.5"/>
			<line fill="none" stroke="#686868" stroke-miterlimit="10" x1="552" y1="459.5" x2="705" y2="459.5"/>
			<line fill="none" stroke="#686868" stroke-miterlimit="10" x1="552" y1="467.5" x2="705" y2="467.5"/>
			<line fill="none" stroke="#686868" stroke-miterlimit="10" x1="552" y1="477.5" x2="705" y2="477.5"/>
			<line fill="none" stroke="#686868" stroke-miterlimit="10" x1="552" y1="487.5" x2="705" y2="487.5"/>
		</g>
		<g>
			<line fill="none" stroke="#686868" stroke-miterlimit="10" x1="552" y1="496.5" x2="705" y2="496.5"/>
			<line fill="none" stroke="#686868" stroke-miterlimit="10" x1="552" y1="506.5" x2="705" y2="506.5"/>
			<line fill="none" stroke="#686868" stroke-miterlimit="10" x1="552" y1="516.5" x2="705" y2="516.5"/>
			<line fill="none" stroke="#686868" stroke-miterlimit="10" x1="552" y1="524.5" x2="705" y2="524.5"/>
			<line fill="none" stroke="#686868" stroke-miterlimit="10" x1="552" y1="534.5" x2="705" y2="534.5"/>
			<line fill="none" stroke="#686868" stroke-miterlimit="10" x1="552" y1="544.5" x2="705" y2="544.5"/>
			<line fill="none" stroke="#686868" stroke-miterlimit="10" x1="552" y1="552.5" x2="705" y2="552.5"/>
		</g>
		<g>
			<line fill="none" stroke="#686868" stroke-miterlimit="10" x1="552" y1="562.5" x2="705" y2="562.5"/>
			<line fill="none" stroke="#686868" stroke-miterlimit="10" x1="552" y1="572.5" x2="705" y2="572.5"/>
			<line fill="none" stroke="#686868" stroke-miterlimit="10" x1="552" y1="581.5" x2="705" y2="581.5"/>
			<line fill="none" stroke="#686868" stroke-miterlimit="10" x1="552" y1="591.5" x2="705" y2="591.5"/>
		</g>
	</g>
	<g>
		<rect x="733.9" y="178.8" fill="none" stroke="#686868" stroke-miterlimit="10" width="187.8" height="507.3"/>
		<rect x="733.9" y="166.1" fill="none" stroke="#686868" stroke-miterlimit="10" width="187.8" height="12.7"/>
		<rect x="737.3" y="153.3" fill="none" stroke="#686868" stroke-miterlimit="10" width="181.3" height="12.7"/>
		<rect x="746.3" y="143.5" fill="none" stroke="#686868" stroke-miterlimit="10" width="164.4" height="9.8"/>
		<g>
			<rect x="747.7" y="211.6" fill="none" stroke="#686868" stroke-miterlimit="10" width="18.5" height="39.4"/>
			<rect x="746.3" y="251.3" fill="none" stroke="#686868" stroke-miterlimit="10" width="21.9" height="5"/>
			<rect x="746.3" y="206.5" fill="none" stroke="#686868" stroke-miterlimit="10" width="21.9" height="5"/>
			<polygon fill="none" stroke="#686868" stroke-miterlimit="10" points="766.5,229.5 757.5,229.5 757.5,211.5 756.5,211.5 
				756.5,229.5 747.5,229.5 747.5,231.5 756.5,231.5 756.5,251.5 757.5,251.5 757.5,231.5 766.5,231.5 			"/>
		</g>
		<g>
			<rect x="775.7" y="211.6" fill="none" stroke="#686868" stroke-miterlimit="10" width="18.5" height="39.4"/>
			<rect x="774.4" y="251.3" fill="none" stroke="#686868" stroke-miterlimit="10" width="21.9" height="5"/>
			<rect x="774.4" y="206.5" fill="none" stroke="#686868" stroke-miterlimit="10" width="21.9" height="5"/>
			<polygon fill="none" stroke="#686868" stroke-miterlimit="10" points="793.5,229.5 786.5,229.5 786.5,211.5 784.5,211.5 
				784.5,229.5 775.5,229.5 775.5,231.5 784.5,231.5 784.5,251.5 786.5,251.5 786.5,231.5 793.5,231.5 			"/>
		</g>
		<g>
			<rect x="803.8" y="211.6" fill="none" stroke="#686868" stroke-miterlimit="10" width="18.5" height="39.4"/>
			<rect x="802.5" y="251.3" fill="none" stroke="#686868" stroke-miterlimit="10" width="21.9" height="5"/>
			<rect x="802.5" y="206.5" fill="none" stroke="#686868" stroke-miterlimit="10" width="21.9" height="5"/>
			<polygon fill="none" stroke="#686868" stroke-miterlimit="10" points="822.5,229.5 813.5,229.5 813.5,211.5 812.5,211.5 
				812.5,229.5 803.5,229.5 803.5,231.5 812.5,231.5 812.5,251.5 813.5,251.5 813.5,231.5 822.5,231.5 			"/>
		</g>
		<g>
			<rect x="831.9" y="211.6" fill="none" stroke="#686868" stroke-miterlimit="10" width="18.5" height="39.4"/>
			<rect x="830.6" y="251.3" fill="none" stroke="#686868" stroke-miterlimit="10" width="21.9" height="5"/>
			<rect x="830.6" y="206.5" fill="none" stroke="#686868" stroke-miterlimit="10" width="21.9" height="5"/>
			<polygon fill="none" stroke="#686868" stroke-miterlimit="10" points="851.5,229.5 841.5,229.5 841.5,211.5 840.5,211.5 
				840.5,229.5 831.5,229.5 831.5,231.5 840.5,231.5 840.5,251.5 841.5,251.5 841.5,231.5 851.5,231.5 			"/>
		</g>
		<g>
			<rect x="860" y="211.6" fill="none" stroke="#686868" stroke-miterlimit="10" width="18.5" height="39.4"/>
			<rect x="858.6" y="251.3" fill="none" stroke="#686868" stroke-miterlimit="10" width="21.9" height="5"/>
			<rect x="858.6" y="206.5" fill="none" stroke="#686868" stroke-miterlimit="10" width="21.9" height="5"/>
			<polygon fill="none" stroke="#686868" stroke-miterlimit="10" points="878.5,229.5 870.5,229.5 870.5,211.5 868.5,211.5 
				868.5,229.5 860.5,229.5 860.5,231.5 868.5,231.5 868.5,251.5 870.5,251.5 870.5,231.5 878.5,231.5 			"/>
		</g>
		<g>
			<rect x="888.1" y="211.6" fill="none" stroke="#686868" stroke-miterlimit="10" width="18.5" height="39.4"/>
			<rect x="886.7" y="251.3" fill="none" stroke="#686868" stroke-miterlimit="10" width="21.9" height="5"/>
			<rect x="886.7" y="206.5" fill="none" stroke="#686868" stroke-miterlimit="10" width="21.9" height="5"/>
			<polygon fill="none" stroke="#686868" stroke-miterlimit="10" points="906.5,229.5 898.5,229.5 898.5,211.5 896.5,211.5 
				896.5,229.5 888.5,229.5 888.5,231.5 896.5,231.5 896.5,251.5 898.5,251.5 898.5,231.5 906.5,231.5 			"/>
		</g>
		<g>
			<g>
				<rect x="747.7" y="274.9" fill="none" stroke="#686868" stroke-miterlimit="10" width="18.5" height="39.4"/>
				<rect x="746.3" y="314.5" fill="none" stroke="#686868" stroke-miterlimit="10" width="21.9" height="5"/>
				<rect x="746.3" y="269.8" fill="none" stroke="#686868" stroke-miterlimit="10" width="21.9" height="5"/>
				<polygon fill="none" stroke="#686868" stroke-miterlimit="10" points="766.5,292.5 757.5,292.5 757.5,275.5 756.5,275.5 
					756.5,292.5 747.5,292.5 747.5,295.5 756.5,295.5 756.5,314.5 757.5,314.5 757.5,295.5 766.5,295.5 				"/>
			</g>
			<g>
				<rect x="775.7" y="274.9" fill="none" stroke="#686868" stroke-miterlimit="10" width="18.5" height="39.4"/>
				<rect x="774.4" y="314.5" fill="none" stroke="#686868" stroke-miterlimit="10" width="21.9" height="5"/>
				<rect x="774.4" y="269.8" fill="none" stroke="#686868" stroke-miterlimit="10" width="21.9" height="5"/>
				<polygon fill="none" stroke="#686868" stroke-miterlimit="10" points="793.5,292.5 786.5,292.5 786.5,275.5 784.5,275.5 
					784.5,292.5 775.5,292.5 775.5,295.5 784.5,295.5 784.5,314.5 786.5,314.5 786.5,295.5 793.5,295.5 				"/>
			</g>
			<g>
				<rect x="803.8" y="274.9" fill="none" stroke="#686868" stroke-miterlimit="10" width="18.5" height="39.4"/>
				<rect x="802.5" y="314.5" fill="none" stroke="#686868" stroke-miterlimit="10" width="21.9" height="5"/>
				<rect x="802.5" y="269.8" fill="none" stroke="#686868" stroke-miterlimit="10" width="21.9" height="5"/>
				<polygon fill="none" stroke="#686868" stroke-miterlimit="10" points="822.5,292.5 813.5,292.5 813.5,275.5 812.5,275.5 
					812.5,292.5 803.5,292.5 803.5,295.5 812.5,295.5 812.5,314.5 813.5,314.5 813.5,295.5 822.5,295.5 				"/>
			</g>
			<g>
				<rect x="831.9" y="274.9" fill="none" stroke="#686868" stroke-miterlimit="10" width="18.5" height="39.4"/>
				<rect x="830.6" y="314.5" fill="none" stroke="#686868" stroke-miterlimit="10" width="21.9" height="5"/>
				<rect x="830.6" y="269.8" fill="none" stroke="#686868" stroke-miterlimit="10" width="21.9" height="5"/>
				<polygon fill="none" stroke="#686868" stroke-miterlimit="10" points="851.5,292.5 841.5,292.5 841.5,275.5 840.5,275.5 
					840.5,292.5 831.5,292.5 831.5,295.5 840.5,295.5 840.5,314.5 841.5,314.5 841.5,295.5 851.5,295.5 				"/>
			</g>
			<g>
				<rect x="860" y="274.9" fill="none" stroke="#686868" stroke-miterlimit="10" width="18.5" height="39.4"/>
				<rect x="858.6" y="314.5" fill="none" stroke="#686868" stroke-miterlimit="10" width="21.9" height="5"/>
				<rect x="858.6" y="269.8" fill="none" stroke="#686868" stroke-miterlimit="10" width="21.9" height="5"/>
				<polygon fill="none" stroke="#686868" stroke-miterlimit="10" points="878.5,292.5 870.5,292.5 870.5,275.5 868.5,275.5 
					868.5,292.5 860.5,292.5 860.5,295.5 868.5,295.5 868.5,314.5 870.5,314.5 870.5,295.5 878.5,295.5 				"/>
			</g>
			<g>
				<rect x="888.1" y="274.9" fill="none" stroke="#686868" stroke-miterlimit="10" width="18.5" height="39.4"/>
				<rect x="886.7" y="314.5" fill="none" stroke="#686868" stroke-miterlimit="10" width="21.9" height="5"/>
				<rect x="886.7" y="269.8" fill="none" stroke="#686868" stroke-miterlimit="10" width="21.9" height="5"/>
				<polygon fill="none" stroke="#686868" stroke-miterlimit="10" points="906.5,292.5 898.5,292.5 898.5,275.5 896.5,275.5 
					896.5,292.5 888.5,292.5 888.5,295.5 896.5,295.5 896.5,314.5 898.5,314.5 898.5,295.5 906.5,295.5 				"/>
			</g>
		</g>
		<g>
			<g>
				<rect x="747.7" y="338.8" fill="none" stroke="#686868" stroke-miterlimit="10" width="18.5" height="39.4"/>
				<rect x="746.3" y="378.5" fill="none" stroke="#686868" stroke-miterlimit="10" width="21.9" height="5"/>
				<rect x="746.3" y="333.7" fill="none" stroke="#686868" stroke-miterlimit="10" width="21.9" height="5"/>
				<polygon fill="none" stroke="#686868" stroke-miterlimit="10" points="766.5,356.5 757.5,356.5 757.5,339.5 756.5,339.5 
					756.5,356.5 747.5,356.5 747.5,358.5 756.5,358.5 756.5,378.5 757.5,378.5 757.5,358.5 766.5,358.5 				"/>
			</g>
			<g>
				<rect x="775.7" y="338.8" fill="none" stroke="#686868" stroke-miterlimit="10" width="18.5" height="39.4"/>
				<rect x="774.4" y="378.5" fill="none" stroke="#686868" stroke-miterlimit="10" width="21.9" height="5"/>
				<rect x="774.4" y="333.7" fill="none" stroke="#686868" stroke-miterlimit="10" width="21.9" height="5"/>
				<polygon fill="none" stroke="#686868" stroke-miterlimit="10" points="793.5,356.5 786.5,356.5 786.5,339.5 784.5,339.5 
					784.5,356.5 775.5,356.5 775.5,358.5 784.5,358.5 784.5,378.5 786.5,378.5 786.5,358.5 793.5,358.5 				"/>
			</g>
			<g>
				<rect x="803.8" y="338.8" fill="none" stroke="#686868" stroke-miterlimit="10" width="18.5" height="39.4"/>
				<rect x="802.5" y="378.5" fill="none" stroke="#686868" stroke-miterlimit="10" width="21.9" height="5"/>
				<rect x="802.5" y="333.7" fill="none" stroke="#686868" stroke-miterlimit="10" width="21.9" height="5"/>
				<polygon fill="none" stroke="#686868" stroke-miterlimit="10" points="822.5,356.5 813.5,356.5 813.5,339.5 812.5,339.5 
					812.5,356.5 803.5,356.5 803.5,358.5 812.5,358.5 812.5,378.5 813.5,378.5 813.5,358.5 822.5,358.5 				"/>
			</g>
			<g>
				<rect x="831.9" y="338.8" fill="none" stroke="#686868" stroke-miterlimit="10" width="18.5" height="39.4"/>
				<rect x="830.6" y="378.5" fill="none" stroke="#686868" stroke-miterlimit="10" width="21.9" height="5"/>
				<rect x="830.6" y="333.7" fill="none" stroke="#686868" stroke-miterlimit="10" width="21.9" height="5"/>
				<polygon fill="none" stroke="#686868" stroke-miterlimit="10" points="851.5,356.5 841.5,356.5 841.5,339.5 840.5,339.5 
					840.5,356.5 831.5,356.5 831.5,358.5 840.5,358.5 840.5,378.5 841.5,378.5 841.5,358.5 851.5,358.5 				"/>
			</g>
			<g>
				<rect x="860" y="338.8" fill="none" stroke="#686868" stroke-miterlimit="10" width="18.5" height="39.4"/>
				<rect x="858.6" y="378.5" fill="none" stroke="#686868" stroke-miterlimit="10" width="21.9" height="5"/>
				<rect x="858.6" y="333.7" fill="none" stroke="#686868" stroke-miterlimit="10" width="21.9" height="5"/>
				<polygon fill="none" stroke="#686868" stroke-miterlimit="10" points="878.5,356.5 870.5,356.5 870.5,339.5 868.5,339.5 
					868.5,356.5 860.5,356.5 860.5,358.5 868.5,358.5 868.5,378.5 870.5,378.5 870.5,358.5 878.5,358.5 				"/>
			</g>
			<g>
				<rect x="888.1" y="338.8" fill="none" stroke="#686868" stroke-miterlimit="10" width="18.5" height="39.4"/>
				<rect x="886.7" y="378.5" fill="none" stroke="#686868" stroke-miterlimit="10" width="21.9" height="5"/>
				<rect x="886.7" y="333.7" fill="none" stroke="#686868" stroke-miterlimit="10" width="21.9" height="5"/>
				<polygon fill="none" stroke="#686868" stroke-miterlimit="10" points="906.5,356.5 898.5,356.5 898.5,339.5 896.5,339.5 
					896.5,356.5 888.5,356.5 888.5,358.5 896.5,358.5 896.5,378.5 898.5,378.5 898.5,358.5 906.5,358.5 				"/>
			</g>
		</g>
		<g>
			<g>
				<rect x="747.7" y="402.8" fill="none" stroke="#686868" stroke-miterlimit="10" width="18.5" height="39.4"/>
				<rect x="746.3" y="442.4" fill="none" stroke="#686868" stroke-miterlimit="10" width="21.9" height="5"/>
				<rect x="746.3" y="397.7" fill="none" stroke="#686868" stroke-miterlimit="10" width="21.9" height="5"/>
				<polygon fill="none" stroke="#686868" stroke-miterlimit="10" points="766.5,421.5 757.5,421.5 757.5,402.5 756.5,402.5 
					756.5,421.5 747.5,421.5 747.5,422.5 756.5,422.5 756.5,441.5 757.5,441.5 757.5,422.5 766.5,422.5 				"/>
			</g>
			<g>
				<rect x="775.7" y="402.8" fill="none" stroke="#686868" stroke-miterlimit="10" width="18.5" height="39.4"/>
				<rect x="774.4" y="442.4" fill="none" stroke="#686868" stroke-miterlimit="10" width="21.9" height="5"/>
				<rect x="774.4" y="397.7" fill="none" stroke="#686868" stroke-miterlimit="10" width="21.9" height="5"/>
				<polygon fill="none" stroke="#686868" stroke-miterlimit="10" points="793.5,421.5 786.5,421.5 786.5,402.5 784.5,402.5 
					784.5,421.5 775.5,421.5 775.5,422.5 784.5,422.5 784.5,441.5 786.5,441.5 786.5,422.5 793.5,422.5 				"/>
			</g>
			<g>
				<rect x="803.8" y="402.8" fill="none" stroke="#686868" stroke-miterlimit="10" width="18.5" height="39.4"/>
				<rect x="802.5" y="442.4" fill="none" stroke="#686868" stroke-miterlimit="10" width="21.9" height="5"/>
				<rect x="802.5" y="397.7" fill="none" stroke="#686868" stroke-miterlimit="10" width="21.9" height="5"/>
				<polygon fill="none" stroke="#686868" stroke-miterlimit="10" points="822.5,421.5 813.5,421.5 813.5,402.5 812.5,402.5 
					812.5,421.5 803.5,421.5 803.5,422.5 812.5,422.5 812.5,441.5 813.5,441.5 813.5,422.5 822.5,422.5 				"/>
			</g>
			<g>
				<rect x="831.9" y="402.8" fill="none" stroke="#686868" stroke-miterlimit="10" width="18.5" height="39.4"/>
				<rect x="830.6" y="442.4" fill="none" stroke="#686868" stroke-miterlimit="10" width="21.9" height="5"/>
				<rect x="830.6" y="397.7" fill="none" stroke="#686868" stroke-miterlimit="10" width="21.9" height="5"/>
				<polygon fill="none" stroke="#686868" stroke-miterlimit="10" points="851.5,421.5 841.5,421.5 841.5,402.5 840.5,402.5 
					840.5,421.5 831.5,421.5 831.5,422.5 840.5,422.5 840.5,441.5 841.5,441.5 841.5,422.5 851.5,422.5 				"/>
			</g>
			<g>
				<rect x="860" y="402.8" fill="none" stroke="#686868" stroke-miterlimit="10" width="18.5" height="39.4"/>
				<rect x="858.6" y="442.4" fill="none" stroke="#686868" stroke-miterlimit="10" width="21.9" height="5"/>
				<rect x="858.6" y="397.7" fill="none" stroke="#686868" stroke-miterlimit="10" width="21.9" height="5"/>
				<polygon fill="none" stroke="#686868" stroke-miterlimit="10" points="878.5,421.5 870.5,421.5 870.5,402.5 868.5,402.5 
					868.5,421.5 860.5,421.5 860.5,422.5 868.5,422.5 868.5,441.5 870.5,441.5 870.5,422.5 878.5,422.5 				"/>
			</g>
			<g>
				<rect x="888.1" y="402.8" fill="none" stroke="#686868" stroke-miterlimit="10" width="18.5" height="39.4"/>
				<rect x="886.7" y="442.4" fill="none" stroke="#686868" stroke-miterlimit="10" width="21.9" height="5"/>
				<rect x="886.7" y="397.7" fill="none" stroke="#686868" stroke-miterlimit="10" width="21.9" height="5"/>
				<polygon fill="none" stroke="#686868" stroke-miterlimit="10" points="906.5,421.5 898.5,421.5 898.5,402.5 896.5,402.5 
					896.5,421.5 888.5,421.5 888.5,422.5 896.5,422.5 896.5,441.5 898.5,441.5 898.5,422.5 906.5,422.5 				"/>
			</g>
		</g>
		<g>
			<g>
				<rect x="747.7" y="466.7" fill="none" stroke="#686868" stroke-miterlimit="10" width="18.5" height="39.4"/>
				<rect x="746.3" y="506.4" fill="none" stroke="#686868" stroke-miterlimit="10" width="21.9" height="5"/>
				<rect x="746.3" y="461.6" fill="none" stroke="#686868" stroke-miterlimit="10" width="21.9" height="5"/>
				<polygon fill="none" stroke="#686868" stroke-miterlimit="10" points="766.5,484.5 757.5,484.5 757.5,466.5 756.5,466.5 
					756.5,484.5 747.5,484.5 747.5,486.5 756.5,486.5 756.5,506.5 757.5,506.5 757.5,486.5 766.5,486.5 				"/>
			</g>
			<g>
				<rect x="775.7" y="466.7" fill="none" stroke="#686868" stroke-miterlimit="10" width="18.5" height="39.4"/>
				<rect x="774.4" y="506.4" fill="none" stroke="#686868" stroke-miterlimit="10" width="21.9" height="5"/>
				<rect x="774.4" y="461.6" fill="none" stroke="#686868" stroke-miterlimit="10" width="21.9" height="5"/>
				<polygon fill="none" stroke="#686868" stroke-miterlimit="10" points="793.5,484.5 786.5,484.5 786.5,466.5 784.5,466.5 
					784.5,484.5 775.5,484.5 775.5,486.5 784.5,486.5 784.5,506.5 786.5,506.5 786.5,486.5 793.5,486.5 				"/>
			</g>
			<g>
				<rect x="803.8" y="466.7" fill="none" stroke="#686868" stroke-miterlimit="10" width="18.5" height="39.4"/>
				<rect x="802.5" y="506.4" fill="none" stroke="#686868" stroke-miterlimit="10" width="21.9" height="5"/>
				<rect x="802.5" y="461.6" fill="none" stroke="#686868" stroke-miterlimit="10" width="21.9" height="5"/>
				<polygon fill="none" stroke="#686868" stroke-miterlimit="10" points="822.5,484.5 813.5,484.5 813.5,466.5 812.5,466.5 
					812.5,484.5 803.5,484.5 803.5,486.5 812.5,486.5 812.5,506.5 813.5,506.5 813.5,486.5 822.5,486.5 				"/>
			</g>
			<g>
				<rect x="831.9" y="466.7" fill="none" stroke="#686868" stroke-miterlimit="10" width="18.5" height="39.4"/>
				<rect x="830.6" y="506.4" fill="none" stroke="#686868" stroke-miterlimit="10" width="21.9" height="5"/>
				<rect x="830.6" y="461.6" fill="none" stroke="#686868" stroke-miterlimit="10" width="21.9" height="5"/>
				<polygon fill="none" stroke="#686868" stroke-miterlimit="10" points="851.5,484.5 841.5,484.5 841.5,466.5 840.5,466.5 
					840.5,484.5 831.5,484.5 831.5,486.5 840.5,486.5 840.5,506.5 841.5,506.5 841.5,486.5 851.5,486.5 				"/>
			</g>
			<g>
				<rect x="860" y="466.7" fill="none" stroke="#686868" stroke-miterlimit="10" width="18.5" height="39.4"/>
				<rect x="858.6" y="506.4" fill="none" stroke="#686868" stroke-miterlimit="10" width="21.9" height="5"/>
				<rect x="858.6" y="461.6" fill="none" stroke="#686868" stroke-miterlimit="10" width="21.9" height="5"/>
				<polygon fill="none" stroke="#686868" stroke-miterlimit="10" points="878.5,484.5 870.5,484.5 870.5,466.5 868.5,466.5 
					868.5,484.5 860.5,484.5 860.5,486.5 868.5,486.5 868.5,506.5 870.5,506.5 870.5,486.5 878.5,486.5 				"/>
			</g>
			<g>
				<rect x="888.1" y="466.7" fill="none" stroke="#686868" stroke-miterlimit="10" width="18.5" height="39.4"/>
				<rect x="886.7" y="506.4" fill="none" stroke="#686868" stroke-miterlimit="10" width="21.9" height="5"/>
				<rect x="886.7" y="461.6" fill="none" stroke="#686868" stroke-miterlimit="10" width="21.9" height="5"/>
				<polygon fill="none" stroke="#686868" stroke-miterlimit="10" points="906.5,484.5 898.5,484.5 898.5,466.5 896.5,466.5 
					896.5,484.5 888.5,484.5 888.5,486.5 896.5,486.5 896.5,506.5 898.5,506.5 898.5,486.5 906.5,486.5 				"/>
			</g>
		</g>
		<g>
			<g>
				<rect x="747.7" y="530.7" fill="none" stroke="#686868" stroke-miterlimit="10" width="18.5" height="39.4"/>
				<rect x="746.3" y="570.3" fill="none" stroke="#686868" stroke-miterlimit="10" width="21.9" height="5"/>
				<rect x="746.3" y="525.6" fill="none" stroke="#686868" stroke-miterlimit="10" width="21.9" height="5"/>
				<polygon fill="none" stroke="#686868" stroke-miterlimit="10" points="766.5,548.5 757.5,548.5 757.5,531.5 756.5,531.5 
					756.5,548.5 747.5,548.5 747.5,551.5 756.5,551.5 756.5,570.5 757.5,570.5 757.5,551.5 766.5,551.5 				"/>
			</g>
			<g>
				<rect x="775.7" y="530.7" fill="none" stroke="#686868" stroke-miterlimit="10" width="18.5" height="39.4"/>
				<rect x="774.4" y="570.3" fill="none" stroke="#686868" stroke-miterlimit="10" width="21.9" height="5"/>
				<rect x="774.4" y="525.6" fill="none" stroke="#686868" stroke-miterlimit="10" width="21.9" height="5"/>
				<polygon fill="none" stroke="#686868" stroke-miterlimit="10" points="793.5,548.5 786.5,548.5 786.5,531.5 784.5,531.5 
					784.5,548.5 775.5,548.5 775.5,551.5 784.5,551.5 784.5,570.5 786.5,570.5 786.5,551.5 793.5,551.5 				"/>
			</g>
			<g>
				<rect x="803.8" y="530.7" fill="none" stroke="#686868" stroke-miterlimit="10" width="18.5" height="39.4"/>
				<rect x="802.5" y="570.3" fill="none" stroke="#686868" stroke-miterlimit="10" width="21.9" height="5"/>
				<rect x="802.5" y="525.6" fill="none" stroke="#686868" stroke-miterlimit="10" width="21.9" height="5"/>
				<polygon fill="none" stroke="#686868" stroke-miterlimit="10" points="822.5,548.5 813.5,548.5 813.5,531.5 812.5,531.5 
					812.5,548.5 803.5,548.5 803.5,551.5 812.5,551.5 812.5,570.5 813.5,570.5 813.5,551.5 822.5,551.5 				"/>
			</g>
			<g>
				<rect x="831.9" y="530.7" fill="none" stroke="#686868" stroke-miterlimit="10" width="18.5" height="39.4"/>
				<rect x="830.6" y="570.3" fill="none" stroke="#686868" stroke-miterlimit="10" width="21.9" height="5"/>
				<rect x="830.6" y="525.6" fill="none" stroke="#686868" stroke-miterlimit="10" width="21.9" height="5"/>
				<polygon fill="none" stroke="#686868" stroke-miterlimit="10" points="851.5,548.5 841.5,548.5 841.5,531.5 840.5,531.5 
					840.5,548.5 831.5,548.5 831.5,551.5 840.5,551.5 840.5,570.5 841.5,570.5 841.5,551.5 851.5,551.5 				"/>
			</g>
			<g>
				<rect x="860" y="530.7" fill="none" stroke="#686868" stroke-miterlimit="10" width="18.5" height="39.4"/>
				<rect x="858.6" y="570.3" fill="none" stroke="#686868" stroke-miterlimit="10" width="21.9" height="5"/>
				<rect x="858.6" y="525.6" fill="none" stroke="#686868" stroke-miterlimit="10" width="21.9" height="5"/>
				<polygon fill="none" stroke="#686868" stroke-miterlimit="10" points="878.5,548.5 870.5,548.5 870.5,531.5 868.5,531.5 
					868.5,548.5 860.5,548.5 860.5,551.5 868.5,551.5 868.5,570.5 870.5,570.5 870.5,551.5 878.5,551.5 				"/>
			</g>
			<g>
				<rect x="888.1" y="530.7" fill="none" stroke="#686868" stroke-miterlimit="10" width="18.5" height="39.4"/>
				<rect x="886.7" y="570.3" fill="none" stroke="#686868" stroke-miterlimit="10" width="21.9" height="5"/>
				<rect x="886.7" y="525.6" fill="none" stroke="#686868" stroke-miterlimit="10" width="21.9" height="5"/>
				<polygon fill="none" stroke="#686868" stroke-miterlimit="10" points="906.5,548.5 898.5,548.5 898.5,531.5 896.5,531.5 
					896.5,548.5 888.5,548.5 888.5,551.5 896.5,551.5 896.5,570.5 898.5,570.5 898.5,551.5 906.5,551.5 				"/>
			</g>
		</g>
		<g>
			<g>
				<rect x="747.7" y="594.6" fill="none" stroke="#686868" stroke-miterlimit="10" width="18.5" height="39.4"/>
				<rect x="746.3" y="589.5" fill="none" stroke="#686868" stroke-miterlimit="10" width="21.9" height="5"/>
				<polygon fill="none" stroke="#686868" stroke-miterlimit="10" points="766.5,612.5 757.5,612.5 757.5,595.5 756.5,595.5 
					756.5,612.5 747.5,612.5 747.5,614.5 756.5,614.5 756.5,633.5 757.5,633.5 757.5,614.5 766.5,614.5 				"/>
			</g>
			<g>
				<rect x="775.7" y="594.6" fill="none" stroke="#686868" stroke-miterlimit="10" width="18.5" height="39.4"/>
				<rect x="774.4" y="589.5" fill="none" stroke="#686868" stroke-miterlimit="10" width="21.9" height="5"/>
				<polygon fill="none" stroke="#686868" stroke-miterlimit="10" points="793.5,612.5 786.5,612.5 786.5,595.5 784.5,595.5 
					784.5,612.5 775.5,612.5 775.5,614.5 784.5,614.5 784.5,633.5 786.5,633.5 786.5,614.5 793.5,614.5 				"/>
			</g>
			<g>
				<rect x="803.8" y="594.6" fill="none" stroke="#686868" stroke-miterlimit="10" width="18.5" height="39.4"/>
				<rect x="802.5" y="589.5" fill="none" stroke="#686868" stroke-miterlimit="10" width="21.9" height="5"/>
				<polygon fill="none" stroke="#686868" stroke-miterlimit="10" points="822.5,612.5 813.5,612.5 813.5,595.5 812.5,595.5 
					812.5,612.5 803.5,612.5 803.5,614.5 812.5,614.5 812.5,633.5 813.5,633.5 813.5,614.5 822.5,614.5 				"/>
			</g>
			<g>
				<rect x="831.9" y="594.6" fill="none" stroke="#686868" stroke-miterlimit="10" width="18.5" height="39.4"/>
				<rect x="830.6" y="589.5" fill="none" stroke="#686868" stroke-miterlimit="10" width="21.9" height="5"/>
				<polygon fill="none" stroke="#686868" stroke-miterlimit="10" points="851.5,612.5 841.5,612.5 841.5,595.5 840.5,595.5 
					840.5,612.5 831.5,612.5 831.5,614.5 840.5,614.5 840.5,633.5 841.5,633.5 841.5,614.5 851.5,614.5 				"/>
			</g>
			<g>
				<rect x="860" y="594.6" fill="none" stroke="#686868" stroke-miterlimit="10" width="18.5" height="39.4"/>
				<rect x="858.6" y="589.5" fill="none" stroke="#686868" stroke-miterlimit="10" width="21.9" height="5"/>
				<polygon fill="none" stroke="#686868" stroke-miterlimit="10" points="878.5,612.5 870.5,612.5 870.5,595.5 868.5,595.5 
					868.5,612.5 860.5,612.5 860.5,614.5 868.5,614.5 868.5,633.5 870.5,633.5 870.5,614.5 878.5,614.5 				"/>
			</g>
			<g>
				<rect x="888.1" y="594.6" fill="none" stroke="#686868" stroke-miterlimit="10" width="18.5" height="39.4"/>
				<rect x="886.7" y="589.5" fill="none" stroke="#686868" stroke-miterlimit="10" width="21.9" height="5"/>
				<polygon fill="none" stroke="#686868" stroke-miterlimit="10" points="906.5,612.5 898.5,612.5 898.5,595.5 896.5,595.5 
					896.5,612.5 888.5,612.5 888.5,614.5 896.5,614.5 896.5,633.5 898.5,633.5 898.5,614.5 906.5,614.5 				"/>
			</g>
		</g>
	</g>
	<path fill="#282C35" stroke="#686868" stroke-miterlimit="10" d="M1041,27.5H909.8c-4.7,0-9.3,3.5-9.3,8.2v8.5c0,1.2,1,2.2,1.5,4.2
		h-57c-4.7,0-8.5,3-8.5,7.7v8.5c0,4.7,3.8,8.8,8.5,8.8h26.5v7.4c0,4.7,4.6,8.6,9.3,8.6h131.3c4.7,0,8.4-3.9,8.4-8.6v-8.5
		c0-4.7-3.8-7.9-8.4-7.9h-27.6v-8.3c0-1.2,0-1.7-0.4-2.7h57c4.7,0,8.5-4.6,8.5-9.2v-8.5C1049.5,31,1045.7,27.5,1041,27.5z"/>
	<path fill="#282C35" stroke="#686868" stroke-miterlimit="10" d="M1029.1,467.5H897.8c-4.7,0-9.3,3.4-9.3,8.1v8.5
		c0,1.2,1.1,2.4,1.5,3.4h-57c-4.7,0-8.5,3.8-8.5,8.5v8.5c0,4.7,3.9,9,8.5,9h26.5v7.2c0,4.7,4.7,8.8,9.3,8.8h131.3
		c4.7,0,8.4-4.1,8.4-8.8v-8.5c0-4.7-3.7-7.7-8.4-7.7h-27.6V496c0-1.2,0.1-2.5-0.4-2.5h57c4.7,0,8.4-4.7,8.4-9.4v-8.5
		C1037.5,470.9,1033.8,467.5,1029.1,467.5z"/>
	<g>
		<g>
			<polygon fill="none" stroke="#686868" stroke-miterlimit="10" points="533.4,685.4 472.2,142.5 397.7,142.5 333.9,686.2 			"/>
			<polygon fill="none" stroke="#686868" stroke-miterlimit="10" points="391.1,188.5 477.5,188.5 479.5,209.5 389.8,209.5 			"/>
			<polygon fill="none" stroke="#686868" stroke-miterlimit="10" points="391.1,228.5 477.5,228.5 479.5,249.5 389.8,249.5 			"/>
			<polygon fill="none" stroke="#686868" stroke-miterlimit="10" points="391.1,272.5 477.5,272.5 479.5,291.5 389.8,291.5 			"/>
			<polygon fill="none" stroke="#686868" stroke-miterlimit="10" points="391.1,314.5 477.5,314.5 479.5,334.5 389.8,334.5 			"/>
			<polygon fill="none" stroke="#686868" stroke-miterlimit="10" points="391.1,354.5 477.5,354.5 479.5,374.5 389.8,374.5 			"/>
			<polygon fill="none" stroke="#686868" stroke-miterlimit="10" points="391.1,395.5 477.5,395.5 479.5,415.5 389.8,415.5 			"/>
			<polygon fill="none" stroke="#686868" stroke-miterlimit="10" points="391.1,439.5 477.5,439.5 479.5,458.5 389.8,458.5 			"/>
			<polygon fill="none" stroke="#686868" stroke-miterlimit="10" points="391.1,479.5 477.5,479.5 479.5,498.5 389.8,498.5 			"/>
			<polygon fill="none" stroke="#686868" stroke-miterlimit="10" points="391.1,521.5 477.5,521.5 479.5,542.5 389.8,542.5 			"/>
			<polygon fill="none" stroke="#686868" stroke-miterlimit="10" points="391.1,564.5 477.5,564.5 479.5,584.5 389.8,584.5 			"/>
			<rect x="423" y="141.6" fill="#282C35" stroke="#686868" stroke-miterlimit="10" width="21.3" height="545.2"/>
			<rect x="427.4" y="145" fill="#282C35" stroke="#686868" stroke-miterlimit="10" width="12.1" height="541.8"/>
		</g>
		<polygon fill="#282C35" stroke="#686868" stroke-miterlimit="10" points="407,143.3 424.3,59.5 443,59.5 458.9,142.9 		"/>
	</g>
	<path fill="#282C35" stroke="#686868" stroke-miterlimit="10" d="M404.1,222.5h-13.6c-0.9,0-1.7-0.6-1.9-1.4c0-0.1,0-0.2,0-0.3
		v-13.3c0-5.5-4.4-9.9-9.9-9.9H229c-5.8,0-10.5,4.7-10.5,10.5v10.7c0,5.9,4.9,10.8,10.8,10.8h14.9c-0.1,0-0.7,0.9-0.7,1.4v6.6
		c0,1.1-0.9,2-2,2h-63.7c-6.2,0-11.3,5.1-11.3,11.3v10.5c0,6.1,5,11.2,11.2,11.2h149.6c5.7,0,10.3-4.6,10.3-10.3v-4.7
		c0-1.1,0.9-2,2-2H404c5.8,0,10.5-4.7,10.5-10.5v-12C414.5,227.2,409.8,222.5,404.1,222.5z"/>
	<path fill="#282C35" stroke="#686868" stroke-miterlimit="10" d="M426.2-26.5H318c-3.9,0-7.5,3.1-7.5,7v7c0,1,0.7,2,1,3h-47
		c-3.9,0-7.1,3-7.1,6.8v7c0,3.9,3.2,7.1,7.1,7.1h22.9v6.2c0,3.9,2.7,7.8,6.6,7.8h108.2c3.9,0,6.2-3.9,6.2-7.8v-7
		c0-3.9-2.4-7.2-6.2-7.2h-22.8v-6.2c0-1,0.1-1.8-0.3-1.8h47c3.9,0,6.3-4.1,6.3-8v-7C432.5-23.4,430-26.5,426.2-26.5z"/>
	<path fill="#282C35" stroke="#686868" stroke-miterlimit="10" d="M732.8,425l-98.3,56.7c-3.7,2.1-8.3,2.1-12,0L524.2,425
		c-3.7-2.1-6-6.1-6-10.4V301.2c0-4.3,2.3-8.3,6-10.4l98.3-56.7c3.7-2.1,8.3-2.1,12,0l98.3,56.7c3.7,2.1,6,6.1,6,10.4v113.4
		C738.9,418.9,736.6,422.8,732.8,425z"/>
	<path fill="none" stroke="#D3D3D3" stroke-width="2" stroke-miterlimit="10" d="M717,415.4l-83.4,48.1c-3.2,1.8-7,1.8-10.2,0
		l-83.4-48.1c-3.2-1.8-5.1-5.2-5.1-8.8v-96.2c0-3.6,1.9-7,5.1-8.8l83.4-48.1c3.2-1.8,7-1.8,10.2,0l83.4,48.1
		c3.2,1.8,5.1,5.2,5.1,8.8v96.2C722.1,410.2,720.2,413.6,717,415.4z"/>
	<g>
		<path fill="#72CEED" d="M576.4,338.4H552l2.4,3.9h21.9c2.7,0,5.2,1.1,7.1,3c1.9,1.9,2.9,4.5,2.9,7.2c0,2.7-1,5-2.9,6.9
			c-1.8,1.8-4.3,2.9-7,3.3h-2.7l-7.4-0.1l2.1,3.7h3.2l0.2,0.3h0l9.5,16.1l0,0.1l0.1,0.1c0.4,0.4,0.9,0.6,1.6,0.6
			c1.1,0,2.1-1,2.1-2.1c0-0.5-0.1-0.7-0.3-0.9c-0.1-0.1-0.2-0.2-0.3-0.4l-7.9-13.4c3.7-0.1,7.1-1.5,9.7-4.1c2.6-2.7,4.1-6.2,4.1-10
			C590.4,344.8,584.1,338.4,576.4,338.4z"/>
		<path fill="#72CEED" d="M609.3,338.8c-0.3-0.6-1-1-1.8-1c-0.7,0-1.4,0.4-1.8,1l-0.2,0.4c-0.3,0.5-0.1,1.2,0.2,1.7l3.3,5.8
			l12.8,22.3h-0.6l0,0h-16.5l2.4,4.2h17l5.2,8.9l0,0c0.3,0.5,0.8,1.4,2,1.4c1.1,0,2.1-0.9,2.1-2.1c0-0.4-0.1-0.7-0.3-1.1
			L609.3,338.8z"/>
		<path fill="#72CEED" d="M709.5,379.2h-22v-39.3c0-1.1-0.9-2.1-2.1-2.1s-2.1,0.9-2.1,2.1v41.4c0,1.1,0.9,2.1,2.1,2.1h26.4
			L709.5,379.2z"/>
		<path fill="#72CEED" d="M666.4,339.9c0-1.1-0.9-2-2.1-2c-0.1,0-0.1,0-0.2,0c-0.1,0-0.1,0-0.2,0c-0.8,0-1.5,0.4-1.8,1l-13.7,24
			l-13.7-24c-0.3-0.6-1-1-1.8-1c-0.7,0-1.4,0.4-1.8,1l-0.2,0.4c-0.3,0.5-0.1,1.2,0.2,1.7l15.2,26.7l0,0c0.3,0.5,0.8,1.4,2,1.4
			c0,0,0,0,0.1,0c0,0,0,0,0.1,0c1.1,0,1.6-0.9,2-1.4l11.7-20.4v34.2c0,1.1,0.9,2.1,2.1,2.1c1.1,0,2.1-0.9,2.1-2.1L666.4,339.9
			C666.4,339.9,666.4,339.9,666.4,339.9L666.4,339.9L666.4,339.9z"/>
	</g>
	<g>
		<path fill="#282C35" stroke="#686868" stroke-miterlimit="10" d="M927.1,225.6l-79.2,45.7c-3,1.7-6.7,1.7-9.7,0L759,225.6
			c-3-1.7-4.8-4.9-4.8-8.4v-91.4c0-3.5,1.8-6.7,4.8-8.4l79.2-45.7c3-1.7,6.7-1.7,9.7,0l79.2,45.7c3,1.7,4.8,4.9,4.8,8.4v91.4
			C932,220.7,930.1,223.9,927.1,225.6z"/>
		<g>
			<path fill="none" stroke="#C282F4" stroke-width="2" stroke-miterlimit="10" d="M914.4,217.9l-67.2,38.8c-2.5,1.5-5.7,1.5-8.2,0
				l-67.2-38.8c-2.5-1.5-4.1-4.2-4.1-7.1v-77.5c0-2.9,1.6-5.7,4.1-7.1L839,87.4c2.5-1.5,5.7-1.5,8.2,0l67.2,38.8
				c2.5,1.5,4.1,4.2,4.1,7.1v77.5C918.5,213.7,916.9,216.5,914.4,217.9z"/>
			<g>
				<line fill="none" stroke="#C282F4" stroke-width="2" stroke-miterlimit="10" x1="823" y1="143" x2="851" y2="143"/>
				<line fill="none" stroke="#C282F4" stroke-width="2" stroke-miterlimit="10" x1="823" y1="153" x2="848" y2="153"/>
				<line fill="none" stroke="#C282F4" stroke-width="2" stroke-miterlimit="10" x1="823" y1="163" x2="851" y2="163"/>
				<line fill="none" stroke="#C282F4" stroke-width="2" stroke-miterlimit="10" x1="823" y1="172" x2="862" y2="172"/>
				<line fill="none" stroke="#C282F4" stroke-width="2" stroke-miterlimit="10" x1="823" y1="182" x2="862" y2="182"/>
				<line fill="none" stroke="#C282F4" stroke-width="2" stroke-miterlimit="10" x1="823" y1="193" x2="862" y2="193"/>
				<polyline fill="none" stroke="#C282F4" stroke-width="2" stroke-miterlimit="10" points="859.2,151.7 864.8,157.3 879.9,142.1 
									"/>
				<circle fill="none" stroke="#C282F4" stroke-width="2" stroke-miterlimit="10" cx="866.2" cy="153.1" r="12"/>
				<polyline fill="none" stroke="#C282F4" stroke-width="2" stroke-miterlimit="10" points="869,171 869,203 816,203 816,134 
					869,134 869,138 				"/>
			</g>
			<g>
				<path fill="#C282F4" d="M805.9,214.7h3.7c0.8,0,1.5,0.1,1.9,0.2c0.6,0.2,1.1,0.5,1.5,0.9c0.4,0.4,0.7,1,1,1.6
					c0.2,0.6,0.3,1.4,0.3,2.4c0,0.8-0.1,1.5-0.3,2.1c-0.3,0.7-0.6,1.3-1.1,1.8c-0.4,0.3-0.8,0.6-1.4,0.8c-0.4,0.1-1,0.2-1.8,0.2
					h-3.8V214.7z M807.9,216.4v6.7h1.5c0.6,0,1,0,1.2-0.1c0.3-0.1,0.6-0.2,0.8-0.4c0.2-0.2,0.4-0.5,0.5-1c0.1-0.5,0.2-1.1,0.2-1.8
					s-0.1-1.4-0.2-1.8c-0.1-0.4-0.3-0.7-0.6-1c-0.2-0.2-0.6-0.4-0.9-0.5c-0.3-0.1-0.8-0.1-1.7-0.1H807.9z"/>
				<path fill="#C282F4" d="M815.6,219.8c0-1,0.2-1.9,0.5-2.6c0.2-0.5,0.5-1,0.9-1.4c0.4-0.4,0.8-0.7,1.3-0.9
					c0.6-0.3,1.4-0.4,2.2-0.4c1.5,0,2.7,0.5,3.6,1.4c0.9,0.9,1.3,2.2,1.3,3.8c0,1.6-0.4,2.9-1.3,3.8c-0.9,0.9-2.1,1.4-3.5,1.4
					c-1.5,0-2.7-0.5-3.6-1.4C816.1,222.7,815.6,221.4,815.6,219.8z M817.7,219.8c0,1.1,0.3,2,0.8,2.6c0.5,0.6,1.2,0.9,2,0.9
					c0.8,0,1.5-0.3,2-0.9c0.5-0.6,0.8-1.5,0.8-2.6c0-1.2-0.3-2-0.8-2.6c-0.5-0.6-1.2-0.9-2-0.9s-1.5,0.3-2,0.9
					C818,217.7,817.7,218.6,817.7,219.8z"/>
				<path fill="#C282F4" d="M833.5,221.1l2,0.6c-0.3,1.1-0.8,1.9-1.5,2.4c-0.7,0.5-1.6,0.8-2.7,0.8c-1.3,0-2.4-0.5-3.3-1.4
					c-0.9-0.9-1.3-2.2-1.3-3.8c0-1.7,0.4-3,1.3-3.9c0.9-0.9,2-1.4,3.4-1.4c1.2,0,2.2,0.4,3,1.1c0.5,0.4,0.8,1,1,1.9l-2,0.5
					c-0.1-0.5-0.4-0.9-0.7-1.2c-0.4-0.3-0.8-0.5-1.4-0.5c-0.7,0-1.4,0.3-1.8,0.8c-0.5,0.5-0.7,1.4-0.7,2.6c0,1.3,0.2,2.2,0.7,2.7
					c0.5,0.5,1.1,0.8,1.8,0.8c0.5,0,1-0.2,1.4-0.5C833,222.4,833.3,221.9,833.5,221.1z"/>
				<path fill="#C282F4" d="M837.2,214.7h2v5.5c0,0.9,0,1.4,0.1,1.7c0.1,0.4,0.3,0.7,0.6,1c0.3,0.2,0.8,0.4,1.3,0.4
					c0.6,0,1-0.1,1.3-0.4c0.3-0.2,0.5-0.5,0.5-0.9c0.1-0.3,0.1-0.9,0.1-1.7v-5.6h2v5.3c0,1.2-0.1,2.1-0.2,2.6
					c-0.1,0.5-0.3,0.9-0.6,1.3c-0.3,0.3-0.7,0.6-1.2,0.8c-0.5,0.2-1.1,0.3-1.9,0.3c-1,0-1.7-0.1-2.2-0.3c-0.5-0.2-0.9-0.5-1.2-0.9
					c-0.3-0.4-0.5-0.7-0.6-1.1c-0.1-0.6-0.2-1.4-0.2-2.6V214.7z"/>
				<path fill="#C282F4" d="M847.3,224.8v-10.1h3l1.8,6.9l1.8-6.9h3.1v10.1h-1.9v-7.9l-2,7.9h-2l-2-7.9v7.9H847.3z"/>
				<path fill="#C282F4" d="M859.1,224.8v-10.1h7.5v1.7h-5.4v2.2h5.1v1.7h-5.1v2.7h5.6v1.7H859.1z"/>
				<path fill="#C282F4" d="M868.5,224.8v-10.1h2l4.1,6.7v-6.7h1.9v10.1h-2l-4.1-6.6v6.6H868.5z"/>
				<path fill="#C282F4" d="M880.9,224.8v-8.4h-3v-1.7h8v1.7h-3v8.4H880.9z"/>
			</g>
		</g>
	</g>
	<g>
		<path fill="#282C35" stroke="#686868" stroke-miterlimit="10" d="M987.7,436.5l-79.2,45.7c-3,1.7-6.7,1.7-9.7,0l-79.2-45.7
			c-3-1.7-4.8-4.9-4.8-8.4v-91.4c0-3.5,1.8-6.7,4.8-8.4l79.2-45.7c3-1.7,6.7-1.7,9.7,0l79.2,45.7c3,1.7,4.8,4.9,4.8,8.4v91.4
			C992.5,431.6,990.7,434.8,987.7,436.5z"/>
		<g>
			<polygon fill="none" stroke="#7EE16D" stroke-width="2" stroke-miterlimit="10" points="882,361 872,366.7 862,361 862,349.7 
				872,344.1 882,349.7 			"/>
			<polygon fill="none" stroke="#7EE16D" stroke-width="2" stroke-miterlimit="10" points="946,361.9 936,367.6 926,361.9 
				926,350.6 936,345 946,350.6 			"/>
			<polygon fill="none" stroke="#7EE16D" stroke-width="2" stroke-miterlimit="10" points="914,347.1 904,352.8 894,347.1 
				894,335.9 904,330.2 914,335.9 			"/>
			<polygon fill="none" stroke="#7EE16D" stroke-width="2" stroke-miterlimit="10" points="918,409.2 904.5,416.3 891,409.2 
				891,395.1 904.5,388 918,395.1 			"/>
			<line fill="none" stroke="#7EE16D" stroke-width="2" stroke-miterlimit="10" x1="896.3" y1="391.7" x2="877.1" y2="364.3"/>
			<line fill="none" stroke="#7EE16D" stroke-width="2" stroke-miterlimit="10" x1="911.8" y1="391.7" x2="930.3" y2="365.1"/>
			<line fill="none" stroke="#7EE16D" stroke-width="2" stroke-miterlimit="10" x1="904" y1="389" x2="904" y2="354"/>
			<path fill="none" stroke="#7EE16D" stroke-width="2" stroke-miterlimit="10" d="M974.9,430.2l-67.2,38.8c-2.5,1.5-5.7,1.5-8.2,0
				l-67.2-38.8c-2.5-1.5-4.1-4.2-4.1-7.1v-77.5c0-2.9,1.6-5.7,4.1-7.1l67.2-38.8c2.5-1.5,5.7-1.5,8.2,0l67.2,38.8
				c2.5,1.5,4.1,4.2,4.1,7.1v77.5C979,426,977.5,428.7,974.9,430.2z"/>
			<g>
				<path fill="#7EE16D" d="M880.5,433.8l2-0.2c0.1,0.7,0.4,1.2,0.7,1.5c0.4,0.3,0.9,0.5,1.5,0.5c0.7,0,1.1-0.1,1.5-0.4
					c0.3-0.3,0.5-0.6,0.5-1c0-0.2-0.1-0.4-0.2-0.6c-0.1-0.2-0.4-0.3-0.7-0.4c-0.2-0.1-0.8-0.2-1.6-0.4c-1.1-0.3-1.9-0.6-2.3-1
					c-0.6-0.6-0.9-1.2-0.9-2c0-0.5,0.1-1,0.4-1.4c0.3-0.4,0.7-0.8,1.3-1c0.5-0.2,1.2-0.4,2-0.4c1.3,0,2.2,0.3,2.9,0.8
					c0.6,0.6,1,1.3,1,2.2l-2,0.1c-0.1-0.5-0.3-0.9-0.6-1.1c-0.3-0.2-0.7-0.3-1.3-0.3c-0.6,0-1.1,0.1-1.4,0.4
					c-0.2,0.2-0.3,0.4-0.3,0.6c0,0.2,0.1,0.4,0.3,0.6c0.3,0.2,0.9,0.4,1.9,0.7c1,0.2,1.7,0.5,2.2,0.7c0.5,0.3,0.8,0.6,1.1,1
					c0.3,0.4,0.4,1,0.4,1.6c0,0.6-0.2,1.1-0.5,1.6c-0.3,0.5-0.8,0.9-1.4,1.1c-0.6,0.2-1.3,0.4-2.2,0.4c-1.3,0-2.3-0.3-2.9-0.9
					C881.1,435.8,880.7,434.9,880.5,433.8z"/>
				<path fill="#7EE16D" d="M890.4,437.1V427h2v4h4v-4h2v10.1h-2v-4.4h-4v4.4H890.4z"/>
				<path fill="#7EE16D" d="M909.7,437.1h-2.2l-0.9-2.3h-4l-0.8,2.3h-2.2l3.9-10.1h2.2L909.7,437.1z M905.9,433.1l-1.4-3.7l-1.4,3.7
					H905.9z"/>
				<path fill="#7EE16D" d="M910.8,437.1V427h4.3c1.1,0,1.9,0.1,2.3,0.3c0.5,0.2,0.9,0.5,1.2,1s0.4,1,0.4,1.6c0,0.8-0.2,1.4-0.7,1.9
					c-0.4,0.5-1.1,0.8-2,0.9c0.4,0.3,0.8,0.5,1.1,0.8c0.3,0.3,0.7,0.9,1.2,1.6l1.2,2h-2.4l-1.5-2.2c-0.5-0.8-0.9-1.3-1.1-1.5
					c-0.2-0.2-0.4-0.3-0.6-0.4c-0.2-0.1-0.6-0.1-1-0.1h-0.4v4.2H910.8z M912.8,431.3h1.5c1,0,1.6,0,1.8-0.1c0.2-0.1,0.4-0.2,0.6-0.4
					c0.1-0.2,0.2-0.5,0.2-0.8c0-0.3-0.1-0.6-0.3-0.8c-0.2-0.2-0.4-0.3-0.8-0.4c-0.2,0-0.7,0-1.5,0h-1.6V431.3z"/>
				<path fill="#7EE16D" d="M920.9,437.1V427h7.5v1.7H923v2.2h5.1v1.7H923v2.7h5.6v1.7H920.9z"/>
			</g>
		</g>
	</g>
	<g>
		<path fill="#282C35" stroke="#686868" stroke-miterlimit="10" d="M711.8,148.2l-79.2,45.7c-3,1.7-6.7,1.7-9.7,0l-79.2-45.7
			c-3-1.7-4.8-4.9-4.8-8.4V48.4c0-3.5,1.8-6.7,4.8-8.4l79.2-45.7c3-1.7,6.7-1.7,9.7,0L711.8,40c3,1.7,4.8,4.9,4.8,8.4v91.4
			C716.7,143.3,714.8,146.5,711.8,148.2z"/>
		<g>
			<polygon fill="none" stroke="#66AAED" stroke-width="2" stroke-miterlimit="10" points="622,107.7 617,110.4 612,107.7 
				612,102.2 617,99.5 622,102.2 			"/>
			<polygon fill="none" stroke="#66AAED" stroke-width="2" stroke-miterlimit="10" points="635,117.3 630.5,119.8 626,117.3 
				626,112.3 630.5,109.8 635,112.3 			"/>
			<polygon fill="none" stroke="#66AAED" stroke-width="2" stroke-miterlimit="10" points="647,110.9 643,112.9 639,110.9 
				639,106.9 643,104.8 647,106.9 			"/>
			<path fill="none" stroke="#66AAED" stroke-width="2" stroke-miterlimit="10" d="M699.8,140.5l-67.2,38.8c-2.5,1.5-5.7,1.5-8.2,0
				l-67.2-38.8c-2.5-1.5-4.1-4.2-4.1-7.1V55.9c0-2.9,1.6-5.7,4.1-7.1L624.3,10c2.5-1.5,5.7-1.5,8.2,0l67.2,38.8
				c2.5,1.5,4.1,4.2,4.1,7.1v77.5C703.9,136.3,702.3,139,699.8,140.5z"/>
			<g>
				<path fill="#66AAED" d="M616.2,147.4V139h-3v-1.7h8v1.7h-3v8.4H616.2z"/>
				<path fill="#66AAED" d="M622.5,147.4v-10.1h7.5v1.7h-5.4v2.2h5.1v1.7h-5.1v2.7h5.6v1.7H622.5z"/>
				<path fill="#66AAED" d="M631.4,144.1l2-0.2c0.1,0.7,0.4,1.2,0.7,1.5c0.4,0.3,0.9,0.5,1.5,0.5c0.7,0,1.1-0.1,1.5-0.4
					c0.3-0.3,0.5-0.6,0.5-1c0-0.2-0.1-0.4-0.2-0.6c-0.1-0.2-0.4-0.3-0.7-0.4c-0.2-0.1-0.8-0.2-1.6-0.4c-1.1-0.3-1.9-0.6-2.3-1
					c-0.6-0.6-0.9-1.2-0.9-2c0-0.5,0.1-1,0.4-1.4c0.3-0.4,0.7-0.8,1.3-1c0.5-0.2,1.2-0.4,2-0.4c1.3,0,2.2,0.3,2.9,0.8
					c0.6,0.6,1,1.3,1,2.2l-2,0.1c-0.1-0.5-0.3-0.9-0.6-1.1c-0.3-0.2-0.7-0.3-1.3-0.3c-0.6,0-1.1,0.1-1.4,0.4
					c-0.2,0.2-0.3,0.4-0.3,0.6c0,0.2,0.1,0.4,0.3,0.6c0.3,0.2,0.9,0.4,1.9,0.7c1,0.2,1.7,0.5,2.2,0.7c0.5,0.3,0.8,0.6,1.1,1
					c0.3,0.4,0.4,1,0.4,1.6c0,0.6-0.2,1.1-0.5,1.6c-0.3,0.5-0.8,0.9-1.4,1.1c-0.6,0.2-1.3,0.4-2.2,0.4c-1.3,0-2.3-0.3-2.9-0.9
					C631.9,146.1,631.5,145.2,631.4,144.1z"/>
				<path fill="#66AAED" d="M643.6,147.4V139h-3v-1.7h8v1.7h-3v8.4H643.6z"/>
			</g>
			<path fill="none" stroke="#66AAED" stroke-width="2" stroke-miterlimit="10" d="M635,48.9v27.2l28.2,47.3c0.6,1-0.1,2.4-1.3,2.4
				H595c-1.2,0-2-1.3-1.3-2.3l27.3-46.9V49.3l-4.6-1.1v-5.6h23.3v4.9L635,48.9z"/>
			<line fill="none" stroke="#66AAED" stroke-width="2" stroke-miterlimit="10" x1="626" y1="49" x2="626" y2="77"/>
			<line fill="none" stroke="#66AAED" stroke-width="2" stroke-miterlimit="10" x1="611" y1="94" x2="637" y2="94"/>
		</g>
	</g>
	<g>
		<path fill="#282C35" stroke="#686868" stroke-miterlimit="10" d="M496.6,225.6l-79.2,45.7c-3,1.7-6.7,1.7-9.7,0l-79.2-45.7
			c-3-1.7-4.8-4.9-4.8-8.4v-91.4c0-3.5,1.8-6.7,4.8-8.4l79.2-45.7c3-1.7,6.7-1.7,9.7,0l79.2,45.7c3,1.7,4.8,4.9,4.8,8.4v91.4
			C501.5,220.7,499.6,223.9,496.6,225.6z"/>
		<g>
			<g>
				<polygon fill="none" stroke="#13B3D8" stroke-width="2" stroke-miterlimit="10" points="442.7,186.4 440.7,193.7 433.4,195.7 
					428.1,190.3 430,183 437.3,181 				"/>
				<path fill="none" stroke="#13B3D8" stroke-width="2" stroke-miterlimit="10" d="M430.9,173.6l-28.5-29.9c1.2-5,0-11-4.1-15.1
					c-4.1-4.1-10.1-5.2-15.8-3.4l9.6,9.6l-2.6,7.1l-7.3,2.9l-9.6-9.6c-1.9,5.7-0.7,11.7,3.4,15.8c4.1,4.1,10.1,5.3,15.1,4.1
					l29.9,28.5c-1.3,5.2-0.3,11.9,3.8,16c6.1,6.1,16,6.1,22.2,0c6.1-6.1,6.1-16,0-22.2C442.8,173.3,436.1,172.2,430.9,173.6z"/>
			</g>
			<path fill="none" stroke="#13B3D8" stroke-width="2" stroke-miterlimit="10" d="M483.9,217.9l-67.2,38.8c-2.5,1.5-5.7,1.5-8.2,0
				l-67.2-38.8c-2.5-1.5-4.1-4.2-4.1-7.1v-77.5c0-2.9,1.6-5.7,4.1-7.1l67.2-38.8c2.5-1.5,5.7-1.5,8.2,0l67.2,38.8
				c2.5,1.5,4.1,4.2,4.1,7.1v77.5C488,213.7,486.4,216.5,483.9,217.9z"/>
			<g>
				<path fill="#13B3D8" d="M394.5,214.7h4c0.8,0,1.4,0,1.8,0.1c0.4,0.1,0.7,0.2,1.1,0.4c0.3,0.2,0.6,0.5,0.8,0.8
					c0.2,0.3,0.3,0.7,0.3,1.2c0,0.5-0.1,0.9-0.4,1.3c-0.3,0.4-0.6,0.7-1,0.9c0.6,0.2,1.1,0.5,1.4,0.9s0.5,0.9,0.5,1.5
					c0,0.5-0.1,0.9-0.3,1.3c-0.2,0.4-0.5,0.8-0.9,1c-0.4,0.3-0.8,0.4-1.4,0.5c-0.3,0-1.2,0.1-2.5,0.1h-3.4V214.7z M396.6,216.4v2.3
					h1.3c0.8,0,1.3,0,1.5,0c0.3,0,0.6-0.2,0.8-0.4c0.2-0.2,0.3-0.5,0.3-0.8c0-0.3-0.1-0.6-0.3-0.8c-0.2-0.2-0.4-0.3-0.8-0.4
					c-0.2,0-0.8,0-1.7,0H396.6z M396.6,220.4v2.7h1.9c0.7,0,1.2,0,1.4-0.1c0.3-0.1,0.5-0.2,0.7-0.4c0.2-0.2,0.3-0.5,0.3-0.9
					c0-0.3-0.1-0.6-0.2-0.8s-0.4-0.4-0.6-0.5c-0.3-0.1-0.9-0.1-1.8-0.1H396.6z"/>
				<path fill="#13B3D8" d="M404.7,214.7h2v5.5c0,0.9,0,1.4,0.1,1.7c0.1,0.4,0.3,0.7,0.6,1c0.3,0.2,0.8,0.4,1.3,0.4
					c0.6,0,1-0.1,1.3-0.4c0.3-0.2,0.5-0.5,0.5-0.9c0.1-0.3,0.1-0.9,0.1-1.7v-5.6h2v5.3c0,1.2-0.1,2.1-0.2,2.6
					c-0.1,0.5-0.3,0.9-0.6,1.3c-0.3,0.3-0.7,0.6-1.2,0.8c-0.5,0.2-1.1,0.3-1.9,0.3c-1,0-1.7-0.1-2.2-0.3c-0.5-0.2-0.9-0.5-1.2-0.9
					c-0.3-0.4-0.5-0.7-0.6-1.1c-0.1-0.6-0.2-1.4-0.2-2.6V214.7z"/>
				<path fill="#13B3D8" d="M414.8,224.8v-10.1h2v10.1H414.8z"/>
				<path fill="#13B3D8" d="M418.8,224.8v-10h2v8.3h5.1v1.7H418.8z"/>
				<path fill="#13B3D8" d="M427.3,214.7h3.7c0.8,0,1.5,0.1,1.9,0.2c0.6,0.2,1.1,0.5,1.5,0.9c0.4,0.4,0.7,1,1,1.6
					c0.2,0.6,0.3,1.4,0.3,2.4c0,0.8-0.1,1.5-0.3,2.1c-0.3,0.7-0.6,1.3-1.1,1.8c-0.4,0.3-0.8,0.6-1.4,0.8c-0.4,0.1-1,0.2-1.8,0.2
					h-3.8V214.7z M429.4,216.4v6.7h1.5c0.6,0,1,0,1.2-0.1c0.3-0.1,0.6-0.2,0.8-0.4c0.2-0.2,0.4-0.5,0.5-1c0.1-0.5,0.2-1.1,0.2-1.8
					s-0.1-1.4-0.2-1.8c-0.1-0.4-0.3-0.7-0.6-1c-0.2-0.2-0.6-0.4-0.9-0.5c-0.3-0.1-0.8-0.1-1.7-0.1H429.4z"/>
			</g>
		</g>
	</g>
	<g>
		<path fill="#282C35" stroke="#686868" stroke-miterlimit="10" d="M441.2,430.7l-79.2,45.7c-3,1.7-6.7,1.7-9.7,0L273,430.7
			c-3-1.7-4.8-4.9-4.8-8.4v-91.4c0-3.5,1.8-6.7,4.8-8.4l79.2-45.7c3-1.7,6.7-1.7,9.7,0l79.2,45.7c3,1.7,4.8,4.9,4.8,8.4v91.4
			C446,425.8,444.2,429,441.2,430.7z"/>
		<g>
			<g>
				<polyline fill="none" stroke="#F7A166" stroke-width="2" stroke-miterlimit="10" points="334.3,345.9 308,371.3 329.6,391.4 
									"/>
				<polyline fill="none" stroke="#F7A166" stroke-width="2" stroke-miterlimit="10" points="379.4,347 404.7,371.3 377.5,396.7 
									"/>
				<line fill="none" stroke="#F7A166" stroke-width="2" stroke-miterlimit="10" x1="367.3" y1="334.6" x2="341.5" y2="403.6"/>
			</g>
			<path fill="none" stroke="#F7A166" stroke-width="2" stroke-miterlimit="10" d="M427.7,423l-67.2,38.8c-2.5,1.5-5.7,1.5-8.2,0
				L285.1,423c-2.5-1.5-4.1-4.2-4.1-7.1v-77.5c0-2.9,1.6-5.7,4.1-7.1l67.2-38.8c2.5-1.5,5.7-1.5,8.2,0l67.2,38.8
				c2.5,1.5,4.1,4.2,4.1,7.1v77.5C431.8,418.8,430.2,421.5,427.7,423z"/>
			<g>
				<path fill="#F7A166" d="M332.9,419.8h3.7c0.8,0,1.5,0.1,1.9,0.2c0.6,0.2,1.1,0.5,1.5,0.9c0.4,0.4,0.7,1,1,1.6
					c0.2,0.6,0.3,1.4,0.3,2.4c0,0.8-0.1,1.5-0.3,2.1c-0.3,0.7-0.6,1.3-1.1,1.8c-0.4,0.3-0.8,0.6-1.4,0.8c-0.4,0.1-1,0.2-1.8,0.2
					h-3.8V419.8z M334.9,421.5v6.7h1.5c0.6,0,1,0,1.2-0.1c0.3-0.1,0.6-0.2,0.8-0.4c0.2-0.2,0.4-0.5,0.5-1c0.1-0.5,0.2-1.1,0.2-1.8
					s-0.1-1.4-0.2-1.8c-0.1-0.4-0.3-0.7-0.6-1c-0.2-0.2-0.6-0.4-0.9-0.5c-0.3-0.1-0.8-0.1-1.7-0.1H334.9z"/>
				<path fill="#F7A166" d="M343,429.9v-10.1h7.5v1.7h-5.4v2.2h5.1v1.7h-5.1v2.7h5.6v1.7H343z"/>
				<path fill="#F7A166" d="M351.9,426.6l2-0.2c0.1,0.7,0.4,1.2,0.7,1.5c0.4,0.3,0.9,0.5,1.5,0.5c0.7,0,1.1-0.1,1.5-0.4
					c0.3-0.3,0.5-0.6,0.5-1c0-0.2-0.1-0.4-0.2-0.6c-0.1-0.2-0.4-0.3-0.7-0.4c-0.2-0.1-0.8-0.2-1.6-0.4c-1.1-0.3-1.9-0.6-2.3-1
					c-0.6-0.6-0.9-1.2-0.9-2c0-0.5,0.1-1,0.4-1.4c0.3-0.4,0.7-0.8,1.3-1c0.5-0.2,1.2-0.4,2-0.4c1.3,0,2.2,0.3,2.9,0.8
					c0.6,0.6,1,1.3,1,2.2l-2,0.1c-0.1-0.5-0.3-0.9-0.6-1.1c-0.3-0.2-0.7-0.3-1.3-0.3c-0.6,0-1.1,0.1-1.4,0.4
					c-0.2,0.2-0.3,0.4-0.3,0.6c0,0.2,0.1,0.4,0.3,0.6c0.3,0.2,0.9,0.4,1.9,0.7c1,0.2,1.7,0.5,2.2,0.7c0.5,0.3,0.8,0.6,1.1,1
					c0.3,0.4,0.4,1,0.4,1.6c0,0.6-0.2,1.1-0.5,1.6c-0.3,0.5-0.8,0.9-1.4,1.1c-0.6,0.2-1.3,0.4-2.2,0.4c-1.3,0-2.3-0.3-2.9-0.9
					C352.4,428.6,352,427.7,351.9,426.6z"/>
				<path fill="#F7A166" d="M361.8,429.9v-10.1h2v10.1H361.8z"/>
				<path fill="#F7A166" d="M370.4,426.2v-1.7h4.4v4c-0.4,0.4-1,0.8-1.9,1.1c-0.8,0.3-1.6,0.5-2.5,0.5c-1.1,0-2-0.2-2.8-0.7
					c-0.8-0.4-1.4-1.1-1.8-1.9c-0.4-0.8-0.6-1.7-0.6-2.7c0-1,0.2-2,0.7-2.8c0.4-0.8,1.1-1.4,1.9-1.9c0.6-0.3,1.5-0.5,2.4-0.5
					c1.3,0,2.2,0.3,2.9,0.8c0.7,0.5,1.2,1.2,1.4,2.2l-2,0.4c-0.1-0.5-0.4-0.9-0.8-1.2c-0.4-0.3-0.9-0.4-1.5-0.4
					c-0.9,0-1.6,0.3-2.1,0.8c-0.5,0.6-0.8,1.4-0.8,2.5c0,1.2,0.3,2.1,0.8,2.7c0.5,0.6,1.2,0.9,2.1,0.9c0.4,0,0.9-0.1,1.3-0.3
					c0.4-0.2,0.8-0.4,1.1-0.6v-1.3H370.4z"/>
				<path fill="#F7A166" d="M376.7,429.9v-10.1h2l4.1,6.7v-6.7h1.9v10.1h-2l-4.1-6.6v6.6H376.7z"/>
			</g>
		</g>
	</g>
</g>
</svg>
