<svg width="609" height="120" viewBox="0 0 609 120" xmlns="http://www.w3.org/2000/svg"><g fill-rule="nonzero" fill="none"><g fill="#FFB647"><path d="M33.995 73.92l-15.46-14.4 18.63-18.048 1.344 1.44-17.19 16.608 14.02 12.96zM67.99 77.472l-1.344-1.344L84.508 59.52 67.894 43.584l1.345-1.344 18.054 17.28zM59.495 34.095l1.799.673-17.637 47.11-1.799-.674z"/><path d="M52.913 119.424c-1.152 0-2.304-.288-3.265-.864L3.745 92.064C1.73 90.912.48 88.704.48 86.4V33.504c0-2.304 1.249-4.512 3.265-5.664l45.903-26.4c2.017-1.152 4.61-1.152 6.53 0l45.904 26.4c2.016 1.152 3.265 3.36 3.265 5.664V86.4c0 2.304-1.249 4.512-3.265 5.664l-45.807 26.4c-1.057.672-2.21.96-3.362.96zm0-116.928c-.768 0-1.632.192-2.304.576L4.706 29.568c-1.44.864-2.305 2.4-2.305 4.032v52.8c0 1.632.864 3.168 2.305 4.032l45.807 26.4c1.44.768 3.265.768 4.61 0l45.806-26.4c1.44-.864 2.305-2.4 2.305-4.032V33.504c0-1.632-.864-3.168-2.305-4.032l-45.71-26.4c-.673-.384-1.537-.576-2.306-.576z"/><g><path d="M36.876 89.088h2.497c.576 0 .96 0 1.344.096.385.096.769.288 1.057.672.288.384.48.672.672 1.152.192.48.192.96.192 1.632 0 .576-.096 1.056-.192 1.44-.192.48-.384.864-.768 1.248-.288.192-.576.384-.96.576-.289.096-.673.192-1.249.192h-2.593v-7.008zm1.345 1.152v4.512h1.056c.384 0 .672 0 .864-.096l.576-.288c.193-.096.289-.384.385-.672.096-.288.096-.768.096-1.248s0-.96-.096-1.248c-.096-.288-.192-.48-.385-.672-.192-.192-.384-.288-.672-.288-.192 0-.576-.096-1.152-.096h-.672v.096zM43.79 96v-6.912h5.09v1.152h-3.745v1.536h3.457v1.152h-3.457v1.824h3.841v1.152H43.79zM49.84 93.696l1.345-.096c.096.48.288.768.48.96.288.192.576.288.96.288.48 0 .769-.096 1.057-.288.192-.192.384-.384.384-.672 0-.192 0-.288-.096-.384-.096-.096-.288-.192-.48-.288-.192-.096-.577-.192-1.153-.288-.768-.192-1.248-.384-1.536-.672-.384-.384-.672-.864-.672-1.344 0-.384.096-.672.288-.96.192-.288.48-.576.864-.672.384-.192.864-.192 1.344-.192.865 0 1.537.192 1.921.576.48.384.672.864.672 1.536l-1.344.096c-.096-.384-.192-.576-.384-.768-.192-.192-.48-.192-.865-.192-.384 0-.672.096-.96.288-.192.096-.192.288-.192.384 0 .192.096.288.192.384.192.192.576.288 1.248.48.673.192 1.153.288 1.537.48.288.192.576.384.768.672.192.288.288.672.288 1.056s-.096.768-.288 1.152c-.192.384-.48.576-.96.768-.384.192-.864.288-1.537.288-.864 0-1.536-.192-2.016-.576-.48-.576-.768-1.248-.865-2.016zM56.563 96v-6.912h1.344V96zM62.517 93.408v-1.152h2.977v2.784c-.288.288-.673.576-1.249.768-.576.192-1.152.288-1.632.288-.673 0-1.345-.192-1.92-.48-.577-.288-.961-.768-1.25-1.248-.287-.576-.383-1.152-.383-1.824 0-.672.192-1.344.48-1.92.288-.576.768-.96 1.344-1.248.48-.192.96-.384 1.633-.384.864 0 1.536.192 2.016.576.48.384.769.864.96 1.44l-1.344.288c-.096-.384-.288-.576-.576-.768-.288-.192-.576-.288-.96-.288-.576 0-1.057.192-1.44.576-.385.384-.577.96-.577 1.728s.192 1.44.576 1.824c.384.384.865.576 1.44.576.289 0 .577-.096.865-.192.288-.096.576-.288.768-.384v-.864h-1.728v-.096zM66.742 96v-6.912h1.345l2.784 4.608v-4.608h1.249V96h-1.44l-2.786-4.512V96z"/></g></g><g fill="#18F2B2"><path d="M192.68 77.184l-4.418-4.512 1.632-6.048 6.05-1.632 4.418 4.416-1.633 6.048-6.05 1.728zm-2.305-5.088l2.88 2.88 3.938-1.056 1.056-3.936-2.88-2.88-3.938 1.056-1.056 3.936z"/><path d="M194.6 82.752c-3.073 0-6.05-1.248-8.259-3.456-3.073-3.072-3.649-7.776-2.977-11.232l-19.59-18.72c-.768.096-1.537.192-2.305.192-3.169 0-6.242-1.248-8.355-3.36-2.977-2.976-3.937-7.392-2.497-11.712l.48-1.536 7.203 7.2 4.033-1.536 1.44-3.84-7.202-7.2 1.537-.48c1.248-.384 2.593-.672 3.937-.672 2.977 0 5.762 1.152 7.779 3.168 2.689 2.688 3.841 6.72 3.169 10.656l18.726 19.68c.864-.192 1.825-.288 2.689-.288 3.361 0 6.53 1.152 8.547 3.168 4.513 4.512 4.513 11.904 0 16.512-2.305 2.304-5.282 3.456-8.355 3.456zm-30.25-35.424l21.127 20.16-.096.576c-.768 2.976-.384 7.296 2.305 9.984 1.824 1.824 4.321 2.88 6.914 2.88s5.09-1.056 6.914-2.88c3.842-3.84 3.842-9.984 0-13.728-1.728-1.728-4.321-2.688-7.202-2.688-.96 0-1.92.096-2.785.384l-.576.096-20.167-21.216.096-.48c.768-3.456-.192-7.008-2.497-9.408-2.112-2.112-5.09-2.976-8.162-2.496l5.762 5.76-2.113 5.856-5.954 2.304-5.858-5.856c-.576 3.072.384 6.048 2.497 8.256 1.824 1.824 4.321 2.784 7.01 2.784.768 0 1.633-.096 2.4-.288h.385z"/><path d="M178.755 119.424c-1.153 0-2.305-.288-3.265-.864l-45.903-26.496c-2.017-1.152-3.266-3.36-3.266-5.664V33.504c0-2.304 1.249-4.512 3.266-5.664l45.903-26.4c2.016-1.152 4.61-1.152 6.53 0l45.903 26.4c2.017 1.152 3.265 3.36 3.265 5.664V86.4c0 2.304-1.248 4.512-3.265 5.664l-45.807 26.4c-1.056.672-2.209.96-3.361.96zm0-116.928c-.768 0-1.633.192-2.305.576l-45.903 26.496c-1.44.864-2.305 2.4-2.305 4.032v52.8c0 1.632.864 3.168 2.305 4.032l45.807 26.4c1.44.768 3.265.768 4.61 0l45.807-26.4c1.44-.864 2.304-2.4 2.304-4.032V33.504c0-1.632-.864-3.168-2.304-4.032l-45.711-26.4c-.673-.384-1.537-.576-2.305-.576z"/><g><path d="M166.463 89.088h2.785c.576 0 .96 0 1.248.096.288 0 .48.096.672.288.192.096.384.288.48.576.096.192.192.48.192.768 0 .288-.096.576-.288.864-.192.288-.384.48-.672.576.384.096.768.288.96.576.193.288.385.672.385 1.056 0 .288-.096.576-.192.96-.193.288-.385.576-.577.672-.288.192-.576.288-.96.288h-3.937v-6.72h-.096zm1.344 1.152v1.632H169.631c.193 0 .385-.096.577-.288.096-.096.192-.288.192-.576 0-.192-.096-.384-.192-.48-.096-.096-.288-.192-.48-.288h-1.921zm0 2.784v1.824h2.209c.192 0 .384-.096.48-.288.096-.192.192-.384.192-.576 0-.192-.096-.384-.192-.48-.096-.096-.288-.288-.48-.288-.192-.096-.576-.096-1.249-.096h-.96v-.096zM173.377 89.088h1.344v3.744c0 .576 0 .96.096 1.152.096.288.193.48.385.672.192.192.576.288.96.288s.672-.096.864-.288c.192-.192.288-.384.384-.576.096-.192.096-.576.096-1.152v-3.84h1.345v3.648c0 .864 0 1.44-.096 1.728-.096.288-.192.672-.384.864-.192.192-.48.384-.769.576-.384.096-.768.192-1.344.192-.672 0-1.152-.096-1.537-.192-.384-.192-.576-.384-.768-.576-.192-.288-.288-.48-.384-.768-.096-.384-.096-.96-.096-1.728v-3.744h-.096zM180.291 96v-6.912h1.345V96zM182.98 96v-6.816h1.44v5.664h3.458V96h-4.898zM188.838 89.088h2.497c.576 0 .96 0 1.344.096.384.096.769.288 1.057.672.288.384.48.672.672 1.152.192.48.192.96.192 1.632 0 .576-.096 1.056-.192 1.44-.192.48-.384.864-.768 1.248-.288.192-.577.384-.96.576-.289.096-.673.192-1.249.192h-2.593v-7.008zm1.44 1.152v4.512h1.057c.384 0 .672 0 .864-.096l.576-.288c.192-.096.288-.384.385-.672.096-.288.096-.768.096-1.248s0-.96-.096-1.248c-.097-.288-.193-.48-.385-.672-.192-.192-.384-.288-.672-.288-.192 0-.576-.096-1.152-.096h-.672v.096z"/></g></g><g fill="#14E5DB"><path d="M297.298 71.808l-4.322-2.304v-4.896l4.322-2.4 4.321 2.4v4.896l-4.321 2.304zm-2.401-3.456l2.4 1.344 2.401-1.344V65.76l-2.4-1.344-2.401 1.344v2.592zM306.42 78.336l-3.84-2.304V71.52l3.84-2.304 3.842 2.304v4.512l-3.841 2.304zm-1.92-3.456l1.92 1.152 1.921-1.152v-2.304l-1.92-1.152-1.921 1.152v2.304zM314.583 73.536l-3.36-1.92v-3.84l3.36-1.92 3.361 1.92v3.84l-3.36 1.92zm-1.44-2.976l1.44.864 1.44-.864v-1.632l-1.44-.864-1.44.768v1.728z"/><path d="M304.596 119.424c-1.152 0-2.305-.288-3.265-.864l-45.903-26.496c-2.017-1.152-3.265-3.36-3.265-5.664V33.504c0-2.304 1.248-4.512 3.265-5.664l45.903-26.4c2.017-1.152 4.61-1.152 6.53 0l45.903 26.4c2.017 1.152 3.265 3.36 3.265 5.664V86.4c0 2.304-1.248 4.512-3.265 5.664l-45.807 26.4c-1.056.672-2.209.96-3.361.96zm0-116.928c-.768 0-1.633.192-2.305.576l-45.903 26.496c-1.44.864-2.305 2.4-2.305 4.032v52.8c0 1.632.865 3.168 2.305 4.032l45.807 26.4c1.44.768 3.265.768 4.61 0l45.807-26.4c1.44-.864 2.305-2.4 2.305-4.032V33.504c0-1.632-.865-3.168-2.305-4.032L306.9 3.072c-.672-.384-1.537-.576-2.305-.576z"/><path d="M296.241 96v-5.76h-2.016v-1.152h5.473v1.152h-2.016v5.664h-1.44zM300.563 96v-6.912h5.09v1.152h-3.746v1.536h3.457v1.152h-3.457v1.824h3.841v1.152h-5.185zM306.613 93.696l1.344-.096c.096.48.288.768.48.96.288.192.576.288.96.288.48 0 .769-.096 1.057-.288.192-.192.384-.384.384-.672 0-.192 0-.288-.096-.384-.096-.096-.288-.192-.48-.288-.192-.096-.576-.192-1.152-.288-.769-.192-1.249-.384-1.537-.672-.384-.384-.672-.864-.672-1.344 0-.384.096-.672.288-.96.192-.288.48-.576.864-.672.384-.192.864-.192 1.345-.192.864 0 1.536.192 1.92.576.48.384.672.864.672 1.536l-1.344.096c-.096-.384-.192-.576-.384-.768-.192-.192-.48-.192-.864-.192-.385 0-.673.096-.96.288-.193.096-.193.288-.193.384 0 .192.096.288.192.384.192.192.576.288 1.249.48.672.192 1.152.288 1.536.48.288.192.576.384.768.672.193.288.289.672.289 1.056s-.096.768-.289 1.152c-.192.384-.48.576-.96.768-.384.192-.864.288-1.536.288-.865 0-1.537-.192-2.017-.576-.48-.576-.768-1.248-.864-2.016zM314.871 96v-5.76h-2.016v-1.152h5.474v1.152h-2.017v5.664h-1.44zM327.356 82.176H281.74c-.768 0-1.344-.384-1.728-1.056-.384-.672-.384-1.44 0-2.016l18.438-31.776V29.856l-3.073-.768V23.52h17.766v5.088l-3.17.96V47.04l19.111 31.968c.384.672.384 1.44 0 2.016-.384.576-.96 1.152-1.728 1.152zm-30.058-54.528l3.073.768v19.488l-18.727 32.16v.096c0 .096.096.096.096.096h45.616s.096 0 .096-.096v-.096l-19.303-32.448V28.128l3.17-.96v-1.632h-14.021v2.112z"/><path d="M302.58 28.8h1.92V48h-1.92zM292.977 58.56h17.286v1.92h-17.286z"/></g><g fill="#26D3FF"><path d="M430.437 119.424c-1.152 0-2.304-.288-3.265-.864L381.27 92.064c-2.017-1.152-3.265-3.36-3.265-5.664V33.504c0-2.304 1.248-4.512 3.265-5.664l45.903-26.4c2.017-1.152 4.61-1.152 6.53 0l45.904 26.4c2.016 1.152 3.265 3.36 3.265 5.664V86.4c0 2.304-1.249 4.512-3.265 5.664l-45.808 26.4c-1.056.672-2.208.96-3.36.96zm0-116.928c-.768 0-1.632.192-2.304.576l-45.904 26.496c-1.44.864-2.304 2.4-2.304 4.032v52.8c0 1.632.864 3.168 2.304 4.032l45.808 26.4c1.44.768 3.265.768 4.609 0l45.807-26.4c1.44-.864 2.305-2.4 2.305-4.032V33.504c0-1.632-.864-3.168-2.305-4.032l-45.71-26.4c-.673-.384-1.537-.576-2.306-.576z"/><path d="M416.897 39.36h19.206v1.92h-19.206zM416.897 46.08h16.325V48h-16.325zM416.897 52.8h19.206v1.92h-19.206zM416.897 59.52h25.929v1.92h-25.93zM416.897 66.24h25.929v1.92h-25.93zM416.897 72.96h25.929v1.92h-25.93zM445.226 51.264l-4.513-4.416 1.344-1.44 3.17 3.168 9.698-9.696 1.345 1.344z"/><path d="M446.187 56.16c-4.994 0-9.124-4.128-9.124-9.12 0-4.992 4.13-9.12 9.124-9.12 4.993 0 9.123 4.128 9.123 9.12 0 4.992-4.13 9.12-9.123 9.12zm0-16.32c-3.938 0-7.203 3.264-7.203 7.2 0 3.936 3.265 7.2 7.203 7.2 3.937 0 7.202-3.168 7.202-7.2s-3.265-7.2-7.202-7.2z"/><path d="M449.548 81.6h-38.413V32.64h38.413v3.84h-1.921v-1.92h-34.571v45.12h34.571V59.52h1.92z"/><g><path d="M405.085 89.088h2.497c.576 0 .96 0 1.344.096.384.096.768.288 1.057.672.288.384.48.672.672 1.152.192.48.192.96.192 1.632 0 .576-.096 1.056-.192 1.44-.192.48-.384.864-.768 1.248-.289.192-.577.384-.96.576-.289.096-.673.192-1.25.192h-2.592v-7.008zm1.344 1.152v4.512h1.057c.384 0 .672 0 .864-.096l.576-.288c.192-.096.288-.384.384-.672.096-.288.096-.768.096-1.248s0-.96-.096-1.248c-.096-.288-.192-.48-.384-.672-.192-.192-.384-.288-.672-.288-.192 0-.576-.096-1.152-.096h-.673v.096zM411.711 92.544c0-.672.096-1.248.288-1.728.192-.384.384-.672.672-.96.289-.288.577-.48.865-.576.384-.192.96-.288 1.44-.288 1.057 0 1.825.288 2.401.96.576.672.96 1.536.96 2.592 0 1.152-.288 2.016-.864 2.592-.576.672-1.44.96-2.4.96-1.057 0-1.825-.288-2.402-.96-.672-.576-.96-1.44-.96-2.592zm1.44 0c0 .768.193 1.344.577 1.728.384.384.768.576 1.344.576.576 0 .96-.192 1.345-.576.384-.384.576-.96.576-1.824 0-.768-.192-1.344-.48-1.728-.384-.384-.769-.576-1.345-.576s-1.056.192-1.344.576c-.48.384-.672 1.056-.672 1.824zM423.907 93.408l1.345.384c-.192.768-.577 1.344-1.057 1.632-.48.384-1.056.576-1.824.576-.96 0-1.633-.288-2.21-.96-.575-.672-.863-1.44-.863-2.592 0-1.152.288-2.016.864-2.688.576-.672 1.344-.96 2.305-.96.864 0 1.536.288 2.016.768.288.288.577.672.673 1.248l-1.345.288c-.096-.384-.288-.672-.48-.864-.288-.192-.576-.288-.96-.288-.48 0-.96.192-1.249.576-.288.384-.48.96-.48 1.824 0 .864.192 1.44.48 1.824.288.384.672.576 1.249.576.384 0 .672-.096.96-.384.288-.288.384-.384.576-.96zM426.404 89.088h1.344v3.744c0 .576 0 .96.096 1.152.096.288.193.48.385.672.192.192.576.288.96.288s.672-.096.864-.288c.192-.192.288-.384.384-.576.096-.192.096-.576.096-1.152v-3.84h1.345v3.648c0 .864 0 1.44-.096 1.728-.096.288-.192.672-.384.864-.192.192-.48.384-.769.576-.384.096-.768.192-1.344.192-.672 0-1.152-.096-1.537-.192-.384-.192-.576-.384-.768-.576-.192-.288-.288-.48-.384-.768-.096-.384-.096-.96-.096-1.728v-3.744h-.096zM433.318 96v-6.912h2.113l1.248 4.704 1.249-4.704h2.016V96h-1.248v-5.376L437.352 96h-1.345l-1.344-5.376V96zM441.289 96v-6.912h5.09v1.152h-3.746v1.536h3.457v1.152h-3.457v1.824h3.842v1.152h-5.186zM447.723 96v-6.912h1.344l2.785 4.608v-4.608h1.249V96h-1.44l-2.786-4.512V96zM456.27 96v-5.76h-2.017v-1.152h5.474v1.152h-2.017v5.664h-1.44z"/></g></g><g fill="#B2ABF2"><path d="M534.575 49.056l-8.162-4.416v-8.832l8.162-4.32 8.163 4.32v8.832l-8.163 4.416zm-6.242-5.568l6.242 3.36 6.242-3.36V36.96l-6.242-3.36-6.242 3.36v6.528zM578.27 49.632l-7.683-4.416V36.48l7.683-4.416 7.682 4.416v8.832l-7.682 4.32zm-5.762-5.472l5.762 3.264 5.762-3.264v-6.624l-5.762-3.264-5.762 3.264v6.624zM556.663 39.552l-8.163-4.32V26.4l8.163-4.32 8.162 4.32v8.832l-8.162 4.32zm-6.242-5.472l6.242 3.36 6.242-3.36v-6.528l-6.242-3.36-6.242 3.36v6.528zM556.663 82.944l-10.084-5.376V66.72l10.084-5.376 10.083 5.376v10.848l-10.083 5.376zm-8.163-6.528l8.163 4.32 8.162-4.32v-8.544l-8.162-4.32-8.163 4.32v8.544z"/><path d="M538.956 45.778L552.041 64.4l-1.571 1.104-13.085-18.622zM573.724 46.264l1.578 1.096-12.595 18.137-1.578-1.096zM555.222 39.36h1.92v24h-1.92z"/><path d="M556.279 119.424c-1.153 0-2.305-.288-3.266-.864L507.11 92.064c-2.016-1.152-3.265-3.36-3.265-5.664V33.504c0-2.304 1.249-4.512 3.265-5.664l45.903-26.4c2.017-1.152 4.61-1.152 6.53 0l45.904 26.4c2.016 1.152 3.265 3.36 3.265 5.664V86.4c0 2.304-1.249 4.512-3.265 5.664l-45.807 26.4c-1.057.672-2.209.96-3.361.96zm0-116.928c-.769 0-1.633.192-2.305.576L508.07 29.568c-1.44.864-2.305 2.4-2.305 4.032v52.8c0 1.632.864 3.168 2.305 4.032l45.807 26.4c1.44.768 3.265.768 4.61 0l45.806-26.4c1.44-.864 2.305-2.4 2.305-4.032V33.504c0-1.632-.864-3.168-2.305-4.032l-45.71-26.4c-.673-.384-1.537-.576-2.305-.576z"/><path d="M540.53 93.696l1.344-.096c.096.48.288.768.48.96.288.192.576.288.96.288.48 0 .769-.096 1.057-.288.192-.192.384-.384.384-.672 0-.192 0-.288-.096-.384-.096-.096-.288-.192-.48-.288-.192-.096-.577-.192-1.153-.288-.768-.192-1.248-.384-1.536-.672-.384-.384-.673-.864-.673-1.344 0-.384.096-.672.289-.96.192-.288.48-.576.864-.672.384-.192.864-.192 1.344-.192.865 0 1.537.192 1.92.576.481.384.673.864.673 1.536l-1.344.096c-.096-.384-.192-.576-.384-.768-.192-.192-.48-.192-.865-.192-.384 0-.672.096-.96.288-.192.096-.192.288-.192.384 0 .192.096.288.192.384.192.192.576.288 1.248.48.673.192 1.153.288 1.537.48.288.192.576.384.768.672.192.288.288.672.288 1.056s-.096.768-.288 1.152c-.192.384-.48.576-.96.768-.384.192-.864.288-1.537.288-.864 0-1.536-.192-2.016-.576-.48-.576-.769-1.248-.865-2.016zM547.252 96v-6.912h1.344v2.688h2.785v-2.688h1.344V96h-1.344v-2.976h-2.689V96zM560.408 96h-1.537l-.576-1.536h-2.785L554.934 96h-1.44l2.689-6.912h1.44L560.408 96zm-2.593-2.784l-.96-2.592-.96 2.592h1.92zM561.176 96v-6.912h2.881c.768 0 1.249.096 1.633.192.288.096.576.384.768.672.192.288.288.672.288 1.056 0 .48-.192.96-.48 1.248-.288.288-.768.576-1.345.672.289.192.577.384.769.576.192.192.48.576.768 1.152l.864 1.344h-1.632l-.96-1.536c-.385-.576-.577-.864-.769-1.056-.096-.096-.288-.192-.384-.288-.192-.096-.384-.096-.672-.096h-.288v2.88h-1.44V96zm1.345-4.032h1.056c.672 0 1.056 0 1.248-.096.192-.096.288-.192.385-.288.096-.096.096-.288.096-.48s-.096-.384-.193-.576c-.096-.096-.288-.192-.48-.288h-2.112v1.728zM568.09 96v-6.912h5.09v1.152h-3.745v1.536h3.457v1.152h-3.457v1.824h3.841v1.152h-5.186z"/></g></g></svg>