<?xml version="1.0" encoding="utf-8"?>
<!-- Generator: Adobe Illustrator 18.1.1, SVG Export Plug-In . SVG Version: 6.00 Build 0)  -->
<svg version="1.1" id="Layer_1" xmlns="http://www.w3.org/2000/svg" xmlns:xlink="http://www.w3.org/1999/xlink" x="0px" y="0px"
	 width="134.8px" height="132.8px" viewBox="0 0 134.8 132.8" enable-background="new 0 0 134.8 132.8" xml:space="preserve">
<g>
	<path fill="#66C4E8" d="M68.5,8.3c-32.2,0-58.2,25.9-58.3,58.2c-0.1,26.4,17.4,48.7,41.4,56c0,0,0.1,0,0.1,0
		c2.4-0.5,2.2-2.6,2.2-2.6s0.1-5.8,0.1-11.7c-10.3,2.5-13.9,0.1-17.3-3.1c-2.2-2.1-4.1-9.5-7-11.2c-2.9-1.7-6.1-3.6-3.2-4.4
		c2.9-0.7,5.3-0.7,10.4,5.8c5.1,6.6,7.5,6.2,11.2,7c1.7,0.3,3.9-1,5.8-1.8c0,0,0,0,0,0c-0.2-3.9,1.8-6.6,3.6-8.3
		c-9-0.8-22.6-3.9-25.7-21.1c-3.2-17.5,5.6-22.8,5.6-22.8c-2.8-7.8-0.5-13.4,0.4-15.2c0.2-0.4,0.6-0.6,1-0.6
		c8-0.1,14.9,5.9,14.9,5.9c15.8-4.4,29.6,0,29.6,0c8.9-5.9,13.6-6.3,15.3-6.2c0.4,0,0.8,0.3,1,0.7c3.4,6.5,0.7,15.4,0.7,15.4
		c4.9,4.6,8.3,13.1,4.1,27.9c-4,14.4-22.5,15.9-24.8,16c5.1,5.1,4,11.2,4,11.2s-0.2,10.9,0,14.8c0,0.1,0,0.2,0,0.3
		c0.3,2.4,2.8,3.8,5,3c22.4-8.2,38.3-29.6,38.3-54.8C126.8,34.4,100.7,8.3,68.5,8.3z"/>
</g>
</svg>
