<?xml version="1.0" encoding="UTF-8" standalone="no"?>
<svg
   xmlns:dc="http://purl.org/dc/elements/1.1/"
   xmlns:cc="http://creativecommons.org/ns#"
   xmlns:rdf="http://www.w3.org/1999/02/22-rdf-syntax-ns#"
   xmlns:svg="http://www.w3.org/2000/svg"
   xmlns="http://www.w3.org/2000/svg"
   xml:space="preserve"
   enable-background="new 0 0 1008 564"
   viewBox="0 0 1008 564"
   y="0px"
   x="0px"
   id="Layer_1"
   version="1.1"><metadata
     id="metadata221"><rdf:RDF><cc:Work
         rdf:about=""><dc:format>image/svg+xml</dc:format><dc:type
           rdf:resource="http://purl.org/dc/dcmitype/StillImage" /></cc:Work></rdf:RDF></metadata><defs
     id="defs219" /><g
     id="g3"><path
       id="path5"
       d="M864.2,513.7l-61.4,35.4   c-2.3,1.3-5.2,1.3-7.5,0l-61.4-35.4c-2.3-1.3-3.8-3.8-3.8-6.5v-70.8c0-2.7,1.4-5.2,3.8-6.5l61.4-35.4c2.3-1.3,5.2-1.3,7.5,0   l61.4,35.4c2.3,1.3,3.8,3.8,3.8,6.5v70.8C867.9,509.9,866.5,512.4,864.2,513.7z"
       stroke-miterlimit="10"
       stroke-width="0.7743"
       stroke="#686969"
       fill="#282D36" /><g
       id="g7"><path
         id="path9"
         d="M854.3,507.7l-52,30c-2,1.1-4.4,1.1-6.4,0    l-52-30c-2-1.1-3.2-3.2-3.2-5.5v-60c0-2.3,1.2-4.4,3.2-5.5l52-30c2-1.1,4.4-1.1,6.4,0l52,30c2,1.1,3.2,3.2,3.2,5.5v60    C857.5,504.5,856.3,506.6,854.3,507.7z"
         stroke-miterlimit="10"
         stroke-width="1.5486"
         stroke="#AA85BC"
         fill="none" /><g
         id="g11"><line
           id="line13"
           y2="450.5"
           x2="805"
           y1="450.5"
           x1="784"
           stroke-miterlimit="10"
           stroke="#AA85BC"
           fill="none" /><line
           id="line15"
           y2="458.5"
           x2="803"
           y1="458.5"
           x1="784"
           stroke-miterlimit="10"
           stroke="#AA85BC"
           fill="none" /><line
           id="line17"
           y2="466.5"
           x2="805"
           y1="466.5"
           x1="784"
           stroke-miterlimit="10"
           stroke="#AA85BC"
           fill="none" /><line
           id="line19"
           y2="472.5"
           x2="814"
           y1="472.5"
           x1="784"
           stroke-miterlimit="10"
           stroke="#AA85BC"
           fill="none" /><line
           id="line21"
           y2="481.5"
           x2="814"
           y1="481.5"
           x1="784"
           stroke-miterlimit="10"
           stroke="#AA85BC"
           fill="none" /><line
           id="line23"
           y2="488.5"
           x2="814"
           y1="488.5"
           x1="784"
           stroke-miterlimit="10"
           stroke="#AA85BC"
           fill="none" /><polyline
           id="polyline25"
           points="811.6,456.5 815.9,460.8      827.6,449.1    "
           stroke-miterlimit="10"
           stroke-width="1.5486"
           stroke="#AA85BC"
           fill="none" /><circle
           id="circle27"
           r="9.3"
           cy="457.6"
           cx="816.9"
           stroke-miterlimit="10"
           stroke-width="1.5486"
           stroke="#AA85BC"
           fill="none" /><polyline
           id="polyline29"
           points="819.5,472 819.5,497.5 777.5,497.5 777.5,443.5      819.5,443.5 819.5,447    "
           stroke-miterlimit="10"
           stroke="#AA85BC"
           fill="none" /></g><g
         id="g31"><path
           id="path33"
           d="M770.3,505.3h2.9c0.6,0,1.1,0.1,1.5,0.1c0.5,0.1,0.8,0.4,1.2,0.7s0.6,0.8,0.7,1.3     c0.2,0.5,0.3,1.1,0.3,1.8c0,0.6-0.1,1.2-0.2,1.7c-0.2,0.6-0.5,1-0.8,1.4c-0.3,0.3-0.6,0.5-1.1,0.6c-0.3,0.1-0.8,0.2-1.4,0.2h-3     V505.3z M771.9,506.6v5.2h1.2c0.4,0,0.8,0,1-0.1c0.3-0.1,0.5-0.2,0.6-0.3c0.2-0.2,0.3-0.4,0.4-0.8c0.1-0.3,0.2-0.8,0.2-1.4     c0-0.6-0.1-1.1-0.2-1.4c-0.1-0.3-0.3-0.6-0.4-0.8c-0.2-0.2-0.4-0.3-0.7-0.4c-0.2-0.1-0.7-0.1-1.3-0.1H771.9z"
           fill="#AA85BC" /><path
           id="path35"
           d="M777.8,509.2c0-0.8,0.1-1.5,0.4-2c0.2-0.4,0.4-0.8,0.7-1.1c0.3-0.3,0.6-0.6,1-0.7c0.5-0.2,1-0.3,1.7-0.3     c1.1,0,2.1,0.4,2.8,1.1c0.7,0.7,1,1.7,1,3c0,1.3-0.3,2.2-1,3c-0.7,0.7-1.6,1.1-2.7,1.1c-1.2,0-2.1-0.4-2.8-1.1     C778.2,511.4,777.8,510.5,777.8,509.2z M779.5,509.2c0,0.9,0.2,1.6,0.6,2c0.4,0.5,0.9,0.7,1.6,0.7c0.6,0,1.1-0.2,1.5-0.7     c0.4-0.5,0.6-1.1,0.6-2c0-0.9-0.2-1.6-0.6-2c-0.4-0.4-0.9-0.7-1.6-0.7s-1.2,0.2-1.6,0.7C779.7,507.6,779.5,508.3,779.5,509.2z"
           fill="#AA85BC" /><path
           id="path37"
           d="M791.6,510.2l1.5,0.5c-0.2,0.9-0.6,1.5-1.2,1.9c-0.5,0.4-1.2,0.6-2.1,0.6c-1,0-1.9-0.4-2.6-1.1     c-0.7-0.7-1-1.7-1-2.9c0-1.3,0.3-2.3,1-3c0.7-0.7,1.6-1.1,2.6-1.1c1,0,1.7,0.3,2.3,0.8c0.4,0.3,0.6,0.8,0.8,1.4l-1.6,0.4     c-0.1-0.4-0.3-0.7-0.6-1c-0.3-0.2-0.6-0.4-1.1-0.4c-0.6,0-1,0.2-1.4,0.6c-0.4,0.4-0.5,1.1-0.5,2c0,1,0.2,1.7,0.5,2.1     c0.4,0.4,0.8,0.6,1.4,0.6c0.4,0,0.8-0.1,1.1-0.4C791.3,511.2,791.5,510.8,791.6,510.2z"
           fill="#AA85BC" /><path
           id="path39"
           d="M794.5,505.3h1.6v4.2c0,0.7,0,1.1,0.1,1.3c0.1,0.3,0.2,0.6,0.5,0.8c0.3,0.2,0.6,0.3,1,0.3     c0.4,0,0.8-0.1,1-0.3c0.2-0.2,0.4-0.4,0.4-0.7s0.1-0.7,0.1-1.3v-4.3h1.6v4.1c0,0.9,0,1.6-0.1,2s-0.2,0.7-0.5,1     c-0.2,0.3-0.5,0.5-0.9,0.6c-0.4,0.2-0.9,0.2-1.5,0.2c-0.7,0-1.3-0.1-1.7-0.3c-0.4-0.2-0.7-0.4-0.9-0.7c-0.2-0.3-0.4-0.6-0.4-0.9     c-0.1-0.4-0.2-1.1-0.2-2V505.3z"
           fill="#AA85BC" /><path
           id="path41"
           d="M802.4,513.1v-7.8h2.4l1.4,5.3l1.4-5.3h2.4v7.8h-1.5v-6.1l-1.5,6.1h-1.5l-1.5-6.1v6.1H802.4z"
           fill="#AA85BC" /><path
           id="path43"
           d="M811.5,513.1v-7.8h5.8v1.3H813v1.7h3.9v1.3H813v2.1h4.4v1.3H811.5z"
           fill="#AA85BC" /><path
           id="path45"
           d="M818.7,513.1v-7.8h1.5l3.2,5.2v-5.2h1.5v7.8h-1.6l-3.1-5.1v5.1H818.7z"
           fill="#AA85BC" /><path
           id="path47"
           d="M828.4,513.1v-6.5H826v-1.3h6.2v1.3h-2.3v6.5H828.4z"
           fill="#AA85BC" /></g></g></g><g
     id="g49"><polygon
       id="polygon51"
       points="482.3,372.5 590.6,88.5 638.4,88.5 532.1,372.5  "
       stroke-miterlimit="10"
       stroke="#686969"
       fill="#282D36" /><polygon
       id="polygon53"
       points="503.5,296.1 423.8,84.5 374,84.5 476.7,367.2  "
       stroke-miterlimit="10"
       stroke="#686969"
       fill="#282D36" /><g
       id="g55"><path
         id="path57"
         d="M573.6,481.5l-62.3,35.9    c-2.4,1.4-5.3,1.4-7.6,0l-62.3-35.9c-2.4-1.4-3.8-3.9-3.8-6.6v-71.8c0-2.7,1.5-5.2,3.8-6.6l62.3-35.9c2.4-1.4,5.3-1.4,7.6,0    l62.3,35.9c2.4,1.4,3.8,3.9,3.8,6.6v71.8C577.5,477.6,576,480.1,573.6,481.5z"
         stroke-miterlimit="10"
         stroke-width="0.7858"
         stroke="#686969"
         fill="#282D36" /><g
         id="g59"><polygon
           id="polygon61"
           points="503.5,450 499.5,452.2 495.5,450 495.5,445.7 499.5,443.6      503.5,445.7    "
           stroke-miterlimit="10"
           stroke="#6DA8DB"
           fill="none" /><polygon
           id="polygon63"
           points="512.5,457.6 509.5,459.6 506.5,457.6 506.5,453.6      509.5,451.7 512.5,453.6    "
           stroke-miterlimit="10"
           stroke="#6DA8DB"
           fill="none" /><polygon
           id="polygon65"
           points="522.5,452.5 519.5,454.1 516.5,452.5 516.5,449.4      519.5,447.8 522.5,449.4    "
           stroke-miterlimit="10"
           stroke="#6DA8DB"
           fill="none" /><path
           id="path67"
           d="M564.2,475.4l-52.8,30.5     c-2,1.2-4.5,1.2-6.5,0l-52.8-30.5c-2-1.2-3.2-3.3-3.2-5.6v-60.9c0-2.3,1.2-4.4,3.2-5.6l52.8-30.5c2-1.2,4.5-1.2,6.5,0l52.8,30.5     c2,1.2,3.2,3.3,3.2,5.6v60.9C567.4,472.1,566.2,474.3,564.2,475.4z"
           stroke-miterlimit="10"
           stroke-width="1.5717"
           stroke="#6DA8DB"
           fill="none" /><g
           id="g69"><path
             id="path71"
             d="M498.5,480.9v-6.6h-2.3v-1.3h6.3v1.3h-2.3v6.6H498.5z"
             fill="#6DA8DB" /><path
             id="path73"
             d="M503.5,480.9v-7.9h5.9v1.3h-4.3v1.8h4v1.3h-4v2.2h4.4v1.3H503.5z"
             fill="#6DA8DB" /><path
             id="path75"
             d="M510.5,478.3l1.6-0.2c0.1,0.5,0.3,0.9,0.6,1.2c0.3,0.2,0.7,0.4,1.2,0.4c0.5,0,0.9-0.1,1.2-0.3      c0.3-0.2,0.4-0.5,0.4-0.8c0-0.2-0.1-0.3-0.2-0.5c-0.1-0.1-0.3-0.2-0.6-0.3c-0.2-0.1-0.6-0.2-1.3-0.3c-0.9-0.2-1.5-0.5-1.8-0.8      c-0.5-0.4-0.7-1-0.7-1.6c0-0.4,0.1-0.8,0.3-1.1c0.2-0.4,0.6-0.6,1-0.8c0.4-0.2,0.9-0.3,1.6-0.3c1,0,1.7,0.2,2.2,0.7      c0.5,0.4,0.8,1,0.8,1.7l-1.6,0.1c-0.1-0.4-0.2-0.7-0.4-0.9c-0.2-0.2-0.6-0.3-1-0.3c-0.5,0-0.8,0.1-1.1,0.3      c-0.2,0.1-0.3,0.3-0.3,0.5c0,0.2,0.1,0.3,0.2,0.5c0.2,0.2,0.7,0.3,1.5,0.5c0.8,0.2,1.4,0.4,1.7,0.6c0.4,0.2,0.7,0.5,0.9,0.8      c0.2,0.3,0.3,0.8,0.3,1.3c0,0.5-0.1,0.9-0.4,1.3s-0.6,0.7-1.1,0.9c-0.5,0.2-1,0.3-1.7,0.3c-1,0-1.8-0.2-2.3-0.7      C510.9,479.8,510.6,479.2,510.5,478.3z"
             fill="#6DA8DB" /><path
             id="path77"
             d="M520,480.9v-6.6h-2.3v-1.3h6.3v1.3h-2.3v6.6H520z"
             fill="#6DA8DB" /></g><path
           id="path79"
           d="M513.3,403.5v21.3l22.1,37.1     c0.5,0.8-0.1,1.9-1.1,1.9h-52.5c-0.9,0-1.5-1-1.1-1.8l21.4-36.9v-21.3l-3.6-0.8v-4.4h18.3v3.9L513.3,403.5z"
           stroke-miterlimit="10"
           stroke-width="1.5717"
           stroke="#6DA8DB"
           fill="none" /><line
           id="line81"
           y2="426"
           x2="506.5"
           y1="405"
           x1="506.5"
           stroke-miterlimit="10"
           stroke="#6DA8DB"
           fill="none" /><line
           id="line83"
           y2="439.5"
           x2="515"
           y1="439.5"
           x1="495"
           stroke-miterlimit="10"
           stroke="#6DA8DB"
           fill="none" /></g></g></g><g
     id="g85"><path
       id="path87"
       d="M237,385.1h-44.3c-2.1,0-3.8-1.7-3.8-3.8l0,0   c0-2.1,1.7-3.8,3.8-3.8H237c2.1,0,3.8,1.7,3.8,3.8l0,0C240.9,383.4,239.1,385.1,237,385.1z"
       stroke-miterlimit="10"
       stroke="#686969"
       fill="#282D36" /><polygon
       id="polygon89"
       points="209.4,373.5 25.6,20.5 6,20.5 188.9,373.5  "
       stroke-miterlimit="10"
       stroke="#686969"
       fill="#282D36" /><polygon
       id="polygon91"
       points="224.1,373.5 240.9,373.5 422.6,30.5 363.9,30.5    215.2,317.3 56.7,6.5 38.9,6.5  "
       stroke-miterlimit="10"
       stroke="#686969"
       fill="#282D36" /><g
       id="g93"><path
         id="path95"
         d="M279.1,522l-59.5,34.3    c-2.3,1.3-5,1.3-7.3,0L152.8,522c-2.3-1.3-3.6-3.7-3.6-6.3v-68.7c0-2.6,1.4-5,3.6-6.3l59.5-34.3c2.3-1.3,5-1.3,7.3,0l59.5,34.3    c2.3,1.3,3.6,3.7,3.6,6.3v68.7C282.8,518.3,281.4,520.7,279.1,522z"
         stroke-miterlimit="10"
         stroke-width="0.7511"
         stroke="#686969"
         fill="#282D36" /><g
         id="g97"><g
           id="g99"><polyline
             id="polyline101"
             points="198.8,458.3 179.1,477.4       195.3,492.5     "
             stroke-miterlimit="10"
             stroke-width="1.5023"
             stroke="#F7A167"
             fill="none" /><polyline
             id="polyline103"
             points="232.7,459.1 251.7,477.4       231.3,496.5     "
             stroke-miterlimit="10"
             stroke-width="1.5023"
             stroke="#F7A167"
             fill="none" /><line
             id="line105"
             y2="501.7"
             x2="204.2"
             y1="449.8"
             x1="223.6"
             stroke-miterlimit="10"
             stroke-width="1.5023"
             stroke="#F7A167"
             fill="none" /></g><path
           id="path107"
           d="M269,516.2l-50.5,29.1     c-1.9,1.1-4.3,1.1-6.2,0l-50.5-29.1c-1.9-1.1-3.1-3.1-3.1-5.3v-58.2c0-2.2,1.2-4.2,3.1-5.3l50.5-29.1c1.9-1.1,4.3-1.1,6.2,0     l50.5,29.1c1.9,1.1,3.1,3.1,3.1,5.3v58.2C272.1,513.1,270.9,515.1,269,516.2z"
           stroke-miterlimit="10"
           stroke-width="1.5023"
           stroke="#F7A167"
           fill="none" /><g
           id="g109"><path
             id="path111"
             d="M197.8,513.8h2.8c0.6,0,1.1,0,1.4,0.1c0.4,0.1,0.8,0.4,1.1,0.7s0.6,0.7,0.7,1.2c0.2,0.5,0.2,1.1,0.2,1.8      c0,0.6-0.1,1.2-0.2,1.6c-0.2,0.6-0.5,1-0.8,1.3c-0.3,0.3-0.6,0.5-1.1,0.6c-0.3,0.1-0.8,0.2-1.4,0.2h-2.9V513.8z M199.3,515.1v5      h1.1c0.4,0,0.7,0,0.9-0.1c0.2-0.1,0.5-0.2,0.6-0.3c0.2-0.1,0.3-0.4,0.4-0.7c0.1-0.3,0.2-0.8,0.2-1.4c0-0.6-0.1-1-0.2-1.3      s-0.2-0.6-0.4-0.7s-0.4-0.3-0.7-0.4c-0.2,0-0.6-0.1-1.3-0.1H199.3z"
             fill="#F7A167" /><path
             id="path113"
             d="M205.4,521.4v-7.6h5.6v1.3h-4.1v1.7h3.8v1.3h-3.8v2.1h4.2v1.3H205.4z"
             fill="#F7A167" /><path
             id="path115"
             d="M212.1,518.9l1.5-0.1c0.1,0.5,0.3,0.9,0.5,1.1c0.3,0.2,0.6,0.4,1.1,0.4c0.5,0,0.9-0.1,1.1-0.3      c0.2-0.2,0.4-0.5,0.4-0.7c0-0.2-0.1-0.3-0.2-0.5c-0.1-0.1-0.3-0.2-0.6-0.3c-0.2-0.1-0.6-0.2-1.2-0.3c-0.8-0.2-1.4-0.5-1.7-0.7      c-0.5-0.4-0.7-0.9-0.7-1.5c0-0.4,0.1-0.7,0.3-1.1c0.2-0.3,0.5-0.6,0.9-0.8c0.4-0.2,0.9-0.3,1.5-0.3c0.9,0,1.7,0.2,2.1,0.6      c0.5,0.4,0.7,1,0.8,1.7l-1.5,0.1c-0.1-0.4-0.2-0.7-0.4-0.8c-0.2-0.2-0.5-0.3-1-0.3c-0.4,0-0.8,0.1-1,0.3      c-0.2,0.1-0.2,0.3-0.2,0.5c0,0.2,0.1,0.3,0.2,0.5c0.2,0.2,0.7,0.3,1.4,0.5c0.7,0.2,1.3,0.4,1.7,0.5c0.4,0.2,0.6,0.4,0.8,0.8      c0.2,0.3,0.3,0.7,0.3,1.2c0,0.4-0.1,0.8-0.4,1.2c-0.2,0.4-0.6,0.7-1,0.8c-0.4,0.2-1,0.3-1.6,0.3c-1,0-1.7-0.2-2.2-0.7      C212.5,520.4,212.2,519.8,212.1,518.9z"
             fill="#F7A167" /><path
             id="path117"
             d="M219.5,521.4v-7.6h1.5v7.6H219.5z"
             fill="#F7A167" /><path
             id="path119"
             d="M226,518.6v-1.3h3.3v3c-0.3,0.3-0.8,0.6-1.4,0.8c-0.6,0.2-1.2,0.4-1.8,0.4c-0.8,0-1.5-0.2-2.1-0.5      c-0.6-0.3-1-0.8-1.3-1.4c-0.3-0.6-0.4-1.3-0.4-2c0-0.8,0.2-1.5,0.5-2.1c0.3-0.6,0.8-1.1,1.5-1.4c0.5-0.3,1.1-0.4,1.8-0.4      c0.9,0,1.7,0.2,2.2,0.6c0.5,0.4,0.9,0.9,1,1.6l-1.5,0.3c-0.1-0.4-0.3-0.7-0.6-0.9c-0.3-0.2-0.7-0.3-1.1-0.3      c-0.7,0-1.2,0.2-1.6,0.6c-0.4,0.4-0.6,1.1-0.6,1.9c0,0.9,0.2,1.6,0.6,2c0.4,0.4,0.9,0.7,1.6,0.7c0.3,0,0.6-0.1,1-0.2      c0.3-0.1,0.6-0.3,0.8-0.5v-1H226z"
             fill="#F7A167" /><path
             id="path121"
             d="M230.7,521.4v-7.6h1.5l3.1,5.1v-5.1h1.4v7.6h-1.5l-3.1-4.9v4.9H230.7z"
             fill="#F7A167" /></g></g></g><circle
       id="circle123"
       r="14.2"
       cy="394.4"
       cx="215"
       stroke-miterlimit="10"
       stroke="#686969"
       fill="#282D36" /><circle
       id="circle125"
       r="5.6"
       cy="394.6"
       cx="215"
       stroke-miterlimit="10"
       stroke="#686969"
       fill="#282D36" /></g><g
     id="g127"><path
       id="path129"
       d="M820,374.1h-44.3c-2.1,0-3.8-1.7-3.8-3.8l0,0   c0-2.1,1.7-3.8,3.8-3.8H820c2.1,0,3.8,1.7,3.8,3.8l0,0C823.9,372.4,822.1,374.1,820,374.1z"
       stroke-miterlimit="10"
       stroke="#686969"
       fill="#282D36" /><polygon
       id="polygon131"
       points="792.4,362.5 608.6,9.5 589,9.5 771.9,362.5  "
       stroke-miterlimit="10"
       stroke="#686969"
       fill="#282D36" /><polygon
       id="polygon133"
       points="807.1,362.5 823.9,362.5 1005.6,19.5 946.9,19.5    798.2,306.3 651.7,25.5 633.9,25.5  "
       stroke-miterlimit="10"
       stroke="#686969"
       fill="#282D36" /><circle
       id="circle135"
       r="14.2"
       cy="383.4"
       cx="798"
       stroke-miterlimit="10"
       stroke="#686969"
       fill="#282D36" /><circle
       id="circle137"
       r="5.6"
       cy="383.6"
       cx="798"
       stroke-miterlimit="10"
       stroke="#686969"
       fill="#282D36" /></g><g
     id="g139"><polygon
       id="polygon141"
       points="409.6,260.8 380.7,289.7    332.7,289.7 303.6,260.8 303.6,72 409.6,72  "
       stroke-miterlimit="10"
       stroke-width="0.7576"
       stroke="#686969"
       fill="#282D36" /><line
       id="line143"
       y2="72"
       x2="376.3"
       y1="289.7"
       x1="376.3"
       stroke-miterlimit="10"
       stroke-width="0.7576"
       stroke="#686969"
       fill="#282D36" /><line
       id="line145"
       y2="72"
       x2="337.2"
       y1="289.7"
       x1="337.2"
       stroke-miterlimit="10"
       stroke-width="0.7576"
       stroke="#686969"
       fill="#282D36" /><g
       id="g147"><path
         id="path149"
         d="M420.5,396.1l-60,34.6    c-2.3,1.3-5.1,1.3-7.3,0l-60-34.6c-2.3-1.3-3.7-3.7-3.7-6.4v-69.3c0-2.6,1.4-5,3.7-6.4l60-34.6c2.3-1.3,5.1-1.3,7.3,0l60,34.6    c2.3,1.3,3.7,3.7,3.7,6.4v69.3C424.2,392.4,422.8,394.8,420.5,396.1z"
         stroke-miterlimit="10"
         stroke-width="0.7576"
         stroke="#686969"
         fill="#282D36" /><g
         id="g151"><g
           id="g153"><polygon
             id="polygon155"
             points="379.7,367.1 378.2,372.7       372.6,374.2 368.6,370.1 370.1,364.6 375.6,363.1     "
             stroke-miterlimit="10"
             stroke-width="1.5153"
             stroke="#16B3D7"
             fill="none" /><path
             id="path157"
             d="M370.7,357.4l-21.6-22.7      c0.9-3.8,0-8.3-3.1-11.4c-3.1-3.1-7.6-4-12-2.6l7.3,7.3l-2,5.4l-5.6,2.2l-7.3-7.3c-1.4,4.3-0.5,8.9,2.6,12      c3.1,3.1,7.7,4,11.5,3.1l22.6,21.6c-1,3.9-0.2,9,2.8,12.1c4.6,4.6,12.2,4.6,16.8,0c4.6-4.6,4.6-12.2,0-16.8      C379.8,357.2,374.6,356.4,370.7,357.4z"
             stroke-miterlimit="10"
             stroke-width="1.5153"
             stroke="#16B3D7"
             fill="none" /></g><path
           id="path159"
           d="M410.9,391l-50.9,29.4     c-1.9,1.1-4.3,1.1-6.2,0L302.8,391c-1.9-1.1-3.1-3.2-3.1-5.4v-58.7c0-2.2,1.2-4.3,3.1-5.4l50.9-29.4c1.9-1.1,4.3-1.1,6.2,0     l50.9,29.4c1.9,1.1,3.1,3.2,3.1,5.4v58.7C414,387.9,412.8,389.9,410.9,391z"
           stroke-miterlimit="10"
           stroke-width="1.5153"
           stroke="#16B3D7"
           fill="none" /><g
           id="g161"><path
             id="path163"
             d="M343.2,388.6h3.1c0.6,0,1.1,0,1.4,0.1c0.3,0.1,0.6,0.2,0.8,0.3c0.2,0.2,0.4,0.4,0.6,0.6      c0.2,0.3,0.2,0.6,0.2,0.9c0,0.4-0.1,0.7-0.3,1c-0.2,0.3-0.5,0.5-0.8,0.7c0.5,0.1,0.8,0.4,1.1,0.7s0.4,0.7,0.4,1.2      c0,0.3-0.1,0.7-0.2,1c-0.2,0.3-0.4,0.6-0.7,0.8c-0.3,0.2-0.6,0.3-1,0.4c-0.3,0-0.9,0-1.9,0.1h-2.6V388.6z M344.7,389.9v1.8h1      c0.6,0,1,0,1.1,0c0.3,0,0.5-0.1,0.6-0.3c0.2-0.2,0.2-0.3,0.2-0.6c0-0.2-0.1-0.4-0.2-0.6c-0.1-0.1-0.3-0.2-0.6-0.3      c-0.2,0-0.6,0-1.3,0H344.7z M344.7,392.9v2h1.4c0.6,0,0.9,0,1.1,0c0.2,0,0.4-0.1,0.6-0.3c0.1-0.2,0.2-0.4,0.2-0.6      c0-0.2-0.1-0.4-0.2-0.6s-0.3-0.3-0.5-0.3c-0.2-0.1-0.7-0.1-1.4-0.1H344.7z"
             fill="#16B3D7" /><path
             id="path165"
             d="M350.9,388.6h1.5v4.1c0,0.7,0,1.1,0.1,1.3c0.1,0.3,0.2,0.6,0.5,0.8c0.2,0.2,0.6,0.3,1,0.3      c0.4,0,0.8-0.1,1-0.3c0.2-0.2,0.4-0.4,0.4-0.7c0-0.3,0.1-0.7,0.1-1.3v-4.2h1.5v4c0,0.9,0,1.6-0.1,1.9c-0.1,0.4-0.2,0.7-0.5,1      c-0.2,0.3-0.5,0.5-0.9,0.6c-0.4,0.2-0.9,0.2-1.5,0.2c-0.7,0-1.3-0.1-1.7-0.3c-0.4-0.2-0.7-0.4-0.9-0.7c-0.2-0.3-0.4-0.6-0.4-0.8      c-0.1-0.4-0.2-1.1-0.2-1.9V388.6z"
             fill="#16B3D7" /><path
             id="path167"
             d="M358.5,396.3v-7.6h1.5v7.6H358.5z"
             fill="#16B3D7" /><path
             id="path169"
             d="M361.6,396.3v-7.6h1.5v6.3h3.8v1.3H361.6z"
             fill="#16B3D7" /><path
             id="path171"
             d="M368,388.6h2.8c0.6,0,1.1,0,1.5,0.1c0.4,0.1,0.8,0.4,1.2,0.7s0.6,0.7,0.7,1.2c0.2,0.5,0.2,1.1,0.2,1.8      c0,0.6-0.1,1.2-0.2,1.6c-0.2,0.6-0.5,1-0.8,1.3c-0.3,0.3-0.6,0.5-1.1,0.6c-0.3,0.1-0.8,0.2-1.4,0.2H368V388.6z M369.6,389.9v5.1      h1.2c0.4,0,0.7,0,0.9-0.1c0.2-0.1,0.5-0.2,0.6-0.3c0.2-0.1,0.3-0.4,0.4-0.7c0.1-0.3,0.2-0.8,0.2-1.4c0-0.6-0.1-1-0.2-1.4      c-0.1-0.3-0.2-0.6-0.4-0.7c-0.2-0.2-0.4-0.3-0.7-0.4c-0.2,0-0.6-0.1-1.3-0.1H369.6z"
             fill="#16B3D7" /></g></g></g></g><g
     id="g173"><polygon
       id="polygon175"
       points="712.3,219.9 682.1,250.1    631.8,250.1 601.4,219.9 601.4,85 712.3,85  "
       stroke-miterlimit="10"
       stroke-width="0.7576"
       stroke="#686969"
       fill="#282D36" /><line
       id="line177"
       y2="85"
       x2="677.4"
       y1="250.1"
       x1="677.4"
       stroke-miterlimit="10"
       stroke-width="0.7576"
       stroke="#686969"
       fill="#282D36" /><line
       id="line179"
       y2="85"
       x2="636.5"
       y1="250.1"
       x1="636.5"
       stroke-miterlimit="10"
       stroke-width="0.7576"
       stroke="#686969"
       fill="#282D36" /><rect
       id="rect181"
       height="13.6"
       width="90.3"
       stroke-miterlimit="10"
       stroke-width="0.7576"
       stroke="#686969"
       fill="#282D36"
       y="250.3"
       x="613.2" /></g><g
     id="g183"><path
       id="path185"
       d="M726.8,381.1l-63.6,36.7   c-2.4,1.4-5.4,1.4-7.8,0l-63.6-36.7c-2.4-1.4-3.9-4-3.9-6.7V301c0-2.8,1.5-5.3,3.9-6.7l63.6-36.7c2.4-1.4,5.4-1.4,7.8,0l63.6,36.7   c2.4,1.4,3.9,4,3.9,6.7v73.3C730.7,377.1,729.2,379.7,726.8,381.1z"
       stroke-miterlimit="10"
       stroke-width="0.8024"
       stroke="#686969"
       fill="#282D36" /><g
       id="g187"><polygon
         id="polygon189"
         points="642,320.5 634,325 626,320.5 626,311.5     634,306.9 642,311.5   "
         stroke-miterlimit="10"
         stroke-width="2"
         stroke="#8AC86A"
         fill="none" /><polygon
         id="polygon191"
         points="694,321.2 686,325.8 678,321.2 678,312.2     686,307.7 694,312.2   "
         stroke-miterlimit="10"
         stroke-width="2"
         stroke="#8AC86A"
         fill="none" /><polygon
         id="polygon193"
         points="668,309.4 660,313.9 652,309.4 652,300.3     660,295.8 668,300.3   "
         stroke-miterlimit="10"
         stroke-width="2"
         stroke="#8AC86A"
         fill="none" /><polygon
         id="polygon195"
         points="671,359.2 660,364.9 649,359.2 649,347.8     660,342.1 671,347.8   "
         stroke-miterlimit="10"
         stroke-width="2"
         stroke="#8AC86A"
         fill="none" /><line
         id="line197"
         y2="323.2"
         x2="638.1"
         y1="345.1"
         x1="653.5"
         stroke-miterlimit="10"
         stroke-width="1.6048"
         stroke="#8AC86A"
         fill="none" /><line
         id="line199"
         y2="323.8"
         x2="680.8"
         y1="345.1"
         x1="665.9"
         stroke-miterlimit="10"
         stroke-width="1.6048"
         stroke="#8AC86A"
         fill="none" /><line
         id="line201"
         y2="316"
         x2="660"
         y1="344"
         x1="660"
         stroke-miterlimit="10"
         stroke-width="2"
         stroke="#8AC86A"
         fill="none" /><path
         id="path203"
         d="M716.6,376l-53.9,31.1c-2,1.2-4.6,1.2-6.6,0    L602.1,376c-2-1.2-3.3-3.4-3.3-5.7v-62.2c0-2.4,1.3-4.5,3.3-5.7l53.9-31.1c2-1.2,4.6-1.2,6.6,0l53.9,31.1c2,1.2,3.3,3.4,3.3,5.7    v62.2C719.9,372.7,718.6,374.8,716.6,376z"
         stroke-miterlimit="10"
         stroke-width="1.6048"
         stroke="#8AC86A"
         fill="none" /><g
         id="g205"><path
           id="path207"
           d="M640.8,378.9l1.6-0.2c0.1,0.5,0.3,0.9,0.6,1.2c0.3,0.3,0.7,0.4,1.2,0.4c0.5,0,0.9-0.1,1.2-0.3     c0.3-0.2,0.4-0.5,0.4-0.8c0-0.2-0.1-0.4-0.2-0.5c-0.1-0.1-0.3-0.3-0.6-0.4c-0.2-0.1-0.6-0.2-1.3-0.4c-0.9-0.2-1.5-0.5-1.8-0.8     c-0.5-0.4-0.7-1-0.7-1.6c0-0.4,0.1-0.8,0.3-1.2c0.2-0.4,0.6-0.6,1-0.8c0.4-0.2,1-0.3,1.6-0.3c1,0,1.8,0.2,2.3,0.7     c0.5,0.4,0.8,1,0.8,1.8l-1.6,0.1c-0.1-0.4-0.2-0.7-0.5-0.9c-0.2-0.2-0.6-0.3-1-0.3c-0.5,0-0.8,0.1-1.1,0.3     c-0.2,0.1-0.3,0.3-0.3,0.5c0,0.2,0.1,0.4,0.2,0.5c0.2,0.2,0.7,0.4,1.5,0.5c0.8,0.2,1.4,0.4,1.8,0.6c0.4,0.2,0.7,0.5,0.9,0.8     c0.2,0.3,0.3,0.8,0.3,1.3c0,0.5-0.1,0.9-0.4,1.3s-0.6,0.7-1.1,0.9c-0.5,0.2-1.1,0.3-1.8,0.3c-1,0-1.8-0.2-2.4-0.7     C641.2,380.5,640.9,379.8,640.8,378.9z"
           fill="#8AC86A" /><path
           id="path209"
           d="M648.8,381.6v-8.1h1.6v3.2h3.2v-3.2h1.6v8.1h-1.6V378h-3.2v3.5H648.8z"
           fill="#8AC86A" /><path
           id="path211"
           d="M664.2,381.6h-1.8l-0.7-1.8h-3.2l-0.7,1.8h-1.7l3.1-8.1h1.7L664.2,381.6z M661.2,378.4l-1.1-3l-1.1,3     H661.2z"
           fill="#8AC86A" /><path
           id="path213"
           d="M665.1,381.6v-8.1h3.4c0.9,0,1.5,0.1,1.9,0.2c0.4,0.1,0.7,0.4,0.9,0.8c0.2,0.4,0.4,0.8,0.4,1.3     c0,0.6-0.2,1.1-0.5,1.5c-0.4,0.4-0.9,0.6-1.6,0.7c0.4,0.2,0.6,0.4,0.9,0.7c0.2,0.2,0.5,0.7,0.9,1.3l1,1.6h-2l-1.2-1.8     c-0.4-0.6-0.7-1-0.9-1.2c-0.2-0.2-0.3-0.3-0.5-0.3c-0.2-0.1-0.4-0.1-0.8-0.1h-0.3v3.4H665.1z M666.7,376.9h1.2     c0.8,0,1.3,0,1.5-0.1c0.2-0.1,0.3-0.2,0.5-0.3s0.2-0.4,0.2-0.6c0-0.3-0.1-0.5-0.2-0.7c-0.1-0.2-0.3-0.3-0.6-0.3     c-0.1,0-0.5,0-1.2,0h-1.3V376.9z"
           fill="#8AC86A" /><path
           id="path215"
           d="M673.2,381.6v-8.1h6v1.4h-4.4v1.8h4.1v1.4h-4.1v2.2h4.5v1.4H673.2z"
           fill="#8AC86A" /></g></g></g></svg>