<svg width="75" height="40" viewBox="470 0 45 40" xmlns="http://www.w3.org/2000/svg" xmlns:xlink="http://www.w3.org/1999/xlink">

<g fill="#526881" fill-rule="nonzero">
		<path d="M456.546 19.636c0-10.818 8.739-19.545 19.57-19.545 10.833 0 19.571 8.727 19.571 19.545 0 10.819-8.738 19.546-19.57 19.546-10.741.09-19.57-8.727-19.57-19.546zm30.858.182h2.093L484.764 9h-3.095l4.734 10.818h-2.185v2.91c0 1.727-.728 2.454-3.095 2.454v5.545h3.095v-5.545h1.001c.91 0 2.094-.727 2.185-2.091v-3.273zM472.476 9c-4.734 0-8.739 3.364-8.739 8.273 0 4.182 2.549 7.09 6.28 7.727v5.818h7.738v-5.545h1.092c1.275-.091 2.094-1 2.094-2.091V20h2.094L478.21 9.182C478.301 9 475.388 9 472.476 9zm4.278 9.364c1.092 0 2.002-.91 2.002-2 0-1.091-.91-2-2.002-2-1.092 0-2.003.909-2.003 2 0 1.09.91 2 2.003 2zM502.059 16.09h-1.365v-1.726h4.55c2.459 0 3.824 1.272 3.824 3.272 0 2-1.456 3.273-3.823 3.273h-1.274v2.546h1.638v1.727h-4.915v-1.727h1.365V16.09zm2.003 3.092h1.274c1.092 0 1.73-.727 1.73-1.546 0-.909-.638-1.545-1.73-1.545h-1.274v3.09zM510.98 16.09h-1.275v-1.726h4.37c2.64 0 3.55 1.636 3.55 2.727 0 1-.547 1.818-1.275 2.182 1.092.454 1.73 1.545 1.73 2.545 0 2.364-1.821 3.273-3.642 3.273h-4.824v-1.727h1.365V16.09zm2.002 7.365h1.274c1.002 0 1.73-.546 1.73-1.546 0-.818-.546-1.545-1.73-1.545h-1.274v3.09zm0-4.728h1.183c.91 0 1.457-.545 1.457-1.272 0-.819-.546-1.273-1.457-1.273h-1.183v2.545z" fill-rule="nonzero"/>

<path d="M524.36 16.09c-.364-.18-.819-.272-1.274-.272-1.365 0-1.73.727-1.73 1.364 0 .818.547 1 1.093 1.182l1.183.363c1.365.364 2.913.91 2.913 3.091 0 2-1.183 3.546-3.914 3.546-1.093 0-2.094-.091-3.46-.637V21.91h2.003v1.364c.547.272 1.093.272 1.639.272 1.183 0 1.73-.636 1.73-1.454 0-.546-.274-.91-1.548-1.273l-1.092-.273c-2.003-.545-2.64-1.454-2.64-3.09 0-1.728 1.092-3.182 3.732-3.182 1.183 0 2.276.182 3.095.545v2.546h-1.82V16.09h.09z"/>
	</g>

						</svg>