<svg width="90" height="40" viewBox="160 0 70 40" xmlns="http://www.w3.org/2000/svg" xmlns:xlink="http://www.w3.org/1999/xlink">

<g fill="#ffffff">	
		<path d="M219.757 12.983l-59.97-11.564c-5.817-1.122-9.098.635-4.602 4.683l8.939 8.99c.539 1.231 3.154 3.143 1.57 5.877l-7.353 9.287c-1.78 2.87-.531 4.78 3.461 3.885l53.354-19.016c4.905-1.464 9.4-1.62 4.601-2.142z" fill="#FFF"/>

<path d="M219.34 14.08L159.453 2.516c-4.695-.838-8.176-.597-3.656 4.471l8.327 8.863c.539 1.23 5.002 2.456 3.42 5.19l-8.313 8.135c-1.854 1.75-1.903 4.882 2.321 3.815l51.436-18.135c4.488-1.042 10.818-.084 6.352-.775z" stroke="#526881" stroke-width=".802"/>

<path d="M161.897 14.901l69.959-13.43c6.028-1.158 9.818.396 4.573 5.097l-9.633 10.784c-.629 1.429-1.75 2.51.097 5.686l6.422 11.47c2.076 3.333.96 6.235-3.697 5.195L161.02 25.587c-5.722-1.7-4.723-10.079.876-10.686z" fill="#FFF"/>
<path d="M162.383 16.175l69.862-13.43c5.21-.938 8.212-.652 3.697 4.51l-9.146 10.293c-.629 1.429-1.75 2.51.097 5.686l5.838 10.587c1.498 2.843 1.865 5.842-2.821 5l-67.721-14.117c-5.236-1.21-5.015-7.725.194-8.529z" stroke="#526881" stroke-width=".933"/>

<path d="M159.7 26.88l2.058-3.342c1.485 1.614 5.903 2.15 5.89.382-.008-1.092-.18-.938-1.103-1.419-.924-.48-4-1.123-4.362-4.234-.4-2.137.824-4.33 2.799-5.172 2.581-1.102 5.978-.854 8.02.717l-1.888 2.863c-1.532-.77-4.326-2.038-4.77.408-.27 1.489 3.097 1.458 4.675 3.481 1.182 1.515 1.362 3.884-.009 5.763-2.64 3.617-8.467 2.39-11.31.553zm23.037-14.32c4.937-.48 8.303 2.272 8.34 7.8.034 5.337-3.895 8.255-8.89 8.48-5.044.226-8.503-2.822-8.53-7.79-.03-5.369 5.622-8.482 9.08-8.49zm-4.691 8.445c-.268 3.239 1.91 4.072 3.6 4.072 2.43 0 4.679-2.394 4.679-4.47 0-2.444-1.08-4.259-3.708-4.259-1.585 0-4.304 1.418-4.571 4.657zm13.944 7.315l2.349-15.241h4.115l5.414 9.241 1.1-9.241h4.364l-2.333 15.18h-4.218l-5.158-9.128-1.55 9.19h-4.083zm20.22-15.302h4.317l-2.395 15.242h-4.267l2.345-15.242zM228.43 28c-.6.372-1.487.748-3.631.84-4.184.178-7.633-2.197-7.293-7.79.323-5.326 3.863-8.493 9.23-8.49 1.212 0 2.536.142 3.973.426l-.578 4.98c-3.064-1.664-7.33-1.985-7.92 3.305-.336 4.801 4.902 3.336 6.828 2.41L228.43 28z" fill="#FFF" fill-rule="nonzero"/>

<path d="M160.227 26.513l2.532-4.123.357.388c.62.678 1.9 1.168 3.128 1.234 1.16.061 1.864-.263 1.86-.776-.004-.581-.024-.636-.195-.73-.058-.032-.51-.243-.69-.338.02.01-1.497-.607-2.077-.94-1.405-.808-2.292-1.945-2.48-3.574-.432-2.303.868-4.688 3.025-5.61 2.74-1.174 6.27-.875 8.398.767l.292.225-2.28 3.468-.318-.16c-1.11-.56-1.927-.88-2.65-.962-.887-.101-1.375.198-1.535 1.085-.057.314.188.554.982.918.053.024 1.165.503 1.52.676.908.445 1.579.925 2.082 1.573 1.354 1.74 1.408 4.305-.001 6.241-2.445 3.36-7.89 3.268-11.624.85l-.326-.212zm23.303-15.038c5.287-.506 8.697 2.583 8.734 8.196.035 5.281-3.723 8.631-9.245 8.88-5.293.238-8.895-3.026-8.923-8.184-.027-4.94 4.938-8.87 9.434-8.892zm-4.262 8.876c-.206 2.508 1.125 3.642 3.194 3.642 2.12 0 4.268-2.134 4.268-4.072 0-2.465-1.097-3.861-3.3-3.861-1.888 0-3.95 1.723-4.162 4.291zm25.13.107l1.271-8.464h4.866l-2.449 15.977h-4.78l-4.705-8.35-1.416 8.411h-4.871l2.464-16.038h4.674l4.945 8.464zm8.203-8.524h5.11L215.2 27.97h-5.06l2.462-16.037zm16.727 15.718c-.86.533-1.916.818-3.815.899-4.804.206-7.823-2.767-7.493-8.21.336-5.546 3.854-8.868 9.408-8.866 1.237 0 2.584.146 4.04.434l.362.072-.693 5.634-.514-.28c-3.598-1.959-6.833-1.008-7.311 3.277-.135 1.938.65 2.807 2.193 2.929 1.211.095 2.832-.319 4.046-.905l.67-.323-.735 5.241-.158.098z" stroke="#FFF" stroke-width=".796" fill="#526881" fill-rule="nonzero"/>		
</g>

						</svg>