<svg width="150" height="40" viewBox="660 0 90 40" xmlns="http://www.w3.org/2000/svg" xmlns:xlink="http://www.w3.org/1999/xlink">

<path d="M729.4 26.264c-.3-.68-1.575-2.717-3.075-4.755-1.425-1.81-3.45-3.698-3.825-4 0-.226-.3-.528-.6-.905-2.55-2.566-6.9-3.698-8.55-3.698-1.275 0-2.7.83-3.075 1.056l-.9-2.264c-.15-.453-.375-.906-.3-1.207.375.528 1.05.603 1.35.603.15 0 .6-.075.975-.377.3-.302.375-.604.375-1.057 0-.83-.6-1.283-.9-1.51L712 7.246h-4.425l-.45-2.34 2.1-1.962-2.85-.301-1.2-2.567-1.2 2.567-2.85.301 2.1 1.963-.45 2.34h-4.5l1.125.905c-.3.226-.9.68-.9 1.51 0 .452.15.83.375 1.056.375.377.825.377.975.377.3 0 .975-.075 1.35-.603.075.301-.075.754-.3 1.207 0 0-.3.755-.525 1.208-.525-.378-1.95-1.359-2.55-1.359-.075-.226-.375-.302-.9-.302-.15-.15-.45-.377-.675-.302h-.075c0-.075-.075-.15-.15-.15-.15-.151-.45-.227-.75-.151-.3-.227-.6-.453-.825-.378-.15-.15-.375-.226-.675-.226-.225-.076-1.275-.604-2.175-.68-.225-.15-1.65-.754-2.325-.301-.6-.227-1.2-.302-1.425 0 0 0-.375 0-.6-.076-1.575-.226-2.625-.075-3 .227-1.95.226-1.95.377-1.95.528 0 .075 0 .15.075.226.225.227 1.05.227 1.875.076h.45c.375 0 3.6.15 4.725.754 1.125.604 3 1.887 3.525 2.416l.3.301c1.65 1.887 3.975 4.302 4.95 4.68-.3.83-.6 1.434-.75 1.811-.3-.15-1.65-.83-1.95-1.132-.375-.377-.9-.377-1.425 0-.225.15-.375.075-.6-.076-.075-.075-.375-.226-.375-.301-.3-.227-.6-.378-.9-.378-.15 0-.375.076-.6.302-.15.227-.3.68-.15 1.283.075-.15.45-.377.75-.302.375.151.525.755.6.981l-.375-.075-.45-.377.075.301-.675-.15-.075.226c-.075.15 0 .453.9 1.207.6.529 1.05.755 1.275.906.075.076.225.076.225.151.075.076.15.151.3.226.225.151.525.302.75.529.225.226.525.453.825.679l.15.15c-.3.831-1.725 4.227-2.1 5.284-.45 1.132-1.125 1.962-1.95 2.49 0-.301-.075-.83-.45-1.282-.3-.378-.75-.529-1.425-.529-1.125 0-1.725.68-1.725 1.887 0 .453.225 1.057.825 1.283l-4.05 2.34h7.35s.6-.906 1.65-.906c1.05 0 1.725.906 1.725.906h3.75c.6.603.825 1.207.825 1.207 1.875.528 3.525 3.095 3.525 3.095 2.4-1.133 4.275-2.34 5.475-3.397l.15.076-.075-.151c.3-.302.6-.528.825-.83h3.45s.675-.906 1.725-.906 1.65.906 1.65.906h7.35l-4.05-2.34c.6-.226.825-.83.825-1.283 0-.604-.15-1.132-.525-1.434-.3-.302-.675-.453-1.2-.453-.6 0-1.05.151-1.425.529-.375.452-.45.98-.45 1.283-.825-.529-1.5-1.359-1.95-2.491-.075-.226-.225-.528-.375-.906.15 0 .225 0 .375-.075.75.604 1.5.604 1.65.604.225.226.45.377.6.377.225 0 .375-.151.45-.302.225.151.375.151.45.076.15-.076.15-.378-.15-.906-.375-.755-3.3-4.302-3.9-5.132.375.075.6.075.75-.076.15-.15.075-.452 0-.679.6.227.975.302 1.125.076.15-.151.15-.529 0-.755.45.226.75.302 1.05.15.15-.075.225-.226.3-.301.825.528 1.35.755 1.725.604.075 0 .075-.076.15-.076.3.227.6.302.9.227.15-.076.3-.151.3-.227.525.604 1.05.906 1.425.83.15 0 .3-.075.375-.075.525.453.9.604 1.2.528.15-.075.225-.15.3-.302.75.906 1.35 1.359 1.8 1.359.075 0 .15 0 .225-.076.375.604 2.025 1.812 2.175 1.887.525.378.75.604.9.453.3.075.225-.151.15-.453z" fill="#526881"/>

			<path d="M705.1 6.415l1.95 1.132c-.975 1.132-1.5 1.132-1.95 1.132-.45 0-.975 0-1.95-1.132l1.95-1.132zM698.875 35.17h-1.5l.15.377h1.875c-.225-.15-.375-.226-.525-.377zM691.15 30.943c-.225-.301-.675-.452-1.2-.452-.45 0-.825.15-1.05.377-.3.302-.45.68-.45 1.283 0 .15.075.981.9 1.132l.375.075-3.15 1.812h.975s1.5-.906 2.1-1.283c.45-.227.45-.604.45-.83-.45 0-.75-.151-.975-.378-.15-.15-.225-.377-.225-.679 0-.68.6-1.132 1.125-1.132.3 0 .675.15.9.377.075.076.15.227.225.378v-.68c.075.076.075.076 0 0zM696.025 24.377c-.375.906-1.725 4.227-2.1 5.283-.525 1.434-1.425 2.415-2.55 2.944v.377l.45-.15c1.125-.454 1.95-1.812 2.4-2.869.525-1.132 2.025-4.98 2.1-5.207 0-.151-.225-.302-.3-.378zM692.05 35.17h-2.4l.075.377h2.475zM695.95 35.094c0-.075-.525-.98-1.875-.98l-.075.452c1.05 0 1.725.755 1.875.981l.075-.453z" fill="#FFF"/>

			<path d="M719.5 34.113c-.6-.302-.6-.905-.6-1.207v-.076h.075c.75 0 1.125-.226 1.125-.755 0-.226-.075-.452-.225-.603-.15-.151-.45-.302-.675-.302-.225 0-.525.075-.675.302-.15.15-.225.377-.225.603 0 .604.15 1.133.15 1.133l.075.226-.225-.076c-.525-.15-.975-.377-.975-.377-1.125-.528-2.1-1.887-2.55-2.943-.375-.83-1.275-3.02-1.8-4.302-.075 0-.225-.076-.3-.076-.075.151-.15.453-.225.68.375 1.132 1.875 5.056 1.95 5.358.15.377.6.981.6.981-.3-.075-1.35.378-1.35.378.075-.151.15-.68 0-.982-.15-.377-1.725-4.754-1.725-4.754h-1.875c-.15.15-.375.302-.6.302-.075 0-.15 0-.225-.076-.075.076-.225.151-.45.151-.15 0-.225-.075-.375-.15-.15.075-.375.15-.6.075-.075 0-.15-.076-.225-.151-.225.15-.75.377-.975.226-.075 0-.15-.075-.15-.302l-.525-.075-.225.226c-.15.151-.975 0-.975 0-.375.076-.975.076-.975.076-.525.075-1.425-.227-1.425-.227H697.6s-1.425 3.17-1.65 4c-.225.83-.15 1.736-.15 1.736s-.75-.453-1.5-.302c0 0 .525-.528.75-1.283.225-.68 2.025-5.358 2.325-6.038-.15-.15-.225-.226-.3-.226 0 0-.3-.075-.525-.226-.225.603-1.65 4.075-2.1 5.132-.45 1.056-1.425 2.49-2.55 2.943 0 0-.45.226-.975.377l-.225.076.075-.227s.15-.452.15-1.132c0-.226-.075-.377-.225-.603-.15-.151-.45-.302-.675-.302-.225 0-.525.075-.675.302-.15.15-.225.377-.225.603 0 .227.075.378.15.529.15.15.525.302.9.302l.15.075c.075.302 0 .83-.6 1.208-.375.226-.975.528-1.35.754h3.45c.15-.226.75-1.056 2.1-1.056s1.95.83 2.1 1.056h2.325c-.45-.302-.975-.528-1.65-.679h-.075v-1.057s.075-.075.6-.377c-.15-.226-.375-.528-.375-.981 0-.604 1.2-3.396 1.275-3.698v-.076h12.825v.076c.15.302 1.275 2.943 1.275 3.472 0 .452-.15.98-.3 1.207l.9.453-1.2.15-.15.303.9.453h-1.125s-.3.302-.525.603h2.25c.15-.226.75-1.056 2.1-1.056s1.95.83 2.1 1.056h3.45c-.15-.226-.675-.603-1.125-.83z" fill="#FFF"/>

			<path d="M710.5 34.038l-1.35-.151c-.225.15-1.05.905-1.35 1.132-.075 0-.075.075-.15.15l.45.303.45-.453.375.68c.675-.53 1.125-.982 1.5-1.435h-.075l.15-.226zM701.125 33.132l.675.076c.15-.151.375-.151.525-.151l-1.05-.076-.15.151zM711.625 31.623c0-.151-.075-.378-.225-.755-.225.15-.525.226-.525.302-.075 0-.225.15-.225.302 0 .226-.225.528-.3.603-.075-.075-.825 0-1.35 0-.075.076-.15.076-.225.151 0 .151.075.529.075.68.075.075.225.075.375.075.075 0 .15-.075.225-.15.075-.076.225-.152.375-.303.375-.226.675.076.825.302l.375.302.225.076c.3-.529.375-1.057.375-1.585zM705.25 33.132c0 .076 0 .151-.075.226v.076l2.325.15c.075-.15.225-.301.3-.376l-2.55-.076zM705.325 33.66l.75.529c.15 0 .375-.076.45-.076.225-.075.675-.15.75-.226l-1.95-.227zM707.875 32c-.225-.15-.3-.453-.3-.68 0-.15-.075-.301-.075-.301-.075-.151-.15-.302-.15-.377 0-.151 0-.151-.075-.227-.075 0-.15.227-.225.377l-.075.453h-.15c-.3-.075-.525 0-.525.076-.075.302-.6.302-1.2.302-.075 0-.225 0-.3-.076v.151c0 .151 0 .453.075.604l.675-.377c.6-.302 1.125-.227 1.425.226l.15.226h-.675c-.075.151-.525.453-.6.529l2.025.075V32zM711.325 33.585l.225.15.075-.15zM711.85 32.906l-.375.452 1.275-.075zM698.725 28.604l-.225-.302c-.375.906-1.275 3.094-1.275 3.472 0 .377.225.679.3.83.15-.076.225-.151.375-.227-.15-.15-.3-.528-.3-.905.075-.378 1.125-2.868 1.125-2.868z" fill="#FFF"/>

			<path d="M711.025 28.302H702.4l.3.302h8.1v.075c.075.227 1.05 2.415 1.05 2.944.075.377 0 .83-.225 1.207l.15-.15.225.075c.075-.227.225-.755.225-1.132.075-.378-1.2-3.321-1.2-3.321zM702.025 30.642l-.075.075h-.3l.825.906h.6zM703.15 31.32l-.9-.905-.15.076 1.05.905zM703.225 31.85h-.6l.225.3.825.076zM702.85 32.377l-.075.151.45.378c.15-.076.225-.076.3-.076.075 0 .225-.15.375-.302-.15-.075-.825-.15-1.05-.15z" fill="#FFF"/>

			<path d="M703.75 31.094c-.225-.302-.375-.754-.45-1.132-.3.151-.6.227-.9.378l.9.905.075.453.525.528-.15-1.132zM703.225 28.906h-4.35c-.375.905-.975 2.34-.975 2.641 0 .302.225.604.3.755.825-.528 4.5-2.415 5.025-2.642v-.754zM701.425 30.792l-.45.227.675.528.525.076-.75-.83zM702.325 31.85l-1.2-.152v.151c.225.076.975.151 1.35.226l-.15-.226zM701.125 32.075l-.075.227 1.5.15.075-.15zM702.55 32.68l-1.2-.152v.227l1.35.075zM705.025 33.66c-.15.151-.375.227-.6.227l.75.604c.15-.151.3-.227.375-.302.075 0 .15 0 .3-.076l-.825-.453zM707.575 36l.375-.377-.45-.302c-.15.15-.225.226-.3.377-.075.151-.225.227-.375.227l.825.679c.15-.151.375-.227.525-.378l-.6-.226zM710.2 33.358c-.075 0-.15.076-.225.076-.075.075-.375.226-.525.377l1.275.076.3-.453.075.075s0-.075.075-.075l-.975-.076zM711.025 33.66l-.3.453h1.2z" fill="#FFF"/>

			<path d="M706.6 36h-.225c-.075 0-.3.226-.375.377.075-.226 0-.528-.075-.528-.075-.075-.075-.302-.075-.453l-.225-.15c-.15 0-.225-.076-.3-.076-.075 0-.15.075-.225.226l-.15.302-.075-.302c-.075-.302 0-.528.075-.679l-.75-.68c-.225.227-.525.303-.675.303-.15.377-.6.452-.825.452-.075 0-.3.227-.3.302 0 0-.225-.528-.225-.905-.15.075-.375.15-.45.226l-.15.151-.075-.226c0-.076-.15-.68 0-.982l-.9-.075.45-.528v-.302h-.3l.15-.604-.075-.453h.375l-.45-.377c-1.575.83-3.075 1.736-3.675 2.113.675.226 2.325.981 3.3 2.717.3.151 2.475 1.132 3.45 2.943.45-.226 1.95-.98 3.6-2.113L706.6 36zM708.475 35.396l-.6.529 1.125.452zM710.725 34.34c-.45.528-.975 1.056-1.725 1.66l.225.377c1.2-1.056 1.725-1.886 1.875-2.037h-.375zM718.45 28.604c-.15-.227-.6-.906-1.125-1.585-.15-.302-.825-.227-.45.377.375.453.825.981 1.2 1.359.3.302.45.377.525.453.075-.076 0-.227-.15-.604zM717.925 28.906c-.3-.227-.525-.529-.825-.83-.3-.378-1.2-1.359-1.35-1.51-.15-.15.075.226 0 .453-.075.226-.225.377-.225.377s1.35 1.283 1.5 1.51c-.075-.151-.075-.302-.15-.453.45.83.825.905.975.905.15 0 .225-.075.3-.15-.075-.151-.15-.227-.225-.302zM702.925 7.32l.45-2.263 1.575-.529zM703.9 3.019l.975 1.283-3.225-1.057zM705.175 4.528l1.575.529.45 2.264zM705.25 4.302l.975-1.283 2.25.226zM705.1 4.15l-.975-1.282.975-2.113zM704.2 16.981l.075-.15c.075-.076 0-.076 0-.152-.075-.075-.525-.226-.525-.226l.075-.151v-.227c-.075-.15-.225-.301-.375-.377-.975 2.49-1.425 3.698-1.65 4.302.075 0 .075 0 .15.075.225.076.9-2.037.975-2.113.075-.075.075-.226.15-.453.075-.226.225-.075.45-.075.15 0 .9-.076 1.125-.076.075-.226-.45-.377-.45-.377zM705.475 14.566c-.225-.528-.375-.83-.45-.83-.075 0-.225.302-.45.83 0 0-.375.981-.525 1.434 0 .075.075.15 0 .302.525.075.45.453.45.528.225.076.375.227.45.453.6.075.675.604.675.604.15.075.375.226.45.528.075.151.3.377.45.604.075 0 .075 0 .15-.076.15-.075.225-.226.225-.452v-.076c-.3-.906-1.2-3.245-1.425-3.849zM711.25 9.057c-.075-.151-.375-.453-.6-.529h-.825c.3.076.9.378 1.05.604.15.226.45.151.375-.075zM700.825 9.358c0 .378-.15.68-.3.906-.15.151-.375.227-.6.227-.225 0-.45-.076-.6-.227-.15-.15-.3-.453-.3-.68 0-.678.75-.98 1.2-1.056h-.9c-.3.151-.75.529-.75 1.208 0 .377.075.68.3.906.225.226.525.301.825.301.15 0 .3 0 .45-.075.075 0 .975-.226.675-1.51zM707.275 7.623c-.975 1.207-1.575 1.283-2.25 1.283-.6 0-1.2-.076-2.25-1.283h-3.9l.45.377h3.375s.75 1.208 2.25 1.208S707.2 8 707.2 8h3.375l.45-.377h-3.75zM709.9 10.415c-.15 0-.225-.075-.375-.226-.15-.151-.3-.453-.3-.83-.15.226-.225.754-.225.754.225.529.675.68 1.05.755l-.15-.453zM709 29.283c-.075-.15-.45-.302-.75-.377h-1.05c0 .603.15 1.207.225 1.283.15.15.15.302.15.453 0 .075 0 .15.075.226.075.075.15.302.15.453.075.226.075.453.225.528.3.151.45.226.75 0 0-.075-.075-.226-.075-.302 0-.15.075-.15.075-.15s-.225-.076-.45-.227c-.225-.151-.225-.151-.075-.302.15-.151.45.075.45.075-.225-.377-.75-.754-.975-.83-.225-.075-.075-.226.15-.226.225 0 .525.15.525.15s-.075-.15-.075-.377c0-.226.375-.075.525 0 .375 0 .375-.075.15-.377zM705.7 32.15s0 .076 0 0v.152s-.075 0-.075-.076h-.075l.075.076s0 .075-.075.075c0 0-.075 0-.075-.075 0 0 0-.076-.075-.076l-.375.151c.075.076.15.227.225.378l.525-.151c.225-.151.525-.378.525-.453.075-.076.15-.151.3-.151-.3-.075-.6 0-.9.15z" fill="#FFF"/>

			<path d="M705.1 31.17c.15-.151.15-.227 0-.378-.15-.15-.6-.528-.45-.528.15 0-.3-.528.15-.528.45 0 .15-.151.15-.151s-.9-.302-1.2-.68h-.225c0 .378 0 1.586.45 2.038l.15 1.51c-.15.15-.375.453-.525.528v.076s0 .075-.075.075-.075 0-.075-.075v-.076c-.075 0-.225.076-.375.076-.075 0-.15.075-.225.075v.151s0 .075-.075.075-.075 0-.075-.075v-.075c-.075 0-.075 0-.15.075l.075.075s0 .076-.075.076c0 0-.075 0-.075-.076 0 0-.075-.075-.15-.075h-.075c-.15 0-.375 0-.525.226-.075.151-.075.378 0 .604.15-.075.375-.226.6-.226.15-.227.45-.227.525-.302.075 0 .3-.151.525-.151.075 0 .3-.151.45-.377-.075.15-.225.528-.375.603 0 0 0 .076-.075.076 0 0-.075 0-.075-.076-.075 0-.15.076-.3.076v.075s0 .076-.075.076.075.075.075.075h-.075v.076s0 .075-.075.075c0 0-.075 0-.075-.075-.15.075-.3.15-.3.302v.377c.075-.075.075-.075.15-.075.225 0 .6-.151.6-.378v-.075h.075s.525-.076.675-.378l.075-.075h.075s.525.075.675-.378c.15-.377 0-.528-.15-.603l-.075-.076c-.15-.226-.225-.754-.225-.83 0-.15 0-.302-.075-.302-.075-.075-.075-.226-.075-.226s.375.226.75.226c.6-.226 0-.226.15-.377zM710.425 32.906s-.3-.378-.525-.227c-.075.076-.15.076-.225.151 0 .076.075.076.075.151 0 0 0 .076-.075.076s-.075 0-.075-.076v-.075c-.15.15-.225.226-.375.226s-.375 0-.525-.15c-.075-.076-.075-.152-.075-.227v-.604c-.15 0-.3 0-.45-.076 0 .378 0 .982-.15 1.208-.075.075-.075.151-.15.226-.15.151-.225.378-.375.453-.15.076-.45.227-.75.302h-.075v.076s0 .075-.075.075-.075 0-.075-.075v-.076h-.075v.076s0 .075-.075.075c0 0-.075 0-.075-.075v-.076h-.075v.151s0 .076-.075.076-.075 0-.075-.076c0-.075 0-.075-.075-.075-.15 0-.375.075-.45.075-.075 0-.3.151-.375.453.075-.076.225-.151.3-.076.15.076.525.151.6 0 .075-.226.375-.226.6-.226.075 0 .225 0 .225-.075.15-.151.9-.453.9-.453s-.6.528-.75.679h-.075v.075s0 .076-.075.076c0 0-.075 0-.075-.076v-.075h-.075v.075s0 .076-.075.076-.075 0-.075-.076c0 0 0-.075-.075-.075-.15 0-.3 0-.375.15-.075.076-.075.152-.15.152-.075.226-.075.377 0 .453 0 0 .075.075.075.15.075 0 .075-.075.15-.075.225 0 .525-.075.6-.226.15-.227.6-.604.675-.68.075-.075 1.275-1.056 1.5-1.283l.675-.452c.15-.076.45-.151.675-.151l.075.15zM708.475 36.377c-.15.151-.3.227-.45.302v.68c.375-.302.75-.529 1.05-.83l-.6-.152zM702.475 37.51v.528c.6.528.975 1.132 1.275 1.51v-.454c-.3-.603-.75-1.132-1.275-1.585zM698.5 34.113v.453c.975.604 1.5 1.283 1.8 1.811v-.302c-.525-.905-1.2-1.509-1.8-1.962zM720.4 30.868c-.225-.226-.6-.377-1.05-.377-.525 0-.975.15-1.2.452-.075.076-.075.151-.15.227l.15.453c.15-.453.675-.68 1.125-.68.3 0 .6.151.825.378.225.226.3.453.3.754 0 .302-.075.529-.225.68l.225.302c.375-.302.375-.755.375-.906.075-.528-.075-.981-.375-1.283zM717.775 32.528c-1.05-.528-1.875-1.51-2.4-2.868-.3-.83-1.875-4.603-1.875-4.679 0 .227 0 .453-.15.604.525 1.283 1.425 3.472 1.725 4.302.45.98 1.35 2.34 2.4 2.868 0 0 .225.075.45.226l-.15-.453zM719.35 35.547h4.05l-4.2-2.49c0 .15.075.603.45.83.675.377 2.1 1.283 2.1 1.283h-2.4v.377zM717.175 35.094c0-.075-.525-.98-1.875-.98l.075.452c1.05 0 1.65.755 1.8.981v-.453zM713.35 35.17h-1.125v.377h1.275zM715.3 27.396c-.15-.15-.375-.302-.45-.453-.075-.15-.225-.15-.15.076.075.226.225.453.45.68l.3.301s0-.453-.15-.604zM714.1 23.472c-.075-.227-.225-.453-.3-.604-.075-.151-.3 0-.3 0s-.225.226-.15.377c.15.151.375.302.375.302.15.227.225.302.375.302s.075-.15 0-.377zM713.725 24.377c-.075-.302-.375-.754-.675-.905-.225-.227-.225.377-.15.453.075.15.375.452.525.679.225.226.375.15.3-.227zM713.125 25.057c-.075-.227-.375-.68-.525-.982-.225-.377-.375.076-.3.302 0 .227.375.529.6.755.15.302.3.151.225-.075zM712.3 25.358c0-.226-.225-.754-.45-.905-.15-.076-.225.075-.15.226.075.151.225.453.225.604v.604c0 .226.3.226.3 0 .075-.151.075-.302.075-.529zM711.55 25.585c0-.377-.225-.68-.225-.68-.225-.15-.225.152-.225.303 0 .15.075.603.15.83 0 .226.3.377.45.302.075-.076-.075-.378-.15-.755zM710.725 25.358c-.3-.226-.45.151-.45.378 0 .226 0 .604.15.83.15.226.45-.075.45-.302 0-.15.075-.755-.15-.906zM709.9 25.736c0-.151-.225-.227-.225 0 0 0 .075.68-.225.302 0 0-.075.528.075.754.15.227.375.378.45 0 0-.377-.075-.905-.075-1.056zM709 26.189c-.15.377-.525-.151-.525-.151 0 .679.225 1.056.375.905.225-.15.15-.754.15-.754zM707.875 27.094c.3-.15.375-.754.375-.754-.15.15-.675.905-.375.754zM706.975 27.094c.45-.226.675-1.358.675-1.358-.3.15-1.05 1.51-.675 1.358zM707.2 24.906s.15.603.3.603-.075-.301-.3-.603zM707.95 24.604s.075.83.3.679c.225 0-.15-.377-.3-.68zM708.625 24.528s-.075.68.225.755c.3.075-.15-.604-.225-.755zM709.525 24.604c0-.227-.225-.604-.3-.453 0 0 0 .68.225.906.375.226.15-.227.075-.453zM710.275 24.528c-.15-.226-.15-.528-.15-.679 0-.15-.15-.377-.225-.15 0 0-.15.83.15 1.056.3.302.3 0 .225-.227zM710.95 24.453c-.075-.227-.3-.378-.3-.604 0-.226-.225-.377-.225-.075 0 .226.075.754.225.905.225.151.375 0 .3-.226zM711.55 23.925c-.15-.227-.375-.453-.375-.68 0-.226-.225-.226-.225 0 0 .227.225.755.45.906.225.226.3-.076.15-.226zM712.075 23.32c-.15-.226-.375-.603-.45-.83 0-.226-.225-.226-.225 0 0 .378.225.982.675 1.208.375.227.15-.15 0-.377zM712.75 22.943c-.15-.15-.45-.528-.45-.679-.075-.15-.3-.075-.3.076 0 0 .3.679.675.905.3.227.225-.15.075-.302zM713.2 22.113c-.15-.075-.6 0-.6 0s.375.453.6.529c.3.075.15-.453 0-.529zM713.8 21.66c-.15-.15-.225-.603-.525-.528 0 0 .45.528 0 .528 0 0 .3.151.45.302.15.151.225-.15.075-.302zM714.25 20.981c-.225-.075-.75-.604-.825-.68-.075-.15-.3-.226-.225 0 0 0 .675.907.9 1.057.225.076.375-.301.15-.377zM714.7 20.302c-.225-.227-.825-.68-.9-.906-.075-.15-.225-.075-.225.076 0 0 .675.679.45.905 0 0 .375.227.525.302.225.076.3-.15.15-.377zM714.55 19.019c-.15-.151-.45-.076-.225.15.15.152 1.05.756.75.756h-.3s.45.528.675.226c.075-.226-.75-1.057-.9-1.132zM715.675 19.17c-.15-.302-.9-.906-1.425-.68 0 0 1.125.302 1.2.906.15.604.3.076.225-.226zM715.9 19.019s.6.604.675.377c.075-.226-.375-.226-.675-.377zM716.425 18.717s.9.528.525.755c0 0 .825-.227-.525-.755zM717.4 18.038c-.225-.302.45-.076.45-.076-.15-.453-1.05-.679-1.05-.679l.375.453s-.075.226.075.453c.15.226.6.453.675.754.075.227-.45.076-.45.076s.675.604.9.377c.15-.226-.75-1.056-.975-1.358zM718.9 18.34s.9.905.225.754c0 0 .75.68.9.453.225-.226-.975-1.056-1.125-1.207zM719.575 18.34s.825 1.056 1.275 1.056c.375 0-.825-.679-1.275-1.056zM722.35 19.547c-.225-.226-.975-1.056-.975-1.056s.45 1.132-.225.226c-.675-.83-1.35-1.434-1.2-.981 0 0 1.575 1.887 2.025 1.962.45.076.6.076.375-.15zM715.9 17.66s0 .604.9.68c.825.075-.9-.68-.9-.68zM712.15 20.906c-.225.302.6.302.6.302s-.225-.83-.6-.302zM711.1 21.208c-.15.377.6.83.675.452 0-.377-.675-.452-.675-.452zM710.5 21.585c-.375.68.3.755.3.755.15-.453-.3-.755-.3-.755zM709.675 22.264c-.3.981.45.755.45.755.15-.528-.45-.755-.45-.755zM712.075 20s.225.528.6.453c.375 0-.6-.453-.6-.453zM708.85 22.792s-.15.68.15.604c.225-.075-.15-.604-.15-.604zM706 21.132v.453c.45.68-.45.075-.45.075.6.529.225.906.225.906.6.151.675-.226.75-.68.075-.301-.525-.754-.525-.754zM705.25 17.66c-.075-.302-.9 0-.9 0 .45.151.975.302.9 0zM705.475 18.264c-.225-.226-.675 0-.675 0 .525.076.9.227.675 0zM706.15 19.094c-.15-.452-1.05-.377-1.05-.377-.375.15.225.226.525.377.375.076.6.378.525 0zM702.7 20.226s-.225.529-.525.755c0 0 .675.151.825-.226.075-.302-.3-.529-.3-.529zM703.45 23.396c.525.151.6-.226.6-.226s-1.125.075-.6.226zM704.425 24.68s-.45.075-.375.301c.15.302.525.151.375-.302zM702.325 25.66c-.225-.15-.45.378-.75.076 0 0 .45.604.6.453.15-.151 0-.302 0-.302s.375-.151.15-.227zM698.95 25.66c-.3-.452-.9-.528-.9-.528-.3.151.15.453.3.68.15.15.75.075.6-.152zM698.275 25.962c-.225-.075-.225.227-.225.227s.15.075.15.15c0 .076.225 0 .375-.075.225-.15-.075-.226-.3-.302zM699.4 25.962s.075.453.375.302c.075-.075-.15-.453-.375-.302zM700 26.34s.225.377.45.15c.225-.226-.3-.226-.45-.15zM701.65 25.283s.075.226.225.226c.225 0 .225-.226-.225-.226z" fill="#FFF"/>

			<path d="M721.675 16.906c-2.55-2.566-6.825-3.698-8.4-3.698-1.425 0-3.075 1.132-3.075 1.132l-.15.075s-1.5-3.547-1.425-4.15c0-.303-.375-.303-.375 0 0 .754.075.905.225 1.282.075.076.675 1.66 1.275 3.095l-.225.075c-.6-1.434-1.2-3.019-1.275-3.094-.15-.378-.3-.604-.3-1.434s.9-1.208 1.425-1.283l.15.15c0 .378.075.68.225.906.075.076.225.151.45.151.45 0 .6-.453.6-.679 0-.68-1.2-.83-1.2-.83h-.3l.45-.453h-2.325c-.15.302-.975 1.283-2.4 1.283-1.5 0-2.25-.981-2.4-1.283H700.3l.45.453h-.3s-1.2.15-1.2.83c0 .226.075.377.225.528.075.076.225.151.375.151.45 0 .675-.377.675-1.056h.225c.45.075 1.425.377 1.425 1.283 0 .754-.075.98-.3 1.434-.075.075-3.6 8.905-3.6 8.905l-.225-.15s3.525-8.755 3.6-8.906c.15-.302.225-.604.225-.906 0-.302-.45-.302-.45 0s-.15.755-.3 1.208c0 0-3.45 8.603-3.525 8.679l-.225-.076s-1.65-.905-2.025-1.207c-.3-.227-.675-.227-1.05 0-.225.15-.45.15-.6.075-.075.227.15.378.15.378v.15c-.825-.226-.75-.754-.75-.98 0 0-.075 0-.075-.076-.225-.151-.525-.377-.75-.377-.075 0-.225.075-.375.226-.075.15-.15.302-.15.68.15-.152.375-.152.675-.076.45.15.675.905.825 1.207.075.076.075-.15.225-.075.15.075.525.528.9.68l.15-.076v-.604s0-.076-.15-.151c0 0 0-.68-.225-.604.3-.075.45 0 .6.151.15.076.225.302.225.302s.225.15.45.226c.225.151.9.604 1.05.755.225.151.225-.075.45 0 .225.076.6.076.6.076s-.375-.378-.375-.529c0-.15.3-.302.45-.226.15.075.225.226.375.302l.3.15s-.15.227.15.227.825.076.825.076.3.075.45.075c.15 0 0 .151-.15.151-.3 0-1.575-.151-1.725-.226 0 0 .3.452-.3.226s-.075 0-.075 0l.15.377s-.45-.226-1.05-.377c-.6-.226-1.35-.377-1.8-.226 0 0 .075.679.375.754.225.076.075-.15.45 0 .3.151 2.175 1.66 2.475 1.812.3.15.15.301-.075.226-.225-.15-.675-.302-.675-.302l.45.528h.075s.225.076.6.076c.3 0 .15 0 .225-.227.075-.226.15 0 .375.151s.225.227.45.227 0-.227.075-.302c.075-.076.225.075.3.075.075 0 .45 0 .75.076.375.075.45.302.3.302-.075 0-.3.075-.525.075-.225 0 0 .227 0 .378 0 .15.45.301.45.301s-.15.076-.45 0l-.75-.377c-.375-.15-.45.377-.225.377s.45.076.45.076.225.226.45.226.3.151.375.378c0 .226.45 0 .75.075.225.076.225 0 .075-.15-.15-.152-.225-.227-.075-.227.075 0 .15-.076.15-.076s.15-.226 0-.226c-.225 0-.3-.151-.6-.302-.225-.15 0-.15.15-.15s.225.075.375.15c.15.076 0-.226.225-.226s-.15-.227-.45-.227c-.3-.075-.225-.453 0-.377.15.075.675.15 1.05.226.375.076.075.378-.15.378-.225 0 .225.226.45.302.225.075.3.15.3 0 0-.227-.225-.529-.225-.68 0-.226.15-.075.375-.075s.15-.227 0-.227-.3-.15-.375-.377c-.075-.226.15-.377.15-.68 0-.226.15-.452-.075-.603-.225-.15.15-.226.225-.377.15-.151.675-.151.9-.227.225-.075.45.151.225.151-.15 0-.45.227-.675.227-.225.075-.225.302-.075.302.15 0 .375 0 .675-.076.3-.15.9-.528.975-.68.075-.15.15-.226-.075-.301-.225-.151-.225-.227 0-.227.15 0 .375-.15.675-.15.225 0 .45-.529.675-.755.15-.227 0-.378-.15-.378h-.825c-.15 0-.3-.075-.15-.226.15-.075.675-.15 1.2-.226.525-.076-.225-.227-.525-.151-.3 0-.9 0-.975.15-.075.152-.225.227-.45.152-.3-.076-.3.226-.15.226.225 0 .225.075.15.15-.075.076-.225.152-.45.227-.225.076-.525-.075-.45.151.075.227.375.227.375.227 0-.378.9-.529 1.125-.529.225 0 .525.151.375.151-.15 0-.225.151-.45.151s0 .227-.075.378c-.15.075-.825.226-.975.226-.15 0-.075.226-.075.302 0 .15-.225.226-.45.226s-.3.076-.375.227c-.075.15-.15.226-.3.075-.15-.226.075-.377.075-.528 0-.226.3.075.45.075.15 0 .225-.15.225-.226 0-.075-.525 0-.75 0h-.45s.075-.15 0-.377-.225-.151-.3-.227c0-.075-.075-.075-.075-.15-.15 0-.45.075-.6.301l-.075.151-.075-.15s-.15-.227-.675 0c-.225.15-.375.15-.45.075-.075 0-.075-.076-.075-.076-.375.227-.825-.075-.9-.075.15 0 .45 0 .675-.076.3-.83 3.75-9.66 3.9-9.962.15-.302.075-.83.075-.83s.75.453 1.125.528c0 0-.45.528-.45.68-.075.15-3.225 8.528-3.525 9.358.225 0 .375 0 .525.075.225-.226.525-.226.675-.302.225-.679 2.25-5.886 2.55-6.717.225-.679.825-.905 1.125-.905.3 0 .825.226 1.125.905.15.453.9 2.416 1.5 4l-.225.151c-.6-1.585-1.425-3.547-1.575-4.075-.15-.377-.375-.528-.45-.604 0 0-.3.227-.225.302.075.151.3.302.45.906.225.754 1.5 4.075 1.575 4.15 0 0-.3.68-.375.83-.075.152-.15.378-.225.378-.075 0-.225.076-.225.302 0 .226 0 .226-.075.302-.075.075-.15.226-.225.453 0 .302.375.453.6.453.225 0-.075-.151-.075-.302 0-.227.075-.151.3-.151.225 0 .075-.076 0-.302-.075-.227.225-.227.45-.076.225.151.225-.226 0-.377-.15-.226-.075-.226.075-.226s.45-.151.45-.151c-.15-.755.45-.604.45-.604-.525-.377-.3-.528-.15-.528s.225-.151.225-.151c-.225-.227.075-.378.225-.302.15 0 .375.075.3-.076-.075-.15 0-.453.075-.453s.225-.15 0-.377c-.225-.226.225-.226.45-.226s.3-.604.3-.604c-.15-.302.3-.302.3-.302s.825-.981 1.875-1.51c1.05-.528 2.85-.528 3.675-.15.9.377-.075-.453-.075-.453s.825.302 1.275.68c.45.301.675.226 1.65.83.975.603.825.15.825.15s1.5 1.057 1.95 1.585c-.225.68-.225.227-.225-.075z" fill="#FFF"/>

			<path d="M698.8 23.925c-.15-.076-.375-.302-.375-.302s-.225-.076-.225 0c0 0 .15.603.825.452-.075 0-.075-.075-.225-.15zM694.45 22.415l.3.227s.15 0-.3-.227zM695.5 22.792s.15.227-.375.227c0 0 .6.15.9.528.075-.075 0-.528-.525-.755zM696.55 24.075c-.15-.226-.525-.301-.525-.301s.3.83.975.905c0 0-.3-.377-.45-.604zM693.25 22.113s.75.378.975.604c.225.302-.3-.528-.975-.604zM694.525 23.019s.525.528.9.604c0 0-.45-.529-.9-.604zM729.1 26.415c-.3-.68-1.575-2.717-3.075-4.68-.975-1.207-2.175-2.414-3-3.244.9 1.132 2.7 3.547 2.925 3.773.225.227-.075.378-.225.227-.15-.151-.975-1.208-1.425-1.66-.45-.454-.675-.076-.45.075.15.226.975 1.283 1.275 1.66.3.377 0 .377-.225.151s-.825-.906-.975-1.208c-.225-.301-1.35-1.207-1.575-1.358-.225-.151-.6-.076-.45.15.15.227.525.68.675.907.15.226.525.226.675.301.15.076.375.453.525.604.15.076 0 .302-.15.151-.075-.15-.15-.226-.3-.377s-.375-.302-.6-.302c-.225 0-.525-.453-.675-.68-.15-.226-.9-.754-1.35-1.056-.45-.302-.45 0-.3.076.15.075.9.679 1.05.83.15.15-.075.377-.225.226-.15-.226-.975-.83-1.2-.906-.225-.075-.6-.075-.525.076.075.15.525.68.675.83.15.151 0 .377-.225.151s-.675-.755-.825-.981c-.225-.226-.225-.302-.45-.226-.225.075-.675 0-.6.15.15.151.75.982.9 1.133.225.226.075.301-.225.075-.225-.226-.9-.906-1.2-1.132-.3-.226-1.125-.151-1.125-.151l.45.453c.15.15.3.604-.225.075-.525-.528-.9-.377-1.125-.075-.225.302.15.528.225.604.15.075-.075.452-.225.226-.15-.15-.45-.377-.75-.15-.3.225-.225.83-.225.83-.3-.076-.45-.076-.45-.076-.3 1.056.525 1.207.525 1.207.45.151.525.076.525 0 .075-.15 0-.528-.15-.679l-.225-.377.375.226c.9.453 1.125.302 1.125.302.15-.15.075-.68-.075-.906.525.302.975.378 1.2.227.15-.076.225-.529.225-.529l.15.151c1.125.755 1.5.68 1.575.68.075 0 .075-.302.075-.302l.225.15c.3.227.6.378.75.303.225-.076.3-.453.3-.453l.15.15c.675.755 1.125.906 1.35.906.15 0 .375-.226.375-.226s.675.755 1.125.68c.15-.076.225-.605.225-.605s1.275 1.66 1.95 1.736c.15 0 .225-.075.225-.075l.15-.151.075.226c.3.604 2.55 2.264 2.7 2.34.15-.302.15-.377.075-.453z" fill="#FFF"/>

			<path d="M721.975 18.415s.225.453.45.453.15-.226-.45-.453zM722.8 19.396s.375.604.825.68c.45.15-.225-.68-.825-.68z" fill="#FFF"/>

			<path d="M706.975 11.019c-.15-.302-.075-.83-.075-.83s-.75.453-1.125.528c0 0 .45.528.45.68 0 .075.9 2.867 1.875 5.433l.675-.83c-.9-2.49-1.725-4.83-1.8-4.981z" fill="#526881"/>

			<path d="M693.325 21.057c-.825.075-1.725-.529-1.725-.529 1.125 1.963 1.875.68 1.875.68l-.15-.151zM693.625 21.358c-.075.227-.3.227-.3.227.075.075.525 0 .525 0s-.15-.377-.225-.227z" fill="#FFF"/>

			<path d="M696.925 22.113c-.3 0-.825-.302-.825-.302.45.68 1.125.302.825.302z" fill="#727175"/>

			<path d="M700.225 13.283c-1.05-.755-2.175-1.358-2.475-1.358 0 .075-.3 0-.3 0 0-.076.075-.151.075-.227 0 0-.15-.15-.75-.15-.15-.152-.45-.378-.525-.303l-.3.076s0-.151-.15-.302c-.15-.076-.375-.151-.6-.076-.225-.15-.525-.377-.6-.377l-.225.151c0-.075-.225-.377-.675-.377 0 0-1.2-.68-2.175-.68-.375-.15-1.35-.603-1.875-.452.6.226 1.05.603 1.2.679-.825-.453-2.325-.981-2.775-.68.975.302 1.65.83 1.725.906 0 0-1.35-.679-2.625-.83-1.5-.15-2.55-.075-2.85.226h-.075c-.675.076-1.5.227-1.725.302.225.151 1.2.076 1.725 0h.45c.45 0 3.6.151 4.875.755 1.2.604 3.075 1.887 3.6 2.49l.225.227s.225-.15.525 0c.225.151.525.528.525.906 0 .302.075.226.375.453.3.226 0-.453.075-.378.075.076.225.302.45.528.15.227.3.076.375-.075.075-.151-.3-.226-.525-.453-.225-.226-.6-.83-.75-1.132-.15-.226-.9-.453-1.05-.528-.15-.076-.15 0-.075-.151s.525.075.675.15c.225 0 .225 0 .15-.226-.075-.226-1.425-1.132-1.875-1.358-.45-.227-.225-.453-.225-.453s0 .076.975.528c.975.453 1.35 1.208 1.35 1.208s.3.226.75.15c.45-.075-1.725-1.584-1.725-1.584 2.25 1.132 2.175 1.585 2.175 1.585l.45.15c.6-.075-1.275-1.509-1.275-1.509 1.95 1.132 1.575 1.51 1.575 1.51s.45.226.675.075c.225-.226-.6-.754-.6-.754s.75.301.9.452c.075.151 0 .453 0 .529 0 .075.45.226.675.226.225 0 .675.151.675.151l-.675-.83c.675.302 1.8 1.358 1.8 1.358-.075-.453-.3-.679-.3-.679.225.076.525.377.6.453.075 0 .15-.151.15-.302zM697.975 17.434c-.15-.226-.375-.226-.825-.377-.45-.151-.75-.755-1.05-1.057-.225-.226-.225.075-.15.226.975.982 1.875 1.812 2.325 1.963.075-.151.075-.227.15-.378-.15-.075-.375-.302-.45-.377zM699.175 15.472c-.15-.076-.075.226 0 .453.075-.151.15-.302.15-.453h-.15z" fill="#FFF"/>

			<path d="M696.175 13.811c-.225-.075-.45-.15-.675-.302-.225-.15-1.425-.98-1.125-.528 0 0 1.125 1.132 1.125 1.359 0 .226.225.302.3.377.15.075.15-.302.15-.302s-.45-.528-.075-.453c.375.151.525.378.675.302.15-.075-.15-.377-.375-.453zM695.425 12.981s.45.528.675.528c.15.076-.75-.754-.675-.528zM697.45 14.038c-.225-.227-.6-.302-.75-.604-.15-.226-.45-.226-.3-.076 0 0 .375.529.825.755.45.227.15.227-.075.227-.225 0-.075.15.15.226.225.151.525.076.525.076s-.15-.453-.375-.604zM698.425 14.34l-.975-.982c-.075-.075-.3 0-.3 0 .225.151.825.755.975.906.15.302.6.302.3.076zM698.725 14.038c-.15-.151-.45-.453-.45-.227 0 0 .225.378.375.453.15.076.225-.075.075-.226zM699.4 14.189c-.075-.227-.375-.453-.3-.302 0 0 .225.679.525.679.3 0-.15-.15-.225-.377zM697.375 15.32c-.15-.075-.3-.301-.3-.301s-.45-.227-.3 0c0 0 .6.604.75.68.15.075 0-.303-.15-.378zM697.675 16.377c-.15 0-.45-.075-.45-.075s.3.453.675.226c.3-.075-.075-.075-.225-.15z" fill="#FFF"/>

			<path d="M693.325 20.075s0 .151.15.227c.225.075 0-.227-.15-.227z" fill="#727175"/>

			<path d="M724.15 34.792c0-.679.525-1.132 1.125-1.132s1.125.453 1.125 1.132c0 .68-.525 1.133-1.125 1.133s-1.125-.453-1.125-1.133z" fill="#526881"/>

			<path d="M725.275 35.698c.525 0 .9-.377.9-.906 0-.528-.375-.905-.9-.905s-.9.377-.9.905c0 .529.375.906.9.906z" fill="#FFF"/>

			<path d="M725.05 35.472h-.225v-1.283h.525c.3 0 .45.15.45.377 0 .226-.15.302-.3.377l.375.604h-.225l-.375-.528h-.225v.453z" fill="#526881"/>

			<path d="M725.275 34.717c.15 0 .3 0 .3-.226 0-.151-.15-.227-.3-.227h-.3v.453h.3z" fill="#FFF"/>

						</svg>