<?xml version="1.0" encoding="utf-8"?>
<!-- Generator: Adobe Illustrator 18.1.1, SVG Export Plug-In . SVG Version: 6.00 Build 0)  -->
<svg version="1.1" id="Layer_1" xmlns="http://www.w3.org/2000/svg" xmlns:xlink="http://www.w3.org/1999/xlink" x="0px" y="0px"
	 width="2301.9px" height="390.2px" viewBox="0 0 2301.9 390.2" enable-background="new 0 0 2301.9 390.2" xml:space="preserve">
<g>
	<defs>
		<rect id="SVGID_1_" x="4.3" y="0" width="2307.8" height="389.2"/>
	</defs>
	<clipPath id="SVGID_2_">
		<use xlink:href="#SVGID_1_"  overflow="visible"/>
	</clipPath>
	<g clip-path="url(#SVGID_2_)">
		<g>
			<polygon fill="#282C35" stroke="#4F4F4F" stroke-miterlimit="10" points="544.5,609.7 406.5,609.7 406.5,226.6 475.5,187 
				544.5,226.6 			"/>
			<polyline fill="none" stroke="#4F4F4F" stroke-miterlimit="10" points="408.2,226.9 477.2,266.5 544.2,226.6 			"/>
			<polyline fill="none" stroke="#4F4F4F" stroke-miterlimit="10" points="408.2,251.9 477.2,291.5 544.2,251.6 			"/>
			<polyline fill="none" stroke="#4F4F4F" stroke-miterlimit="10" points="408.2,232.9 477.2,272.5 544.2,232.6 			"/>
			<polyline fill="none" stroke="#4F4F4F" stroke-miterlimit="10" points="408.2,271.9 477.2,311.5 544.2,271.6 			"/>
			<polyline fill="none" stroke="#4F4F4F" stroke-miterlimit="10" points="408.2,291.9 477.2,331.5 544.2,291.6 			"/>
			<polyline fill="none" stroke="#4F4F4F" stroke-miterlimit="10" points="408.2,311.9 477.2,351.5 544.2,311.6 			"/>
			<polyline fill="none" stroke="#4F4F4F" stroke-miterlimit="10" points="408.2,331.9 477.2,371.5 544.2,331.6 			"/>
			<polyline fill="none" stroke="#4F4F4F" stroke-miterlimit="10" points="408.2,351.9 477.2,391.5 544.2,351.6 			"/>
			<polyline fill="none" stroke="#4F4F4F" stroke-miterlimit="10" points="408.2,371.9 477.2,411.5 544.2,371.6 			"/>
			<line fill="none" stroke="#4F4F4F" stroke-miterlimit="10" x1="477.5" y1="275.2" x2="477.5" y2="432.2"/>
		</g>
		<g>
			<polygon fill="#282C35" stroke="#4F4F4F" stroke-miterlimit="10" points="715.5,714.7 577.5,714.7 577.5,331.6 646.5,292 
				715.5,331.6 			"/>
			<polyline fill="none" stroke="#4F4F4F" stroke-miterlimit="10" points="579.2,331.9 648.2,371.5 715.2,331.6 			"/>
			<polyline fill="none" stroke="#4F4F4F" stroke-miterlimit="10" points="579.2,356.9 648.2,396.5 715.2,356.6 			"/>
			<polyline fill="none" stroke="#4F4F4F" stroke-miterlimit="10" points="579.2,337.9 648.2,377.5 715.2,337.6 			"/>
			<polyline fill="none" stroke="#4F4F4F" stroke-miterlimit="10" points="579.2,376.9 648.2,416.5 715.2,376.6 			"/>
			<line fill="none" stroke="#4F4F4F" stroke-miterlimit="10" x1="648.5" y1="380.2" x2="648.5" y2="537.2"/>
		</g>
		<path fill="#282C35" stroke="#4F4F4F" stroke-miterlimit="10" d="M377.5,311.2l52.1,31c0,0,15.1,11.7,19.3-3.1
			c4.2-14.8-4.4-29.7-11.7-36.7c0,0,0.3-35.2-28.4-45.8c0,0-10.9-3.4-14.1,7c0,0-3.6-8.1-12.8-9.4c-9.1-1.3-6.8,13.5-6.8,13.5
			s-9.9-5.2-12.8,8.1c0,0-2.1,8.6,0.3,15.9C362.6,291.7,365.5,303.4,377.5,311.2z"/>
		<g>
			<polygon fill="#282C35" stroke="#4F4F4F" stroke-miterlimit="10" points="277.5,575.7 139.5,575.7 139.5,192.6 208.5,153 
				277.5,192.6 			"/>
			<polyline fill="none" stroke="#4F4F4F" stroke-miterlimit="10" points="141.2,192.9 210.2,232.5 277.2,192.6 			"/>
			<polyline fill="none" stroke="#4F4F4F" stroke-miterlimit="10" points="141.2,217.9 210.2,257.5 277.2,217.6 			"/>
			<polyline fill="none" stroke="#4F4F4F" stroke-miterlimit="10" points="141.2,198.9 210.2,238.5 277.2,198.6 			"/>
			<polyline fill="none" stroke="#4F4F4F" stroke-miterlimit="10" points="141.2,237.9 210.2,277.5 277.2,237.6 			"/>
			<polyline fill="none" stroke="#4F4F4F" stroke-miterlimit="10" points="141.2,257.9 210.2,297.5 277.2,257.6 			"/>
			<polyline fill="none" stroke="#4F4F4F" stroke-miterlimit="10" points="141.2,277.9 210.2,317.5 277.2,277.6 			"/>
			<polyline fill="none" stroke="#4F4F4F" stroke-miterlimit="10" points="141.2,297.9 210.2,337.5 277.2,297.6 			"/>
			<polyline fill="none" stroke="#4F4F4F" stroke-miterlimit="10" points="141.2,317.9 210.2,357.5 277.2,317.6 			"/>
			<polyline fill="none" stroke="#4F4F4F" stroke-miterlimit="10" points="141.2,337.9 210.2,377.5 277.2,337.6 			"/>
			<polyline fill="none" stroke="#4F4F4F" stroke-miterlimit="10" points="141.2,357.9 210.2,397.5 277.2,357.6 			"/>
			<polyline fill="none" stroke="#4F4F4F" stroke-miterlimit="10" points="141.2,377.9 210.2,417.5 277.2,377.6 			"/>
			<line fill="none" stroke="#4F4F4F" stroke-miterlimit="10" x1="210.5" y1="241.2" x2="210.5" y2="398.2"/>
		</g>
		<g>
			<polygon fill="#282C35" stroke="#4F4F4F" stroke-miterlimit="10" points="151.5,529.7 13.5,529.7 13.5,146.6 82.5,107 
				151.5,146.6 			"/>
			<polyline fill="none" stroke="#4F4F4F" stroke-miterlimit="10" points="15.2,146.9 84.2,186.5 151.2,146.6 			"/>
			<polyline fill="none" stroke="#4F4F4F" stroke-miterlimit="10" points="15.2,171.9 84.2,211.5 151.2,171.6 			"/>
			<polyline fill="none" stroke="#4F4F4F" stroke-miterlimit="10" points="15.2,152.9 84.2,192.5 151.2,152.6 			"/>
			<polyline fill="none" stroke="#4F4F4F" stroke-miterlimit="10" points="15.2,191.9 84.2,231.5 151.2,191.6 			"/>
			<polyline fill="none" stroke="#4F4F4F" stroke-miterlimit="10" points="15.2,211.9 84.2,251.5 151.2,211.6 			"/>
			<polyline fill="none" stroke="#4F4F4F" stroke-miterlimit="10" points="15.2,231.9 84.2,271.5 151.2,231.6 			"/>
			<polyline fill="none" stroke="#4F4F4F" stroke-miterlimit="10" points="15.2,251.9 84.2,291.5 151.2,251.6 			"/>
			<polyline fill="none" stroke="#4F4F4F" stroke-miterlimit="10" points="15.2,271.9 84.2,311.5 151.2,271.6 			"/>
			<polyline fill="none" stroke="#4F4F4F" stroke-miterlimit="10" points="15.2,291.9 84.2,331.5 151.2,291.6 			"/>
			<polyline fill="none" stroke="#4F4F4F" stroke-miterlimit="10" points="15.2,311.9 84.2,351.5 151.2,311.6 			"/>
			<polyline fill="none" stroke="#4F4F4F" stroke-miterlimit="10" points="15.2,331.9 84.2,371.5 151.2,331.6 			"/>
			<polyline fill="none" stroke="#4F4F4F" stroke-miterlimit="10" points="15.2,351.9 84.2,391.5 151.2,351.6 			"/>
			<polyline fill="none" stroke="#4F4F4F" stroke-miterlimit="10" points="15.2,371.9 84.2,411.5 151.2,371.6 			"/>
			<line fill="none" stroke="#4F4F4F" stroke-miterlimit="10" x1="84.5" y1="195.2" x2="84.5" y2="352.2"/>
			<line fill="none" stroke="#4F4F4F" stroke-miterlimit="10" x1="84.5" y1="375.2" x2="84.5" y2="532.2"/>
		</g>
		<g>
			<polygon fill="#282C35" stroke="#4F4F4F" stroke-miterlimit="10" points="383.5,666.7 245.5,666.7 245.5,283.6 314.5,244 
				383.5,283.6 			"/>
			<polyline fill="none" stroke="#4F4F4F" stroke-miterlimit="10" points="247.2,283.9 316.2,323.5 383.2,283.6 			"/>
			<polyline fill="none" stroke="#4F4F4F" stroke-miterlimit="10" points="247.2,308.9 316.2,348.5 383.2,308.6 			"/>
			<polyline fill="none" stroke="#4F4F4F" stroke-miterlimit="10" points="247.2,289.9 316.2,329.5 383.2,289.6 			"/>
			<polyline fill="none" stroke="#4F4F4F" stroke-miterlimit="10" points="247.2,328.9 316.2,368.5 383.2,328.6 			"/>
			<polyline fill="none" stroke="#4F4F4F" stroke-miterlimit="10" points="247.2,348.9 316.2,388.5 383.2,348.6 			"/>
			<polyline fill="none" stroke="#4F4F4F" stroke-miterlimit="10" points="247.2,368.9 316.2,408.5 383.2,368.6 			"/>
			<polyline fill="none" stroke="#4F4F4F" stroke-miterlimit="10" points="247.2,388.9 316.2,428.5 383.2,388.6 			"/>
			<line fill="none" stroke="#4F4F4F" stroke-miterlimit="10" x1="316.5" y1="332.2" x2="316.5" y2="489.2"/>
		</g>
		<g>
			<polygon fill="#282C35" stroke="#4F4F4F" stroke-miterlimit="10" points="2122.5,609.7 1984.5,609.7 1984.5,226.6 2053.5,187 
				2122.5,226.6 			"/>
			<polyline fill="none" stroke="#4F4F4F" stroke-miterlimit="10" points="1986.2,226.9 2055.2,266.5 2122.2,226.6 			"/>
			<polyline fill="none" stroke="#4F4F4F" stroke-miterlimit="10" points="1986.2,251.9 2055.2,291.5 2122.2,251.6 			"/>
			<polyline fill="none" stroke="#4F4F4F" stroke-miterlimit="10" points="1986.2,232.9 2055.2,272.5 2122.2,232.6 			"/>
			<polyline fill="none" stroke="#4F4F4F" stroke-miterlimit="10" points="1986.2,271.9 2055.2,311.5 2122.2,271.6 			"/>
			<polyline fill="none" stroke="#4F4F4F" stroke-miterlimit="10" points="1986.2,291.9 2055.2,331.5 2122.2,291.6 			"/>
			<polyline fill="none" stroke="#4F4F4F" stroke-miterlimit="10" points="1986.2,311.9 2055.2,351.5 2122.2,311.6 			"/>
			<polyline fill="none" stroke="#4F4F4F" stroke-miterlimit="10" points="1986.2,331.9 2055.2,371.5 2122.2,331.6 			"/>
			<polyline fill="none" stroke="#4F4F4F" stroke-miterlimit="10" points="1986.2,351.9 2055.2,391.5 2122.2,351.6 			"/>
			<polyline fill="none" stroke="#4F4F4F" stroke-miterlimit="10" points="1986.2,371.9 2055.2,411.5 2122.2,371.6 			"/>
			<line fill="none" stroke="#4F4F4F" stroke-miterlimit="10" x1="2055.5" y1="275.2" x2="2055.5" y2="432.2"/>
		</g>
		<g>
			<polygon fill="#282C35" stroke="#4F4F4F" stroke-miterlimit="10" points="2293.5,714.7 2155.5,714.7 2155.5,331.6 2224.5,292 
				2293.5,331.6 			"/>
			<polyline fill="none" stroke="#4F4F4F" stroke-miterlimit="10" points="2157.2,331.9 2226.2,371.5 2293.2,331.6 			"/>
			<polyline fill="none" stroke="#4F4F4F" stroke-miterlimit="10" points="2157.2,356.9 2226.2,396.5 2293.2,356.6 			"/>
			<polyline fill="none" stroke="#4F4F4F" stroke-miterlimit="10" points="2157.2,337.9 2226.2,377.5 2293.2,337.6 			"/>
			<polyline fill="none" stroke="#4F4F4F" stroke-miterlimit="10" points="2157.2,376.9 2226.2,416.5 2293.2,376.6 			"/>
			<line fill="none" stroke="#4F4F4F" stroke-miterlimit="10" x1="2226.5" y1="380.2" x2="2226.5" y2="537.2"/>
		</g>
		<g>
			<polygon fill="#282C35" stroke="#4F4F4F" stroke-miterlimit="10" points="1855.5,711.7 1717.5,711.7 1717.5,328.6 1786.5,289 
				1855.5,328.6 			"/>
			<polyline fill="none" stroke="#4F4F4F" stroke-miterlimit="10" points="1719.2,328.9 1788.2,368.5 1855.2,328.6 			"/>
			<polyline fill="none" stroke="#4F4F4F" stroke-miterlimit="10" points="1719.2,353.9 1788.2,393.5 1855.2,353.6 			"/>
			<polyline fill="none" stroke="#4F4F4F" stroke-miterlimit="10" points="1719.2,334.9 1788.2,374.5 1855.2,334.6 			"/>
			<polyline fill="none" stroke="#4F4F4F" stroke-miterlimit="10" points="1719.2,373.9 1788.2,413.5 1855.2,373.6 			"/>
			<line fill="none" stroke="#4F4F4F" stroke-miterlimit="10" x1="1788.5" y1="377.2" x2="1788.5" y2="534.2"/>
		</g>
		<g>
			<polygon fill="#282C35" stroke="#4F4F4F" stroke-miterlimit="10" points="1961.5,666.7 1823.5,666.7 1823.5,283.6 1892.5,244 
				1961.5,283.6 			"/>
			<polyline fill="none" stroke="#4F4F4F" stroke-miterlimit="10" points="1825.2,283.9 1894.2,323.5 1961.2,283.6 			"/>
			<polyline fill="none" stroke="#4F4F4F" stroke-miterlimit="10" points="1825.2,308.9 1894.2,348.5 1961.2,308.6 			"/>
			<polyline fill="none" stroke="#4F4F4F" stroke-miterlimit="10" points="1825.2,289.9 1894.2,329.5 1961.2,289.6 			"/>
			<polyline fill="none" stroke="#4F4F4F" stroke-miterlimit="10" points="1825.2,328.9 1894.2,368.5 1961.2,328.6 			"/>
			<polyline fill="none" stroke="#4F4F4F" stroke-miterlimit="10" points="1825.2,348.9 1894.2,388.5 1961.2,348.6 			"/>
			<polyline fill="none" stroke="#4F4F4F" stroke-miterlimit="10" points="1825.2,368.9 1894.2,408.5 1961.2,368.6 			"/>
			<polyline fill="none" stroke="#4F4F4F" stroke-miterlimit="10" points="1825.2,388.9 1894.2,428.5 1961.2,388.6 			"/>
			<line fill="none" stroke="#4F4F4F" stroke-miterlimit="10" x1="1894.5" y1="332.2" x2="1894.5" y2="489.2"/>
		</g>
		<path fill="#282C35" stroke="#4F4F4F" stroke-miterlimit="10" d="M78.7,86.5l66.4,39.5c0,0,19.3,14.9,24.6-4
			c5.3-18.9-5.6-37.9-14.9-46.8c0,0,0.3-44.8-36.2-58.5c0,0-14-4.3-17.9,9c0,0-4.7-10.3-16.3-12S75.7,31,75.7,31
			s-12.6-6.6-16.3,10.3c0,0-2.7,11,0.3,20.3C59.8,61.6,63.4,76.5,78.7,86.5z"/>
		<path fill="#282C35" stroke="#4F4F4F" stroke-miterlimit="10" d="M261.5,161.3l46.1,27.4c0,0,13.4,10.4,17.1-2.8
			c3.7-13.1-3.9-26.3-10.4-32.5c0,0,0.2-31.1-25.1-40.6c0,0-9.7-3-12.4,6.2c0,0-3.2-7.1-11.3-8.3s-6,12-6,12s-8.8-4.6-11.3,7.1
			c0,0-1.8,7.6,0.2,14.1C248.3,144,250.9,154.3,261.5,161.3z"/>
		<path fill="#282C35" stroke="#4F4F4F" stroke-miterlimit="10" d="M1914.5,161.3l46.1,27.4c0,0,13.4,10.4,17.1-2.8
			c3.7-13.1-3.9-26.3-10.4-32.5c0,0,0.2-31.1-25.1-40.6c0,0-9.7-3-12.4,6.2c0,0-3.2-7.1-11.3-8.3s-6,12-6,12s-8.8-4.6-11.3,7.1
			c0,0-1.8,7.6,0.2,14.1C1901.3,144,1903.9,154.3,1914.5,161.3z"/>
		<path fill="#282C35" stroke="#4F4F4F" stroke-miterlimit="10" d="M2132,188.1l70.6,42c0,0,20.5,15.9,26.1-4.2s-6-40.2-15.9-49.8
			c0,0,0.4-47.7-38.5-62.1c0,0-14.8-4.6-19.1,9.5c0,0-4.9-10.9-17.3-12.7c-12.4-1.8-9.2,18.4-9.2,18.4s-13.4-7.1-17.3,10.9
			c0,0-2.8,11.6,0.4,21.5C2111.8,161.6,2115.7,177.5,2132,188.1z"/>
		<path fill="#282C35" stroke="#4F4F4F" stroke-miterlimit="10" d="M1954.4,338.9l59.1,35.2c0,0,17.1,13.3,21.9-3.5
			c4.7-16.8-5-33.7-13.3-41.7c0,0,0.3-39.9-32.2-52c0,0-12.4-3.8-16,8c0,0-4.1-9.2-14.5-10.6c-10.3-1.5-7.7,15.4-7.7,15.4
			s-11.2-5.9-14.5,9.2c0,0-2.4,9.8,0.3,18C1937.6,316.8,1940.9,330.1,1954.4,338.9z"/>
		<path fill="#282C35" stroke="#4F4F4F" stroke-miterlimit="10" d="M66.7,332.5l66.4,39.5c0,0,19.3,14.9,24.6-4
			c5.3-18.9-5.6-37.9-14.9-46.8c0,0,0.3-44.8-36.2-58.5c0,0-14-4.3-17.9,9c0,0-4.7-10.3-16.3-12S63.7,277,63.7,277
			s-12.6-6.6-16.3,10.3c0,0-2.7,11,0.3,20.3C47.8,307.6,51.4,322.5,66.7,332.5z"/>
	</g>
</g>
</svg>
