<svg width="115" height="40" viewBox="48 0 20 40" xmlns="http://www.w3.org/2000/svg" xmlns:xlink="http://www.w3.org/1999/xlink">	
	
	<defs><path d="M20.373 19.304c-1.025 1.073-2.259 1.944-3.636 2.548.85-4.194.785-8.785-2.037-12.052C12.3 6.9 8.5 6.1 6 6.6c-1.817.33-3.446 1.172-4.74 2.061.361-1.398.984-2.69 1.812-3.824C6.901 4.042 13.24 3.472 16.6 7.1c4.312 4.695 4.309 7.003 3.773 12.204zm2.249-3.429c.01-3.347-.877-6.072-4.522-10.075C15.6 3.1 11.6 2 6.3 2.4c-.31.024-.616.053-.915.086C7.279 1.05 9.64.2 12.2.2c6.24 0 11.3 5.06 11.3 11.3 0 1.551-.313 3.03-.878 4.375zm-7.667 6.587c-.882.22-1.805.338-2.755.338-.525 0-1.042-.036-1.549-.105.486-.495.984-1.129 1.349-1.895 1.1-2.4 1.2-4.9.3-6.9-.9-2-2.3-3.1-4.4-3.7-1.9-.5-4.8.4-6 2.3-.298.46-.537 1.008-.7 1.599-.196-.834-.3-1.705-.3-2.599 0-.186.004-.37.013-.554C2.163 9.896 4.087 8.597 6.3 8.2c2-.4 5.2.2 7.2 2.6 2.194 2.532 2.68 6.56 1.455 11.662zm-5.822-.083c-1.24-.35-2.395-.905-3.424-1.628.322-.016.623-.069.891-.151 2.2-.7 2.8-2.3 2.9-3.5.2-1.8-.6-3-2.1-3.6-.7-.2-1.5-.2-2.2.1-.6.3-1.1.8-1.3 1.5-.4 1.4.3 2.4.8 2.8.3.3.8.2 1-.1.3-.3.2-.8-.1-1 0 0-.6-.4-.3-1.2.1-.3.3-.6.6-.7.3-.1.7-.1 1.1 0 .6.2 1.3.7 1.2 2.2-.1 1.2-.7 1.9-1.9 2.3-.7.2-2.2.1-3.2-1.2l-.01-.013-.06-.082c-.915-1.31-.61-3.439.17-4.805.8-1.3 3-2 4.4-1.6 1.7.4 2.8 1.3 3.5 2.9.8 1.6.7 3.7-.3 5.7-.446.947-1.14 1.646-1.667 2.079z" id="a"/></defs>
		<g><path d="M4.3 21.4L.7 39H3s1.5-7.9 1.9-8.6c.4-.6 2-2.4 3.9-2.2 1.9.2 2 1.4 1.8 2.7-.2 1.3-1.6 8.2-1.6 8.2h2.4s1.8-8.8 1.9-9.7c.1-.9.2-2.6-2.9-2.9-3.1-.3-5 2.1-5 2.1l1.4-7-2.5-.2zM53.5 21.4L49.9 39h2.4s1.5-7.9 1.9-8.6c.4-.7 2-2.4 3.9-2.2 1.9.2 2 1.4 1.8 2.7-.2 1.3-1.6 8.2-1.6 8.2h2.4s1.8-8.8 1.9-9.7c.1-.9.2-2.6-2.9-2.9-3.1-.3-4.9 1.6-4.9 1.6l1.3-6.5-2.6-.2zM16.1 34H25s2.2-6.7-3.1-7.3c-5.2-.6-7.2 4.1-7.5 5-.3.9-1.3 5.3.6 6.9 2 1.6 5.5 1.4 6.9.2 1.4-1.2 2.2-1.8 2.5-2.8H22s-.8 2.2-3.3 2.2-3.1-2.1-2.5-4.8c.6-2.7 1.9-5.1 4.5-5.1S23 32 23 32h-6.4l-.3 1-.2 1zM35.3 31.2s-.7.8-.4-1c.3-1.9-1.6-1.5-1.6-1.5C30.8 28.5 30 31 30 31h-2.4c1.7-3.3 3.5-4.4 6.8-4 3.3.4 3.1 2.3 2.8 3.4-.3 1.1-1.7 8.6-1.7 8.6h-2.2l.1-1.8c-2.2 2.8-5.5 2.1-6.4 1.7-.9-.4-2.1-1.6-.9-4.6 1.2-2.9 5.6-3 5.6-3l3.6-.1zM34.1 33H32s-3 0-3.8 2.2c-.8 2.2 1.2 2.5 1.7 2.5s4 .3 4.2-4.7zM41.5 23l-3.7 16h2.3l3.8-16zM48.3 26.9l.7-3.5-2.5.7S43.9 36 43.8 36.9c-.1.9-.1 2 1.9 2h2.7l.5-1.3-1.6-.1s-1.5.4-.9-1.9c.7-2.6 1.9-8.7 1.9-8.7z" fill="#526881"/><path fill="#526881" d="M43.9 27l-.4 2h7.1l.4-2zM63.2 27h3.2l1.1 9.1L72 27h4l.7 9.1L81 27h3.7l-6.8 12h-4.2l-.5-9.1-4.5 9.1h-3.9zM85.4 27h3.7l-2.6 12h-3.8zM96.6 31h3.4s.3-3.6-3.9-3.9c-4.6-.3-6.1 1.4-6.5 3.1-.5 1.8.4 3.4 2.6 3.7 2.2.3 3.1.8 3.2 1.9.1 1.1-1.3 1.4-2 1.4s-1.7-.2-1.7-1.2h-3.5s-.7 3.1 3.1 3.6c3.7.4 6-.9 6.9-1.8.8-.9 1.4-1.8 1.3-2.9 0-1.1-.5-2.4-2.8-3-2.3-.6-3.8-.4-3-1.9.4-.9 2.9-1 2.9 1zM104.2 32h4.5s.8-2.6-.9-2.8c-1.7-.2-2.7.2-3.3 1.8-.6 1.6-1.1 4.4-.8 5.3.3.9 1 1.3 2.2 1.1 1.2-.2 1.6-.4 1.9-1.4h3.5s-.3 3.8-5.8 3.8-5.5-2.5-5.4-5.6c.2-3.1 2.6-7 5.9-7.4 3.3-.4 5.6.3 6.1 2.5.5 2.1-.2 4.7-.2 4.7h-8.15l.45-2z"/><use fill="#526881" xlink:href="#a" transform="translate(58)"/></g>		

						</svg>