<svg width="150" height="40" viewBox="560 0 90 40" xmlns="http://www.w3.org/2000/svg" xmlns:xlink="http://www.w3.org/1999/xlink">

<g fill="#526881" fill-rule="nonzero">
		<path d="M640.148 37.86v.187h-.555v1.488h-.278v-1.488h-.556v-.187zM640.333 37.86h.278l.556 1.396.463-1.396h.37v1.675h-.185V38.14l-.556 1.395h-.185l-.555-1.395v1.395h-.186zM588.759 26.605H592v12.93h-3.241zM618.296 30.326c-.092-.093-1.203-.652-2.777-.652-2.13 0-3.519 1.489-3.519 3.442 0 1.954 1.389 3.442 3.519 3.442 1.574 0 2.592-.651 2.777-.651v3.442c-.37.093-1.481.465-2.963.465-3.703 0-6.852-2.512-6.852-6.698 0-3.907 2.87-6.697 6.852-6.697 1.574 0 2.686.372 2.963.465v3.442zM584.315 30.326c-.093-.093-1.204-.652-2.778-.652-2.13 0-3.611 1.489-3.611 3.442 0 1.954 1.389 3.442 3.611 3.442 1.574 0 2.593-.651 2.778-.651v3.442c-.37.093-1.482.465-2.963.465-3.611 0-6.852-2.512-6.852-6.698 0-3.907 2.87-6.697 6.852-6.697 1.574 0 2.685.372 2.963.465v3.442z"/>

<path d="M635.333 33.116c0 3.721-2.87 6.698-6.852 6.698-3.981 0-6.851-2.977-6.851-6.698 0-3.72 2.87-6.697 6.851-6.697 3.982 0 6.852 2.976 6.852 6.697zm-6.759-3.442c-1.944 0-3.333 1.489-3.333 3.442 0 1.86 1.481 3.442 3.333 3.442 1.945 0 3.333-1.488 3.333-3.442 0-1.953-1.481-3.442-3.333-3.442z" fill-rule="nonzero"/>

<path d="M604.407 29.581c-.092 0-1.388-.372-2.5-.372-1.296 0-2.037.465-2.037 1.024 0 .744.926 1.023 1.482 1.209l.926.279c2.13.651 3.055 2.14 3.055 3.72 0 3.257-2.87 4.373-5.37 4.373-1.76 0-3.333-.28-3.519-.372v-2.977c.278.093 1.667.465 3.056.465 1.574 0 2.407-.465 2.407-1.21 0-.65-.648-1.022-1.481-1.301-.185-.093-.463-.186-.648-.186-1.852-.559-3.334-1.675-3.334-3.814 0-2.419 1.852-4.093 4.815-4.093 1.574 0 3.056.372 3.148.372v2.883zM570.981 12.651c0-.93-.74-1.581-1.574-1.581-.926 0-1.574.744-1.574 1.581v3.442c0 .93.741 1.581 1.574 1.581.926 0 1.574-.744 1.574-1.581v-3.442zM579.87 8.186c0-.93-.74-1.581-1.574-1.581-.926 0-1.574.744-1.574 1.581v7.907c0 .93.741 1.581 1.574 1.581.926 0 1.574-.744 1.574-1.581V8.186zM588.76 2.14c0-.93-.741-1.582-1.575-1.582-.926 0-1.666.744-1.666 1.582v17.209c0 .93.74 1.581 1.666 1.581.926 0 1.574-.744 1.574-1.581V2.139zM597.648 8.186c0-.93-.74-1.581-1.574-1.581-.926 0-1.574.744-1.574 1.581v7.907c0 .93.74 1.581 1.574 1.581.926 0 1.574-.744 1.574-1.581V8.186zM606.537 12.651c0-.93-.74-1.581-1.574-1.581-.926 0-1.574.744-1.574 1.581v3.442c0 .93.74 1.581 1.574 1.581.926 0 1.574-.744 1.574-1.581v-3.442zM615.426 8.186c0-.93-.74-1.581-1.574-1.581-.926 0-1.574.744-1.574 1.581v7.907c0 .93.74 1.581 1.574 1.581.926 0 1.574-.744 1.574-1.581V8.186zM624.315 2.14c0-.93-.74-1.582-1.574-1.582-.926 0-1.574.744-1.574 1.582v17.209c0 .93.74 1.581 1.574 1.581.926 0 1.574-.744 1.574-1.581V2.139zM633.204 8.186c0-.93-.741-1.581-1.667-1.581s-1.574.744-1.574 1.581v7.907c0 .93.74 1.581 1.574 1.581.926 0 1.667-.744 1.667-1.581V8.186zM642 12.651c0-.93-.74-1.581-1.574-1.581-.926 0-1.574.744-1.574 1.581v3.442c0 .93.74 1.581 1.574 1.581.926 0 1.574-.744 1.574-1.581v-3.442z"/>
	</g>

						</svg>