<svg width="140" height="40" viewBox="307 0 85 40" xmlns="http://www.w3.org/2000/svg" xmlns:xlink="http://www.w3.org/1999/xlink">

<g fill="#526881" fill-rule="nonzero">
		<path d="M301.245 0C290.065 0 281 8.954 281 20s9.064 20 20.245 20c11.182 0 20.245-8.954 20.245-20 0-11.045-9.063-19.999-20.245-19.999V0zm9.284 28.846c-.363.587-1.141.774-1.736.413-4.753-2.868-10.737-3.518-17.784-1.927-.679.153-1.356-.268-1.51-.939-.156-.671.268-1.34.949-1.493 7.711-1.74 14.326-.99 19.663 2.231.595.36.783 1.127.418 1.715zm2.478-5.446c-.457.734-1.429.965-2.17.514-5.443-3.304-13.738-4.261-20.174-2.331-.835.249-1.717-.216-1.97-1.04-.252-.824.219-1.693 1.052-1.944 7.353-2.204 16.493-1.136 22.742 2.658.742.451.977 1.411.52 2.143zm.213-5.67c-6.525-3.83-17.29-4.181-23.52-2.314-1 .3-2.058-.258-2.361-1.246-.303-.989.26-2.033 1.262-2.334 7.151-2.144 19.04-1.73 26.551 2.676.902.527 1.197 1.675.663 2.563-.532.89-1.697 1.182-2.594.654h-.001zm22.86.733c-3.496-.823-4.117-1.401-4.117-2.616 0-1.147 1.092-1.92 2.72-1.92 1.576 0 3.137.587 4.776 1.794.049.037.112.051.172.042.063-.01.116-.043.152-.093l1.707-2.376c.07-.098.05-.233-.043-.308-1.951-1.546-4.146-2.298-6.714-2.298-3.774 0-6.411 2.238-6.411 5.44 0 3.433 2.275 4.648 6.206 5.587 3.343.76 3.909 1.399 3.909 2.538 0 1.264-1.141 2.05-2.979 2.05-2.04 0-3.706-.681-5.567-2.272-.046-.04-.109-.057-.167-.055-.063.005-.118.034-.157.079l-1.915 2.25c-.08.095-.07.234.022.315 2.166 1.91 4.83 2.919 7.707 2.919 4.066 0 6.694-2.195 6.694-5.594.007-2.868-1.73-4.456-5.988-5.479l-.007-.003zm15.196-3.406c-1.762 0-3.208.686-4.402 2.092v-1.582c0-.125-.102-.227-.227-.227h-3.131c-.126 0-.227.102-.227.227v17.578c0 .124.101.227.227.227h3.13c.126 0 .228-.103.228-.227v-5.548c1.194 1.32 2.64 1.968 4.402 1.968 3.276 0 6.593-2.491 6.593-7.253.005-4.763-3.312-7.255-6.59-7.255h-.003zm2.952 7.255c0 2.424-1.511 4.117-3.677 4.117-2.14 0-3.754-1.77-3.754-4.117 0-2.348 1.614-4.117 3.754-4.117 2.13 0 3.677 1.73 3.677 4.117zm12.138-7.255c-4.218 0-7.523 3.21-7.523 7.307 0 4.053 3.283 7.227 7.472 7.227 4.233 0 7.548-3.198 7.548-7.28 0-4.067-3.293-7.253-7.497-7.253zm0 11.396c-2.243 0-3.935-1.782-3.935-4.142 0-2.372 1.634-4.093 3.884-4.093 2.258 0 3.96 1.781 3.96 4.144 0 2.371-1.644 4.09-3.909 4.09zm16.505-11.113h-3.445v-3.479c0-.124-.102-.226-.228-.226h-3.13c-.126 0-.23.102-.23.226v3.48h-1.504c-.125 0-.227.1-.227.226v2.657c0 .125.102.227.227.227h1.504v6.877c0 2.778 1.4 4.187 4.163 4.187 1.122 0 2.052-.23 2.93-.722.072-.038.116-.114.116-.195v-2.532c0-.076-.041-.15-.109-.191-.067-.043-.152-.046-.222-.01-.602.299-1.185.437-1.838.437-1.003 0-1.452-.451-1.452-1.459v-6.391h3.445c.125 0 .227-.102.227-.227v-2.657c.005-.125-.097-.227-.225-.227h-.002zm12 .014v-.428c0-1.257.488-1.817 1.581-1.817.653 0 1.177.128 1.765.321.072.023.147.012.205-.031.06-.043.095-.111.095-.184v-2.606c0-.1-.063-.187-.162-.217-.62-.182-1.412-.369-2.602-.369-2.889 0-4.419 1.608-4.419 4.65v.654h-1.503c-.126 0-.23.101-.23.226v2.671c0 .125.104.227.23.227h1.503v10.605c0 .127.104.227.23.227h3.128c.128 0 .23-.1.23-.227V18.452h2.923l4.477 10.604c-.508 1.113-1.008 1.335-1.69 1.335-.551 0-1.134-.162-1.726-.485-.056-.028-.123-.033-.181-.016-.06.021-.112.064-.136.121l-1.061 2.3c-.05.11-.007.237.099.294 1.107.592 2.106.846 3.341.846 2.311 0 3.59-1.066 4.714-3.927l5.43-13.86c.029-.07.02-.15-.024-.211-.041-.062-.112-.099-.187-.099h-3.258c-.1 0-.186.062-.218.152l-3.338 9.418-3.656-9.424c-.034-.088-.118-.146-.212-.146h-5.348zm-6.958-.014h-3.13c-.126 0-.23.102-.23.227v13.49c0 .126.104.226.23.226h3.13c.126 0 .23-.1.23-.227V15.568c0-.125-.101-.227-.23-.227zm-1.547-6.142c-1.24 0-2.246.991-2.246 2.216 0 1.226 1.006 2.219 2.246 2.219s2.244-.993 2.244-2.219c0-1.225-1.006-2.216-2.244-2.216zm27.42 10.48c-1.238 0-2.203-.983-2.203-2.177 0-1.193.977-2.187 2.215-2.187 1.237 0 2.202.982 2.202 2.175 0 1.193-.977 2.188-2.214 2.188zm.012-4.148c-1.13 0-1.983.886-1.983 1.971s.849 1.959 1.97 1.959c1.13 0 1.983-.885 1.983-1.971 0-1.085-.849-1.959-1.97-1.959zm.488 2.183l.624.861h-.527l-.561-.79h-.481v.79h-.44V16.29h1.03c.539 0 .892.272.892.729.002.374-.218.603-.535.694h-.002zm-.372-1.03h-.573v.722h.573c.285 0 .457-.139.457-.362 0-.235-.172-.36-.457-.36z"/>
	</g>

						</svg>