<?xml version="1.0" encoding="utf-8"?>
<!-- Generator: Adobe Illustrator 18.1.1, SVG Export Plug-In . SVG Version: 6.00 Build 0)  -->
<svg version="1.1" id="Layer_1" xmlns="http://www.w3.org/2000/svg" xmlns:xlink="http://www.w3.org/1999/xlink" x="0px" y="0px"
	 width="1024px" height="81px" viewBox="0 0 1024 81" enable-background="new 0 0 1024 81" xml:space="preserve">
<g>
	<path fill="#727175" d="M6.3,41.4L2.7,59H5c0,0,1.5-7.9,1.9-8.6c0.4-0.6,2-2.4,3.9-2.2s2,1.4,1.8,2.7c-0.2,1.3-1.6,8.2-1.6,8.2h2.4
		c0,0,1.8-8.8,1.9-9.7c0.1-0.9,0.2-2.6-2.9-2.9c-3.1-0.3-5,2.1-5,2.1l1.4-7L6.3,41.4z"/>
	<path fill="#727175" d="M55.5,41.4L51.9,59h2.4c0,0,1.5-7.9,1.9-8.6s2-2.4,3.9-2.2s2,1.4,1.8,2.7c-0.2,1.3-1.6,8.2-1.6,8.2h2.4
		c0,0,1.8-8.8,1.9-9.7c0.1-0.9,0.2-2.6-2.9-2.9c-3.1-0.3-4.9,1.6-4.9,1.6l1.3-6.5L55.5,41.4z"/>
	<path fill="#727175" d="M17.4,54H27c0,0,2.2-6.7-3.1-7.3c-5.2-0.6-7.2,4.1-7.5,5c-0.3,0.9-1.3,5.3,0.6,6.9c2,1.6,5.5,1.4,6.9,0.2
		s2.2-1.8,2.5-2.8H24c0,0-0.8,2.2-3.3,2.2s-3.1-2.1-2.5-4.8c0.6-2.7,1.9-5.1,4.5-5.1s2.3,3.7,2.3,3.7h-7.2L17.4,54z"/>
	<path fill="#727175" d="M37.3,51.2l-3.6,0.1c0,0-4.4,0.1-5.6,3c-1.2,3,0,4.2,0.9,4.6c0.9,0.4,4.2,1.1,6.4-1.7L35.3,59h2.2
		c0,0,1.4-7.5,1.7-8.6s0.5-3-2.8-3.4c-3.3-0.4-5.1,0.7-6.8,4H32c0,0,0.8-2.5,3.3-2.3c0,0,1.9-0.4,1.6,1.5
		C36.6,52,37.3,51.2,37.3,51.2z"/>
	<path fill="#FFFFFF" d="M36.1,53h-2.1c0,0-3,0-3.8,2.2c-0.8,2.2,1.2,2.5,1.7,2.5S35.9,58,36.1,53z"/>
	<polygon fill="#727175" points="43.5,43 39.8,59 42.1,59 45.9,43 	"/>
	<path fill="#727175" d="M50.3,46.9l0.7-3.5l-2.5,0.7c0,0-2.6,11.9-2.7,12.8c-0.1,0.9-0.1,2,1.9,2s2.7,0,2.7,0l0.5-1.3l-1.6-0.1
		c0,0-1.5,0.4-0.9-1.9C49.1,53,50.3,46.9,50.3,46.9z"/>
	<polygon fill="#727175" points="45.9,47 45.5,49 52.6,49 53,47 	"/>
	<polygon fill="#727175" points="65.2,47 68.4,47 69.5,56.1 74,47 78,47 78.7,56.1 83,47 86.7,47 79.9,59 75.7,59 75.2,49.9 
		70.7,59 66.8,59 	"/>
	<polygon fill="#727175" points="87.4,47 91.1,47 88.5,59 84.7,59 	"/>
	<path fill="#727175" d="M98.6,51h3.4c0,0,0.3-3.6-3.9-3.9c-4.6-0.3-6.1,1.4-6.5,3.1c-0.5,1.8,0.4,3.4,2.6,3.7s3.1,0.8,3.2,1.9
		c0.1,1.1-1.3,1.4-2,1.4S93.7,57,93.7,56h-3.5c0,0-0.7,3.1,3.1,3.6c3.7,0.4,6-0.9,6.9-1.8c0.8-0.9,1.4-1.8,1.3-2.9
		c0-1.1-0.5-2.4-2.8-3c-2.3-0.6-3.8-0.4-3-1.9C96.1,49.1,98.6,49,98.6,51z"/>
	<path fill="#727175" d="M105,52h5.7c0,0,0.8-2.6-0.9-2.8s-2.7,0.2-3.3,1.8s-1.1,4.4-0.8,5.3s1,1.3,2.2,1.1c1.2-0.2,1.6-0.4,1.9-1.4
		h3.5c0,0-0.3,3.8-5.8,3.8c-5.5,0-5.5-2.5-5.4-5.6c0.2-3.1,2.6-7,5.9-7.4s5.6,0.3,6.1,2.5c0.5,2.1-0.2,4.7-0.2,4.7h-10L105,52z"/>
	<circle fill="#727175" cx="72.2" cy="31.5" r="11.3"/>
	<g>
		<defs>
			<circle id="SVGID_1_" cx="72.2" cy="31.5" r="11.3"/>
		</defs>
		<clipPath id="SVGID_2_">
			<use xlink:href="#SVGID_1_"  overflow="visible"/>
		</clipPath>
		<g clip-path="url(#SVGID_2_)">
			<path fill="#FFFFFF" d="M68.7,44.2c-0.2,0-0.5-0.1-0.6-0.4c-0.2-0.3-0.1-0.8,0.3-0.9c0,0,1.6-0.9,2.4-2.6c1-2,1.1-4.1,0.3-5.7
				c-0.7-1.6-1.8-2.5-3.5-2.9c-1.4-0.4-3.6,0.3-4.4,1.6c-0.8,1.4-1.1,3.6-0.1,4.9c1,1.3,2.5,1.4,3.2,1.2c1.2-0.4,1.8-1.1,1.9-2.3
				c0.1-1.5-0.6-2-1.2-2.2c-0.4-0.1-0.8-0.1-1.1,0c-0.3,0.1-0.5,0.4-0.6,0.7c-0.3,0.8,0.3,1.2,0.3,1.2c0.3,0.2,0.4,0.7,0.1,1
				c-0.2,0.3-0.7,0.4-1,0.1c-0.5-0.4-1.2-1.4-0.8-2.8c0.2-0.7,0.7-1.2,1.3-1.5c0.7-0.3,1.5-0.3,2.2-0.1c1.5,0.6,2.3,1.8,2.1,3.6
				c-0.1,1.2-0.7,2.8-2.9,3.5c-1.3,0.4-3.4,0.1-4.7-1.7c-1.4-1.8-1.1-4.7,0-6.4c1.2-1.9,4.1-2.8,6-2.3c2.1,0.6,3.5,1.7,4.4,3.7
				c0.9,2,0.8,4.5-0.3,6.9c-1,2.1-3,3.2-3,3.2C68.9,44.1,68.8,44.2,68.7,44.2z"/>
			<path fill="#FFFFFF" d="M74.9,46.4c-0.1,0-0.2,0-0.3,0c-0.4-0.1-0.6-0.6-0.5-1c2.2-6.5,2-11.6-0.6-14.6c-2-2.4-5.2-3-7.2-2.6
				c-3.9,0.7-6.9,4.2-6.9,4.2c-0.3,0.3-0.8,0.4-1.1,0.1c-0.3-0.3-0.4-0.8-0.1-1.1c0.1-0.2,3.4-4,7.8-4.8c2.5-0.5,6.3,0.3,8.7,3.2
				c3.8,4.4,2.6,11.2,0.9,16.2C75.6,46.2,75.3,46.4,74.9,46.4z"/>
			<path fill="#FFFFFF" d="M81,43.7C81,43.7,80.9,43.7,81,43.7c-0.7-0.1-1.1-0.6-1-1.1c0.1-1,0.2-1.8,0.3-2.6
				c0.6-5.7,0.8-8-3.7-12.9c-5-5.4-16.6-1.5-16.7-1.4c-0.5,0.2-1.1-0.1-1.3-0.6c-0.2-0.5,0.1-1.1,0.6-1.3c0.1,0,3.2-1.1,7.1-1.4
				c5.3-0.4,9.3,0.7,11.8,3.4c5.1,5.6,4.8,8.7,4.2,14.5c-0.1,0.8-0.2,1.7-0.3,2.6C82,43.3,81.5,43.7,81,43.7z"/>
		</g>
	</g>
</g>
<g>
	<path fill-rule="evenodd" clip-rule="evenodd" fill="#727175" d="M245.9,44.1c0.4,0,0.8-0.4,0.8-0.8c0-0.5-0.4-0.8-0.8-0.8
		c-0.4,0-0.8,0.3-0.8,0.8C245.1,43.7,245.4,44.1,245.9,44.1L245.9,44.1z M245.9,42.5c0.4,0,0.7,0.3,0.7,0.7c0,0.4-0.3,0.7-0.7,0.7
		c-0.4,0-0.7-0.3-0.7-0.7C245.2,42.8,245.5,42.5,245.9,42.5L245.9,42.5z M246,43.2c0.1,0,0.2-0.1,0.2-0.2c0-0.2-0.1-0.2-0.3-0.2
		h-0.4v0.9h0.1v-0.4h0.2l0.2,0.4h0.1L246,43.2L246,43.2z M245.9,42.9c0.1,0,0.2,0,0.2,0.1c0,0.1-0.1,0.1-0.3,0.1h-0.1v-0.2H245.9
		L245.9,42.9z"/>
	<path fill-rule="evenodd" clip-rule="evenodd" fill="#0075B3" d="M245.4,59.8c0-0.1-0.1-0.1-0.2-0.1c-0.2,0-0.4,0.1-0.4,0.3
		c0,0.1,0.1,0.2,0.2,0.3h0.1c0.1,0.1,0.2,0.1,0.2,0.2c0,0.1-0.1,0.2-0.2,0.2c-0.1,0-0.2-0.1-0.2-0.2l-0.1,0.1
		c0.1,0.1,0.2,0.3,0.4,0.3c0.2,0,0.4-0.1,0.4-0.4c0-0.1-0.1-0.3-0.3-0.3l-0.1-0.1c-0.1,0-0.1-0.1-0.1-0.1c0-0.1,0.1-0.1,0.2-0.1
		C245.3,59.8,245.3,59.8,245.4,59.8L245.4,59.8L245.4,59.8z"/>
	<polygon fill-rule="evenodd" clip-rule="evenodd" fill="#727175" points="246.2,60.8 246.5,60 246.5,60 246.6,60.7 246.8,60.7 
		246.5,59.6 246.2,60.5 245.8,59.6 245.6,60.7 245.7,60.7 245.9,60 245.9,60 246.2,60.8 	"/>
	<path fill-rule="evenodd" clip-rule="evenodd" fill="#FFFFFF" d="M247.7,28.6l3.8-5c1.5-1.8,1.8-2.4,1.7-2.9
		c-0.1-0.2-0.3-0.4-0.8-0.7c-0.6-0.1-2.1-0.1-3.8,0.1c-1.5,0.2-5.3,0.9-6.2,1.1l-68.6,13.5c-2.2,0.4-3.3,1.6-3.3,3.7
		c0,2.8,2.3,3.8,4.2,4.2c4.1,0.8,67,13.9,67.6,14.1l0,0l0,0c3.9,0.9,4.8,0.3,5.3-0.4c0.4-0.5,0.6-1.5,0.1-2.5l-5.5-13.5
		c-1.3-2.5,0-4.5,1.7-6.4L247.7,28.6L247.7,28.6z"/>
	<path fill-rule="evenodd" clip-rule="evenodd" fill="#FFFFFF" d="M252.5,18.7c-1.1-0.3-3.2-0.1-4.1-0.1c-1.5,0.2-5.3,0.9-6.3,1.1
		l-34.9,6.8c-15.5-3-30.1-5.9-30.7-6c-1-0.2-4.8-0.9-6.2-1.1c-1.3-0.2-3.2-0.4-4.1-0.1c-0.9,0.2-1.5,0.7-1.5,1.5
		c-0.1,0.9,0.3,1.6,1.9,3.4c0,0,5.2,5.8,7.9,8.8l-1,0.2c-2.9,0.5-4.5,2.5-4.5,5.3c-0.1,1.5,0.4,2.7,1.4,3.7c0.7,0.9,1.9,1.5,3.3,1.9
		c-1.1,1.2-2.1,2.3-2.3,2.6c-0.8,1-1.5,1.8-1.8,2.8l0,0c0,0.1,0,0.3-0.1,0.4c-0.1,2,1.5,3,5.3,1.7c1.8-0.6,8.1-2.9,12.9-4.5
		c19.6,4,53.8,11.1,54.4,11.3l0,0l0,0l0,0c3.4,0.8,5.4,0.5,6.4-0.6c0.8-0.9,1-2,0.6-3.2c-0.1-0.1-0.1-0.3-0.3-0.6
		c0.4,1.2,0.1,2.3-0.4,3c-1,1-2.3,1.5-6.2,0.6c0,0-63.4-13.2-67.5-14.1c-3.4-0.7-4.9-2.6-4.9-5c0-2.3,1.3-4,3.9-4.5
		c0,0,67.2-13.2,68.6-13.5c1-0.2,4.8-0.9,6.3-1.1c1.2-0.2,3.1-0.4,4.1-0.1c0.8,0.2,1.4,0.7,1.4,1.5C254,19.7,253.6,19,252.5,18.7
		L252.5,18.7z M174.5,50.7c-1.8,0.7-3.2,0.7-3.9,0.2c-0.3-0.2-0.4-0.7-0.3-1.2c0.1-0.8,0.7-1.5,1.6-2.5c0,0,1.2-1.4,2.6-2.9
		c1.1,0.2,5.5,1.2,11.6,2.4L174.5,50.7L174.5,50.7z M167.2,23.6c-1.6-1.8-1.8-2.4-1.7-2.9c0-0.2,0.2-0.4,0.8-0.7
		c0.6-0.1,2-0.1,3.7,0.1c1.5,0.2,5.3,0.9,6.2,1.1l28.8,5.6l-29.6,5.8L167.2,23.6L167.2,23.6z"/>
	<path fill-rule="evenodd" clip-rule="evenodd" fill="#727175" d="M247.6,28.9l4-5.3c1.5-1.9,1.8-2.4,1.7-2.9
		c-0.1-0.2-0.3-0.4-0.8-0.7c-0.6-0.1-2.1-0.1-3.8,0.1c-1.5,0.2-5.3,0.9-6.2,1.1l-68.6,13.5c-2.2,0.4-3.3,1.6-3.3,3.7
		c0,2.8,2.3,3.8,4.2,4.2c4.1,0.8,67,13.9,67.6,14.1l0,0l0,0c3.9,0.9,4.8,0.3,5.3-0.4c0.4-0.5,0.6-1.5,0.1-2.5l-5.5-13.5
		c-1.4-2.5,0.2-4.8,1.8-6.6L247.6,28.9L247.6,28.9z M247.1,31l-2.5,3.5c-1.8,2-2.6,3.5-1.6,5.4l5.5,13.5v0.1
		c0.1,0.1,0.1,0.3,0.2,0.4c0.4,1.2,0.1,2.3-0.4,3c-1,1-2.3,1.5-6.2,0.6c0,0-63.4-13.2-67.5-14.1c-3.4-0.7-4.9-2.6-4.9-5
		c0-2.3,1.3-4,3.9-4.5c0,0,67.2-13.2,68.6-13.5c1-0.2,4.8-0.9,6.3-1.1c1.2-0.2,3.1-0.4,4.1-0.1c0.8,0.2,1.4,0.7,1.4,1.5
		c0.1,0.9-0.4,1.5-1.9,3.4L247.1,31L247.1,31z"/>
	<path fill-rule="evenodd" clip-rule="evenodd" fill="#727175" d="M209.4,26.1l-32.7-6.4c-1-0.2-4.8-0.9-6.4-1.1
		c-0.9-0.1-2.9-0.2-4.1,0.1c-1.1,0.4-1.5,1-1.5,2.1c0-0.8,0.6-1.3,1.5-1.5c0.9-0.2,2.8-0.1,4.1,0.1c1.5,0.2,5.3,0.9,6.2,1.1
		c0.7,0.1,15.2,3,30.7,6L209.4,26.1L209.4,26.1z"/>
	<path fill-rule="evenodd" clip-rule="evenodd" fill="#727175" d="M187.6,47.1c-4.8,1.6-11.1,3.9-12.9,4.5c-3.8,1.3-5.5,0.3-5.3-1.7
		c-0.1,1-0.1,1.9,0.5,2.4c0.7,0.7,2,1.2,5.1,0.1c0,0,8.7-3.1,14.2-5C188.7,47.3,188.1,47.1,187.6,47.1L187.6,47.1z"/>
	<path fill-rule="evenodd" clip-rule="evenodd" fill="#727175" d="M174.5,50.7c-1.8,0.7-3.2,0.7-3.9,0.2c-0.3-0.2-0.4-0.7-0.3-1.2
		c0.1-0.8,0.7-1.5,1.6-2.5c0,0,1.2-1.4,2.6-2.9c1.1,0.2,5.5,1.2,11.6,2.4L174.5,50.7L174.5,50.7z"/>
	<path fill-rule="evenodd" clip-rule="evenodd" fill="#727175" d="M167.2,23.6c-1.6-1.8-1.8-2.4-1.7-2.9c0-0.2,0.2-0.4,0.8-0.7
		c0.6-0.1,2-0.1,3.7,0.1c1.5,0.2,5.3,0.9,6.2,1.1l28.8,5.6l-29.6,5.8L167.2,23.6L167.2,23.6z"/>
	<polygon fill-rule="evenodd" clip-rule="evenodd" fill="#FFFFFF" points="228,46.6 223.8,46.6 226.3,31 230.4,31 228,46.6 	"/>
	<polygon fill-rule="evenodd" clip-rule="evenodd" fill="#FFFFFF" points="207.7,31 211.7,31 217.3,40.5 217.4,40.5 218.9,31 
		223,31 220.5,46.5 216.5,46.5 211,37 210.8,37 209.3,46.5 205.2,46.5 207.7,31 	"/>
	<path fill-rule="evenodd" clip-rule="evenodd" fill="#FFFFFF" d="M182.9,34.5c-0.5-0.3-1.4-0.8-2.6-0.8c-0.9,0-1.6,0.4-1.8,1.2
		c-0.2,1.1,0.9,1.5,1.7,1.9c0.8,0.3,1.2,0.6,1.8,0.9c1.8,1,2.9,3,2.1,5.6c-0.6,1.9-2.3,4-6.7,4c-2.8,0-4.8-1.2-5.9-2l2.3-3.2
		c0.9,0.9,2.3,1.8,3.8,1.8c1,0,2.1-0.3,2.3-1.3c0.3-1.2-1.2-1.7-2.3-2.1c-2.6-1.1-4-2.9-3.4-5.6c0.4-2.4,2.8-4.2,6.1-4.2
		c2-0.1,3.5,0.6,4.3,1C184.7,31.5,182.9,34.6,182.9,34.5L182.9,34.5z"/>
	<path fill-rule="evenodd" clip-rule="evenodd" fill="#FFFFFF" d="M203.9,38.8c-0.8,5.2-5,8.3-10,8.3c-5.3,0-7.9-4-7.4-8.3
		c0.6-4.5,4.7-8.3,10-8.3C202.1,30.5,204.5,34.8,203.9,38.8L203.9,38.8z M190.8,38.8c-0.5,2.7,1.2,4.5,3.7,4.5
		c2.4,0,4.6-1.7,5.1-4.5c0.4-2.3-0.8-4.5-3.7-4.5C193.1,34.2,191.2,36.4,190.8,38.8L190.8,38.8z"/>
	<path fill-rule="evenodd" clip-rule="evenodd" fill="#FFFFFF" d="M244.5,35.9c-0.7-0.7-1.7-1.4-3.4-1.4c-2.3,0-4.5,2-4.9,4.4
		c-0.4,2.4,0.8,4.2,3.6,4.2c1.7,0,2.9-0.7,3.7-1.3l-0.7,4.7c-0.8,0.2-2,0.7-3.7,0.7c-5.9,0-7.9-4.5-7.3-8.3c0.7-4.7,4.5-8.3,9.6-8.3
		c1.7,0,3.1,0.5,3.9,0.7L244.5,35.9L244.5,35.9z"/>
	<g>
		<polygon fill-rule="evenodd" clip-rule="evenodd" fill="#727175" points="224.4,46.1 226.9,30 231.6,30 229.1,46.1 		"/>
		<path fill="#FFFFFF" d="M231.3,30.2l-2.4,15.6h-4.2l2.4-15.6H231.3 M231.9,29.7h-0.6h-4.2h-0.4l-0.1,0.4l-2.4,15.6l-0.1,0.6h0.6
			h4.2h0.4l0.1-0.4l2.4-15.6L231.9,29.7L231.9,29.7z"/>
	</g>
	<g>
		<polygon fill-rule="evenodd" clip-rule="evenodd" fill="#727175" points="217.2,46 211.9,36.9 210.4,46 205.9,46 208.3,29.9 
			212.8,29.9 218.2,39.2 219.6,29.9 224.2,29.9 221.6,46 		"/>
		<path fill="#FFFFFF" d="M223.9,30.1l-2.5,15.6h-4l-5.5-9.5h-0.1l-1.6,9.5h-4l2.4-15.6h4.1l5.6,9.6h0.1l1.5-9.6H223.9 M224.4,29.6
			h-0.6h-4h-0.4l-0.1,0.4l-1.3,8.4l-5-8.6l-0.1-0.2h-0.3h-4.1h-0.4l-0.1,0.4l-2.4,15.6l-0.1,0.6h0.6h4h0.4l0.1-0.4l1.4-8.2l4.9,8.4
			l0.1,0.3h0.3h4h0.4l0.1-0.4l2.5-15.6L224.4,29.6L224.4,29.6z"/>
	</g>
	<g>
		<path fill-rule="evenodd" clip-rule="evenodd" fill="#727175" d="M178.3,46.6c-2.9,0-5-1.2-5.7-1.7l-0.2-0.1L175,41l0.2,0.2
			c0.5,0.6,1.9,1.4,3.3,1.4c0.9,0,2-0.2,2.2-1.1c0.2-0.9-0.6-1.3-1.8-1.7l-0.3-0.1c-2.9-1.2-4.1-3.2-3.6-5.8c0.6-2.7,3-4.4,6.3-4.4
			c2.4,0,4.3,0.8,4.9,1.3l0.2,0.1l-2.3,3.5l-0.2-0.2c-0.3-0.3-1.2-1-2.8-1c-0.8,0-1.4,0.4-1.5,1c-0.2,0.8,0.5,1.2,1.4,1.6l0.1,0
			c0.8,0.3,1.3,0.6,1.9,0.9c2.1,1.2,2.9,3.4,2.2,5.8C184.8,44,183.3,46.6,178.3,46.6z"/>
		<path fill="#FFFFFF" d="M181.3,29.7c2.5,0,4.2,0.9,4.8,1.2l-2,3c-0.3-0.3-1.2-1.1-2.9-1.1c-0.9,0-1.6,0.4-1.8,1.2
			c-0.2,1.1,0.9,1.5,1.7,1.9c0.8,0.3,1.3,0.6,1.8,0.9c1.8,1,2.8,3,2,5.6c-0.5,2-2.3,4-6.6,4c-2.9,0-4.8-1.2-5.6-1.7l2.3-3.2
			c0.5,0.6,2,1.5,3.4,1.5c1.1,0,2.2-0.3,2.4-1.3c0.3-1.2-1.2-1.7-2.3-2.1c-2.6-1.1-4-2.9-3.4-5.6C175.7,31.5,178,29.7,181.3,29.7
			 M181.3,29.2c-3.4,0-6,1.8-6.6,4.6c-0.5,2.7,0.8,4.9,3.7,6.1l0.3,0.1c1.3,0.5,1.8,0.8,1.7,1.4c-0.2,0.8-1.1,0.9-1.9,0.9
			c-1.2,0-2.6-0.8-3.1-1.3l-0.4-0.5l-0.4,0.5l-2.3,3.2l-0.3,0.4l0.4,0.3c0.8,0.5,2.9,1.8,5.8,1.8c5.2,0,6.7-2.7,7.1-4.3
			c0.7-2.6-0.1-4.9-2.3-6.1c-0.5-0.3-1.1-0.6-1.9-0.9l-0.1,0c-1-0.4-1.4-0.7-1.3-1.3c0.1-0.5,0.7-0.8,1.3-0.8c1.5,0,2.3,0.7,2.6,1
			l0.4,0.4l0.3-0.5l2-3l0.3-0.4l-0.4-0.3C185.7,30.1,183.8,29.2,181.3,29.2L181.3,29.2z"/>
	</g>
	<g>
		<path fill-rule="evenodd" clip-rule="evenodd" fill="#727175" d="M194.7,46.6c-2.5,0-4.5-0.8-5.9-2.4c-1.4-1.6-2-3.8-1.7-6.2
			c0.5-4.8,4.9-8.5,10.2-8.5c3.2,0,5.1,1.4,6.1,2.5c1.4,1.6,1.9,3.8,1.6,6C204.2,43.1,200.1,46.6,194.7,46.6z M196.6,33.7
			c-2.6,0-4.4,2.2-4.8,4.3c-0.2,1.2,0,2.3,0.6,3.1c0.6,0.8,1.6,1.2,2.8,1.2c2.5,0,4.4-1.7,4.9-4.3c0.2-1.2,0-2.3-0.7-3.1
			C198.8,34.1,197.9,33.7,196.6,33.7z"/>
		<path fill="#FFFFFF" d="M197.4,29.7c5.6,0,8.1,4.3,7.4,8.3c-0.8,5.2-5,8.3-10,8.3c-5.3,0-7.9-4-7.3-8.3
			C187.9,33.4,192.1,29.7,197.4,29.7 M195.2,42.5c2.4,0,4.6-1.7,5.1-4.5c0.4-2.3-0.8-4.5-3.7-4.5c-2.7,0-4.6,2.2-5,4.5
			C191.1,40.7,192.8,42.5,195.2,42.5 M197.4,29.2c-5.4,0-9.9,3.7-10.4,8.7c-0.3,2.4,0.3,4.7,1.8,6.4c1.4,1.7,3.5,2.5,6.1,2.5
			c5.5,0,9.7-3.5,10.5-8.8c0.4-2.3-0.2-4.6-1.6-6.2C202.6,30.6,200.7,29.2,197.4,29.2L197.4,29.2z M195.2,42c-1.1,0-2-0.4-2.6-1.1
			c-0.6-0.7-0.8-1.7-0.6-2.9c0.4-2.1,2.1-4.1,4.6-4.1c1.1,0,2.1,0.4,2.6,1.1c0.6,0.7,0.8,1.8,0.6,2.9C199.4,40.4,197.6,42,195.2,42
			L195.2,42z"/>
	</g>
	<g>
		<path fill-rule="evenodd" clip-rule="evenodd" fill="#727175" d="M240,46.6c-2.5,0-4.6-0.8-5.9-2.4c-1.4-1.6-1.9-3.8-1.6-6.2
			c0.7-5,4.7-8.6,9.8-8.6c1.7,0,3.1,0.4,3.9,0.6l0.2,0.1l0.1,0.2l-0.8,5.2l-0.4-0.4c-0.4-0.5-1.4-1.3-3.2-1.3
			c-2.2,0-4.3,1.9-4.7,4.2c-0.2,1.2,0.1,2.2,0.7,3c0.6,0.7,1.4,1,2.5,1l0.1,0c2,0,3.2-1,3.6-1.3l0.5-0.5l-0.9,5.5l-0.5,0.1
			C242.6,46.2,241.4,46.6,240,46.6z"/>
		<path fill="#FFFFFF" d="M242.2,29.7c1.8,0,3.1,0.4,3.9,0.7l-0.7,4.7c-0.6-0.7-1.7-1.4-3.4-1.4c-2.3,0-4.5,2-4.9,4.4
			c-0.4,2.4,0.8,4.2,3.4,4.2c0,0,0.1,0,0.1,0c1.7,0,3-0.7,3.7-1.3l-0.7,4.7c-0.8,0.2-2,0.7-3.7,0.7c-5.9,0-7.8-4.5-7.2-8.3
			C233.4,33.3,237.2,29.7,242.2,29.7 M242.2,29.2c-5.2,0-9.3,3.6-10,8.8c-0.4,2.4,0.2,4.7,1.6,6.4c1.4,1.6,3.5,2.5,6.1,2.5
			c1.5,0,2.7-0.3,3.5-0.6c0.1,0,0.2-0.1,0.4-0.1l0.3-0.1l0-0.3l0.7-4.7l0.2-1.4l-1,0.9c-0.3,0.3-1.5,1.2-3.4,1.2l-0.1,0
			c-1,0-1.8-0.3-2.3-0.9c-0.6-0.7-0.8-1.6-0.6-2.8c0.3-2.2,2.3-4,4.4-4c1.7,0,2.6,0.8,3,1.2l0.7,0.8l0.2-1l0.7-4.7l0.1-0.4l-0.4-0.1
			l-0.1,0C245.4,29.6,244,29.2,242.2,29.2L242.2,29.2z"/>
	</g>
</g>
<g>
	<g>
		<circle fill-rule="evenodd" clip-rule="evenodd" fill="#727175" cx="360.2" cy="33.7" r="19.9"/>
		<circle fill-rule="evenodd" clip-rule="evenodd" fill="#727175" cx="360.2" cy="30.8" r="13"/>
		<circle fill-rule="evenodd" clip-rule="evenodd" fill="#727175" cx="360.2" cy="27.9" r="6.1"/>
	</g>
	<g>
		<g>
			<path fill-rule="evenodd" clip-rule="evenodd" fill="#7BA43E" d="M374.8,29.7c0,1.4-1.5,2.3-2.8,1.6c-0.9-0.5-1.7-0.9-2.7-1.3
				c-1.8-0.7-3.7-1.2-5.6-1.6c-1.3-0.2-2.7-0.4-4.1-0.5c-1.4-0.1-2.8-0.1-4.2,0c-1.6,0.1-3.2,0.3-4.8,0.6c-0.6,0.1-1.2,0.3-1.7,0.4
				c-0.4,0.1-0.7,0.1-1.1,0c-0.8-0.2-1.3-0.9-1.3-1.7c0-0.8,0.5-1.5,1.2-1.8c0.6-0.2,1.1-0.3,1.7-0.5c1.4-0.3,2.9-0.5,4.3-0.7
				c1.5-0.1,3.1-0.2,4.6-0.1c3.8,0.1,7.6,0.7,11.2,1.9c1.5,0.5,2.9,1.1,4.2,1.9c0.5,0.3,0.8,0.7,0.9,1.2
				C374.7,29.5,374.7,29.6,374.8,29.7z"/>
			<path fill-rule="evenodd" clip-rule="evenodd" fill="#7BA43E" d="M356.7,34.2c-2.3,0-4.6,0.3-6.9,1c-0.4,0.1-0.7,0.1-1.1,0
				c-0.6-0.2-1-0.8-1-1.5c0-0.7,0.4-1.2,1.1-1.4c0.6-0.2,1.3-0.4,1.9-0.5c1.6-0.4,3.2-0.5,4.9-0.6c3.6-0.1,7,0.3,10.4,1.4
				c1.7,0.5,3.3,1.3,4.9,2.2c0.1,0,0.2,0.1,0.2,0.1c0.8,0.5,0.9,1.5,0.5,2.1c-0.4,0.7-1.4,0.9-2.1,0.5c-0.4-0.2-0.9-0.5-1.3-0.7
				c-2-1-4.1-1.7-6.4-2.1C360.3,34.3,358.6,34.2,356.7,34.2z"/>
			<path fill-rule="evenodd" clip-rule="evenodd" fill="#7BA43E" d="M357.1,37.5c2.6,0,5.2,0.4,7.7,1.2c1.4,0.5,2.7,1.1,3.9,1.8
				c0.1,0.1,0.2,0.1,0.3,0.2c0.5,0.4,0.6,1.1,0.3,1.6c-0.3,0.5-1,0.7-1.5,0.5c-0.1-0.1-0.2-0.1-0.3-0.2c-2.1-1.2-4.4-2-6.8-2.4
				c-1.5-0.2-3-0.3-4.5-0.2c-1.9,0.1-3.8,0.3-5.7,0.8c-0.2,0-0.4,0.1-0.6,0.1c-0.6,0-1.1-0.4-1.2-1c-0.1-0.6,0.2-1.2,0.7-1.4
				c0.1,0,0.2-0.1,0.4-0.1c1.5-0.3,3.1-0.6,4.7-0.7C355.3,37.6,356.2,37.6,357.1,37.5z"/>
		</g>
	</g>
	<g>
		<path fill-rule="evenodd" clip-rule="evenodd" fill="#FFFFFF" d="M374.8,29.8c0,1.4-1.5,2.3-2.8,1.6c-0.9-0.5-1.7-0.9-2.7-1.3
			c-1.8-0.7-3.7-1.2-5.6-1.6c-1.3-0.2-2.7-0.4-4.1-0.5c-1.4-0.1-2.8-0.1-4.2,0c-1.6,0.1-3.2,0.3-4.8,0.6c-0.6,0.1-1.2,0.3-1.7,0.4
			c-0.4,0.1-0.7,0.1-1.1,0c-0.8-0.2-1.3-0.9-1.3-1.7c0-0.8,0.5-1.5,1.2-1.8c0.6-0.2,1.1-0.3,1.7-0.5c1.4-0.3,2.9-0.5,4.3-0.7
			c1.5-0.1,3.1-0.2,4.6-0.1c3.8,0.1,7.6,0.7,11.2,1.9c1.5,0.5,2.9,1.1,4.2,1.9c0.5,0.3,0.8,0.7,0.9,1.2
			C374.7,29.6,374.7,29.7,374.8,29.8z"/>
		<path fill-rule="evenodd" clip-rule="evenodd" fill="#FFFFFF" d="M356.7,34.3c-2.3,0-4.6,0.3-6.9,1c-0.4,0.1-0.7,0.1-1.1,0
			c-0.6-0.2-1-0.8-1-1.5c0-0.7,0.4-1.2,1.1-1.4c0.6-0.2,1.3-0.4,1.9-0.5c1.6-0.4,3.2-0.5,4.9-0.6c3.6-0.1,7,0.3,10.4,1.4
			c1.7,0.5,3.3,1.3,4.9,2.2c0.1,0,0.2,0.1,0.2,0.1c0.8,0.5,0.9,1.5,0.5,2.1c-0.4,0.7-1.4,0.9-2.1,0.5c-0.4-0.2-0.9-0.5-1.3-0.7
			c-2-1-4.1-1.7-6.4-2.1C360.3,34.4,358.6,34.3,356.7,34.3z"/>
		<path fill-rule="evenodd" clip-rule="evenodd" fill="#FFFFFF" d="M357.1,37.6c2.6,0,5.2,0.4,7.7,1.2c1.4,0.5,2.7,1.1,3.9,1.8
			c0.1,0.1,0.2,0.1,0.3,0.2c0.5,0.4,0.6,1.1,0.3,1.6c-0.3,0.5-1,0.7-1.5,0.5c-0.1-0.1-0.2-0.1-0.3-0.2c-2.1-1.2-4.4-2-6.8-2.4
			c-1.5-0.2-3-0.3-4.5-0.2c-1.9,0.1-3.8,0.3-5.7,0.8c-0.2,0-0.4,0.1-0.6,0.1c-0.6,0-1.1-0.4-1.2-1c-0.1-0.6,0.2-1.2,0.7-1.4
			c0.1,0,0.2-0.1,0.4-0.1c1.5-0.3,3.1-0.6,4.7-0.7C355.3,37.7,356.2,37.7,357.1,37.6z"/>
	</g>
	<g>
		<path fill="#727175" d="M343.5,62.8l0.9-1.1c0.6,0.5,1.3,0.9,2.1,0.9c0.6,0,1-0.3,1-0.7v0c0-0.4-0.2-0.6-1.4-0.9
			c-1.4-0.4-2.3-0.8-2.3-2.2v0c0-1.3,1-2.2,2.5-2.2c1,0,1.9,0.3,2.6,0.9l-0.8,1.2c-0.6-0.4-1.2-0.7-1.8-0.7c-0.6,0-0.9,0.3-0.9,0.6
			v0c0,0.5,0.3,0.6,1.5,0.9c1.4,0.4,2.2,0.9,2.2,2.1v0c0,1.4-1.1,2.2-2.6,2.2C345.4,64,344.3,63.6,343.5,62.8z"/>
		<path fill="#727175" d="M362,62.3v-2.7h-0.7v-1.2h0.7V57h1.4v1.4h1.4v1.2h-1.4v2.4c0,0.5,0.3,0.6,0.6,0.6c0.3,0,0.5-0.1,0.8-0.2
			v1.2c-0.3,0.2-0.7,0.3-1.2,0.3C362.7,63.9,362,63.6,362,62.3z"/>
		<rect x="365.4" y="58.4" fill="#727175" width="1.4" height="5.4"/>
		<path fill="#727175" d="M369.4,58.4v-0.3c0-0.4,0.3-0.6,0.7-0.6c0.3,0,0.5,0.1,0.7,0.1v-1.2c-0.3-0.1-0.6-0.2-1.1-0.2
			c-0.6,0-0.9,0.1-1.2,0.4c-0.3,0.3-0.5,0.7-0.5,1.3v0.3h-0.7v1.2h0.6v4.2h1.4v-4.2h1.1l1.7,4.1c-0.1,0.3-0.4,0.5-0.6,0.5
			c-0.2,0-0.5-0.1-0.7-0.2l-0.5,1.1c0.4,0.2,0.9,0.4,1.5,0.4c1,0,1.4-0.8,1.6-1.3l2.2-5.8l-1.4,0l-1.3,3.7l-1.4-3.7h-0.7L369.4,58.4
			z"/>
		<circle fill="#727175" cx="366.1" cy="56.9" r="0.9"/>
		<g>
			<path fill="#727175" d="M375.8,59.3L375.8,59.3c0-0.5,0.4-0.9,0.9-0.9c0.5,0,0.9,0.4,0.9,0.9v0c0,0.5-0.4,0.9-0.9,0.9
				S375.8,59.7,375.8,59.3z M377.4,59.3L377.4,59.3c0-0.4-0.3-0.8-0.8-0.8c-0.4,0-0.8,0.3-0.8,0.8v0c0,0.4,0.3,0.8,0.8,0.8
				C377.1,60,377.4,59.7,377.4,59.3z M376.3,58.8h0.4c0.1,0,0.2,0,0.3,0.1c0,0,0.1,0.1,0.1,0.2v0c0,0.1-0.1,0.2-0.2,0.3l0.2,0.3
				h-0.2l-0.2-0.3h-0.2v0.3h-0.2V58.8z M376.7,59.2c0.1,0,0.2-0.1,0.2-0.1v0c0-0.1-0.1-0.1-0.2-0.1h-0.2v0.3H376.7z"/>
		</g>
		<path fill="#727175" d="M358.4,58.3c-1.6,0-2.9,1.3-2.9,2.8v0c0,1.6,1.2,2.8,2.9,2.8c1.6,0,2.9-1.3,2.9-2.8v0
			C361.3,59.6,360.1,58.3,358.4,58.3z M358.4,62.8c-0.8,0-1.5-0.7-1.5-1.6c0-0.9,0.7-1.6,1.5-1.6c0.8,0,1.5,0.7,1.5,1.6
			C359.9,62,359.2,62.8,358.4,62.8z"/>
		<path fill="#727175" d="M352.7,58.3c-0.9,0-1.4,0.3-1.8,0.8v-0.7h-1.4v7h1.4v-2.3c0.4,0.4,0.9,0.8,1.7,0.8c1.3,0,2.5-1,2.5-2.8v0
			C355.1,59.3,353.9,58.3,352.7,58.3z M352.3,62.7c-0.8,0-1.4-0.7-1.4-1.6s0.6-1.6,1.4-1.6c0.8,0,1.4,0.7,1.4,1.6
			S353.1,62.7,352.3,62.7z"/>
	</g>
</g>
<g>
	<g>
		<path fill="#727175" d="M472.6,39.6c0-11.9,9.6-21.5,21.5-21.5c11.9,0,21.5,9.6,21.5,21.5c0,11.9-9.6,21.5-21.5,21.5
			C482.3,61.2,472.6,51.5,472.6,39.6z M506.5,39.8h2.3l-5.2-11.9h-3.4l5.2,11.9H503V43c0,1.9-0.8,2.7-3.4,2.7v6.1h3.4v-6.1h1.1
			c1,0,2.3-0.8,2.4-2.3V39.8z M490.1,27.9c-5.2,0-9.6,3.7-9.6,9.1c0,4.6,2.8,7.8,6.9,8.5v6.4h8.5v-6.1h1.2c1.4-0.1,2.3-1.1,2.3-2.3
			v-3.5h2.3l-5.3-11.9C496.5,27.9,493.3,27.9,490.1,27.9z M494.8,38.2c1.2,0,2.2-1,2.2-2.2c0-1.2-1-2.2-2.2-2.2
			c-1.2,0-2.2,1-2.2,2.2C492.6,37.2,493.6,38.2,494.8,38.2z"/>
	</g>
	<g>
		<path fill="#727175" d="M522.6,35.7h-1.5v-1.9h5c2.7,0,4.2,1.4,4.2,3.6c0,2.2-1.6,3.6-4.2,3.6c-0.2,0-1.4,0-1.4,0v2.8h1.8v1.9
			h-5.4v-1.9h1.5V35.7z M524.8,39.1c0,0,1.1,0,1.4,0c1.2,0,1.9-0.8,1.9-1.7c0-1-0.7-1.7-1.9-1.7c-0.2,0-1.4,0-1.4,0V39.1z"/>
		<path fill="#727175" d="M532.4,35.7H531v-1.9h4.8c2.9,0,3.9,1.8,3.9,3c0,1.1-0.6,2-1.4,2.4c1.2,0.5,1.9,1.7,1.9,2.8
			c0,2.6-2,3.6-4,3.6h-5.3v-1.9h1.5V35.7z M534.6,43.8c0,0,1.3,0,1.4,0c1.1,0,1.9-0.6,1.9-1.7c0-0.9-0.6-1.7-1.9-1.7
			c-0.5,0-1.4,0-1.4,0V43.8z M534.6,38.6h1.3c1,0,1.6-0.6,1.6-1.4c0-0.9-0.6-1.4-1.6-1.4c-0.4,0-1.3,0-1.3,0V38.6z"/>
		<path fill="#727175" d="M547.1,35.7c-0.4-0.2-0.9-0.3-1.4-0.3c-1.5,0-1.9,0.8-1.9,1.5c0,0.9,0.6,1.1,1.2,1.3l1.3,0.4
			c1.5,0.4,3.2,1,3.2,3.4c0,2.2-1.3,3.9-4.3,3.9c-1.2,0-2.3-0.1-3.8-0.7v-3.1h2.2v1.5c0.6,0.3,1.2,0.3,1.8,0.3
			c1.3,0,1.9-0.7,1.9-1.6c0-0.6-0.3-1-1.7-1.4l-1.2-0.3c-2.2-0.6-2.9-1.6-2.9-3.4c0-1.9,1.2-3.5,4.1-3.5c1.3,0,2.5,0.2,3.4,0.6v2.8
			h-2V35.7z"/>
	</g>
</g>
<g>
	<polygon fill="#727175" points="700,58.7 700,58.9 699.4,58.9 699.4,60.5 699.1,60.5 699.1,58.9 698.5,58.9 698.5,58.7 	"/>
	<polygon fill="#727175" points="700.2,58.7 700.5,58.7 701.1,60.2 701.1,60.2 701.6,58.7 702,58.7 702,60.5 701.8,60.5 701.8,59 
		701.8,59 701.2,60.5 701,60.5 700.4,59 700.4,59 700.4,60.5 700.2,60.5 	"/>
	<rect x="644.5" y="46.6" fill="#727175" width="3.5" height="13.9"/>
	<path fill="#727175" d="M676.4,50.6c-0.1-0.1-1.3-0.7-3-0.7c-2.3,0-3.8,1.6-3.8,3.7c0,2.1,1.5,3.7,3.8,3.7c1.7,0,2.8-0.7,3-0.7v3.7
		c-0.4,0.1-1.6,0.5-3.2,0.5c-4,0-7.4-2.7-7.4-7.2c0-4.2,3.1-7.2,7.4-7.2c1.7,0,2.9,0.4,3.2,0.5V50.6z"/>
	<path fill="#727175" d="M639.7,50.6c-0.1-0.1-1.3-0.7-3-0.7c-2.3,0-3.9,1.6-3.9,3.7c0,2.1,1.5,3.7,3.9,3.7c1.7,0,2.8-0.7,3-0.7v3.7
		c-0.4,0.1-1.6,0.5-3.2,0.5c-3.9,0-7.4-2.7-7.4-7.2c0-4.2,3.1-7.2,7.4-7.2c1.7,0,2.9,0.4,3.2,0.5V50.6z"/>
	<path fill="#727175" d="M694.8,53.6c0,4-3.1,7.2-7.4,7.2c-4.3,0-7.4-3.2-7.4-7.2c0-4,3.1-7.2,7.4-7.2
		C691.7,46.4,694.8,49.6,694.8,53.6z M687.5,49.9c-2.1,0-3.6,1.6-3.6,3.7c0,2,1.6,3.7,3.6,3.7c2.1,0,3.6-1.6,3.6-3.7
		C691.1,51.5,689.5,49.9,687.5,49.9z"/>
	<path fill="#727175" d="M661.4,49.8c-0.1,0-1.5-0.4-2.7-0.4c-1.4,0-2.2,0.5-2.2,1.1c0,0.8,1,1.1,1.6,1.3l1,0.3
		c2.3,0.7,3.3,2.3,3.3,4c0,3.5-3.1,4.7-5.8,4.7c-1.9,0-3.6-0.3-3.8-0.4v-3.2c0.3,0.1,1.8,0.5,3.3,0.5c1.7,0,2.6-0.5,2.6-1.3
		c0-0.7-0.7-1.1-1.6-1.4c-0.2-0.1-0.5-0.2-0.7-0.2c-2-0.6-3.6-1.8-3.6-4.1c0-2.6,2-4.4,5.2-4.4c1.7,0,3.3,0.4,3.4,0.4V49.8z"/>
	<path fill="#727175" d="M625.3,31.6c0-1-0.8-1.7-1.7-1.7c-1,0-1.7,0.8-1.7,1.7v3.7c0,1,0.8,1.7,1.7,1.7c1,0,1.7-0.8,1.7-1.7V31.6z"
		/>
	<path fill="#727175" d="M634.9,26.8c0-1-0.8-1.7-1.7-1.7c-1,0-1.7,0.8-1.7,1.7v8.5c0,1,0.8,1.7,1.7,1.7c1,0,1.7-0.8,1.7-1.7V26.8z"
		/>
	<path fill="#727175" d="M644.5,20.3c0-1-0.8-1.7-1.7-1.7c-1,0-1.8,0.8-1.8,1.7v18.5c0,1,0.8,1.7,1.8,1.7c1,0,1.7-0.8,1.7-1.7V20.3z
		"/>
	<path fill="#727175" d="M654.1,26.8c0-1-0.8-1.7-1.7-1.7c-1,0-1.7,0.8-1.7,1.7v8.5c0,1,0.8,1.7,1.7,1.7c1,0,1.7-0.8,1.7-1.7V26.8z"
		/>
	<path fill="#727175" d="M663.7,31.6c0-1-0.8-1.7-1.7-1.7c-1,0-1.7,0.8-1.7,1.7v3.7c0,1,0.8,1.7,1.7,1.7c1,0,1.7-0.8,1.7-1.7V31.6z"
		/>
	<path fill="#727175" d="M673.3,26.8c0-1-0.8-1.7-1.7-1.7c-1,0-1.7,0.8-1.7,1.7v8.5c0,1,0.8,1.7,1.7,1.7c1,0,1.7-0.8,1.7-1.7V26.8z"
		/>
	<path fill="#727175" d="M682.9,20.3c0-1-0.8-1.7-1.7-1.7c-1,0-1.7,0.8-1.7,1.7v18.5c0,1,0.8,1.7,1.7,1.7c1,0,1.7-0.8,1.7-1.7V20.3z
		"/>
	<path fill="#727175" d="M692.5,26.8c0-1-0.8-1.7-1.8-1.7c-1,0-1.7,0.8-1.7,1.7v8.5c0,1,0.8,1.7,1.7,1.7c1,0,1.8-0.8,1.8-1.7V26.8z"
		/>
	<path fill="#727175" d="M702,31.6c0-1-0.8-1.7-1.7-1.7c-1,0-1.7,0.8-1.7,1.7v3.7c0,1,0.8,1.7,1.7,1.7c1,0,1.7-0.8,1.7-1.7V31.6z"/>
</g>
<g>
	<path fill-rule="evenodd" clip-rule="evenodd" fill="#727175" d="M844.2,47.8c-0.4-0.9-2.1-3.6-4.1-6.3c-1.9-2.4-4.6-4.9-5.1-5.3
		c0-0.3-0.4-0.7-0.8-1.2c-3.4-3.4-9.2-4.9-11.4-4.9c-1.7,0-3.6,1.1-4.1,1.4l-1.2-3c-0.2-0.6-0.5-1.2-0.4-1.6
		c0.5,0.7,1.4,0.8,1.8,0.8c0.2,0,0.8-0.1,1.3-0.5c0.4-0.4,0.5-0.8,0.5-1.4c0-1.1-0.8-1.7-1.2-2l1.5-1.2h-5.9l-0.6-3.1l2.8-2.6
		l-3.8-0.4l-1.6-3.4l-1.6,3.4l-3.8,0.4l2.8,2.6l-0.6,3.1h-6l1.5,1.2c-0.4,0.3-1.2,0.9-1.2,2c0,0.6,0.2,1.1,0.5,1.4
		c0.5,0.5,1.1,0.5,1.3,0.5c0.4,0,1.3-0.1,1.8-0.8c0.1,0.4-0.1,1-0.4,1.6c0,0-0.4,1-0.7,1.6c-0.7-0.5-2.6-1.8-3.4-1.8c0,0,0,0,0,0
		c-0.1-0.3-0.5-0.4-1.2-0.4c-0.2-0.2-0.6-0.5-0.9-0.4c0,0-0.1,0-0.1,0c0-0.1-0.1-0.2-0.2-0.2c-0.2-0.2-0.6-0.3-1-0.2
		c-0.4-0.3-0.8-0.6-1.1-0.5c0,0,0,0,0,0c-0.2-0.2-0.5-0.3-0.9-0.3c-0.3-0.1-1.7-0.8-2.9-0.9c-0.3-0.2-2.2-1-3.1-0.4
		c-0.8-0.3-1.6-0.4-1.9,0c0,0-0.5,0-0.8-0.1c-2.1-0.3-3.5-0.1-4,0.3c-2.6,0.3-2.6,0.5-2.6,0.7c0,0.1,0,0.2,0.1,0.3
		c0.3,0.3,1.4,0.3,2.5,0.1c0.3,0,0.5,0,0.6,0c0.5,0,4.8,0.2,6.3,1c1.5,0.8,4,2.5,4.7,3.2l0.4,0.4c2.2,2.5,5.3,5.7,6.6,6.2
		c-0.4,1.1-0.8,1.9-1,2.4c-0.4-0.2-2.2-1.1-2.6-1.5c-0.5-0.5-1.2-0.5-1.9,0c-0.3,0.2-0.5,0.1-0.8-0.1c-0.1-0.1-0.5-0.3-0.5-0.4
		c-0.4-0.3-0.8-0.5-1.2-0.5c-0.2,0-0.5,0.1-0.8,0.4c-0.2,0.3-0.4,0.9-0.2,1.7c0.1-0.2,0.6-0.5,1-0.4c0.5,0.2,0.7,1,0.8,1.3l-0.5-0.1
		l-0.6-0.5l0.1,0.4l-0.9-0.2l-0.1,0.3c-0.1,0.2,0,0.6,1.2,1.6c0.8,0.7,1.4,1,1.7,1.2c0.1,0.1,0.3,0.1,0.3,0.2
		c0.1,0.1,0.2,0.2,0.4,0.3c0.3,0.2,0.7,0.4,1,0.7c0.3,0.3,0.7,0.6,1.1,0.9c0.1,0.1,0.1,0.1,0.2,0.2c-0.4,1.1-2.3,5.6-2.8,7
		c-0.6,1.5-1.5,2.6-2.6,3.3c0-0.4-0.1-1.1-0.6-1.7c-0.4-0.5-1-0.7-1.9-0.7c-1.5,0-2.3,0.9-2.3,2.5c0,0.6,0.3,1.4,1.1,1.7l-5.4,3.1
		h9.8c0,0,0.8-1.2,2.2-1.2c1.4,0,2.3,1.2,2.3,1.2h5c0.8,0.8,1.1,1.6,1.1,1.6c2.5,0.7,4.7,4.1,4.7,4.1c3.2-1.5,5.7-3.1,7.3-4.5
		l0.2,0.1l-0.1-0.2c0.4-0.4,0.8-0.7,1.1-1.1h4.6c0,0,0.9-1.2,2.3-1.2c1.4,0,2.2,1.2,2.2,1.2h9.8l-5.4-3.1c0.8-0.3,1.1-1.1,1.1-1.7
		c0-0.8-0.2-1.5-0.7-1.9c-0.4-0.4-0.9-0.6-1.6-0.6c-0.8,0-1.4,0.2-1.9,0.7c-0.5,0.6-0.6,1.3-0.6,1.7c-1.1-0.7-2-1.8-2.6-3.3
		c-0.1-0.3-0.3-0.7-0.5-1.2c0.2,0,0.3,0,0.5-0.1c1,0.8,2,0.8,2.2,0.8c0.3,0.3,0.6,0.5,0.8,0.5c0.3,0,0.5-0.2,0.6-0.4
		c0.3,0.2,0.5,0.2,0.6,0.1c0.2-0.1,0.2-0.5-0.2-1.2c-0.5-1-4.4-5.7-5.2-6.8c0.5,0.1,0.8,0.1,1-0.1c0.2-0.2,0.1-0.6,0-0.9
		c0.8,0.3,1.3,0.4,1.5,0.1c0.2-0.2,0.2-0.7,0-1c0.6,0.3,1,0.4,1.4,0.2c0.2-0.1,0.3-0.3,0.4-0.4c1.1,0.7,1.8,1,2.3,0.8
		c0.1,0,0.1-0.1,0.2-0.1c0.4,0.3,0.8,0.4,1.2,0.3c0.2-0.1,0.4-0.2,0.4-0.3c0.7,0.8,1.4,1.2,1.9,1.1c0.2,0,0.4-0.1,0.5-0.1
		c0.7,0.6,1.2,0.8,1.6,0.7c0.2-0.1,0.3-0.2,0.4-0.4c1,1.2,1.8,1.8,2.4,1.8c0.1,0,0.2,0,0.3-0.1c0.5,0.8,2.7,2.4,2.9,2.5
		c0.7,0.5,1,0.8,1.2,0.6C844.4,48.5,844.3,48.2,844.2,47.8L844.2,47.8z"/>
	<path fill-rule="evenodd" clip-rule="evenodd" fill="#FFFFFF" d="M811.8,21.5l2.6,1.5c-1.3,1.5-2,1.5-2.6,1.5c-0.6,0-1.3,0-2.6-1.5
		L811.8,21.5L811.8,21.5z"/>
	<path fill-rule="evenodd" clip-rule="evenodd" fill="#FFFFFF" d="M803.5,59.6l-2,0l0.2,0.5h2.5C803.9,59.9,803.7,59.8,803.5,59.6
		L803.5,59.6z"/>
	<path fill-rule="evenodd" clip-rule="evenodd" fill="#FFFFFF" d="M793.2,54c-0.3-0.4-0.9-0.6-1.6-0.6c-0.6,0-1.1,0.2-1.4,0.5
		c-0.4,0.4-0.6,0.9-0.6,1.7c0,0.2,0.1,1.3,1.2,1.5l0.5,0.1l-4.2,2.4l1.3,0c0,0,2-1.2,2.8-1.7c0.6-0.3,0.6-0.8,0.6-1.1
		c-0.6,0-1-0.2-1.3-0.5c-0.2-0.2-0.3-0.5-0.3-0.9c0-0.9,0.8-1.5,1.5-1.5c0.4,0,0.9,0.2,1.2,0.5c0.1,0.1,0.2,0.3,0.3,0.5L793.2,54
		C793.3,54.1,793.3,54.1,793.2,54L793.2,54z"/>
	<path fill-rule="evenodd" clip-rule="evenodd" fill="#FFFFFF" d="M799.7,45.3c-0.5,1.2-2.3,5.6-2.8,7c-0.7,1.9-1.9,3.2-3.4,3.9
		l0,0.5c0.3-0.1,0.6-0.2,0.6-0.2l0,0l0,0c1.5-0.6,2.6-2.4,3.2-3.8c0.7-1.5,2.7-6.6,2.8-6.9C800.1,45.6,799.8,45.4,799.7,45.3
		L799.7,45.3z"/>
	<polygon fill-rule="evenodd" clip-rule="evenodd" fill="#FFFFFF" points="794.4,59.6 791.2,59.6 791.3,60.1 794.6,60.1 794.4,59.6 
			"/>
	<path fill-rule="evenodd" clip-rule="evenodd" fill="#FFFFFF" d="M799.6,59.5c0-0.1-0.7-1.3-2.5-1.3l-0.1,0.6c1.4,0,2.3,1,2.5,1.3
		L799.6,59.5L799.6,59.5L799.6,59.5z"/>
	<path fill-rule="evenodd" clip-rule="evenodd" fill="#FFFFFF" d="M831,58.2c-0.8-0.4-0.8-1.2-0.8-1.6l0-0.1h0.1c1,0,1.5-0.3,1.5-1
		c0-0.3-0.1-0.6-0.3-0.8c-0.2-0.2-0.6-0.4-0.9-0.4c-0.3,0-0.7,0.1-0.9,0.4c-0.2,0.2-0.3,0.5-0.3,0.8c0,0.8,0.2,1.5,0.2,1.5l0.1,0.3
		l-0.3-0.1c-0.7-0.2-1.3-0.5-1.3-0.5c-1.5-0.7-2.8-2.5-3.4-3.9c-0.5-1.1-1.7-4-2.4-5.7c-0.1,0-0.3-0.1-0.4-0.1
		c-0.1,0.2-0.2,0.6-0.3,0.9c0.5,1.5,2.5,6.7,2.6,7.1c0.2,0.5,0.8,1.3,0.8,1.3c-0.4-0.1-1.8,0.5-1.8,0.5c0.1-0.2,0.2-0.9,0-1.3
		c-0.2-0.5-2.3-6.3-2.3-6.3h-2.5c-0.2,0.2-0.5,0.4-0.8,0.4c-0.1,0-0.2,0-0.3-0.1c-0.1,0.1-0.3,0.2-0.6,0.2c-0.2,0-0.3-0.1-0.5-0.2
		c-0.2,0.1-0.5,0.2-0.8,0.1c-0.1,0-0.2-0.1-0.3-0.2c-0.3,0.2-1,0.5-1.3,0.3c-0.1,0-0.2-0.1-0.2-0.4l-0.7-0.1l-0.3,0.3
		c-0.2,0.2-1.3,0-1.3,0c-0.5,0.1-1.3,0.1-1.3,0.1c-0.7,0.1-1.9-0.3-1.9-0.3h-6.3c0,0-1.9,4.2-2.2,5.3c-0.3,1.1-0.2,2.3-0.2,2.3
		s-1-0.6-2-0.4c0,0,0.7-0.7,1-1.7c0.3-0.9,2.7-7.1,3.1-8c-0.2-0.2-0.3-0.3-0.4-0.3c0,0-0.4-0.1-0.7-0.3c-0.3,0.8-2.2,5.4-2.8,6.8
		c-0.6,1.4-1.9,3.3-3.4,3.9c0,0-0.6,0.3-1.3,0.5c0,0-0.3,0.1-0.3,0.1l0.1-0.3c0,0,0.2-0.6,0.2-1.5c0-0.3-0.1-0.5-0.3-0.8
		c-0.2-0.2-0.6-0.4-0.9-0.4c-0.3,0-0.7,0.1-0.9,0.4c-0.2,0.2-0.3,0.5-0.3,0.8c0,0.3,0.1,0.5,0.2,0.7c0.2,0.2,0.7,0.4,1.2,0.4
		l0.2,0.1c0.1,0.4,0,1.1-0.8,1.6c-0.5,0.3-1.3,0.7-1.8,1h4.6c0.2-0.3,1-1.4,2.8-1.4c1.8,0,2.6,1.1,2.8,1.4h3.1
		c-0.6-0.4-1.3-0.7-2.2-0.9l-0.1,0v-1.4c0,0,0.1-0.1,0.8-0.5c-0.2-0.3-0.5-0.7-0.5-1.3c0-0.8,1.6-4.5,1.7-4.9l0-0.1h17.1l0,0.1
		c0.2,0.4,1.7,3.9,1.7,4.6c0,0.6-0.2,1.3-0.4,1.6l1.2,0.6l-1.6,0.2l-0.2,0.4l1.2,0.6h-1.5c0,0-0.4,0.4-0.7,0.8h3
		c0.2-0.3,1-1.4,2.8-1.4c1.8,0,2.6,1.1,2.8,1.4h4.6C832.3,59,831.6,58.5,831,58.2L831,58.2z"/>
	<path fill-rule="evenodd" clip-rule="evenodd" fill="#FFFFFF" d="M819,58.1l-1.8-0.2c-0.3,0.2-1.4,1.2-1.8,1.5l0,0l0,0
		c-0.1,0-0.1,0.1-0.2,0.2l0.6,0.4l0.6-0.6l0.5,0.9c0.9-0.7,1.5-1.3,2-1.9h-0.1L819,58.1L819,58.1z"/>
	<path fill-rule="evenodd" clip-rule="evenodd" fill="#FFFFFF" d="M806.5,56.9l0.9,0.1l0,0c0.2-0.2,0.5-0.2,0.7-0.2l-1.4-0.1
		L806.5,56.9L806.5,56.9z"/>
	<path fill-rule="evenodd" clip-rule="evenodd" fill="#FFFFFF" d="M820.5,54.9L820.5,54.9c0-0.2-0.1-0.5-0.3-1
		c-0.3,0.2-0.7,0.3-0.7,0.4c-0.1,0-0.3,0.2-0.3,0.4c0,0.3-0.3,0.7-0.4,0.8c-0.1-0.1-1.1,0-1.8,0c-0.1,0.1-0.2,0.1-0.3,0.2
		c0,0.2,0.1,0.7,0.1,0.9c0.1,0.1,0.3,0.1,0.5,0.1c0.1,0,0.2-0.1,0.3-0.2c0.1-0.1,0.3-0.2,0.5-0.4c0.5-0.3,0.9,0.1,1.1,0.4l0.5,0.4
		L820,57C820.4,56.3,820.5,55.6,820.5,54.9L820.5,54.9z"/>
	<path fill-rule="evenodd" clip-rule="evenodd" fill="#FFFFFF" d="M812,56.9c0,0.1,0,0.2-0.1,0.3c0,0,0,0.1,0,0.1l3.1,0.2
		c0.1-0.2,0.3-0.4,0.4-0.5L812,56.9L812,56.9z"/>
	<path fill-rule="evenodd" clip-rule="evenodd" fill="#FFFFFF" d="M812.1,57.6l1,0.7c0.2,0,0.5-0.1,0.6-0.1c0.3-0.1,0.9-0.2,1-0.3
		c0,0,0,0,0,0L812.1,57.6L812.1,57.6z"/>
	<path fill-rule="evenodd" clip-rule="evenodd" fill="#FFFFFF" d="M815.5,55.4c-0.3-0.2-0.4-0.6-0.4-0.9c0-0.2-0.1-0.4-0.1-0.4
		c-0.1-0.2-0.2-0.4-0.2-0.5c0-0.2,0-0.2-0.1-0.3c0,0,0,0,0,0c-0.1,0-0.2,0.3-0.3,0.5l-0.1,0.6l-0.2,0c-0.4-0.1-0.7,0-0.7,0.1
		c-0.1,0.4-0.8,0.4-1.6,0.4h0c-0.1,0-0.3,0-0.4-0.1c0,0.1,0,0.1,0,0.2c0,0.2,0,0.6,0.1,0.8l0.9-0.5c0.8-0.4,1.5-0.3,1.9,0.3
		c0,0,0.2,0.3,0.2,0.3l-0.4,0c-0.2,0-0.4,0-0.5,0c-0.1,0.2-0.7,0.6-0.8,0.7l0,0l2.7,0.1C815.5,56.4,815.5,55.9,815.5,55.4
		L815.5,55.4z"/>
	<polygon fill-rule="evenodd" clip-rule="evenodd" fill="#FFFFFF" points="820.1,57.5 820.1,57.5 820.4,57.7 820.5,57.5 820.1,57.5 
			"/>
	<polygon fill-rule="evenodd" clip-rule="evenodd" fill="#FFFFFF" points="820.8,56.6 820.3,57.2 822,57.1 820.8,56.6 	"/>
	<path fill-rule="evenodd" clip-rule="evenodd" fill="#FFFFFF" d="M803.3,50.9l-0.3-0.4c-0.5,1.2-1.7,4.1-1.7,4.6
		c0,0.5,0.3,0.9,0.4,1.1c0.2-0.1,0.3-0.2,0.5-0.3c-0.2-0.2-0.4-0.7-0.4-1.2C801.9,54.2,803.3,50.9,803.3,50.9L803.3,50.9z"/>
	<path fill-rule="evenodd" clip-rule="evenodd" fill="#FFFFFF" d="M819.7,50.5h-11.5l0.4,0.4h10.8l0,0.1c0.1,0.3,1.4,3.2,1.4,3.9
		l0,0c0.1,0.5,0,1.1-0.3,1.6l0.2-0.2l0.3,0.1c0.1-0.3,0.3-1,0.3-1.5C821.4,54.4,819.7,50.5,819.7,50.5L819.7,50.5z"/>
	<polygon fill-rule="evenodd" clip-rule="evenodd" fill="#FFFFFF" points="807.7,53.6 807.6,53.7 807.2,53.7 808.3,54.9 809.1,54.9 
		807.7,53.6 	"/>
	<polygon fill-rule="evenodd" clip-rule="evenodd" fill="#FFFFFF" points="809.2,54.5 808,53.3 807.8,53.4 809.2,54.6 809.2,54.5 	
		"/>
	<polygon fill-rule="evenodd" clip-rule="evenodd" fill="#FFFFFF" points="809.3,55.2 808.5,55.2 808.8,55.6 809.9,55.7 809.3,55.2 
			"/>
	<path fill-rule="evenodd" clip-rule="evenodd" fill="#FFFFFF" d="M808.8,55.9l-0.1,0.2l0.6,0.5c0.2-0.1,0.3-0.1,0.4-0.1
		c0.1,0,0.3-0.2,0.5-0.4C810,56,809.1,55.9,808.8,55.9L808.8,55.9z"/>
	<path fill-rule="evenodd" clip-rule="evenodd" fill="#FFFFFF" d="M810,54.2c-0.3-0.4-0.5-1-0.6-1.5c-0.4,0.2-0.8,0.3-1.2,0.5
		l1.2,1.2l0.1,0.6l0.7,0.7L810,54.2L810,54.2z"/>
	<path fill-rule="evenodd" clip-rule="evenodd" fill="#FFFFFF" d="M809.3,51.3h-5.8c-0.5,1.2-1.3,3.1-1.3,3.5c0,0.4,0.3,0.8,0.4,1
		c1.1-0.7,6-3.2,6.7-3.5C809.3,51.9,809.3,51.5,809.3,51.3L809.3,51.3z"/>
	<path fill-rule="evenodd" clip-rule="evenodd" fill="#FFFFFF" d="M806.9,53.8c-0.2,0.1-0.4,0.2-0.6,0.3l0.9,0.7l0.7,0.1L806.9,53.8
		L806.9,53.8z"/>
	<path fill-rule="evenodd" clip-rule="evenodd" fill="#FFFFFF" d="M808.1,55.2l-1.6-0.2l0,0.2c0.3,0.1,1.3,0.2,1.8,0.3L808.1,55.2
		L808.1,55.2z"/>
	<polygon fill-rule="evenodd" clip-rule="evenodd" fill="#FFFFFF" points="806.5,55.5 806.4,55.8 808.4,56 808.5,55.8 806.5,55.5 	
		"/>
	<polygon fill-rule="evenodd" clip-rule="evenodd" fill="#FFFFFF" points="808.4,56.3 806.8,56.1 806.8,56.4 808.6,56.5 808.4,56.3 
			"/>
	<path fill-rule="evenodd" clip-rule="evenodd" fill="#FFFFFF" d="M811.7,57.6c-0.2,0.2-0.5,0.3-0.8,0.3l1,0.8
		c0.2-0.2,0.4-0.3,0.5-0.4c0.1,0,0.2,0,0.4-0.1L811.7,57.6L811.7,57.6z"/>
	<path fill-rule="evenodd" clip-rule="evenodd" fill="#FFFFFF" d="M815.1,60.7l0.5-0.5l-0.6-0.4c-0.2,0.2-0.3,0.3-0.4,0.5
		c-0.1,0.2-0.3,0.3-0.5,0.3l1.1,0.9c0.2-0.2,0.5-0.3,0.7-0.5L815.1,60.7L815.1,60.7z"/>
	<path fill-rule="evenodd" clip-rule="evenodd" fill="#FFFFFF" d="M818.6,57.2c-0.1,0-0.2,0.1-0.3,0.1c-0.1,0.1-0.5,0.3-0.7,0.5
		l1.7,0.1l0.4-0.6l0.1,0.1c0,0,0-0.1,0.1-0.1L818.6,57.2L818.6,57.2z"/>
	<polygon fill-rule="evenodd" clip-rule="evenodd" fill="#FFFFFF" points="819.7,57.6 819.3,58.2 820.9,58.2 819.7,57.6 	"/>
	<path fill-rule="evenodd" clip-rule="evenodd" fill="#FFFFFF" d="M813.8,60.7c0,0-0.3,0-0.3,0c-0.1,0-0.4,0.3-0.5,0.5
		c0.1-0.3,0-0.7-0.1-0.7c0,0,0,0,0,0c-0.1-0.1-0.1-0.4-0.1-0.6l-0.3-0.2l0,0c-0.2,0-0.3-0.1-0.4-0.1c-0.1,0-0.2,0.1-0.3,0.3
		l-0.2,0.4l-0.1-0.4c-0.1-0.4,0-0.7,0.1-0.9l-1-0.9c-0.3,0.3-0.7,0.4-0.9,0.4c-0.2,0.5-0.8,0.6-1.1,0.6l0,0c-0.1,0-0.4,0.3-0.4,0.4
		c0,0-0.3-0.7-0.3-1.2c0,0,0,0,0,0c-0.2,0.1-0.5,0.2-0.6,0.3l-0.2,0.2l-0.1-0.3c0-0.1-0.2-0.9,0-1.3c0,0,0,0,0,0l-1.2-0.1l0.6-0.7
		l0-0.4l-0.4,0l0.2-0.8l-0.1-0.6l0.5,0l-0.6-0.5c-2.1,1.1-4.1,2.3-4.9,2.8c0.9,0.3,3.1,1.3,4.4,3.6c0.4,0.2,3.3,1.5,4.6,3.9
		c0.6-0.3,2.6-1.3,4.8-2.8L813.8,60.7L813.8,60.7z"/>
	<polygon fill-rule="evenodd" clip-rule="evenodd" fill="#FFFFFF" points="816.3,59.9 815.5,60.6 817,61.2 816.3,59.9 	"/>
	<path fill-rule="evenodd" clip-rule="evenodd" fill="#FFFFFF" d="M819.3,58.5c-0.6,0.7-1.3,1.4-2.3,2.2l0.3,0.5
		c1.6-1.4,2.3-2.5,2.5-2.7H819.3L819.3,58.5z"/>
	<path fill-rule="evenodd" clip-rule="evenodd" fill="#FFFFFF" d="M829.6,50.9c-0.2-0.3-0.8-1.2-1.5-2.1c-0.2-0.4-1.1-0.3-0.6,0.5
		c0.5,0.6,1.1,1.3,1.6,1.8c0.4,0.4,0.6,0.5,0.7,0.6C829.9,51.6,829.8,51.4,829.6,50.9L829.6,50.9z"/>
	<path fill-rule="evenodd" clip-rule="evenodd" fill="#FFFFFF" d="M828.9,51.3c-0.4-0.3-0.7-0.7-1.1-1.1c-0.4-0.5-1.6-1.8-1.8-2
		c-0.2-0.2,0.1,0.3,0,0.6c-0.1,0.3-0.3,0.5-0.3,0.5s1.8,1.7,2,2c-0.1-0.2-0.1-0.4-0.2-0.6c0.6,1.1,1.1,1.2,1.3,1.2
		c0.2,0,0.3-0.1,0.4-0.2C829.1,51.5,829,51.4,828.9,51.3L828.9,51.3z"/>
	<polygon fill-rule="evenodd" clip-rule="evenodd" fill="#FFFFFF" points="808.9,22.7 809.5,19.7 811.6,19 808.9,22.7 	"/>
	<polygon fill-rule="evenodd" clip-rule="evenodd" fill="#FFFFFF" points="810.2,17 811.5,18.7 807.2,17.3 810.2,17 	"/>
	<polygon fill-rule="evenodd" clip-rule="evenodd" fill="#FFFFFF" points="811.9,19 814,19.7 814.6,22.7 811.9,19 	"/>
	<polygon fill-rule="evenodd" clip-rule="evenodd" fill="#FFFFFF" points="812,18.7 813.3,17 816.3,17.3 812,18.7 	"/>
	<polygon fill-rule="evenodd" clip-rule="evenodd" fill="#FFFFFF" points="811.8,18.5 810.5,16.8 811.8,14 811.8,18.5 	"/>
	<path fill-rule="evenodd" clip-rule="evenodd" fill="#FFFFFF" d="M810.6,35.5l0.1-0.2c0.1-0.1,0-0.1,0-0.2
		c-0.1-0.1-0.7-0.3-0.7-0.3l0.1-0.2c0-0.1,0-0.2,0-0.3c0,0,0,0,0,0c-0.1-0.2-0.3-0.4-0.5-0.5c-1.3,3.3-1.9,4.9-2.2,5.7
		c0.1,0,0.1,0,0.2,0.1c0.3,0.1,1.2-2.7,1.3-2.8c0.1-0.1,0.1-0.3,0.2-0.6s0.3-0.1,0.6-0.1c0.2,0,1.2-0.1,1.5-0.1
		C811.3,35.7,810.6,35.5,810.6,35.5L810.6,35.5z"/>
	<path fill-rule="evenodd" clip-rule="evenodd" fill="#FFFFFF" d="M812.3,32.3c-0.3-0.7-0.5-1.1-0.6-1.1c0,0,0,0,0,0
		c-0.1,0-0.3,0.4-0.6,1.1c0,0-0.5,1.3-0.7,1.9c0,0.1,0.1,0.2,0,0.4c0.7,0.1,0.6,0.6,0.6,0.7c0.3,0.1,0.5,0.3,0.6,0.6
		c0.8,0.1,0.9,0.8,0.9,0.8c0.2,0.1,0.5,0.3,0.6,0.7c0.1,0.2,0.4,0.5,0.6,0.8c0.1,0,0.1,0,0.2-0.1c0.2-0.1,0.3-0.3,0.3-0.6
		c0-0.1,0-0.1,0-0.1C813.8,36.2,812.6,33.1,812.3,32.3L812.3,32.3z"/>
	<path fill-rule="evenodd" clip-rule="evenodd" fill="#FFFFFF" d="M820,25c-0.1-0.2-0.5-0.6-0.8-0.7h-1.1c0.4,0.1,1.2,0.5,1.4,0.8
		C819.7,25.4,820.1,25.3,820,25L820,25z"/>
	<path fill-rule="evenodd" clip-rule="evenodd" fill="#FFFFFF" d="M806.1,25.4c0,0.5-0.2,0.9-0.4,1.2c-0.2,0.2-0.5,0.3-0.8,0.3
		c-0.3,0-0.6-0.1-0.8-0.3c-0.2-0.2-0.4-0.6-0.4-0.9c0-0.9,1-1.3,1.6-1.4h-1.2c-0.4,0.2-1,0.7-1,1.6c0,0.5,0.1,0.9,0.4,1.2
		c0.3,0.3,0.7,0.4,1.1,0.4c0.2,0,0.4,0,0.6-0.1C805.3,27.4,806.5,27.1,806.1,25.4L806.1,25.4z"/>
	<path fill-rule="evenodd" clip-rule="evenodd" fill="#FFFFFF" d="M814.7,23.1c-1.3,1.6-2.1,1.7-3,1.7c-0.8,0-1.6-0.1-3-1.7h-5.2
		l0.6,0.5h4.5c0,0,1,1.6,3,1.6c2,0,3-1.6,3-1.6h4.5l0.6-0.5H814.7L814.7,23.1z"/>
	<path fill-rule="evenodd" clip-rule="evenodd" fill="#FFFFFF" d="M818.2,26.8c-0.2,0-0.3-0.1-0.5-0.3c-0.2-0.2-0.4-0.6-0.4-1.1
		c-0.2,0.3-0.3,1-0.3,1c0.3,0.7,0.9,0.9,1.4,1L818.2,26.8L818.2,26.8z"/>
	<path fill-rule="evenodd" clip-rule="evenodd" fill="#FFFFFF" d="M817,51.8c-0.1-0.2-0.6-0.4-1-0.5c-0.5,0-0.9,0-1.4,0
		c0,0.8,0.2,1.6,0.3,1.7c0.2,0.2,0.2,0.4,0.2,0.6c0,0.1,0,0.2,0.1,0.3c0.1,0.1,0.2,0.4,0.2,0.6c0.1,0.3,0.1,0.6,0.3,0.7
		c0.4,0.2,0.6,0.3,1,0c0-0.1-0.1-0.3-0.1-0.4c0-0.2,0.1-0.2,0.1-0.2s-0.3-0.1-0.6-0.3c-0.3-0.2-0.3-0.2-0.1-0.4
		c0.2-0.2,0.6,0.1,0.6,0.1c-0.3-0.5-1-1-1.3-1.1c-0.3-0.1-0.1-0.3,0.2-0.3c0.3,0,0.7,0.2,0.7,0.2s-0.1-0.2-0.1-0.5
		c0-0.3,0.5-0.1,0.7,0C817.3,52.3,817.3,52.2,817,51.8L817,51.8z"/>
	<path fill-rule="evenodd" clip-rule="evenodd" fill="#FFFFFF" d="M812.6,55.6C812.6,55.6,812.6,55.7,812.6,55.6c0,0.1,0,0.2,0,0.2
		c0,0-0.1,0-0.1-0.1c0,0,0,0,0,0l-0.1,0c0,0,0.1,0.1,0.1,0.1c0,0,0,0.1-0.1,0.1c0,0-0.1,0-0.1-0.1c0,0,0-0.1-0.1-0.1l-0.5,0.2
		c0.1,0.1,0.2,0.3,0.3,0.5l0.7-0.2c0.3-0.2,0.7-0.5,0.7-0.6c0.1-0.1,0.2-0.2,0.4-0.2C813.4,55.3,813,55.4,812.6,55.6L812.6,55.6z"/>
	<path fill-rule="evenodd" clip-rule="evenodd" fill="#FFFFFF" d="M811.8,54.3c0.2-0.2,0.2-0.3,0-0.5c-0.2-0.2-0.8-0.7-0.6-0.7
		c0.2,0-0.4-0.7,0.2-0.7s0.2-0.2,0.2-0.2s-1.2-0.4-1.6-0.9h-0.3c0,0.5,0,2.1,0.6,2.7l0,0l0.2,2l0,0l0,0l0,0l0,0
		c-0.2,0.2-0.5,0.6-0.7,0.7c0,0,0,0.1,0,0.1c0,0,0,0.1-0.1,0.1s-0.1,0-0.1-0.1c0,0,0-0.1,0-0.1c-0.1,0-0.3,0.1-0.5,0.1
		c-0.1,0-0.2,0.1-0.3,0.1c0,0,0,0.1,0,0.2c0,0,0,0.1-0.1,0.1s-0.1,0-0.1-0.1c0,0,0-0.1,0-0.1c-0.1,0-0.1,0-0.2,0.1
		c0,0,0.1,0.1,0.1,0.1c0,0,0,0.1-0.1,0.1c0,0-0.1,0-0.1-0.1c0,0-0.1-0.1-0.2-0.1c0,0,0,0,0,0c0,0,0,0,0,0c0,0-0.1,0-0.1,0
		c-0.2,0-0.5,0-0.7,0.3c-0.1,0.2-0.1,0.5,0,0.8c0.2-0.1,0.5-0.3,0.8-0.3c0.2-0.3,0.6-0.3,0.7-0.4c0.1,0,0.4-0.2,0.7-0.2
		c0.1,0,0.4-0.2,0.6-0.5c-0.1,0.2-0.3,0.7-0.5,0.8c0,0,0,0,0,0c0,0,0,0.1-0.1,0.1c0,0-0.1,0-0.1-0.1c-0.1,0-0.2,0.1-0.4,0.1
		c0,0,0,0.1,0,0.1c0,0,0,0.1-0.1,0.1S809,58,809,58c0,0,0,0,0,0c0,0-0.1,0-0.1,0c0,0,0,0.1,0,0.1c0,0,0,0.1-0.1,0.1
		c0,0-0.1,0-0.1-0.1c0,0,0,0,0,0c-0.2,0.1-0.4,0.2-0.4,0.4c0,0.2,0,0.3,0,0.5c0.1-0.1,0.1-0.1,0.2-0.1l0,0c0.3,0,0.8-0.2,0.8-0.5
		c0,0,0-0.1,0-0.1l0.1,0c0,0,0.7-0.1,0.9-0.5c0,0,0.1-0.1,0.1-0.1l0.1,0c0,0,0.7,0.1,0.9-0.5c0.2-0.5,0-0.7-0.2-0.8
		c0,0-0.1-0.1-0.1-0.1c-0.2-0.3-0.3-1-0.3-1.1c0-0.2,0-0.4-0.1-0.4l0,0c-0.1-0.1-0.1-0.3-0.1-0.3c0,0,0.5,0.3,1,0.3h0
		C812.4,54.5,811.6,54.5,811.8,54.3L811.8,54.3z"/>
	<path fill-rule="evenodd" clip-rule="evenodd" fill="#FFFFFF" d="M818.9,56.6L818.9,56.6c0,0-0.4-0.5-0.7-0.3
		c-0.1,0.1-0.2,0.1-0.3,0.2c0,0.1,0.1,0.1,0.1,0.2c0,0,0,0.1-0.1,0.1s-0.1,0-0.1-0.1c0,0,0-0.1,0-0.1c0,0,0,0,0,0
		c-0.2,0.2-0.3,0.3-0.5,0.3c-0.2,0-0.5,0-0.7-0.2c-0.1-0.1-0.1-0.2-0.1-0.3c0-0.2,0-0.5,0-0.8c-0.2,0-0.4,0-0.6-0.1
		c0,0.5,0,1.3-0.2,1.6c-0.1,0.1-0.1,0.2-0.2,0.3c-0.2,0.2-0.3,0.5-0.5,0.6c-0.2,0.1-0.6,0.3-1,0.4c0,0-0.1,0-0.1,0c0,0,0,0.1,0,0.1
		c0,0,0,0.1-0.1,0.1s-0.1,0-0.1-0.1c0,0,0-0.1,0-0.1c0,0-0.1,0-0.1,0c0,0,0,0.1,0,0.1c0,0,0,0.1-0.1,0.1c0,0-0.1,0-0.1-0.1
		c0,0,0-0.1,0-0.1c0,0,0,0-0.1,0c0,0,0,0.1,0,0.2c0,0,0,0.1-0.1,0.1s-0.1,0-0.1-0.1c0-0.1,0-0.1-0.1-0.1c0,0,0,0,0,0
		c-0.2,0-0.5,0.1-0.6,0.1c-0.1,0-0.4,0.2-0.5,0.6c0.1-0.1,0.3-0.2,0.4-0.1c0.2,0.1,0.7,0.2,0.8,0c0.1-0.3,0.5-0.3,0.8-0.3
		c0.1,0,0.3,0,0.3-0.1c0.2-0.2,1.2-0.6,1.2-0.6c0,0-0.8,0.7-1,0.9c0,0,0,0-0.1,0c0,0,0,0.1,0,0.1c0,0,0,0.1-0.1,0.1
		c0,0-0.1,0-0.1-0.1c0,0,0,0,0-0.1c0,0-0.1,0-0.1,0c0,0,0,0.1,0,0.1c0,0,0,0.1-0.1,0.1s-0.1,0-0.1-0.1c0,0,0-0.1-0.1-0.1
		c0,0,0,0,0,0c-0.2,0-0.4,0-0.5,0.2c-0.1,0.1-0.1,0.2-0.2,0.2c-0.1,0.3-0.1,0.5,0,0.6c0,0,0,0,0,0c0,0,0.1,0.1,0.1,0.2
		c0.1,0,0.1-0.1,0.2-0.1c0.3,0,0.7-0.1,0.8-0.3c0.2-0.3,0.8-0.8,0.9-0.9c0.1-0.1,1.7-1.4,2-1.7c0.3-0.2,0.9-0.6,0.9-0.6l0,0l0,0
		c0.2-0.1,0.6-0.2,0.9-0.2L818.9,56.6L818.9,56.6z"/>
	<path fill-rule="evenodd" clip-rule="evenodd" fill="#FFFFFF" d="M816.3,61.2c-0.2,0.2-0.4,0.3-0.6,0.4v0.9c0.5-0.4,1-0.7,1.4-1.1
		L816.3,61.2L816.3,61.2z"/>
	<path fill-rule="evenodd" clip-rule="evenodd" fill="#FFFFFF" d="M808.3,62.7v0.7c0.8,0.7,1.3,1.5,1.7,2v-0.6
		C809.6,64,809,63.3,808.3,62.7L808.3,62.7z"/>
	<path fill-rule="evenodd" clip-rule="evenodd" fill="#FFFFFF" d="M803,58.2v0.6c1.3,0.8,2,1.7,2.4,2.4v-0.4
		C804.7,59.6,803.8,58.8,803,58.2L803,58.2z"/>
	<path fill-rule="evenodd" clip-rule="evenodd" fill="#FFFFFF" d="M832.2,53.9c-0.3-0.3-0.8-0.5-1.4-0.5c-0.7,0-1.3,0.2-1.6,0.6
		c-0.1,0.1-0.1,0.2-0.2,0.3l0.2,0.6c0.2-0.6,0.9-0.9,1.5-0.9c0.4,0,0.8,0.2,1.1,0.5c0.3,0.3,0.4,0.6,0.4,1c0,0.4-0.1,0.7-0.3,0.9
		l0.3,0.4c0.5-0.4,0.5-1,0.5-1.2C832.8,54.9,832.6,54.3,832.2,53.9L832.2,53.9z"/>
	<path fill-rule="evenodd" clip-rule="evenodd" fill="#FFFFFF" d="M828.7,56.1c-1.4-0.7-2.5-2-3.2-3.8c-0.4-1.1-2.5-6.1-2.5-6.2
		c0,0.3,0,0.6-0.2,0.8c0.7,1.7,1.9,4.6,2.3,5.7c0.6,1.3,1.8,3.1,3.2,3.8c0,0,0,0,0,0l0,0c0,0,0.3,0.1,0.6,0.3L828.7,56.1L828.7,56.1
		z"/>
	<path fill-rule="evenodd" clip-rule="evenodd" fill="#FFFFFF" d="M830.8,60.1h5.4l-5.6-3.3c0,0.2,0.1,0.8,0.6,1.1
		c0.9,0.5,2.8,1.7,2.8,1.7l-3.2,0V60.1L830.8,60.1z"/>
	<path fill-rule="evenodd" clip-rule="evenodd" fill="#FFFFFF" d="M827.9,59.5c0-0.1-0.7-1.3-2.5-1.3l0.1,0.6c1.4,0,2.2,1,2.4,1.3
		L827.9,59.5L827.9,59.5L827.9,59.5z"/>
	<polygon fill-rule="evenodd" clip-rule="evenodd" fill="#FFFFFF" points="822.8,59.6 821.3,59.6 821.3,60.1 823,60.1 822.8,59.6 	
		"/>
	<path fill-rule="evenodd" clip-rule="evenodd" fill="#FFFFFF" d="M825.4,49.3c-0.2-0.2-0.5-0.4-0.6-0.6c-0.1-0.2-0.3-0.2-0.2,0.1
		c0.1,0.3,0.3,0.6,0.6,0.9c0.2,0.2,0.4,0.4,0.4,0.4S825.6,49.5,825.4,49.3L825.4,49.3z"/>
	<path fill-rule="evenodd" clip-rule="evenodd" fill="#FFFFFF" d="M823.8,44.1c-0.1-0.3-0.3-0.6-0.4-0.8c-0.1-0.2-0.4,0-0.4,0
		s-0.3,0.3-0.2,0.5c0.2,0.2,0.5,0.4,0.5,0.4c0.2,0.3,0.3,0.4,0.5,0.4S823.9,44.4,823.8,44.1L823.8,44.1z"/>
	<path fill-rule="evenodd" clip-rule="evenodd" fill="#FFFFFF" d="M823.3,45.3c-0.1-0.4-0.5-1-0.9-1.2c-0.3-0.3-0.3,0.5-0.2,0.6
		c0.1,0.2,0.5,0.6,0.7,0.9C823.2,45.9,823.4,45.8,823.3,45.3L823.3,45.3z"/>
	<path fill-rule="evenodd" clip-rule="evenodd" fill="#FFFFFF" d="M822.5,46.2c-0.1-0.3-0.5-0.9-0.7-1.3c-0.3-0.5-0.5,0.1-0.4,0.4
		c0,0.3,0.5,0.7,0.8,1C822.4,46.7,822.6,46.5,822.5,46.2L822.5,46.2z"/>
	<path fill-rule="evenodd" clip-rule="evenodd" fill="#FFFFFF" d="M821.4,46.6c0-0.3-0.3-1-0.6-1.2c-0.2-0.1-0.3,0.1-0.2,0.3
		c0.1,0.2,0.3,0.6,0.3,0.8c0,0.3,0,0.5,0,0.8c0,0.3,0.4,0.3,0.4,0C821.4,47.1,821.4,46.9,821.4,46.6L821.4,46.6z"/>
	<path fill-rule="evenodd" clip-rule="evenodd" fill="#FFFFFF" d="M820.4,46.9c0-0.5-0.3-0.9-0.3-0.9c-0.3-0.2-0.3,0.2-0.3,0.4
		c0,0.2,0.1,0.8,0.2,1.1c0,0.3,0.4,0.5,0.6,0.4C820.7,47.8,820.5,47.4,820.4,46.9L820.4,46.9z"/>
	<path fill-rule="evenodd" clip-rule="evenodd" fill="#FFFFFF" d="M819.3,46.6c-0.4-0.3-0.6,0.2-0.6,0.5c0,0.3,0,0.8,0.2,1.1
		c0.2,0.3,0.6-0.1,0.6-0.4C819.5,47.6,819.6,46.8,819.3,46.6L819.3,46.6z"/>
	<path fill-rule="evenodd" clip-rule="evenodd" fill="#FFFFFF" d="M818.2,47.1c0-0.2-0.3-0.3-0.3,0c0,0,0.1,0.9-0.3,0.4
		c0,0-0.1,0.7,0.1,1c0.2,0.3,0.5,0.5,0.6,0C818.3,48,818.2,47.3,818.2,47.1L818.2,47.1z"/>
	<path fill-rule="evenodd" clip-rule="evenodd" fill="#FFFFFF" d="M817,47.7c-0.2,0.5-0.7-0.2-0.7-0.2c0,0.9,0.3,1.4,0.5,1.2
		C817.1,48.5,817,47.7,817,47.7L817,47.7z"/>
	<path fill-rule="evenodd" clip-rule="evenodd" fill="#FFFFFF" d="M815.5,48.9c0.4-0.2,0.5-1,0.5-1
		C815.8,48.1,815.1,49.1,815.5,48.9L815.5,48.9z"/>
	<path fill-rule="evenodd" clip-rule="evenodd" fill="#FFFFFF" d="M814.3,48.9c0.6-0.3,0.9-1.8,0.9-1.8
		C814.8,47.3,813.8,49.1,814.3,48.9L814.3,48.9z"/>
	<path fill-rule="evenodd" clip-rule="evenodd" fill="#FFFFFF" d="M814.6,46c0,0,0.2,0.8,0.4,0.8C815.2,46.8,814.9,46.4,814.6,46
		L814.6,46z"/>
	<path fill-rule="evenodd" clip-rule="evenodd" fill="#FFFFFF" d="M815.6,45.6c0,0,0.1,1.1,0.4,0.9C816.3,46.5,815.8,46,815.6,45.6
		L815.6,45.6z"/>
	<path fill-rule="evenodd" clip-rule="evenodd" fill="#FFFFFF" d="M816.5,45.5c0,0-0.1,0.9,0.3,1C817.2,46.6,816.6,45.7,816.5,45.5
		L816.5,45.5z"/>
	<path fill-rule="evenodd" clip-rule="evenodd" fill="#FFFFFF" d="M817.7,45.6c0-0.3-0.3-0.8-0.4-0.6c0,0,0,0.9,0.3,1.2
		C818.1,46.5,817.8,45.9,817.7,45.6L817.7,45.6z"/>
	<path fill-rule="evenodd" clip-rule="evenodd" fill="#FFFFFF" d="M818.7,45.5c-0.2-0.3-0.2-0.7-0.2-0.9c0-0.2-0.2-0.5-0.3-0.2
		c0,0-0.2,1.1,0.2,1.4C818.8,46.2,818.8,45.8,818.7,45.5L818.7,45.5z"/>
	<path fill-rule="evenodd" clip-rule="evenodd" fill="#FFFFFF" d="M819.6,45.4c-0.1-0.3-0.4-0.5-0.4-0.8c0-0.3-0.3-0.5-0.3-0.1
		c0,0.3,0.1,1,0.3,1.2C819.5,45.9,819.7,45.7,819.6,45.4L819.6,45.4z"/>
	<path fill-rule="evenodd" clip-rule="evenodd" fill="#FFFFFF" d="M820.4,44.7c-0.2-0.3-0.5-0.6-0.5-0.9c0-0.3-0.3-0.3-0.3,0
		c0,0.3,0.3,1,0.6,1.2C820.5,45.3,820.6,44.9,820.4,44.7L820.4,44.7z"/>
	<path fill-rule="evenodd" clip-rule="evenodd" fill="#FFFFFF" d="M821.1,43.9c-0.2-0.3-0.5-0.8-0.6-1.1c0-0.3-0.3-0.3-0.3,0
		c0,0.5,0.3,1.3,0.9,1.6C821.6,44.7,821.3,44.2,821.1,43.9L821.1,43.9z"/>
	<path fill-rule="evenodd" clip-rule="evenodd" fill="#FFFFFF" d="M822,43.4c-0.2-0.2-0.6-0.7-0.6-0.9c-0.1-0.2-0.4-0.1-0.4,0.1
		c0,0,0.4,0.9,0.9,1.2C822.3,44.1,822.2,43.6,822,43.4L822,43.4z"/>
	<path fill-rule="evenodd" clip-rule="evenodd" fill="#FFFFFF" d="M822.6,42.3c-0.2-0.1-0.8,0-0.8,0s0.5,0.6,0.8,0.7
		C823,43.1,822.8,42.4,822.6,42.3L822.6,42.3z"/>
	<path fill-rule="evenodd" clip-rule="evenodd" fill="#FFFFFF" d="M823.4,41.7c-0.2-0.2-0.3-0.8-0.7-0.7c0,0,0.6,0.7,0,0.7
		c0,0,0.4,0.2,0.6,0.4C823.5,42.3,823.6,41.9,823.4,41.7L823.4,41.7z"/>
	<path fill-rule="evenodd" clip-rule="evenodd" fill="#FFFFFF" d="M824,40.8c-0.3-0.1-1-0.8-1.1-0.9c-0.1-0.2-0.4-0.3-0.3,0
		c0,0,0.9,1.2,1.2,1.4C824.1,41.4,824.3,40.9,824,40.8L824,40.8z"/>
	<path fill-rule="evenodd" clip-rule="evenodd" fill="#FFFFFF" d="M824.6,39.9c-0.3-0.3-1.1-0.9-1.2-1.2c-0.1-0.2-0.3-0.1-0.3,0.1
		c0,0,0.9,0.9,0.6,1.2c0,0,0.5,0.3,0.7,0.4C824.7,40.5,824.8,40.2,824.6,39.9L824.6,39.9z"/>
	<path fill-rule="evenodd" clip-rule="evenodd" fill="#FFFFFF" d="M824.4,38.2c-0.2-0.2-0.6-0.1-0.3,0.2c0.2,0.2,1.4,1,1,1
		c-0.4,0-0.4,0-0.4,0s0.6,0.7,0.9,0.3C825.7,39.4,824.6,38.3,824.4,38.2L824.4,38.2z"/>
	<path fill-rule="evenodd" clip-rule="evenodd" fill="#FFFFFF" d="M825.9,38.4c-0.2-0.4-1.2-1.2-1.9-0.9c0,0,1.5,0.4,1.6,1.2
		C825.8,39.5,826,38.8,825.9,38.4L825.9,38.4z"/>
	<path fill-rule="evenodd" clip-rule="evenodd" fill="#FFFFFF" d="M826.2,38.2c0,0,0.8,0.8,0.9,0.5
		C827.2,38.4,826.6,38.4,826.2,38.2L826.2,38.2z"/>
	<path fill-rule="evenodd" clip-rule="evenodd" fill="#FFFFFF" d="M826.9,37.8c0,0,1.2,0.7,0.7,1C827.6,38.8,828.7,38.5,826.9,37.8
		L826.9,37.8z"/>
	<path fill-rule="evenodd" clip-rule="evenodd" fill="#FFFFFF" d="M828.2,36.9c-0.3-0.4,0.6-0.1,0.6-0.1c-0.2-0.6-1.4-0.9-1.4-0.9
		l0.5,0.6c0,0-0.1,0.3,0.1,0.6c0.2,0.3,0.8,0.6,0.9,1c0.1,0.3-0.6,0.1-0.6,0.1s0.9,0.8,1.2,0.5C829.7,38.4,828.5,37.3,828.2,36.9
		L828.2,36.9z"/>
	<path fill-rule="evenodd" clip-rule="evenodd" fill="#FFFFFF" d="M830.2,37.3c0,0,1.2,1.2,0.3,1c0,0,1,0.9,1.2,0.6
		C832,38.6,830.4,37.5,830.2,37.3L830.2,37.3z"/>
	<path fill-rule="evenodd" clip-rule="evenodd" fill="#FFFFFF" d="M831.1,37.3c0,0,1.1,1.4,1.7,1.4
		C833.3,38.7,831.7,37.8,831.1,37.3L831.1,37.3z"/>
	<path fill-rule="evenodd" clip-rule="evenodd" fill="#FFFFFF" d="M834.8,38.9c-0.3-0.3-1.3-1.4-1.3-1.4s0.6,1.5-0.3,0.3
		c-0.9-1.1-1.8-1.9-1.6-1.3c0,0,2.1,2.5,2.7,2.6S835.1,39.2,834.8,38.9L834.8,38.9z"/>
	<path fill-rule="evenodd" clip-rule="evenodd" fill="#FFFFFF" d="M826.2,36.4c0,0,0,0.8,1.2,0.9C828.5,37.4,826.2,36.4,826.2,36.4
		L826.2,36.4z"/>
	<path fill-rule="evenodd" clip-rule="evenodd" fill="#FFFFFF" d="M821.2,40.7c-0.3,0.4,0.8,0.4,0.8,0.4S821.7,40,821.2,40.7
		L821.2,40.7z"/>
	<path fill-rule="evenodd" clip-rule="evenodd" fill="#FFFFFF" d="M819.8,41.1c-0.2,0.5,0.8,1.1,0.9,0.6
		C820.7,41.2,819.8,41.1,819.8,41.1L819.8,41.1z"/>
	<path fill-rule="evenodd" clip-rule="evenodd" fill="#FFFFFF" d="M819,41.6c-0.5,0.9,0.4,1,0.4,1C819.6,42,819,41.6,819,41.6
		L819,41.6z"/>
	<path fill-rule="evenodd" clip-rule="evenodd" fill="#FFFFFF" d="M817.9,42.5c-0.4,1.3,0.6,1,0.6,1
		C818.7,42.8,817.9,42.5,817.9,42.5L817.9,42.5z"/>
	<path fill-rule="evenodd" clip-rule="evenodd" fill="#FFFFFF" d="M821.1,39.5c0,0,0.3,0.7,0.8,0.6
		C822.4,40.1,821.1,39.5,821.1,39.5L821.1,39.5z"/>
	<path fill-rule="evenodd" clip-rule="evenodd" fill="#FFFFFF" d="M816.8,43.2c0,0-0.2,0.9,0.2,0.8
		C817.3,43.9,816.8,43.2,816.8,43.2L816.8,43.2z"/>
	<path fill-rule="evenodd" clip-rule="evenodd" fill="#FFFFFF" d="M813,41v0.6c0.6,0.9-0.6,0.1-0.6,0.1c0.8,0.7,0.3,1.2,0.3,1.2
		c0.8,0.2,0.9-0.3,1-0.9C813.8,41.6,813,41,813,41L813,41z"/>
	<path fill-rule="evenodd" clip-rule="evenodd" fill="#FFFFFF" d="M812,36.4c-0.1-0.4-1.2,0-1.2,0C811.4,36.6,812.1,36.8,812,36.4
		L812,36.4z"/>
	<path fill-rule="evenodd" clip-rule="evenodd" fill="#FFFFFF" d="M812.3,37.2c-0.3-0.3-0.9,0-0.9,0
		C812.1,37.3,812.6,37.5,812.3,37.2L812.3,37.2z"/>
	<path fill-rule="evenodd" clip-rule="evenodd" fill="#FFFFFF" d="M813.2,38.3c-0.2-0.6-1.4-0.5-1.4-0.5c-0.5,0.2,0.3,0.3,0.7,0.5
		C813,38.4,813.3,38.8,813.2,38.3L813.2,38.3z"/>
	<path fill-rule="evenodd" clip-rule="evenodd" fill="#FFFFFF" d="M808.6,39.8c0,0-0.3,0.7-0.7,1c0,0,0.9,0.2,1.1-0.3
		C809.1,40.1,808.6,39.8,808.6,39.8L808.6,39.8z"/>
	<path fill-rule="evenodd" clip-rule="evenodd" fill="#FFFFFF" d="M809.6,44c0.7,0.2,0.8-0.3,0.8-0.3S808.9,43.8,809.6,44L809.6,44z
		"/>
	<path fill-rule="evenodd" clip-rule="evenodd" fill="#FFFFFF" d="M810.9,45.7c0,0-0.6,0.1-0.5,0.4
		C810.6,46.5,811.1,46.3,810.9,45.7L810.9,45.7z"/>
	<path fill-rule="evenodd" clip-rule="evenodd" fill="#FFFFFF" d="M808.1,47c-0.3-0.2-0.6,0.5-1,0.1c0,0,0.6,0.8,0.8,0.6
		c0.2-0.2,0-0.4,0-0.4S808.4,47.1,808.1,47L808.1,47z"/>
	<path fill-rule="evenodd" clip-rule="evenodd" fill="#FFFFFF" d="M803.6,47c-0.4-0.6-1.2-0.7-1.2-0.7c-0.4,0.2,0.2,0.6,0.4,0.9
		C803,47.4,803.8,47.3,803.6,47L803.6,47z"/>
	<path fill-rule="evenodd" clip-rule="evenodd" fill="#FFFFFF" d="M802.7,47.4c-0.3-0.1-0.3,0.3-0.3,0.3s0.2,0.1,0.2,0.2
		c0,0.1,0.3,0,0.5-0.1C803.4,47.6,803,47.5,802.7,47.4L802.7,47.4z"/>
	<path fill-rule="evenodd" clip-rule="evenodd" fill="#FFFFFF" d="M804.2,47.4c0,0,0.1,0.6,0.5,0.4
		C804.8,47.7,804.5,47.2,804.2,47.4L804.2,47.4z"/>
	<path fill-rule="evenodd" clip-rule="evenodd" fill="#FFFFFF" d="M805,47.9c0,0,0.3,0.5,0.6,0.2C805.9,47.8,805.2,47.8,805,47.9
		L805,47.9z"/>
	<path fill-rule="evenodd" clip-rule="evenodd" fill="#FFFFFF" d="M807.2,46.5c0,0,0.1,0.3,0.3,0.3
		C807.8,46.8,807.8,46.5,807.2,46.5L807.2,46.5z"/>
	<path fill-rule="evenodd" clip-rule="evenodd" fill="#FFFFFF" d="M833.9,35.4c-3.4-3.4-9.1-4.9-11.2-4.9c-1.9,0-4.1,1.5-4.1,1.5
		c0,0-0.2,0.1-0.2,0.1c0,0-2-4.7-1.9-5.5c0-0.4-0.5-0.4-0.5,0c0,1,0.1,1.2,0.3,1.7c0.1,0.1,0.9,2.2,1.7,4.1l-0.3,0.1
		c-0.8-1.9-1.6-4-1.7-4.1c-0.2-0.5-0.4-0.8-0.4-1.9c0-1.1,1.2-1.6,1.9-1.7l0.2,0.2c0,0.5,0.1,0.9,0.3,1.2c0.1,0.1,0.3,0.2,0.6,0.2
		c0.6,0,0.8-0.6,0.8-0.9c0-0.9-1.6-1.1-1.6-1.1l-0.4,0l0.6-0.6h-3.1c-0.2,0.4-1.3,1.7-3.2,1.7c-2,0-3-1.3-3.2-1.7h-3.1l0.6,0.6
		l-0.4,0c0,0-1.6,0.2-1.6,1.1c0,0.3,0.1,0.5,0.3,0.7c0.1,0.1,0.3,0.2,0.5,0.2c0.6,0,0.9-0.5,0.9-1.4L806,25c0.6,0.1,1.9,0.5,1.9,1.7
		c0,1-0.1,1.3-0.4,1.9c-0.1,0.1-4.8,11.8-4.8,11.8l-0.3-0.2c0,0,4.7-11.6,4.8-11.8c0.2-0.4,0.3-0.8,0.3-1.2c0-0.4-0.6-0.4-0.6,0
		c0,0.4-0.2,1-0.4,1.6c0,0-4.6,11.4-4.7,11.5l-0.3-0.1c0,0-2.2-1.2-2.7-1.6c-0.4-0.3-0.9-0.3-1.4,0c-0.3,0.2-0.6,0.2-0.8,0.1
		c-0.1,0.3,0.2,0.5,0.2,0.5l0,0.2c-1.1-0.3-1-1-1-1.3c0,0-0.1,0-0.1-0.1c-0.3-0.2-0.7-0.5-1-0.5c-0.1,0-0.3,0.1-0.5,0.3
		c-0.1,0.2-0.2,0.4-0.2,0.9c0.2-0.2,0.5-0.2,0.9-0.1c0.6,0.2,0.9,1.2,1.1,1.6c0.1,0.1,0.1-0.2,0.3-0.1c0.2,0.1,0.7,0.7,1.2,0.9
		l0.2-0.1v-0.8c0,0,0-0.1-0.2-0.2c0,0,0-0.9-0.3-0.8c0.4-0.1,0.6,0,0.8,0.2c0.2,0.1,0.3,0.4,0.3,0.4s0.3,0.2,0.6,0.3
		c0.3,0.2,1.2,0.8,1.4,1c0.3,0.2,0.3-0.1,0.6,0c0.3,0.1,0.8,0.1,0.8,0.1s-0.5-0.5-0.5-0.7s0.4-0.4,0.6-0.3c0.2,0.1,0.3,0.3,0.5,0.4
		s0.4,0.2,0.4,0.2s-0.2,0.3,0.2,0.3c0.4,0,1.1,0.1,1.1,0.1s0.4,0.1,0.6,0.1s0,0.2-0.2,0.2c-0.4,0-2.1-0.2-2.3-0.3
		c0,0,0.4,0.6-0.4,0.3c-0.8-0.3-0.1,0-0.1,0l0.2,0.5c0,0-0.6-0.3-1.4-0.5c-0.8-0.3-1.8-0.5-2.4-0.3c0,0,0.1,0.9,0.5,1
		c0.3,0.1,0.1-0.2,0.6,0c0.4,0.2,2.9,2.2,3.3,2.4c0.4,0.2,0.2,0.4-0.1,0.3c-0.3-0.2-0.9-0.4-0.9-0.4l0.6,0.7c0.1,0,0.1,0,0.1,0
		s0.3,0.1,0.8,0.1c0.4,0,0.2,0,0.3-0.3c0.1-0.3,0.2,0,0.5,0.2c0.3,0.2,0.3,0.3,0.6,0.3c0.3,0,0-0.3,0.1-0.4c0.1-0.1,0.3,0.1,0.4,0.1
		c0.1,0,0.6,0,1,0.1c0.5,0.1,0.6,0.4,0.4,0.4c-0.1,0-0.4,0.1-0.7,0.1c-0.3,0,0,0.3,0,0.5c0,0.2,0.6,0.4,0.6,0.4s-0.2,0.1-0.6,0
		c-0.4-0.2-0.6-0.3-1-0.5c-0.5-0.2-0.6,0.5-0.3,0.5c0.3,0,0.6,0.1,0.6,0.1s0.3,0.3,0.6,0.3c0.3,0,0.4,0.2,0.5,0.5c0,0.3,0.6,0,1,0.1
		c0.3,0.1,0.3,0,0.1-0.2c-0.2-0.2-0.3-0.3-0.1-0.3c0.1,0,0.2-0.1,0.2-0.1s0.2-0.3,0-0.3c-0.3,0-0.4-0.2-0.8-0.4
		c-0.3-0.2,0-0.2,0.2-0.2s0.3,0.1,0.5,0.2c0.2,0.1,0-0.3,0.3-0.3c0.3,0-0.2-0.3-0.6-0.3c-0.4-0.1-0.3-0.6,0-0.5
		c0.2,0.1,0.9,0.2,1.4,0.3c0.5,0.1,0.1,0.5-0.2,0.5c-0.3,0,0.3,0.3,0.6,0.4c0.3,0.1,0.4,0.2,0.4,0c0-0.3-0.3-0.7-0.3-0.9
		c0-0.3,0.2-0.1,0.5-0.1c0.3,0,0.2-0.3,0-0.3c-0.2,0-0.4-0.2-0.5-0.5c-0.1-0.3,0.2-0.5,0.2-0.9c0-0.3,0.2-0.6-0.1-0.8
		c-0.3-0.2,0.2-0.3,0.3-0.5c0.2-0.2,0.9-0.2,1.2-0.3c0.3-0.1,0.6,0.2,0.3,0.2c-0.2,0-0.6,0.3-0.9,0.3c-0.3,0.1-0.3,0.4-0.1,0.4
		c0.2,0,0.5,0,0.9-0.1c0.4-0.2,1.2-0.7,1.3-0.9c0.1-0.2,0.2-0.3-0.1-0.4c-0.3-0.2-0.3-0.3,0-0.3c0.2,0,0.5-0.2,0.9-0.2
		c0.3,0,0.6-0.7,0.9-1c0.2-0.3,0-0.5-0.2-0.5c-0.2,0-0.9,0-1.1,0s-0.4-0.1-0.2-0.3c0.2-0.1,0.9-0.2,1.6-0.3c0.7-0.1-0.3-0.3-0.7-0.2
		c-0.4,0-1.2,0-1.3,0.2c-0.1,0.2-0.3,0.3-0.6,0.2c-0.4-0.1-0.4,0.3-0.2,0.3c0.3,0,0.3,0.1,0.2,0.2c-0.1,0.1-0.3,0.2-0.6,0.3
		c-0.3,0.1-0.7-0.1-0.6,0.2c0.1,0.3,0.5,0.3,0.5,0.3c0-0.5,1.2-0.7,1.5-0.7c0.3,0,0.7,0.2,0.5,0.2c-0.2,0-0.3,0.2-0.6,0.2
		c-0.3,0,0,0.3-0.1,0.5c-0.2,0.1-1.1,0.3-1.3,0.3c-0.2,0-0.1,0.3-0.1,0.4c0,0.2-0.3,0.3-0.6,0.3c-0.3,0-0.4,0.1-0.5,0.3
		c-0.1,0.2-0.2,0.3-0.4,0.1c-0.2-0.3,0.1-0.5,0.1-0.7c0-0.3,0.4,0.1,0.6,0.1c0.2,0,0.3-0.2,0.3-0.3c0-0.1-0.7,0-1,0
		c-0.3,0-0.6,0-0.6,0s0.1-0.2,0-0.5c-0.1-0.3-0.3-0.2-0.4-0.3c0-0.1-0.1-0.1-0.1-0.2c-0.2,0-0.6,0.1-0.8,0.4c0,0-0.1,0.2-0.1,0.2
		l-0.1-0.2c0,0-0.2-0.3-0.9,0c-0.3,0.2-0.5,0.2-0.6,0.1c-0.1,0-0.1-0.1-0.1-0.1c0,0,0,0,0,0c-0.5,0.3-1.1-0.1-1.2-0.1
		c0.2,0,0.6,0,0.9-0.1c0.4-1.1,5-12.8,5.2-13.2c0.2-0.4,0.1-1.1,0.1-1.1s1,0.6,1.5,0.7c0,0-0.6,0.7-0.6,0.9
		c-0.1,0.2-4.3,11.3-4.7,12.4c0.3,0,0.5,0,0.7,0.1c0.3-0.3,0.7-0.3,0.9-0.4c0.3-0.9,3-7.8,3.4-8.9c0.3-0.9,1.1-1.2,1.5-1.2v0
		c0,0,0,0,0,0s0,0,0,0v0c0.4,0,1.1,0.3,1.5,1.2c0.2,0.6,1.2,3.2,2,5.3l-0.3,0.2c-0.8-2.1-1.9-4.7-2.1-5.4c-0.2-0.5-0.5-0.7-0.6-0.8
		c0,0-0.4,0.3-0.3,0.4c0.1,0.2,0.4,0.4,0.6,1.2c0.3,1,2,5.4,2.1,5.5c0,0-0.4,0.9-0.5,1.1c-0.1,0.2-0.2,0.5-0.3,0.5s-0.3,0.1-0.3,0.4
		c0,0.3,0,0.3-0.1,0.4c-0.1,0.1-0.2,0.3-0.3,0.6c0,0.4,0.5,0.6,0.8,0.6c0.3,0-0.1-0.2-0.1-0.4c0-0.3,0.1-0.2,0.4-0.2
		c0.3,0,0.1-0.1,0-0.4c-0.1-0.3,0.3-0.3,0.6-0.1c0.3,0.2,0.3-0.3,0-0.5c-0.2-0.3-0.1-0.3,0.1-0.3s0.6-0.2,0.6-0.2
		c-0.2-1,0.6-0.8,0.6-0.8c-0.7-0.5-0.4-0.7-0.2-0.7c0.2,0,0.3-0.2,0.3-0.2c-0.3-0.3,0.1-0.5,0.3-0.4c0.2,0,0.5,0.1,0.4-0.1
		c-0.1-0.2,0-0.6,0.1-0.6c0.1,0,0.3-0.2,0-0.5c-0.3-0.3,0.3-0.3,0.6-0.3s0.4-0.8,0.4-0.8c-0.2-0.4,0.4-0.4,0.4-0.4s1.1-1.3,2.5-2
		c1.4-0.7,3.8-0.7,4.9-0.2c1.2,0.5-0.1-0.6-0.1-0.6s1.1,0.4,1.7,0.9c0.6,0.4,0.9,0.3,2.2,1.1c1.3,0.8,1.1,0.2,1.1,0.2s2,1.4,2.6,2.1
		C833.9,36.4,833.9,35.8,833.9,35.4L833.9,35.4z"/>
	<path fill-rule="evenodd" clip-rule="evenodd" fill="#FFFFFF" d="M803.4,44.7c-0.2-0.1-0.5-0.4-0.5-0.4s-0.3-0.1-0.3,0
		c0,0,0.2,0.8,1.1,0.6C803.6,44.9,803.6,44.8,803.4,44.7L803.4,44.7z"/>
	<path fill-rule="evenodd" clip-rule="evenodd" fill="#FFFFFF" d="M797.6,42.7L798,43C798,43,798.2,43,797.6,42.7L797.6,42.7z"/>
	<path fill-rule="evenodd" clip-rule="evenodd" fill="#FFFFFF" d="M799,43.2c0,0,0.2,0.3-0.5,0.3c0,0,0.8,0.2,1.2,0.7
		C799.8,44.1,799.7,43.5,799,43.2L799,43.2z"/>
	<path fill-rule="evenodd" clip-rule="evenodd" fill="#FFFFFF" d="M800.4,44.9c-0.2-0.3-0.7-0.4-0.7-0.4s0.4,1.1,1.3,1.2
		C801,45.7,800.6,45.2,800.4,44.9L800.4,44.9z"/>
	<path fill-rule="evenodd" clip-rule="evenodd" fill="#FFFFFF" d="M796,42.3c0,0,1,0.5,1.3,0.8C797.6,43.5,796.9,42.4,796,42.3
		L796,42.3z"/>
	<path fill-rule="evenodd" clip-rule="evenodd" fill="#FFFFFF" d="M797.7,43.5c0,0,0.7,0.7,1.2,0.8
		C798.9,44.3,798.3,43.6,797.7,43.5L797.7,43.5z"/>
	<path fill-rule="evenodd" clip-rule="evenodd" fill="#FFFFFF" d="M843.8,48c-0.4-0.9-2.1-3.6-4.1-6.2c-1.3-1.6-2.9-3.2-4-4.3
		c1.2,1.5,3.6,4.7,3.9,5c0.3,0.3-0.1,0.5-0.3,0.3c-0.2-0.2-1.3-1.6-1.9-2.2c-0.6-0.6-0.9-0.1-0.6,0.1c0.2,0.3,1.3,1.7,1.7,2.2
		c0.4,0.5,0,0.5-0.3,0.2c-0.3-0.3-1.1-1.2-1.3-1.6c-0.3-0.4-1.8-1.6-2.1-1.8c-0.3-0.2-0.8-0.1-0.6,0.2c0.2,0.3,0.7,0.9,0.9,1.2
		s0.7,0.3,0.9,0.4c0.2,0.1,0.5,0.6,0.7,0.8c0.2,0.1,0,0.4-0.2,0.2c-0.1-0.2-0.2-0.3-0.4-0.5c-0.2-0.2-0.5-0.4-0.8-0.4
		c-0.3,0-0.7-0.6-0.9-0.9c-0.2-0.3-1.2-1-1.8-1.4c-0.6-0.4-0.6,0-0.4,0.1c0.2,0.1,1.2,0.9,1.4,1.1c0.2,0.2-0.1,0.5-0.3,0.3
		c-0.2-0.3-1.3-1.1-1.6-1.2c-0.3-0.1-0.8-0.1-0.7,0.1c0.1,0.2,0.7,0.9,0.9,1.1c0.2,0.2,0,0.5-0.3,0.2c-0.3-0.3-0.9-1-1.1-1.3
		c-0.3-0.3-0.3-0.4-0.6-0.3c-0.3,0.1-0.9,0-0.8,0.2c0.2,0.2,1,1.3,1.2,1.5c0.3,0.3,0.1,0.4-0.3,0.1c-0.3-0.3-1.2-1.2-1.6-1.5
		c-0.4-0.3-1.5-0.2-1.5-0.2s0.4,0.4,0.6,0.6c0.2,0.2,0.4,0.8-0.3,0.1c-0.7-0.7-1.2-0.5-1.5-0.1c-0.3,0.4,0.2,0.7,0.3,0.8
		c0.2,0.1-0.1,0.6-0.3,0.3c-0.2-0.2-0.6-0.5-1-0.2c-0.4,0.3-0.3,1.1-0.3,1.1c-0.4-0.1-0.6-0.1-0.6-0.1c-0.4,1.4,0.7,1.6,0.7,1.6
		c0.6,0.2,0.7,0.1,0.7,0c0.1-0.2,0-0.7-0.2-0.9l-0.3-0.5l0.5,0.3c1.2,0.6,1.5,0.4,1.5,0.4c0.2-0.2,0.1-0.9-0.1-1.2
		c0.7,0.4,1.3,0.5,1.6,0.3c0.2-0.1,0.3-0.7,0.3-0.7l0.2,0.2c1.5,1,2,0.9,2.1,0.9c0.1,0,0.1-0.4,0.1-0.4l0.3,0.2
		c0.4,0.3,0.8,0.5,1,0.4c0.3-0.1,0.4-0.6,0.4-0.6l0.2,0.2c0.9,1,1.5,1.2,1.8,1.2c0.2,0,0.5-0.3,0.5-0.3s0.9,1,1.5,0.9
		c0.2-0.1,0.3-0.8,0.3-0.8s1.7,2.2,2.6,2.3c0.2,0,0.3-0.1,0.3-0.1l0.2-0.2l0.1,0.3c0.4,0.8,3.4,3,3.6,3.1
		C843.9,48.2,843.9,48.1,843.8,48L843.8,48z"/>
	<path fill-rule="evenodd" clip-rule="evenodd" fill="#FFFFFF" d="M834.3,37.4c0,0,0.3,0.6,0.6,0.6S835.1,37.7,834.3,37.4
		L834.3,37.4z"/>
	<path fill-rule="evenodd" clip-rule="evenodd" fill="#FFFFFF" d="M835.4,38.7c0,0,0.5,0.8,1.1,0.9
		C837.1,39.8,836.2,38.7,835.4,38.7L835.4,38.7z"/>
	<path fill-rule="evenodd" clip-rule="evenodd" fill="#727175" d="M814.3,27.6c-0.2-0.4-0.1-1.1-0.1-1.1s-1,0.6-1.5,0.7
		c0,0,0.6,0.7,0.6,0.9c0,0.1,1.2,3.8,2.5,7.2l0.9-1.1C815.5,30.9,814.4,27.8,814.3,27.6L814.3,27.6z"/>
	<path fill-rule="evenodd" clip-rule="evenodd" fill="#FFFFFF" d="M796.1,40.9c-1.1,0.1-2.3-0.7-2.3-0.7c1.5,2.6,2.5,0.9,2.5,0.9
		L796.1,40.9L796.1,40.9z"/>
	<path fill-rule="evenodd" clip-rule="evenodd" fill="#FFFFFF" d="M796.5,41.3c-0.1,0.3-0.4,0.3-0.4,0.3c0.1,0.1,0.7,0,0.7,0
		S796.6,41.1,796.5,41.3L796.5,41.3z"/>
	<path fill-rule="evenodd" clip-rule="evenodd" fill="#727175" d="M800.9,42.3c-0.4,0-1.1-0.4-1.1-0.4
		C800.4,42.8,801.3,42.3,800.9,42.3L800.9,42.3z"/>
	<path fill-rule="evenodd" clip-rule="evenodd" fill="#FFFFFF" d="M805.3,30.6c-1.4-1-2.9-1.8-3.3-1.8c0,0.1-0.4,0-0.4,0
		c0-0.1,0.1-0.2,0.1-0.3c0,0,0,0,0,0c0,0-0.2-0.2-1-0.2c-0.2-0.2-0.6-0.5-0.7-0.4c0,0-0.4,0.1-0.4,0.1c0,0,0-0.2-0.2-0.4
		c-0.2-0.1-0.5-0.2-0.8-0.1c-0.3-0.2-0.7-0.5-0.8-0.5c0,0-0.3,0.2-0.3,0.2c0-0.1-0.3-0.5-0.9-0.5c0,0-1.6-0.9-2.9-0.9
		c-0.5-0.2-1.8-0.8-2.5-0.6c0.8,0.3,1.4,0.8,1.6,0.9c-1.1-0.6-3.1-1.3-3.7-0.9c1.3,0.4,2.2,1.1,2.3,1.2c0,0-1.8-0.9-3.5-1.1
		c-2-0.2-3.4-0.1-3.8,0.3l0,0l-0.1,0c-0.9,0.1-2,0.3-2.3,0.4c0.3,0.2,1.6,0.1,2.3,0c0.3,0,0.5,0,0.6,0c0.6,0,4.8,0.2,6.5,1
		c1.6,0.8,4.1,2.5,4.8,3.3l0.3,0.3c0,0,0.3-0.2,0.7,0c0.3,0.2,0.7,0.7,0.7,1.2c0,0.4,0.1,0.3,0.5,0.6c0.4,0.3,0-0.6,0.1-0.5
		c0.1,0.1,0.3,0.4,0.6,0.7c0.2,0.3,0.4,0.1,0.5-0.1c0.1-0.2-0.4-0.3-0.7-0.6c-0.3-0.3-0.8-1.1-1-1.5c-0.2-0.3-1.2-0.6-1.4-0.7
		c-0.2-0.1-0.2,0-0.1-0.2c0.1-0.2,0.7,0.1,0.9,0.2c0.3,0,0.3,0,0.2-0.3c-0.1-0.3-1.9-1.5-2.5-1.8c-0.6-0.3-0.3-0.6-0.3-0.6
		s0,0.1,1.3,0.7c1.3,0.6,1.8,1.6,1.8,1.6s0.4,0.3,1,0.2c0.6-0.1-2.3-2.1-2.3-2.1c3,1.5,2.9,2.1,2.9,2.1l0.6,0.2c0.8-0.1-1.7-2-1.7-2
		c2.6,1.5,2.1,2,2.1,2s0.6,0.3,0.9,0.1c0.3-0.3-0.8-1-0.8-1s1,0.4,1.2,0.6c0.1,0.2,0,0.6,0,0.7c0,0.1,0.6,0.3,0.9,0.3
		s0.9,0.2,0.9,0.2l-0.9-1.1c0.9,0.4,2.4,1.8,2.4,1.8c-0.1-0.6-0.4-0.9-0.4-0.9c0.3,0.1,0.7,0.5,0.8,0.6
		C805.2,31,805.3,30.8,805.3,30.6L805.3,30.6z"/>
	<path fill-rule="evenodd" clip-rule="evenodd" fill="#FFFFFF" d="M802.3,36.1c-0.2-0.3-0.5-0.3-1.1-0.5c-0.6-0.2-1-1-1.4-1.4
		c-0.3-0.3-0.3,0.1-0.2,0.3c1.3,1.3,2.5,2.4,3.1,2.6c0.1-0.2,0.1-0.3,0.2-0.5C802.7,36.5,802.4,36.2,802.3,36.1L802.3,36.1z"/>
	<path fill-rule="evenodd" clip-rule="evenodd" fill="#FFFFFF" d="M803.9,33.5c-0.2-0.1-0.1,0.3,0,0.6c0.1-0.2,0.2-0.4,0.2-0.6
		C804.1,33.5,804,33.5,803.9,33.5L803.9,33.5z"/>
	<path fill-rule="evenodd" clip-rule="evenodd" fill="#FFFFFF" d="M799.9,31.3c-0.3-0.1-0.6-0.2-0.9-0.4c-0.3-0.2-1.9-1.3-1.5-0.7
		c0,0,1.5,1.5,1.5,1.8c0,0.3,0.3,0.4,0.4,0.5c0.2,0.1,0.2-0.4,0.2-0.4s-0.6-0.7-0.1-0.6c0.5,0.2,0.7,0.5,0.9,0.4
		S800.2,31.4,799.9,31.3L799.9,31.3z"/>
	<path fill-rule="evenodd" clip-rule="evenodd" fill="#FFFFFF" d="M798.9,30.2c0,0,0.6,0.7,0.9,0.7C800,31,798.8,29.9,798.9,30.2
		L798.9,30.2z"/>
	<path fill-rule="evenodd" clip-rule="evenodd" fill="#FFFFFF" d="M801.6,31.6c-0.3-0.3-0.8-0.4-1-0.8c-0.2-0.3-0.6-0.3-0.4-0.1
		c0,0,0.5,0.7,1.1,1c0.6,0.3,0.2,0.3-0.1,0.3c-0.3,0-0.1,0.2,0.2,0.3c0.3,0.2,0.7,0.1,0.7,0.1S801.9,31.8,801.6,31.6L801.6,31.6z"/>
	<path fill-rule="evenodd" clip-rule="evenodd" fill="#FFFFFF" d="M802.9,32c-0.3-0.3-1.2-1.2-1.3-1.3c-0.1-0.1-0.4,0-0.4,0
		c0.3,0.2,1.1,1,1.3,1.2C802.7,32.3,803.3,32.3,802.9,32L802.9,32z"/>
	<path fill-rule="evenodd" clip-rule="evenodd" fill="#FFFFFF" d="M803.3,31.6c-0.2-0.2-0.6-0.6-0.6-0.3c0,0,0.3,0.5,0.5,0.6
		S803.5,31.8,803.3,31.6L803.3,31.6z"/>
	<path fill-rule="evenodd" clip-rule="evenodd" fill="#FFFFFF" d="M804.2,31.8c-0.1-0.3-0.5-0.6-0.4-0.4c0,0,0.3,0.9,0.7,0.9
		S804.3,32.1,804.2,31.8L804.2,31.8z"/>
	<path fill-rule="evenodd" clip-rule="evenodd" fill="#FFFFFF" d="M801.5,33.3c-0.2-0.1-0.4-0.4-0.4-0.4s-0.6-0.3-0.4,0
		c0,0,0.8,0.8,1,0.9C801.9,33.9,801.7,33.4,801.5,33.3L801.5,33.3z"/>
	<path fill-rule="evenodd" clip-rule="evenodd" fill="#FFFFFF" d="M801.9,34.7c-0.2,0-0.6-0.1-0.6-0.1s0.4,0.6,0.9,0.3
		C802.6,34.8,802.1,34.8,801.9,34.7L801.9,34.7z"/>
	<path fill-rule="evenodd" clip-rule="evenodd" fill="#727175" d="M796.1,39.6c0,0,0,0.2,0.2,0.3C796.6,40,796.3,39.6,796.1,39.6
		L796.1,39.6z"/>
	<path fill-rule="evenodd" clip-rule="evenodd" fill="#727175" d="M837.2,59.1c0-0.9,0.7-1.5,1.5-1.5c0.8,0,1.5,0.6,1.5,1.5
		c0,0.9-0.7,1.5-1.5,1.5C837.9,60.6,837.2,60,837.2,59.1L837.2,59.1z"/>
	<path fill-rule="evenodd" clip-rule="evenodd" fill="#FFFFFF" d="M838.7,60.3c0.7,0,1.2-0.5,1.2-1.2c0-0.7-0.5-1.2-1.2-1.2
		c-0.7,0-1.2,0.5-1.2,1.2C837.5,59.8,838,60.3,838.7,60.3L838.7,60.3z"/>
	<path fill-rule="evenodd" clip-rule="evenodd" fill="#727175" d="M838.4,60h-0.3v-1.7h0.7c0.4,0,0.6,0.2,0.6,0.5
		c0,0.3-0.2,0.4-0.4,0.5l0.5,0.8h-0.3l-0.5-0.7h-0.3V60L838.4,60z"/>
	<path fill-rule="evenodd" clip-rule="evenodd" fill="#FFFFFF" d="M838.7,59c0.2,0,0.4,0,0.4-0.3c0-0.2-0.2-0.3-0.4-0.3h-0.4V59
		H838.7L838.7,59z"/>
</g>
<g>
	<path fill-rule="evenodd" clip-rule="evenodd" fill="#727175" d="M915.2,42.3c0.9-2,1.7-3.9,2.5-5.9c0.3-0.8,0.7-1.6,1-2.4
		c1.8-3.8,6.4-4.1,9.1-1.5c0.5,0.5,0.7,0.3,1.1,0c2-1.6,4.3-2.2,6.8-1.4c0.8,0.3,1.6,0.7,2.1,1.3c0.4,0.5,0.6,0.4,1,0
		c2.2-1.7,4.6-2.3,7.2-1.2c2.1,0.9,3.3,2.7,3.3,5c0,3.1,0,6.2,0,9.3c0,1.7-1.1,2.7-2.8,2.6c-1.3-0.1-2.1-1.1-2.1-2.6
		c0-2.5,0-5.1,0-7.6c0-0.2,0-0.4,0-0.6c-0.1-1.3-0.9-2.2-2.1-2.3c-1.4-0.2-2.5,0.5-2.8,1.7c-0.1,0.4-0.1,0.8-0.1,1.2
		c0,2.5,0,5,0,7.6c0,1.4-0.7,2.4-1.8,2.7c-1.5,0.4-2.8-0.4-3.1-1.9c-0.1-0.3-0.1-0.7-0.1-1c0-2.5,0-5.1,0-7.6c0-1-0.3-1.8-1.3-2.3
		c-1-0.5-2-0.4-2.8,0.3c-0.7,0.6-0.9,1.4-0.9,2.2c0,2.6,0,5.2,0,7.9c0,1.6-1,2.6-2.6,2.6c-1.4,0-2.3-1.1-2.3-2.7c0-3.1,0-6.1,0-9.2
		c0-0.2,0-0.3,0-0.5c0-0.4-0.2-0.6-0.5-0.7c-0.4-0.1-0.7,0.1-0.8,0.4c-0.5,1.1-1,2.2-1.5,3.3c-1,2.3-2.1,4.5-3.1,6.7
		c-0.2,0.5-0.5,0.9-0.8,1.4c-1.3,1.8-3.7,1.8-5,0.1c-0.6-0.8-1-1.8-1.4-2.7c-1.5-3.3-3.1-6.7-4.6-10c-0.6-1.4-0.2-2.7,1.1-3.3
		c1.3-0.6,2.7,0,3.3,1.4c1.3,3.1,2.6,6.1,3.9,9.2C915,41.9,915,42.1,915.2,42.3z"/>
	<path fill-rule="evenodd" clip-rule="evenodd" fill="#737276" d="M962.5,35.5c-0.6,1.8-1.3,3.6-1.9,5.4c-0.7,2.1-1.5,4.2-2.2,6.3
		c-0.3,0.8-0.7,1.1-1.3,1.2c-0.7,0-1.2-0.3-1.5-1.1c-1.7-4.7-3.4-9.4-5.1-14.2c-0.3-0.8,0-1.4,0.7-1.7c0.8-0.3,1.4,0.1,1.7,0.9
		c1.3,3.7,2.6,7.4,3.8,11.1c0.1,0.2,0.2,0.5,0.3,0.9c0.6-1.8,1.2-3.5,1.8-5.1c0.8-2.2,1.6-4.5,2.3-6.7c0.3-0.9,0.6-1.1,1.4-1.1
		c0.7,0,1.1,0.3,1.4,1.2c1.3,3.7,2.5,7.3,3.8,11c0.1,0.3,0.2,0.5,0.3,0.8c0.7-1.9,1.3-3.6,1.9-5.4c0.8-2.2,1.5-4.4,2.3-6.5
		c0.2-0.5,0.4-0.9,1-1c1-0.2,1.7,0.6,1.4,1.6c-0.4,1.2-0.9,2.4-1.3,3.6c-1.2,3.5-2.5,6.9-3.7,10.4c0,0.1-0.1,0.2-0.1,0.3
		c-0.3,0.7-0.8,1-1.4,1c-0.6,0-1.1-0.4-1.3-1.1c-0.6-1.7-1.2-3.4-1.8-5.1c-0.7-2-1.4-4.1-2.1-6.1C962.7,35.8,962.7,35.6,962.5,35.5z
		"/>
	<path fill-rule="evenodd" clip-rule="evenodd" fill="#737276" d="M986.8,45.6c-1.2,1.4-2.5,2.2-4.1,2.5c-2.5,0.5-4.8,0.2-6.6-1.6
		c-2.3-2.2-1.8-6,1-7.7c1.2-0.7,2.5-1,3.9-1.1c1.8-0.1,3.6,0,5.4,0.5c0.5,0.1,0.6,0,0.6-0.5c0-2.6-1.5-4.2-4.1-4.4
		c-1.6-0.1-3.1,0-4.6,0.7c-0.6,0.3-1.3,0-1.5-0.6c-0.2-0.5,0-1.2,0.5-1.4c2.9-1.2,5.9-1.5,8.8-0.2c2,0.8,2.9,2.5,3.2,4.6
		c0.3,2.2,0.1,4.3,0.1,6.5c0,1.3,0,2.5,0,3.8c0,0.8-0.4,1.3-1.1,1.4c-0.7,0.1-1.3-0.4-1.3-1.2C986.8,46.7,986.8,46.2,986.8,45.6z
		 M982.2,39.6c-1.2,0-2.5,0.1-3.6,0.9c-1.7,1.2-1.8,3.7-0.1,4.9c1.3,1,2.7,1.1,4.2,0.8c2-0.4,3.5-1.3,4.1-3.4c0.2-0.7,0.1-1.3,0.1-2
		c0-0.4-0.1-0.6-0.5-0.7C985,39.9,983.6,39.7,982.2,39.6z"/>
	<path fill-rule="evenodd" clip-rule="evenodd" fill="#737276" d="M1009.9,40.7c-1.8,0-3.6,0-5.5,0c-0.5,0-0.6,0.1-0.5,0.6
		c0.4,2.2,1.5,3.9,3.7,4.6c2.3,0.8,4.5,0.2,6.4-1.4c0.3-0.3,0.6-0.5,1-0.5c0.4,0,0.8,0.3,0.9,0.7c0.2,0.5,0,0.8-0.3,1.2
		c-1.2,1.2-2.6,2-4.2,2.3c-2.8,0.5-5.3,0-7.4-1.9c-1.4-1.3-2.2-2.9-2.5-4.8c-0.4-2.9,0.1-5.6,2.2-7.8c2-2.2,4.6-2.9,7.5-2.1
		c2.9,0.7,4.5,2.8,5.2,5.6c0.2,0.7,0.3,1.5,0.3,2.2c0,1-0.4,1.4-1.4,1.4C1013.5,40.7,1011.7,40.7,1009.9,40.7z M1009.1,38.8
		c1.2,0,2.5,0,3.7,0c1.7,0,1.7,0,1.2-1.6c-0.8-3-3.5-4.5-6.2-3.7c-2.3,0.7-3.5,2.8-3.8,5c-0.1,0.4,0.2,0.3,0.5,0.3
		C1005.9,38.8,1007.5,38.8,1009.1,38.8z"/>
	<path fill-rule="evenodd" clip-rule="evenodd" fill="#727175" d="M994.7,35.1c0.8-1.5,1.9-2.6,3.3-3.3c0.7-0.3,1.5-0.6,2.3-0.6
		c0.7,0,1.1,0.4,1.2,1.1c0.1,0.7-0.3,1.3-0.9,1.4c-0.3,0.1-0.6,0.1-0.9,0.2c-2.8,0.7-4.6,2.8-4.9,5.8c-0.3,2.4-0.1,4.7-0.1,7.1
		c0,0.9-0.7,1.5-1.5,1.3c-0.6-0.1-1-0.6-1-1.3c0-1.8,0-3.6,0-5.4c0-2.9,0-5.9,0-8.8c0-0.9,0.5-1.5,1.2-1.5c0.8,0,1.3,0.6,1.3,1.5
		c0,0.7,0,1.5,0,2.2C994.7,34.9,994.7,34.9,994.7,35.1z"/>
	<path fill-rule="evenodd" clip-rule="evenodd" fill="#737276" d="M1021,33.3c0,1.2-0.9,2.1-2,2.1c-1.2,0-2.1-0.9-2.1-2.1
		c0-1.2,0.9-2.1,2.1-2.1C1020.1,31.2,1021,32.1,1021,33.3z M1019,31.6c-0.9,0-1.6,0.7-1.7,1.6c0,0.9,0.8,1.7,1.7,1.7
		c0.9,0,1.6-0.8,1.6-1.7C1020.6,32.4,1019.9,31.6,1019,31.6z"/>
	<path fill-rule="evenodd" clip-rule="evenodd" fill="#737276" d="M1018.8,32.2c1,0,1.2,0.4,0.8,1.2c-0.1,0.2,0,0.3,0.1,0.4
		c0.1,0.1,0.1,0.3,0,0.4c-0.1,0.1-0.3,0-0.4-0.1c-0.1-0.1-0.2-0.2-0.2-0.3c-0.2-0.2-0.4-0.4-0.5,0.1c0,0.2-0.1,0.3-0.3,0.3
		c-0.2,0-0.2-0.2-0.2-0.4c0-0.3,0-0.6,0-0.9C1018.1,32.4,1018.2,32.1,1018.8,32.2z M1019.4,32.9c-0.1-0.2-0.2-0.2-0.4-0.2
		c-0.2,0-0.3,0.1-0.3,0.3c0,0.2,0.1,0.3,0.3,0.3C1019.1,33.2,1019.3,33.1,1019.4,32.9z"/>
	<path fill-rule="evenodd" clip-rule="evenodd" fill="#FEFEFE" d="M1019.4,32.9c0,0.2-0.2,0.3-0.4,0.3c-0.2,0-0.3,0-0.3-0.3
		c0-0.2,0.1-0.3,0.3-0.3C1019.1,32.7,1019.3,32.7,1019.4,32.9z"/>
</g>
</svg>
