<?xml version="1.0" encoding="utf-8"?>
<!-- Generator: Adobe Illustrator 18.1.1, SVG Export Plug-In . SVG Version: 6.00 Build 0)  -->
<svg version="1.1" id="Layer_1" xmlns:sketch="http://www.bohemiancoding.com/sketch/ns"
	 xmlns="http://www.w3.org/2000/svg" xmlns:xlink="http://www.w3.org/1999/xlink" x="0px" y="0px" viewBox="-390 565.5 60 60"
	 enable-background="new -390 565.5 60 60" xml:space="preserve">
<title></title>
<g id="black">
	<g id="linkedin">
		<path id="Linkedin" d="M-360,625.5c16.6,0,30-13.4,30-30s-13.4-30-30-30s-30,13.4-30,30S-376.6,625.5-360,625.5z"/>
		<path fill="#FFFFFF" d="M-368.1,609.4v-18.3h-5.7v18.3H-368.1z M-368.1,584.6c0-1.6-1.1-2.9-2.9-2.9c-1.8,0-2.9,1.2-2.9,2.9
			c0,1.6,1.1,2.9,2.9,2.9h0C-369.2,587.5-368.1,586.2-368.1,584.6z M-358.9,609.4v-10.4c0-0.6,0-1.1,0.2-1.5
			c0.4-1.1,1.5-2.3,3.2-2.3c2.2,0,3.7,1.3,3.7,3.8v10.4h5.7v-10.7c0-5.7-3.1-8.4-7.1-8.4c-3.3,0-4.8,1.9-5.6,3.1l0-2.4h-5.7
			c0.1,1.8,0,18.4,0,18.4H-358.9z"/>
	</g>
</g>
</svg>
