<svg width="126" height="36" viewBox="0 0 126 36" xmlns="http://www.w3.org/2000/svg"><title>RAML</title><g fill="#26D3FF" fill-rule="nonzero"><path d="M19.244.551H0L1.92 3.62h17.215c2.104 0 4.117.855 5.575 2.366 1.481 1.508 2.308 3.536 2.304 5.646.019 2.04-.799 4-2.264 5.425-1.41 1.392-3.377 2.314-5.54 2.587h-2.106l-5.811-.045 1.676 2.894h2.547l.138.22h.021l7.502 12.618.035.058.048.049c.327.325.736.483 1.253.483.882 0 1.629-.768 1.629-1.676.013-.255-.081-.504-.261-.686-.092-.101-.173-.213-.24-.332l-6.2-10.514c2.865-.042 5.599-1.205 7.61-3.238 2.076-2.084 3.235-4.905 3.22-7.842 0-6.11-4.946-11.08-11.027-11.08M45.145.863c-.246-.476-.78-.77-1.397-.77-.56 0-1.083.282-1.389.75l-.173.29c-.219.381-.093.933.124 1.314l2.635 4.541 10.093 17.463h-.439l.013.024H41.627l1.878 3.267H56.93l4.057 6.995.01.016c.25.398.668 1.067 1.546 1.067.899-.002 1.627-.728 1.628-1.624.005-.293-.08-.58-.243-.824L45.145.862zM124.079 32.567h-17.315V1.716c0-.897-.73-1.624-1.63-1.624-.9 0-1.63.727-1.63 1.624V34.19c0 .895.729 1.621 1.627 1.624h20.827l-1.88-3.247zM90.091 1.676C90.07.796 89.347.094 88.464.093c-.041 0-.081.002-.12.005-.04 0-.082-.005-.123-.005-.619 0-1.155.296-1.396.772L76.068 19.693 65.316.865c-.246-.476-.78-.772-1.4-.772-.558 0-1.117.3-1.388.75l-.169.289c-.219.381-.098.933.119 1.314l11.988 20.956.012.02c.25.398.668 1.065 1.546 1.065h.09c.875 0 1.295-.667 1.545-1.065l9.177-16.041v26.814c0 .897.73 1.624 1.63 1.624.9 0 1.63-.727 1.63-1.624V1.715v-.032l-.005-.007z"/></g></svg>