<?xml version="1.0" encoding="utf-8"?>
<!-- Generator: Adobe Illustrator 18.1.1, SVG Export Plug-In . SVG Version: 6.00 Build 0)  -->
<svg version="1.1" id="Layer_1" xmlns="http://www.w3.org/2000/svg" xmlns:xlink="http://www.w3.org/1999/xlink" x="0px" y="0px"
	 width="444px" height="418px" viewBox="0 0 444 418" enable-background="new 0 0 444 418" xml:space="preserve">
<g>
	<polygon fill="none" stroke="#C4C4C4" stroke-width="3" stroke-miterlimit="10" points="347.5,306.9 221.5,379.4 95.5,306.9 
		95.5,161.9 221.5,89.4 347.5,161.9 	"/>
	<line fill="none" stroke="#C4C4C4" stroke-miterlimit="10" x1="331.4" y1="152.5" x2="220" y2="237.5"/>
	<line fill="none" stroke="#C4C4C4" stroke-miterlimit="10" x1="222.6" y1="237.6" x2="276.1" y2="94.5"/>
	<line fill="none" stroke="#C4C4C4" stroke-miterlimit="10" x1="168.1" y1="94.5" x2="221.4" y2="237.5"/>
	<line fill="none" stroke="#C4C4C4" stroke-miterlimit="10" x1="222.5" y1="236" x2="111" y2="151.8"/>
	<line fill="none" stroke="#C4C4C4" stroke-miterlimit="10" x1="57" y1="244.5" x2="221.4" y2="237.5"/>
	<line fill="none" stroke="#C4C4C4" stroke-miterlimit="10" x1="224.1" y1="237.9" x2="385" y2="245.2"/>
	<line fill="none" stroke="#C4C4C4" stroke-miterlimit="10" x1="348.1" y1="288.7" x2="224.8" y2="240"/>
	<line fill="none" stroke="#C4C4C4" stroke-miterlimit="10" x1="294.5" y1="381.4" x2="221" y2="239.7"/>
	<line fill="none" stroke="#C4C4C4" stroke-miterlimit="10" x1="222.6" y1="237.6" x2="149.6" y2="382.5"/>
	<line fill="none" stroke="#C4C4C4" stroke-miterlimit="10" x1="95.6" y1="289.8" x2="221.4" y2="237.5"/>
	<line fill="none" stroke="#C4C4C4" stroke-miterlimit="10" x1="221.4" y1="237.5" x2="222.1" y2="125.5"/>
	<line fill="none" stroke="#C4C4C4" stroke-miterlimit="10" x1="111" y1="213.6" x2="222.6" y2="237.6"/>
	<line fill="none" stroke="#C4C4C4" stroke-miterlimit="10" x1="222.6" y1="237.6" x2="331.4" y2="214.3"/>
	<line fill="none" stroke="#C4C4C4" stroke-miterlimit="10" x1="222.6" y1="237.6" x2="294.5" y2="319.6"/>
	<line fill="none" stroke="#C4C4C4" stroke-miterlimit="10" x1="221.4" y1="237.5" x2="149.6" y2="320.7"/>
	<polygon fill="#FFFFFF" stroke="#C4C4C4" stroke-miterlimit="10" points="260.5,260.4 221,283.7 181.5,260.4 181.5,213.9 
		221,190.6 260.5,213.9 	"/>
	<g>
		<path fill="#72CEED" d="M198.3,227.2h-10.1l1,1.6h9c1.1,0,2.1,0.4,2.9,1.2c0.8,0.8,1.2,1.9,1.2,3c0,1.1-0.4,2.1-1.2,2.9
			c-0.7,0.7-1.8,1.2-2.9,1.4h-1.1l-3.1,0l0.9,1.5h1.3l0.1,0.1h0l3.9,6.7l0,0l0,0c0.2,0.2,0.4,0.3,0.7,0.3c0.5,0,0.9-0.4,0.9-0.9
			c0-0.2-0.1-0.3-0.1-0.4c0,0-0.1-0.1-0.1-0.2l-3.3-5.5c1.5,0,2.9-0.6,4-1.7c1.1-1.1,1.7-2.6,1.7-4.1
			C204.1,229.8,201.5,227.2,198.3,227.2z"/>
		<path fill="#72CEED" d="M211.9,227.4c-0.1-0.3-0.4-0.4-0.7-0.4c-0.3,0-0.6,0.2-0.7,0.4l-0.1,0.2c-0.1,0.2-0.1,0.5,0.1,0.7l1.4,2.4
			l5.3,9.2h-0.2l0,0H210l1,1.7h7.1l2.1,3.7l0,0c0.1,0.2,0.4,0.6,0.8,0.6c0.5,0,0.9-0.4,0.9-0.9c0-0.2,0-0.3-0.1-0.4L211.9,227.4z"/>
		<path fill="#72CEED" d="M253.4,244.1h-9.1v-16.3c0-0.5-0.4-0.9-0.9-0.9c-0.5,0-0.9,0.4-0.9,0.9V245c0,0.5,0.4,0.9,0.9,0.9h10.9
			L253.4,244.1z"/>
		<path fill="#72CEED" d="M235.5,227.8c0-0.5-0.4-0.8-0.9-0.8c0,0,0,0-0.1,0c0,0,0,0-0.1,0c-0.3,0-0.6,0.2-0.7,0.4l-5.6,9.9
			l-5.6-9.9c-0.1-0.3-0.4-0.4-0.7-0.4c-0.3,0-0.6,0.2-0.7,0.4l-0.1,0.2c-0.1,0.2-0.1,0.5,0.1,0.7l6.3,11.1l0,0
			c0.1,0.2,0.4,0.6,0.8,0.6c0,0,0,0,0,0c0,0,0,0,0,0c0.5,0,0.7-0.4,0.8-0.6l4.8-8.5V245c0,0.5,0.4,0.9,0.9,0.9
			c0.5,0,0.9-0.4,0.9-0.9L235.5,227.8C235.5,227.8,235.5,227.8,235.5,227.8L235.5,227.8L235.5,227.8z"/>
	</g>
</g>
<path fill="#FFFFFF" stroke="#C282F4" stroke-width="2" stroke-miterlimit="10" d="M398.8,383.1L351,410.6c-1.8,1-4,1-5.8,0
	l-47.7-27.5c-1.8-1-2.9-3-2.9-5.1v-55.1c0-2.1,1.1-4,2.9-5.1l47.7-27.5c1.8-1,4-1,5.8,0l47.7,27.5c1.8,1,2.9,3,2.9,5.1V378
	C401.7,380.1,400.6,382,398.8,383.1z"/>
<path fill="#FFFFFF" stroke="#66AAED" stroke-width="2" stroke-miterlimit="10" d="M434.8,217.1L387,244.6c-1.8,1-4,1-5.8,0
	l-47.7-27.5c-1.8-1-2.9-3-2.9-5.1v-55.1c0-2.1,1.1-4,2.9-5.1l47.7-27.5c1.8-1,4-1,5.8,0l47.7,27.5c1.8,1,2.9,3,2.9,5.1V212
	C437.7,214.1,436.6,216,434.8,217.1z"/>
<path fill="#FFFFFF" stroke="#7EE16D" stroke-width="2" stroke-miterlimit="10" d="M147.8,385.1L100,412.6c-1.8,1-4,1-5.8,0
	l-47.7-27.5c-1.8-1-2.9-3-2.9-5.1v-55.1c0-2.1,1.1-4,2.9-5.1l47.7-27.5c1.8-1,4-1,5.8,0l47.7,27.5c1.8,1,2.9,3,2.9,5.1V380
	C150.7,382.1,149.6,384,147.8,385.1z"/>
<path fill="#FFFFFF" stroke="#13B3D8" stroke-width="2" stroke-miterlimit="10" d="M272.8,98.1L225,125.6c-1.8,1-4,1-5.8,0
	l-47.7-27.5c-1.8-1-2.9-3-2.9-5.1V37.9c0-2.1,1.1-4,2.9-5.1l47.7-27.5c1.8-1,4-1,5.8,0l47.7,27.5c1.8,1,2.9,3,2.9,5.1V93
	C275.7,95.1,274.6,97,272.8,98.1z"/>
<path fill="#FFFFFF" stroke="#F7A166" stroke-width="2" stroke-miterlimit="10" d="M108.8,216.1L61,243.6c-1.8,1-4,1-5.8,0
	L7.4,216.1c-1.8-1-2.9-3-2.9-5.1v-55.1c0-2.1,1.1-4,2.9-5.1l47.7-27.5c1.8-1,4-1,5.8,0l47.7,27.5c1.8,1,2.9,3,2.9,5.1V211
	C111.7,213.1,110.6,215,108.8,216.1z"/>
<polygon fill="none" stroke="#7EE16D" stroke-width="2" stroke-miterlimit="10" points="82,335.9 74.5,339.9 67,335.9 67,327.9 
	74.5,323.9 82,327.9 "/>
<polygon fill="none" stroke="#7EE16D" stroke-width="2" stroke-miterlimit="10" points="127,336.6 120,340.6 113,336.6 113,328.6 
	120,324.6 127,328.6 "/>
<polygon fill="none" stroke="#7EE16D" stroke-width="2" stroke-miterlimit="10" points="105,326.1 97.5,330.1 90,326.1 90,318.1 
	97.5,314.1 105,318.1 "/>
<polygon fill="none" stroke="#7EE16D" stroke-width="2" stroke-miterlimit="10" points="107,370.2 97.5,375.2 88,370.2 88,360.1 
	97.5,355.1 107,360.1 "/>
<line fill="none" stroke="#7EE16D" stroke-width="2" stroke-miterlimit="10" x1="91.9" y1="357.7" x2="78.3" y2="338.3"/>
<line fill="none" stroke="#7EE16D" stroke-width="2" stroke-miterlimit="10" x1="102.9" y1="357.7" x2="116.1" y2="338.8"/>
<line fill="none" stroke="#7EE16D" stroke-width="2" stroke-miterlimit="10" x1="97" y1="356" x2="97" y2="331"/>
<g>
	<polygon fill="none" stroke="#13B3D8" stroke-width="2" stroke-miterlimit="10" points="243.5,75.7 242.1,80.9 236.9,82.3 
		233.1,78.4 234.5,73.2 239.7,71.9 	"/>
	<path fill="none" stroke="#13B3D8" stroke-width="2" stroke-miterlimit="10" d="M235.1,66.6l-20.3-21.2c0.8-3.6,0-7.8-2.9-10.7
		c-2.9-2.9-7.2-3.7-11.2-2.4l6.8,6.8l-1.8,5l-5.2,2l-6.8-6.8c-1.3,4-0.5,8.3,2.4,11.2c2.9,2.9,7.2,3.7,10.7,2.9l21.2,20.3
		c-0.9,3.7-0.2,8.5,2.7,11.4c4.3,4.3,11.4,4.3,15.7,0c4.3-4.3,4.3-11.4,0-15.7C243.6,66.3,238.8,65.6,235.1,66.6z"/>
</g>
<g>
	<line fill="none" stroke="#C282F4" stroke-width="2" stroke-miterlimit="10" x1="334" y1="330" x2="354" y2="330"/>
	<line fill="none" stroke="#C282F4" stroke-width="2" stroke-miterlimit="10" x1="334" y1="337" x2="351" y2="337"/>
	<line fill="none" stroke="#C282F4" stroke-width="2" stroke-miterlimit="10" x1="334" y1="344" x2="354" y2="344"/>
	<line fill="none" stroke="#C282F4" stroke-width="2" stroke-miterlimit="10" x1="334" y1="351" x2="361" y2="351"/>
	<line fill="none" stroke="#C282F4" stroke-width="2" stroke-miterlimit="10" x1="334" y1="358" x2="361" y2="358"/>
	<line fill="none" stroke="#C282F4" stroke-width="2" stroke-miterlimit="10" x1="334" y1="365" x2="361" y2="365"/>
	<polyline fill="none" stroke="#C282F4" stroke-width="2" stroke-miterlimit="10" points="359.5,336 363.5,340 374.3,329.2 	"/>
	<circle fill="none" stroke="#C282F4" stroke-width="2" stroke-miterlimit="10" cx="364.5" cy="337" r="8.5"/>
	<polyline fill="none" stroke="#C282F4" stroke-width="2" stroke-miterlimit="10" points="367,350 367,372 329,372 329,323 367,323 
		367,326 	"/>
</g>
<g>
	<path fill="#C282F4" d="M321.7,380.8h2.6c0.6,0,1,0,1.4,0.1c0.4,0.1,0.8,0.3,1.1,0.7s0.5,0.7,0.7,1.2c0.2,0.5,0.2,1,0.2,1.7
		c0,0.6-0.1,1.1-0.2,1.5c-0.2,0.5-0.4,0.9-0.8,1.3c-0.3,0.2-0.6,0.4-1,0.6c-0.3,0.1-0.7,0.2-1.3,0.2h-2.7V380.8z M323.1,382v4.7h1.1
		c0.4,0,0.7,0,0.9-0.1c0.2-0.1,0.4-0.2,0.6-0.3c0.2-0.1,0.3-0.4,0.4-0.7c0.1-0.3,0.1-0.8,0.1-1.3s0-1-0.1-1.3s-0.2-0.5-0.4-0.7
		s-0.4-0.3-0.7-0.3c-0.2,0-0.6-0.1-1.2-0.1H323.1z"/>
	<path fill="#C282F4" d="M328.6,384.4c0-0.7,0.1-1.3,0.3-1.8c0.2-0.4,0.4-0.7,0.7-1c0.3-0.3,0.6-0.5,0.9-0.6c0.4-0.2,1-0.3,1.5-0.3
		c1.1,0,1.9,0.3,2.5,1c0.6,0.7,1,1.6,1,2.7c0,1.2-0.3,2.1-0.9,2.7c-0.6,0.7-1.5,1-2.5,1c-1.1,0-1.9-0.3-2.5-1
		C328.9,386.5,328.6,385.6,328.6,384.4z M330.1,384.4c0,0.8,0.2,1.4,0.6,1.8c0.4,0.4,0.8,0.6,1.4,0.6s1-0.2,1.4-0.6
		c0.4-0.4,0.6-1,0.6-1.9c0-0.8-0.2-1.4-0.5-1.8c-0.4-0.4-0.8-0.6-1.4-0.6s-1.1,0.2-1.4,0.6C330.3,382.9,330.1,383.6,330.1,384.4z"/>
	<path fill="#C282F4" d="M341.3,385.3l1.4,0.4c-0.2,0.8-0.6,1.4-1.1,1.7c-0.5,0.4-1.1,0.6-1.9,0.6c-1,0-1.7-0.3-2.3-1
		c-0.6-0.7-0.9-1.5-0.9-2.7c0-1.2,0.3-2.1,0.9-2.8c0.6-0.7,1.4-1,2.4-1c0.9,0,1.6,0.3,2.1,0.8c0.3,0.3,0.6,0.7,0.7,1.3l-1.4,0.3
		c-0.1-0.4-0.3-0.7-0.5-0.9c-0.3-0.2-0.6-0.3-1-0.3c-0.5,0-1,0.2-1.3,0.6c-0.3,0.4-0.5,1-0.5,1.9c0,0.9,0.2,1.5,0.5,1.9
		s0.7,0.6,1.3,0.6c0.4,0,0.7-0.1,1-0.4S341.1,385.9,341.3,385.3z"/>
	<path fill="#C282F4" d="M343.9,380.8h1.4v3.9c0,0.6,0,1,0.1,1.2c0.1,0.3,0.2,0.5,0.4,0.7c0.2,0.2,0.6,0.3,1,0.3
		c0.4,0,0.7-0.1,0.9-0.3c0.2-0.2,0.3-0.4,0.4-0.6s0.1-0.6,0.1-1.2v-4h1.4v3.8c0,0.9,0,1.5-0.1,1.8s-0.2,0.7-0.4,0.9
		c-0.2,0.2-0.5,0.4-0.8,0.6c-0.4,0.1-0.8,0.2-1.4,0.2c-0.7,0-1.2-0.1-1.6-0.2c-0.4-0.2-0.6-0.4-0.8-0.6c-0.2-0.3-0.3-0.5-0.4-0.8
		c-0.1-0.4-0.1-1-0.1-1.8V380.8z"/>
	<path fill="#C282F4" d="M351.1,388v-7.2h2.2l1.3,4.9l1.3-4.9h2.2v7.2h-1.3v-5.6l-1.4,5.6h-1.4l-1.4-5.6v5.6H351.1z"/>
	<path fill="#C282F4" d="M359.4,388v-7.2h5.3v1.2h-3.9v1.6h3.6v1.2h-3.6v1.9h4v1.2H359.4z"/>
	<path fill="#C282F4" d="M366.1,388v-7.2h1.4l2.9,4.8v-4.8h1.3v7.2h-1.5l-2.9-4.7v4.7H366.1z"/>
	<path fill="#C282F4" d="M375,388V382h-2.1v-1.2h5.7v1.2h-2.1v5.9H375z"/>
</g>
<polygon fill="none" stroke="#66AAED" stroke-width="2" stroke-miterlimit="10" points="380,193.8 376.5,195.7 373,193.8 373,189.9 
	376.5,187.9 380,189.9 "/>
<polygon fill="none" stroke="#66AAED" stroke-width="2" stroke-miterlimit="10" points="389,200.6 386,202.4 383,200.6 383,197 
	386,195.2 389,197 "/>
<polygon fill="none" stroke="#66AAED" stroke-width="2" stroke-miterlimit="10" points="397,196 394.5,197.5 392,196 392,193.2 
	394.5,191.7 397,193.2 "/>
<g>
	<path fill="#66AAED" d="M375.4,222V216h-2.1v-1.2h5.7v1.2h-2.1v5.9H375.4z"/>
	<path fill="#66AAED" d="M379.9,222v-7.2h5.3v1.2h-3.9v1.6h3.6v1.2h-3.6v1.9h4v1.2H379.9z"/>
	<path fill="#66AAED" d="M386.2,219.6l1.4-0.1c0.1,0.5,0.3,0.8,0.5,1c0.3,0.2,0.6,0.3,1,0.3c0.5,0,0.8-0.1,1.1-0.3
		c0.2-0.2,0.4-0.4,0.4-0.7c0-0.2,0-0.3-0.1-0.4c-0.1-0.1-0.3-0.2-0.5-0.3c-0.2-0.1-0.6-0.2-1.2-0.3c-0.8-0.2-1.3-0.4-1.6-0.7
		c-0.4-0.4-0.7-0.9-0.7-1.4c0-0.4,0.1-0.7,0.3-1c0.2-0.3,0.5-0.6,0.9-0.7c0.4-0.2,0.9-0.2,1.4-0.2c0.9,0,1.6,0.2,2,0.6
		c0.5,0.4,0.7,0.9,0.7,1.6l-1.4,0.1c-0.1-0.4-0.2-0.6-0.4-0.8c-0.2-0.2-0.5-0.2-0.9-0.2c-0.4,0-0.7,0.1-1,0.3
		c-0.2,0.1-0.2,0.3-0.2,0.4c0,0.2,0.1,0.3,0.2,0.4c0.2,0.2,0.6,0.3,1.3,0.5s1.2,0.3,1.6,0.5c0.3,0.2,0.6,0.4,0.8,0.7
		c0.2,0.3,0.3,0.7,0.3,1.1c0,0.4-0.1,0.8-0.3,1.2s-0.5,0.6-1,0.8c-0.4,0.2-0.9,0.3-1.6,0.3c-0.9,0-1.6-0.2-2.1-0.6
		C386.6,221.1,386.3,220.4,386.2,219.6z"/>
	<path fill="#66AAED" d="M394.8,222V216h-2.1v-1.2h5.7v1.2h-2.1v5.9H394.8z"/>
</g>
<g>
	<path fill="#7EE16D" d="M80.7,387.6l1.4-0.1c0.1,0.5,0.3,0.8,0.5,1c0.3,0.2,0.6,0.3,1,0.3c0.5,0,0.8-0.1,1.1-0.3
		c0.2-0.2,0.4-0.4,0.4-0.7c0-0.2,0-0.3-0.1-0.4c-0.1-0.1-0.3-0.2-0.5-0.3c-0.2-0.1-0.6-0.2-1.2-0.3c-0.8-0.2-1.3-0.4-1.6-0.7
		c-0.4-0.4-0.7-0.9-0.7-1.4c0-0.4,0.1-0.7,0.3-1c0.2-0.3,0.5-0.6,0.9-0.7c0.4-0.2,0.9-0.2,1.4-0.2c0.9,0,1.6,0.2,2,0.6
		c0.5,0.4,0.7,0.9,0.7,1.6l-1.4,0.1c-0.1-0.4-0.2-0.6-0.4-0.8c-0.2-0.2-0.5-0.2-0.9-0.2c-0.4,0-0.7,0.1-1,0.3
		c-0.2,0.1-0.2,0.3-0.2,0.4c0,0.2,0.1,0.3,0.2,0.4c0.2,0.2,0.6,0.3,1.3,0.5s1.2,0.3,1.6,0.5c0.3,0.2,0.6,0.4,0.8,0.7
		c0.2,0.3,0.3,0.7,0.3,1.1c0,0.4-0.1,0.8-0.3,1.2s-0.5,0.6-1,0.8c-0.4,0.2-0.9,0.3-1.6,0.3c-0.9,0-1.6-0.2-2.1-0.6
		C81.1,389.1,80.8,388.4,80.7,387.6z"/>
	<path fill="#7EE16D" d="M87.7,390v-7.2h1.4v2.8H92v-2.8h1.4v7.2H92v-3.1h-2.8v3.1H87.7z"/>
	<path fill="#7EE16D" d="M101.4,390h-1.6l-0.6-1.6h-2.9l-0.6,1.6h-1.5l2.8-7.2h1.5L101.4,390z M98.7,387.1l-1-2.7l-1,2.7H98.7z"/>
	<path fill="#7EE16D" d="M102.2,390v-7.2h3c0.8,0,1.3,0.1,1.7,0.2c0.3,0.1,0.6,0.4,0.8,0.7s0.3,0.7,0.3,1.1c0,0.5-0.2,1-0.5,1.3
		c-0.3,0.3-0.8,0.6-1.4,0.7c0.3,0.2,0.6,0.4,0.8,0.6c0.2,0.2,0.5,0.6,0.8,1.2l0.9,1.4h-1.7l-1-1.6c-0.4-0.6-0.6-0.9-0.8-1.1
		c-0.1-0.1-0.3-0.2-0.4-0.3c-0.2-0.1-0.4-0.1-0.7-0.1h-0.3v3H102.2z M103.6,385.8h1.1c0.7,0,1.1,0,1.3-0.1s0.3-0.2,0.4-0.3
		s0.1-0.3,0.1-0.5c0-0.2-0.1-0.4-0.2-0.6c-0.1-0.1-0.3-0.2-0.5-0.3c-0.1,0-0.5,0-1.1,0h-1.1V385.8z"/>
	<path fill="#7EE16D" d="M109.4,390v-7.2h5.3v1.2h-3.9v1.6h3.6v1.2h-3.6v1.9h4v1.2H109.4z"/>
</g>
<path fill="none" stroke="#66AAED" stroke-width="2" stroke-miterlimit="10" d="M388.8,152v19.3l20,33.6c0.4,0.7-0.1,1.7-1,1.7
	h-47.5c-0.9,0-1.4-0.9-1-1.7l19.4-33.3v-19.2l-3.2-0.8v-4H392v3.5L388.8,152z"/>
<line fill="none" stroke="#66AAED" stroke-width="2" stroke-miterlimit="10" x1="383" y1="152" x2="383" y2="172"/>
<line fill="none" stroke="#66AAED" stroke-width="2" stroke-miterlimit="10" x1="372" y1="184" x2="390" y2="184"/>
<g>
	<path fill="#13B3D8" d="M209.3,95.8h2.9c0.6,0,1,0,1.3,0.1c0.3,0,0.5,0.1,0.7,0.3c0.2,0.1,0.4,0.3,0.5,0.6c0.1,0.2,0.2,0.5,0.2,0.8
		c0,0.3-0.1,0.6-0.3,0.9c-0.2,0.3-0.4,0.5-0.7,0.6c0.4,0.1,0.8,0.3,1,0.6s0.4,0.7,0.4,1.1c0,0.3-0.1,0.6-0.2,1
		c-0.2,0.3-0.4,0.6-0.6,0.7c-0.3,0.2-0.6,0.3-1,0.3c-0.2,0-0.8,0-1.7,0h-2.4V95.8z M210.7,97v1.7h0.9c0.6,0,0.9,0,1,0
		c0.2,0,0.4-0.1,0.6-0.3c0.1-0.1,0.2-0.3,0.2-0.6c0-0.2-0.1-0.4-0.2-0.5c-0.1-0.1-0.3-0.2-0.5-0.3c-0.1,0-0.6,0-1.2,0H210.7z
		 M210.7,99.9v1.9h1.3c0.5,0,0.9,0,1,0c0.2,0,0.4-0.1,0.5-0.3c0.1-0.2,0.2-0.4,0.2-0.6c0-0.2-0.1-0.4-0.2-0.5s-0.3-0.3-0.5-0.3
		c-0.2-0.1-0.6-0.1-1.3-0.1H210.7z"/>
	<path fill="#13B3D8" d="M216.5,95.8h1.4v3.9c0,0.6,0,1,0.1,1.2c0.1,0.3,0.2,0.5,0.4,0.7c0.2,0.2,0.6,0.3,1,0.3
		c0.4,0,0.7-0.1,0.9-0.3c0.2-0.2,0.3-0.4,0.4-0.6s0.1-0.6,0.1-1.2v-4h1.4v3.8c0,0.9,0,1.5-0.1,1.8s-0.2,0.7-0.4,0.9
		c-0.2,0.2-0.5,0.4-0.8,0.6c-0.4,0.1-0.8,0.2-1.4,0.2c-0.7,0-1.2-0.1-1.6-0.2c-0.4-0.2-0.6-0.4-0.8-0.6c-0.2-0.3-0.3-0.5-0.4-0.8
		c-0.1-0.4-0.1-1-0.1-1.8V95.8z"/>
	<path fill="#13B3D8" d="M223.7,103v-7.2h1.4v7.2H223.7z"/>
	<path fill="#13B3D8" d="M226.5,103v-7.1h1.4v5.9h3.6v1.2H226.5z"/>
	<path fill="#13B3D8" d="M232.6,95.8h2.6c0.6,0,1,0,1.4,0.1c0.4,0.1,0.8,0.3,1.1,0.7s0.5,0.7,0.7,1.2c0.2,0.5,0.2,1,0.2,1.7
		c0,0.6-0.1,1.1-0.2,1.5c-0.2,0.5-0.4,0.9-0.8,1.3c-0.3,0.2-0.6,0.4-1,0.6c-0.3,0.1-0.7,0.2-1.3,0.2h-2.7V95.8z M234.1,97v4.7h1.1
		c0.4,0,0.7,0,0.9-0.1c0.2-0.1,0.4-0.2,0.6-0.3c0.2-0.1,0.3-0.4,0.4-0.7c0.1-0.3,0.1-0.8,0.1-1.3s0-1-0.1-1.3s-0.2-0.5-0.4-0.7
		s-0.4-0.3-0.7-0.3c-0.2,0-0.6-0.1-1.2-0.1H234.1z"/>
</g>
<g>
	<polyline fill="none" stroke="#F7A166" stroke-width="2" stroke-miterlimit="10" points="42.4,165 23.8,183 39.1,197.3 	"/>
	<polyline fill="none" stroke="#F7A166" stroke-width="2" stroke-miterlimit="10" points="74.4,165.7 92.4,183 73.1,201 	"/>
	<line fill="none" stroke="#F7A166" stroke-width="2" stroke-miterlimit="10" x1="65.9" y1="156.9" x2="47.5" y2="205.9"/>
</g>
<g>
	<path fill="#F7A166" d="M41.4,213.8H44c0.6,0,1,0,1.4,0.1c0.4,0.1,0.8,0.3,1.1,0.7s0.5,0.7,0.7,1.2c0.2,0.5,0.2,1,0.2,1.7
		c0,0.6-0.1,1.1-0.2,1.5c-0.2,0.5-0.4,0.9-0.8,1.3c-0.3,0.2-0.6,0.4-1,0.6c-0.3,0.1-0.7,0.2-1.3,0.2h-2.7V213.8z M42.8,215v4.7h1.1
		c0.4,0,0.7,0,0.9-0.1c0.2-0.1,0.4-0.2,0.6-0.3c0.2-0.1,0.3-0.4,0.4-0.7c0.1-0.3,0.1-0.8,0.1-1.3s0-1-0.1-1.3s-0.2-0.5-0.4-0.7
		s-0.4-0.3-0.7-0.3c-0.2,0-0.6-0.1-1.2-0.1H42.8z"/>
	<path fill="#F7A166" d="M48.6,221v-7.2h5.3v1.2h-3.9v1.6h3.6v1.2h-3.6v1.9h4v1.2H48.6z"/>
	<path fill="#F7A166" d="M54.9,218.6l1.4-0.1c0.1,0.5,0.3,0.8,0.5,1c0.3,0.2,0.6,0.3,1,0.3c0.5,0,0.8-0.1,1.1-0.3
		c0.2-0.2,0.4-0.4,0.4-0.7c0-0.2,0-0.3-0.1-0.4c-0.1-0.1-0.3-0.2-0.5-0.3c-0.2-0.1-0.6-0.2-1.2-0.3c-0.8-0.2-1.3-0.4-1.6-0.7
		c-0.4-0.4-0.7-0.9-0.7-1.4c0-0.4,0.1-0.7,0.3-1c0.2-0.3,0.5-0.6,0.9-0.7c0.4-0.2,0.9-0.2,1.4-0.2c0.9,0,1.6,0.2,2,0.6
		c0.5,0.4,0.7,0.9,0.7,1.6l-1.4,0.1c-0.1-0.4-0.2-0.6-0.4-0.8c-0.2-0.2-0.5-0.2-0.9-0.2c-0.4,0-0.7,0.1-1,0.3
		c-0.2,0.1-0.2,0.3-0.2,0.4c0,0.2,0.1,0.3,0.2,0.4c0.2,0.2,0.6,0.3,1.3,0.5s1.2,0.3,1.6,0.5c0.3,0.2,0.6,0.4,0.8,0.7
		c0.2,0.3,0.3,0.7,0.3,1.1c0,0.4-0.1,0.8-0.3,1.2s-0.5,0.6-1,0.8c-0.4,0.2-0.9,0.3-1.6,0.3c-0.9,0-1.6-0.2-2.1-0.6
		C55.3,220.1,55,219.4,54.9,218.6z"/>
	<path fill="#F7A166" d="M61.9,221v-7.2h1.4v7.2H61.9z"/>
	<path fill="#F7A166" d="M68.1,218.3v-1.2h3.1v2.9c-0.3,0.3-0.7,0.6-1.3,0.8c-0.6,0.2-1.2,0.3-1.7,0.3c-0.7,0-1.4-0.2-2-0.5
		c-0.6-0.3-1-0.8-1.3-1.3c-0.3-0.6-0.4-1.2-0.4-1.9c0-0.7,0.2-1.4,0.5-2s0.8-1,1.4-1.3c0.5-0.2,1-0.4,1.7-0.4c0.9,0,1.6,0.2,2.1,0.6
		c0.5,0.4,0.8,0.9,1,1.5l-1.4,0.3c-0.1-0.4-0.3-0.6-0.6-0.8c-0.3-0.2-0.6-0.3-1-0.3c-0.6,0-1.1,0.2-1.5,0.6c-0.4,0.4-0.6,1-0.6,1.8
		c0,0.8,0.2,1.5,0.6,1.9c0.4,0.4,0.9,0.6,1.5,0.6c0.3,0,0.6-0.1,0.9-0.2c0.3-0.1,0.6-0.3,0.8-0.4v-0.9H68.1z"/>
	<path fill="#F7A166" d="M72.5,221v-7.2h1.4l2.9,4.8v-4.8h1.3v7.2h-1.5l-2.9-4.7v4.7H72.5z"/>
</g>
</svg>
