<?xml version="1.0" encoding="UTF-8" standalone="no"?>
<svg
   xmlns:dc="http://purl.org/dc/elements/1.1/"
   xmlns:cc="http://creativecommons.org/ns#"
   xmlns:rdf="http://www.w3.org/1999/02/22-rdf-syntax-ns#"
   xmlns:svg="http://www.w3.org/2000/svg"
   xmlns="http://www.w3.org/2000/svg"
   xml:space="preserve"
   enable-background="new 0 0 171.5 122.2"
   viewBox="0 0 171.5 122.2"
   y="0px"
   x="0px"
   id="Layer_1"
   version="1.1"><metadata
     id="metadata35"><rdf:RDF><cc:Work
         rdf:about=""><dc:format>image/svg+xml</dc:format><dc:type
           rdf:resource="http://purl.org/dc/dcmitype/StillImage" /></cc:Work></rdf:RDF></metadata><defs
     id="defs33" /><g
     id="g3"><g
       id="g5"><g
         id="g7"><g
           id="g9"><path
             id="path11"
             d="M30.6,59.6l-1.9,0l0.1-12.2c-0.5,0.4-1.1,0.9-1.8,1.3c-0.7,0.4-1.4,0.8-2,1l0-1.8c1.1-0.5,2-1.1,2.8-1.8      c0.8-0.7,1.4-1.4,1.7-2.1l1.2,0L30.6,59.6z"
             fill="#FFFFFF" /><path
             id="path13"
             d="M34.2,52c0-1.8,0.2-3.3,0.6-4.4c0.4-1.1,0.9-2,1.7-2.6c0.7-0.6,1.7-0.9,2.8-0.9c0.8,0,1.6,0.2,2.2,0.5      c0.6,0.3,1.1,0.8,1.6,1.5c0.4,0.6,0.7,1.4,1,2.3s0.3,2.1,0.3,3.7c0,1.8-0.2,3.3-0.6,4.4c-0.4,1.1-0.9,2-1.7,2.6      c-0.7,0.6-1.7,0.9-2.8,0.9c-1.5,0-2.7-0.6-3.5-1.6C34.7,57,34.2,54.9,34.2,52z M36.1,52c0,2.6,0.3,4.3,0.9,5.1      c0.6,0.8,1.3,1.3,2.2,1.3c0.9,0,1.6-0.4,2.2-1.3c0.6-0.8,0.9-2.5,0.9-5.1c0-2.6-0.3-4.3-0.9-5.1c-0.6-0.8-1.3-1.3-2.2-1.3      c-0.9,0-1.6,0.4-2.1,1.1C36.5,47.7,36.1,49.5,36.1,52z"
             fill="#FFFFFF" /><path
             id="path15"
             d="M46.2,52.1c0-1.8,0.2-3.3,0.6-4.4c0.4-1.1,0.9-2,1.7-2.6c0.7-0.6,1.7-0.9,2.8-0.9c0.8,0,1.6,0.2,2.2,0.5      c0.6,0.3,1.1,0.8,1.6,1.5c0.4,0.6,0.7,1.4,1,2.3c0.2,0.9,0.3,2.1,0.3,3.7c0,1.8-0.2,3.3-0.6,4.4c-0.4,1.1-0.9,2-1.7,2.6      c-0.7,0.6-1.7,0.9-2.8,0.9c-1.5,0-2.7-0.6-3.5-1.6C46.7,57.1,46.2,55,46.2,52.1z M48.2,52.1c0,2.6,0.3,4.2,0.9,5.1      c0.6,0.8,1.3,1.3,2.2,1.3c0.9,0,1.6-0.4,2.2-1.3c0.6-0.8,0.9-2.5,0.9-5.1c0-2.6-0.3-4.3-0.9-5.1c-0.6-0.8-1.3-1.3-2.2-1.3      c-0.9,0-1.6,0.4-2.1,1.1C48.6,47.8,48.2,49.5,48.2,52.1z"
             fill="#FFFFFF" /></g><g
           id="g17"><path
             id="path19"
             d="M18.4,56.4l0-1.2c-0.6-0.1-1.1-0.2-1.5-0.4c-0.4-0.2-0.7-0.5-1-0.9c-0.3-0.4-0.4-1-0.5-1.6l1.2-0.2      c0.1,0.6,0.3,1.1,0.5,1.4c0.3,0.4,0.7,0.7,1.2,0.7l0-3.8c-0.5-0.1-1-0.3-1.5-0.6c-0.4-0.2-0.7-0.5-0.9-0.9      c-0.2-0.4-0.3-0.8-0.3-1.3c0-0.8,0.3-1.5,0.9-2.1c0.4-0.4,1-0.6,1.8-0.6l0-0.6l0.7,0l0,0.6c0.7,0.1,1.2,0.3,1.6,0.6      c0.5,0.4,0.8,1,0.9,1.8l-1.2,0.2c-0.1-0.5-0.2-0.8-0.4-1.1c-0.2-0.3-0.5-0.4-0.9-0.5l0,3.4c0.6,0.2,1,0.3,1.2,0.4      c0.4,0.2,0.7,0.4,0.9,0.6c0.2,0.2,0.4,0.5,0.5,0.8c0.1,0.3,0.2,0.7,0.2,1c0,0.8-0.3,1.5-0.8,2.1c-0.5,0.6-1.2,0.8-2,0.9l0,1.2      L18.4,56.4z M18.5,46c-0.5,0.1-0.8,0.3-1.1,0.6c-0.3,0.3-0.4,0.7-0.4,1.1c0,0.4,0.1,0.7,0.3,1c0.2,0.3,0.6,0.5,1.2,0.7L18.5,46z       M19.2,54.2c0.5-0.1,0.8-0.3,1.2-0.6c0.3-0.3,0.5-0.8,0.5-1.3c0-0.4-0.1-0.8-0.3-1c-0.2-0.3-0.6-0.5-1.3-0.7L19.2,54.2z"
             fill="#FFFFFF" /></g></g><path
         id="path21"
         d="M136.5,119.1l-125-0.7c-4.9,0-8.8-4-8.8-8.8l0.4-67.8    c0-4.9,4-8.8,8.8-8.8l125,0.7c4.9,0,8.8,4,8.8,8.8l-0.4,67.8C145.4,115.2,141.4,119.1,136.5,119.1z"
         stroke-miterlimit="10"
         stroke="#FFFFFF"
         fill="none" /><path
         id="path23"
         d="M145.9,42.7l-0.4,67.8c0,4.8-3.9,8.6-8.7,8.6l-125-0.7    c-1.9,0-3.6-0.6-5.1-1.7c1.6,2.3,4.2,3.7,7.2,3.8l123.2,0.6c5.8,0,10.5-4.6,10.5-10.4l0.3-66c0-3-1.4-5.6-3.7-7.2    C145.3,39.1,145.9,40.8,145.9,42.7z"
         stroke-miterlimit="10"
         stroke="#FFFFFF"
         fill="none" /></g><line
       id="line25"
       y2="59.6"
       x2="23.5"
       y1="59.6"
       x1="15.1"
       stroke-miterlimit="10"
       stroke-width="0.6973"
       stroke="#FFFFFF"
       fill="none" /></g><path
     id="path27"
     d="M35,33.1L137.3,1.6c4.9-1.4,10,1.3,11.7,6.1l20.7,58.6  c1.8,5-0.8,10.5-5.8,12.3l-16.2,5.9"
     stroke-miterlimit="10"
     stroke="#FFFFFF"
     fill="none" /><rect
     id="rect29"
     height="18"
     width="142.7"
     stroke-miterlimit="10"
     stroke="#FFFFFF"
     fill="none"
     y="87.8"
     x="2.9" /></svg>