<?xml version="1.0" encoding="UTF-8" standalone="no"?>
<svg
   xmlns:dc="http://purl.org/dc/elements/1.1/"
   xmlns:cc="http://creativecommons.org/ns#"
   xmlns:rdf="http://www.w3.org/1999/02/22-rdf-syntax-ns#"
   xmlns:svg="http://www.w3.org/2000/svg"
   xmlns="http://www.w3.org/2000/svg"
   xml:space="preserve"
   enable-background="new 0 0 162.2 175.5"
   viewBox="0 0 162.2 175.5"
   y="0px"
   x="0px"
   id="Layer_1"
   version="1.1"><metadata
     id="metadata29"><rdf:RDF><cc:Work
         rdf:about=""><dc:format>image/svg+xml</dc:format><dc:type
           rdf:resource="http://purl.org/dc/dcmitype/StillImage" /></cc:Work></rdf:RDF></metadata><defs
     id="defs27" /><g
     id="g3"><g
       id="g5"><path
         id="path7"
         d="M63.9,83.5v-9.6h4.3c0.9,0,1.5,0.1,2,0.3c0.4,0.2,0.8,0.5,1.1,0.9c0.3,0.4,0.4,0.9,0.4,1.5    c0,0.7-0.2,1.3-0.7,1.7c-0.4,0.5-1.1,0.8-2,0.9c0.3,0.2,0.6,0.3,0.8,0.5c0.4,0.3,0.7,0.8,1.1,1.3l1.7,2.6h-1.6l-1.3-2    c-0.4-0.6-0.7-1-0.9-1.3c-0.2-0.3-0.5-0.5-0.6-0.6c-0.2-0.1-0.4-0.2-0.6-0.3c-0.1,0-0.4,0-0.7,0h-1.5v4.3H63.9z M65.2,78.1h2.7    c0.6,0,1-0.1,1.4-0.2s0.6-0.3,0.7-0.6c0.2-0.3,0.3-0.6,0.3-0.9c0-0.5-0.2-0.8-0.5-1.1c-0.3-0.3-0.9-0.4-1.6-0.4h-3V78.1z"
         fill="#FFFFFF" /><path
         id="path9"
         d="M72.5,83.5l3.7-9.6h1.4l3.9,9.6h-1.5l-1.1-2.9h-4l-1.1,2.9H72.5z M75.3,79.5h3.3l-1-2.7    c-0.3-0.8-0.5-1.5-0.7-2c-0.1,0.6-0.3,1.2-0.5,1.8L75.3,79.5z"
         fill="#FFFFFF" /><path
         id="path11"
         d="M82.5,83.5v-9.6h1.9l2.3,6.8c0.2,0.6,0.4,1.1,0.5,1.4c0.1-0.4,0.3-0.9,0.5-1.5l2.3-6.7h1.7v9.6h-1.2v-8.1    l-2.8,8.1h-1.1l-2.8-8.2v8.2H82.5z"
         fill="#FFFFFF" /><path
         id="path13"
         d="M93.7,83.5v-9.6H95v8.5h4.7v1.1H93.7z"
         fill="#FFFFFF" /></g><path
       id="path15"
       d="M107.3,38c-6.5,7.9-16.2,15-27.2,15s-21.1-7.1-27.5-15L2,40v36.2   h28.5l6,97h90l5-97H160V40L107.3,38z"
       stroke-miterlimit="10"
       stroke="#FFFFFF"
       fill="none" /><line
       id="line17"
       y2="22"
       x2="79.7"
       y1="35"
       x1="79.7"
       stroke-miterlimit="10"
       stroke="#FFFFFF"
       fill="none" /><polyline
       id="polyline19"
       points="54.8,40 79.5,34.8 105.9,40  "
       stroke-miterlimit="10"
       stroke="#FFFFFF"
       fill="none" /><path
       id="path21"
       d="M79.7,1.5c-5.8,0-10.5,5-10.5,10.8c0,0.1,0,0.5,0,0.5h1c0,0,0-0.4,0-0.5c0-5.2,4.3-9.6,9.5-9.6   c5.2,0,9.5,4.2,9.5,9.4c0,5.2-4.7,9.5-9.9,9.5c-0.1,0-0.8-0.1-0.8-0.1v1c0,0,0.7,0,0.8,0C85.1,22.5,90,17.8,90,12   S85.5,1.5,79.7,1.5z"
       fill="#FFFFFF" /><path
       id="path23"
       d="M50.5,38.1c0,0,8.8,17.4,31,17.4   c19,0,28.6-17.4,28.6-17.4"
       stroke-miterlimit="10"
       stroke-width="1.049"
       stroke="#FFFFFF"
       fill="none" /></g></svg>