<?xml version="1.0" encoding="UTF-8" standalone="no"?>
<svg
   xmlns:dc="http://purl.org/dc/elements/1.1/"
   xmlns:cc="http://creativecommons.org/ns#"
   xmlns:rdf="http://www.w3.org/1999/02/22-rdf-syntax-ns#"
   xmlns:svg="http://www.w3.org/2000/svg"
   xmlns="http://www.w3.org/2000/svg"
   xml:space="preserve"
   enable-background="new 0 0 135.2 169.2"
   viewBox="0 0 135.2 169.2"
   y="0px"
   x="0px"
   id="Layer_1"
   version="1.1"><metadata
     id="metadata39"><rdf:RDF><cc:Work
         rdf:about=""><dc:format>image/svg+xml</dc:format><dc:type
           rdf:resource="http://purl.org/dc/dcmitype/StillImage" /></cc:Work></rdf:RDF></metadata><defs
     id="defs37" /><g
     id="g3"><g
       id="g5"><path
         id="path7"
         d="M55.9,32.2l3.2-8.3h1.2l3.4,8.3h-1.2l-1-2.5h-3.5L57,32.2H55.9z M58.3,28.8h2.8l-0.9-2.3    c-0.3-0.7-0.5-1.3-0.6-1.7c-0.1,0.5-0.3,1.1-0.4,1.6L58.3,28.8z"
         fill="#FFFFFF" /><path
         id="path9"
         d="M64.5,32.2v-8.3h3.1c0.5,0,1,0,1.3,0.1c0.4,0.1,0.7,0.2,1,0.4s0.5,0.5,0.7,0.8c0.2,0.3,0.3,0.7,0.3,1.1    c0,0.7-0.2,1.3-0.7,1.8c-0.4,0.5-1.3,0.7-2.4,0.7h-2.1v3.4H64.5z M65.6,27.8h2.1c0.7,0,1.2-0.1,1.5-0.4c0.3-0.3,0.4-0.6,0.4-1.1    c0-0.3-0.1-0.6-0.3-0.9C69.2,25.2,69,25,68.7,25c-0.2,0-0.5-0.1-1-0.1h-2.1V27.8z"
         fill="#FFFFFF" /><path
         id="path11"
         d="M72.4,32.2v-8.3h1.1v8.3H72.4z"
         fill="#FFFFFF" /><path
         id="path13"
         d="M74.8,30.4l1-0.2c0.1,0.4,0.2,0.7,0.5,0.9c0.3,0.2,0.6,0.3,1.1,0.3c0.5,0,0.8-0.1,1-0.3    c0.2-0.2,0.3-0.4,0.3-0.7c0-0.2-0.1-0.4-0.3-0.5c-0.1-0.1-0.5-0.2-1-0.3c-0.7-0.2-1.3-0.4-1.5-0.5c-0.3-0.1-0.5-0.3-0.7-0.6    c-0.1-0.2-0.2-0.5-0.2-0.8c0-0.3,0.1-0.5,0.2-0.7c0.1-0.2,0.3-0.4,0.5-0.6c0.2-0.1,0.4-0.2,0.6-0.3c0.3-0.1,0.6-0.1,0.9-0.1    c0.5,0,0.9,0.1,1.2,0.2c0.4,0.1,0.6,0.3,0.8,0.5c0.2,0.2,0.3,0.5,0.3,0.9l-1,0.1c0-0.3-0.2-0.5-0.4-0.7c-0.2-0.2-0.5-0.3-0.9-0.3    c-0.5,0-0.8,0.1-1,0.2c-0.2,0.2-0.3,0.3-0.3,0.5c0,0.1,0,0.2,0.1,0.4c0.1,0.1,0.2,0.2,0.4,0.3c0.1,0,0.4,0.1,0.9,0.3    c0.7,0.2,1.2,0.3,1.5,0.5c0.3,0.1,0.5,0.3,0.7,0.5c0.2,0.2,0.2,0.5,0.2,0.9c0,0.3-0.1,0.7-0.3,1c-0.2,0.3-0.5,0.5-0.9,0.7    c-0.4,0.2-0.8,0.2-1.3,0.2c-0.8,0-1.4-0.2-1.8-0.5C75.2,31.5,75,31,74.8,30.4z"
         fill="#FFFFFF" /></g><g
       id="g15"><path
         id="path17"
         d="M115.8,155.4l-104.4,0.4L10.7,6.4l3,0l0,0    c1.8,0.9,4,1,5.8,0.1l0.4-0.2L115.2,6L115.8,155.4z"
         stroke-miterlimit="10"
         stroke-width="1.049"
         stroke="#FFFFFF"
         fill="none" /><polygon
         id="polygon19"
         points="122.3,162 115.8,155.4 115.2,7     121.7,16   "
         stroke-miterlimit="10"
         stroke-width="1.049"
         stroke="#FFFFFF"
         fill="none" /><polyline
         id="polyline21"
         points="122.3,162.1 19.4,162.5 11.3,155.8       "
         stroke-miterlimit="10"
         stroke-width="1.049"
         stroke="#FFFFFF"
         fill="none" /><line
         id="line23"
         y2="154.9"
         x2="14.3"
         y1="6.6"
         x1="13.7"
         stroke-miterlimit="10"
         stroke-width="1.049"
         stroke="#FFFFFF"
         fill="none" /><line
         id="line25"
         y2="155.3"
         x2="17.6"
         y1="7.1"
         x1="17"
         stroke-miterlimit="10"
         stroke-width="1.049"
         stroke="#FFFFFF"
         fill="none" /><line
         id="line27"
         y2="154.9"
         x2="20.5"
         y1="6.6"
         x1="19.9"
         stroke-miterlimit="10"
         stroke-width="1.049"
         stroke="#FFFFFF"
         fill="none" /><line
         id="line29"
         y2="45.8"
         x2="92.9"
         y1="46.1"
         x1="33.2"
         stroke-miterlimit="10"
         stroke-width="1.049"
         stroke="#FFFFFF"
         fill="none" /><line
         id="line31"
         y2="52.7"
         x2="92.9"
         y1="52.9"
         x1="33.2"
         stroke-miterlimit="10"
         stroke-width="1.049"
         stroke="#FFFFFF"
         fill="none" /><line
         id="line33"
         y2="59.5"
         x2="92.9"
         y1="59.7"
         x1="33.3"
         stroke-miterlimit="10"
         stroke-width="1.049"
         stroke="#FFFFFF"
         fill="none" /></g></g></svg>