<?xml version="1.0" encoding="UTF-8" standalone="no"?>
<svg
   xmlns:dc="http://purl.org/dc/elements/1.1/"
   xmlns:cc="http://creativecommons.org/ns#"
   xmlns:rdf="http://www.w3.org/1999/02/22-rdf-syntax-ns#"
   xmlns:svg="http://www.w3.org/2000/svg"
   xmlns="http://www.w3.org/2000/svg"
   xml:space="preserve"
   enable-background="new 0 0 135.2 169.2"
   viewBox="0 0 135.2 169.2"
   y="0px"
   x="0px"
   id="Layer_1"
   version="1.1"><metadata
     id="metadata35"><rdf:RDF><cc:Work
         rdf:about=""><dc:format>image/svg+xml</dc:format><dc:type
           rdf:resource="http://purl.org/dc/dcmitype/StillImage" /></cc:Work></rdf:RDF></metadata><defs
     id="defs33" /><g
     id="g3"><rect
       id="rect5"
       height="112.6"
       width="104.3"
       stroke-miterlimit="10"
       stroke="#FFFFFF"
       fill="none"
       transform="matrix(1 -2.575386e-03 2.575386e-03 1 -0.2803 0.1404)"
       y="52.6"
       x="2.2" /><rect
       id="rect7"
       height="36.3"
       width="104.3"
       stroke-miterlimit="10"
       stroke="#FFFFFF"
       fill="none"
       transform="matrix(1 -2.575386e-03 2.575386e-03 1 -0.182 0.14)"
       y="52.6"
       x="2.1" /><line
       id="line9"
       y2="98"
       x2="91"
       y1="98.2"
       x1="11.7"
       stroke-miterlimit="10"
       stroke="#FFFFFF"
       fill="none" /><line
       id="line11"
       y2="103.7"
       x2="85.3"
       y1="103.9"
       x1="11.8"
       stroke-miterlimit="10"
       stroke="#FFFFFF"
       fill="none" /><line
       id="line13"
       y2="109.4"
       x2="91.1"
       y1="109.7"
       x1="11.8"
       stroke-miterlimit="10"
       stroke="#FFFFFF"
       fill="none" /><line
       id="line15"
       y2="73"
       x2="91"
       y1="73.2"
       x1="11.7"
       stroke-miterlimit="10"
       stroke="#FFFFFF"
       fill="none" /><line
       id="line17"
       y2="78.7"
       x2="85.3"
       y1="78.9"
       x1="11.8"
       stroke-miterlimit="10"
       stroke="#FFFFFF"
       fill="none" /><line
       id="line19"
       y2="115.2"
       x2="72.7"
       y1="115.4"
       x1="11.8"
       stroke-miterlimit="10"
       stroke="#FFFFFF"
       fill="none" /><g
       id="g21"><rect
         id="rect23"
         height="17.8"
         width="7.3"
         stroke-miterlimit="10"
         stroke="#FFFFFF"
         fill="none"
         transform="matrix(1 -8.476844e-03 8.476844e-03 1 -0.464 0.4641)"
         y="46.1"
         x="50.9" /><rect
         id="rect25"
         height="6.8"
         width="7.3"
         stroke-miterlimit="10"
         stroke="#FFFFFF"
         fill="none"
         transform="matrix(1 -8.476844e-03 8.476844e-03 1 -0.4175 0.4635)"
         y="46.1"
         x="50.8" /><path
         id="path27"
         d="M57.5,46.1l-5.7,0l-0.1-10.7c-0.1-9.9,7.9-18,17.7-18l46.3-0.4    c6.7-0.1,12.1-5.6,12.1-12.3l0-2.7l5.7,0l0,2.7c0.1,9.9-7.9,18-17.7,18l-46.3,0.4c-6.7,0.1-12.1,5.6-12.1,12.3L57.5,46.1z"
         stroke-miterlimit="10"
         stroke="#FFFFFF"
         fill="none" /></g><polyline
       id="polyline29"
       points="3.3,166.3 6,167.8 109.3,167.7 109,55.1 107.3,53.4  "
       stroke-miterlimit="10"
       stroke="#FFFFFF"
       fill="none" /></g></svg>