<?xml version="1.0" encoding="utf-8"?>
<!-- Generator: Adobe Illustrator 18.1.1, SVG Export Plug-In . SVG Version: 6.00 Build 0)  -->
<svg version="1.1" id="Layer_1" xmlns="http://www.w3.org/2000/svg" xmlns:xlink="http://www.w3.org/1999/xlink" x="0px" y="0px"
	 width="120px" height="135px" viewBox="0 0 120 135" enable-background="new 0 0 120 135" xml:space="preserve">
<g>
	<path fill="#13B3D8" d="M75.6,84.4L71,79.7l1.7-6.3l6.3-1.7l4.6,4.6l-1.7,6.3L75.6,84.4z M73.2,79.1l3,3l4.1-1.1l1.1-4.1l-3-3
		l-4.1,1.1L73.2,79.1z"/>
	<path fill="#13B3D8" d="M77.6,90.2c-3.2,0-6.3-1.3-8.6-3.6c-3.2-3.2-3.8-8.1-3.1-11.7L45.5,55.4c-0.8,0.1-1.6,0.2-2.4,0.2
		c-3.3,0-6.5-1.3-8.7-3.5c-3.1-3.1-4.1-7.7-2.6-12.2l0.5-1.6l7.5,7.5l4.2-1.6l1.5-4l-7.5-7.5l1.6-0.5c1.3-0.4,2.7-0.7,4.1-0.7
		c3.1,0,6,1.2,8.1,3.3c2.8,2.8,4,7,3.3,11.1l19.5,20.5c0.9-0.2,1.9-0.3,2.8-0.3c3.5,0,6.8,1.2,8.9,3.3c4.7,4.7,4.7,12.4,0,17.2
		C83.9,89,80.8,90.2,77.6,90.2z M46.1,53.3l22,21L68,74.9c-0.8,3.1-0.4,7.6,2.4,10.4c1.9,1.9,4.5,3,7.2,3c2.7,0,5.3-1.1,7.2-3
		c4-4,4-10.4,0-14.3c-1.8-1.8-4.5-2.8-7.5-2.8c-1,0-2,0.1-2.9,0.4l-0.6,0.1l-21-22.1l0.1-0.5c0.8-3.6-0.2-7.3-2.6-9.8
		c-2.2-2.2-5.3-3.1-8.5-2.6l6,6l-2.2,6.1l-6.2,2.4l-6.1-6.1c-0.6,3.2,0.4,6.3,2.6,8.6c1.9,1.9,4.5,2.9,7.3,2.9
		c0.8,0,1.7-0.1,2.5-0.3L46.1,53.3z"/>
</g>
<path fill="#13B3D8" d="M61.1,128.4c-1.2,0-2.4-0.3-3.4-0.9L9.9,99.9c-2.1-1.2-3.4-3.5-3.4-5.9V38.9c0-2.4,1.3-4.7,3.4-5.9L57.7,5.5
	c2.1-1.2,4.8-1.2,6.8,0L112.3,33c2.1,1.2,3.4,3.5,3.4,5.9V94c0,2.4-1.3,4.7-3.4,5.9l-47.7,27.5C63.5,128.1,62.3,128.4,61.1,128.4z
	 M61.1,6.6c-0.8,0-1.7,0.2-2.4,0.6L10.9,34.8c-1.5,0.9-2.4,2.5-2.4,4.2V94c0,1.7,0.9,3.3,2.4,4.2l47.7,27.5c1.5,0.8,3.4,0.8,4.8,0
	l47.7-27.5c1.5-0.9,2.4-2.5,2.4-4.2V38.9c0-1.7-0.9-3.3-2.4-4.2L63.5,7.2C62.8,6.8,61.9,6.6,61.1,6.6z"/>
<g>
	<path fill="#13B3D8" d="M48.3,96.8h2.9c0.6,0,1,0,1.3,0.1c0.3,0,0.5,0.1,0.7,0.3c0.2,0.1,0.4,0.3,0.5,0.6c0.1,0.2,0.2,0.5,0.2,0.8
		c0,0.3-0.1,0.6-0.3,0.9c-0.2,0.3-0.4,0.5-0.7,0.6c0.4,0.1,0.8,0.3,1,0.6s0.4,0.7,0.4,1.1c0,0.3-0.1,0.6-0.2,1
		c-0.2,0.3-0.4,0.6-0.6,0.7c-0.3,0.2-0.6,0.3-1,0.3c-0.2,0-0.8,0-1.7,0h-2.4V96.8z M49.7,98v1.7h0.9c0.6,0,0.9,0,1,0
		c0.2,0,0.4-0.1,0.6-0.3c0.1-0.1,0.2-0.3,0.2-0.6c0-0.2-0.1-0.4-0.2-0.5c-0.1-0.1-0.3-0.2-0.5-0.3c-0.1,0-0.6,0-1.2,0H49.7z
		 M49.7,100.9v1.9h1.3c0.5,0,0.9,0,1,0c0.2,0,0.4-0.1,0.5-0.3c0.1-0.2,0.2-0.4,0.2-0.6c0-0.2-0.1-0.4-0.2-0.5s-0.3-0.3-0.5-0.3
		c-0.2-0.1-0.6-0.1-1.3-0.1H49.7z"/>
	<path fill="#13B3D8" d="M55.5,96.8h1.4v3.9c0,0.6,0,1,0.1,1.2c0.1,0.3,0.2,0.5,0.4,0.7c0.2,0.2,0.6,0.3,1,0.3
		c0.4,0,0.7-0.1,0.9-0.3c0.2-0.2,0.3-0.4,0.4-0.6s0.1-0.6,0.1-1.2v-4h1.4v3.8c0,0.9,0,1.5-0.1,1.8s-0.2,0.7-0.4,0.9
		c-0.2,0.2-0.5,0.4-0.8,0.6c-0.4,0.1-0.8,0.2-1.4,0.2c-0.7,0-1.2-0.1-1.6-0.2c-0.4-0.2-0.6-0.4-0.8-0.6c-0.2-0.3-0.3-0.5-0.4-0.8
		c-0.1-0.4-0.1-1-0.1-1.8V96.8z"/>
	<path fill="#13B3D8" d="M62.7,104v-7.2h1.4v7.2H62.7z"/>
	<path fill="#13B3D8" d="M65.5,104v-7.1H67v5.9h3.6v1.2H65.5z"/>
	<path fill="#13B3D8" d="M71.6,96.8h2.6c0.6,0,1,0,1.4,0.1c0.4,0.1,0.8,0.3,1.1,0.7s0.5,0.7,0.7,1.2c0.2,0.5,0.2,1,0.2,1.7
		c0,0.6-0.1,1.1-0.2,1.5c-0.2,0.5-0.4,0.9-0.8,1.3c-0.3,0.2-0.6,0.4-1,0.6c-0.3,0.1-0.7,0.2-1.3,0.2h-2.7V96.8z M73.1,98v4.7h1.1
		c0.4,0,0.7,0,0.9-0.1c0.2-0.1,0.4-0.2,0.6-0.3c0.2-0.1,0.3-0.4,0.4-0.7c0.1-0.3,0.1-0.8,0.1-1.3s0-1-0.1-1.3s-0.2-0.5-0.4-0.7
		s-0.4-0.3-0.7-0.3c-0.2,0-0.6-0.1-1.2-0.1H73.1z"/>
</g>
</svg>
