<?xml version="1.0" encoding="utf-8"?>
<!-- Generator: Adobe Illustrator 18.1.1, SVG Export Plug-In . SVG Version: 6.00 Build 0)  -->
<svg version="1.1" id="Layer_1" xmlns="http://www.w3.org/2000/svg" xmlns:xlink="http://www.w3.org/1999/xlink" x="0px" y="0px"
	 width="120px" height="135px" viewBox="0 0 120 135" enable-background="new 0 0 120 135" xml:space="preserve">
<g>
	<g>
		<polygon fill="#F7A166" points="41.4,80 25.3,65 44.7,46.2 46.1,47.7 28.2,65 42.8,78.5 		"/>
		<polygon fill="#F7A166" points="76.8,83.7 75.4,82.3 94,65 76.7,48.4 78.1,47 96.9,65 		"/>
		
			<rect x="58.7" y="37.2" transform="matrix(0.9365 0.3506 -0.3506 0.9365 26.0262 -16.9025)" fill="#F7A166" width="2" height="52.4"/>
	</g>
	<path fill="#F7A166" d="M61.1,127.4c-1.2,0-2.4-0.3-3.4-0.9L9.9,98.9c-2.1-1.2-3.4-3.5-3.4-5.9V37.9c0-2.4,1.3-4.7,3.4-5.9
		L57.7,4.5c2.1-1.2,4.8-1.2,6.8,0L112.3,32c2.1,1.2,3.4,3.5,3.4,5.9V93c0,2.4-1.3,4.7-3.4,5.9l-47.7,27.5
		C63.5,127.1,62.3,127.4,61.1,127.4z M61.1,5.6c-0.8,0-1.7,0.2-2.4,0.6L10.9,33.8c-1.5,0.9-2.4,2.5-2.4,4.2V93
		c0,1.7,0.9,3.3,2.4,4.2l47.7,27.5c1.5,0.8,3.4,0.8,4.8,0l47.7-27.5c1.5-0.9,2.4-2.5,2.4-4.2V37.9c0-1.7-0.9-3.3-2.4-4.2L63.5,6.2
		C62.8,5.8,61.9,5.6,61.1,5.6z"/>
	<g>
		<path fill="#F7A166" d="M44.4,95.8H47c0.6,0,1,0,1.4,0.1c0.4,0.1,0.8,0.3,1.1,0.7s0.5,0.7,0.7,1.2c0.2,0.5,0.2,1,0.2,1.7
			c0,0.6-0.1,1.1-0.2,1.5c-0.2,0.5-0.4,0.9-0.8,1.3c-0.3,0.2-0.6,0.4-1,0.6c-0.3,0.1-0.7,0.2-1.3,0.2h-2.7V95.8z M45.8,97v4.7h1.1
			c0.4,0,0.7,0,0.9-0.1c0.2-0.1,0.4-0.2,0.6-0.3c0.2-0.1,0.3-0.4,0.4-0.7c0.1-0.3,0.1-0.8,0.1-1.3s0-1-0.1-1.3s-0.2-0.5-0.4-0.7
			s-0.4-0.3-0.7-0.3c-0.2,0-0.6-0.1-1.2-0.1H45.8z"/>
		<path fill="#F7A166" d="M51.6,103v-7.2h5.3V97h-3.9v1.6h3.6v1.2h-3.6v1.9h4v1.2H51.6z"/>
		<path fill="#F7A166" d="M57.9,100.6l1.4-0.1c0.1,0.5,0.3,0.8,0.5,1c0.3,0.2,0.6,0.3,1,0.3c0.5,0,0.8-0.1,1.1-0.3
			c0.2-0.2,0.4-0.4,0.4-0.7c0-0.2,0-0.3-0.1-0.4c-0.1-0.1-0.3-0.2-0.5-0.3c-0.2-0.1-0.6-0.2-1.2-0.3c-0.8-0.2-1.3-0.4-1.6-0.7
			c-0.4-0.4-0.7-0.9-0.7-1.4c0-0.4,0.1-0.7,0.3-1c0.2-0.3,0.5-0.6,0.9-0.7c0.4-0.2,0.9-0.2,1.4-0.2c0.9,0,1.6,0.2,2,0.6
			c0.5,0.4,0.7,0.9,0.7,1.6l-1.4,0.1c-0.1-0.4-0.2-0.6-0.4-0.8c-0.2-0.2-0.5-0.2-0.9-0.2c-0.4,0-0.7,0.1-1,0.3
			c-0.2,0.1-0.2,0.3-0.2,0.4c0,0.2,0.1,0.3,0.2,0.4c0.2,0.2,0.6,0.3,1.3,0.5s1.2,0.3,1.6,0.5c0.3,0.2,0.6,0.4,0.8,0.7
			c0.2,0.3,0.3,0.7,0.3,1.1c0,0.4-0.1,0.8-0.3,1.2s-0.5,0.6-1,0.8c-0.4,0.2-0.9,0.3-1.6,0.3c-0.9,0-1.6-0.2-2.1-0.6
			C58.3,102.1,58,101.4,57.9,100.6z"/>
		<path fill="#F7A166" d="M64.9,103v-7.2h1.4v7.2H64.9z"/>
		<path fill="#F7A166" d="M71.1,100.3v-1.2h3.1v2.9c-0.3,0.3-0.7,0.6-1.3,0.8c-0.6,0.2-1.2,0.3-1.7,0.3c-0.7,0-1.4-0.2-2-0.5
			c-0.6-0.3-1-0.8-1.3-1.3c-0.3-0.6-0.4-1.2-0.4-1.9c0-0.7,0.2-1.4,0.5-2s0.8-1,1.4-1.3c0.5-0.2,1-0.4,1.7-0.4
			c0.9,0,1.6,0.2,2.1,0.6c0.5,0.4,0.8,0.9,1,1.5l-1.4,0.3c-0.1-0.4-0.3-0.6-0.6-0.8c-0.3-0.2-0.6-0.3-1-0.3c-0.6,0-1.1,0.2-1.5,0.6
			c-0.4,0.4-0.6,1-0.6,1.8c0,0.8,0.2,1.5,0.6,1.9c0.4,0.4,0.9,0.6,1.5,0.6c0.3,0,0.6-0.1,0.9-0.2c0.3-0.1,0.6-0.3,0.8-0.4v-0.9H71.1
			z"/>
		<path fill="#F7A166" d="M75.5,103v-7.2h1.4l2.9,4.8v-4.8h1.3v7.2h-1.5l-2.9-4.7v4.7H75.5z"/>
	</g>
</g>
</svg>
