<?xml version="1.0" encoding="utf-8"?>
<!-- Generator: Adobe Illustrator 18.1.1, SVG Export Plug-In . SVG Version: 6.00 Build 0)  -->
<svg version="1.1" id="Layer_1" xmlns="http://www.w3.org/2000/svg" xmlns:xlink="http://www.w3.org/1999/xlink" x="0px" y="0px"
	 width="20.5px" height="19.6px" viewBox="0 0 20.5 19.6" enable-background="new 0 0 20.5 19.6" xml:space="preserve">
<path fill="#72CEED" d="M8.6,18.8c-0.3,0-0.6-0.1-0.9-0.2l-6.2-3.6c-0.5-0.3-0.9-0.9-0.9-1.5V6.4c0-0.6,0.3-1.2,0.9-1.5l6.2-3.6
	C8.3,1,9,1,9.5,1.3l6.2,3.6c0.5,0.3,0.9,0.9,0.9,1.5v7.1c0,0.6-0.3,1.2-0.9,1.5l-6.2,3.6C9.2,18.8,8.9,18.8,8.6,18.8z M2.7,13.4
	l5.9,3.4l5.9-3.4V6.6L8.6,3.1L2.7,6.6V13.4z"/>
</svg>
