<?xml version="1.0" encoding="utf-8"?>
<!-- Generator: Adobe Illustrator 18.1.1, SVG Export Plug-In . SVG Version: 6.00 Build 0)  -->
<svg version="1.1" id="Layer_1" xmlns="http://www.w3.org/2000/svg" xmlns:xlink="http://www.w3.org/1999/xlink" x="0px" y="0px"
	 width="120px" height="135px" viewBox="0 0 120 135" enable-background="new 0 0 120 135" xml:space="preserve">
<path fill="#7EE16D" d="M37.5,57.1L29,52.5v-9.2l8.5-4.5l8.5,4.5v9.2L37.5,57.1z M31,51.3l6.5,3.5l6.5-3.5v-6.8l-6.5-3.5L31,44.5
	V51.3z"/>
<path fill="#7EE16D" d="M83,57.7l-8-4.6V44l8-4.6l8,4.6v9.2L83,57.7z M77,52l6,3.4l6-3.4v-6.9l-6-3.4l-6,3.4V52z"/>
<path fill="#7EE16D" d="M60.5,47.2L52,42.7v-9.2l8.5-4.5l8.5,4.5v9.2L60.5,47.2z M54,41.5l6.5,3.5l6.5-3.5v-6.8l-6.5-3.5L54,34.7
	V41.5z"/>
<path fill="#7EE16D" d="M60.5,92.4L50,86.8V75.5l10.5-5.6L71,75.5v11.3L60.5,92.4z M52,85.6l8.5,4.5l8.5-4.5v-8.9l-8.5-4.5L52,76.7
	V85.6z"/>
<rect x="36.2" y="63" transform="matrix(0.5749 0.8182 -0.8182 0.5749 72.7973 -12.1489)" fill="#7EE16D" width="23.7" height="2"/>
<rect x="71.5" y="52.7" transform="matrix(0.8214 0.5704 -0.5704 0.8214 49.5983 -29.879)" fill="#7EE16D" width="2" height="23"/>
<rect x="59" y="47" fill="#7EE16D" width="2" height="25"/>
<path fill="#7EE16D" d="M60.1,130.4c-1.2,0-2.4-0.3-3.4-0.9L8.9,101.9c-2.1-1.2-3.4-3.5-3.4-5.9V40.9c0-2.4,1.3-4.7,3.4-5.9
	L56.7,7.5c2.1-1.2,4.8-1.2,6.8,0L111.3,35c2.1,1.2,3.4,3.5,3.4,5.9V96c0,2.4-1.3,4.7-3.4,5.9l-47.7,27.5
	C62.5,130.1,61.3,130.4,60.1,130.4z M60.1,8.6c-0.8,0-1.7,0.2-2.4,0.6L9.9,36.8c-1.5,0.9-2.4,2.5-2.4,4.2V96c0,1.7,0.9,3.3,2.4,4.2
	l47.7,27.5c1.5,0.8,3.4,0.8,4.8,0l47.7-27.5c1.5-0.9,2.4-2.5,2.4-4.2V40.9c0-1.7-0.9-3.3-2.4-4.2L62.5,9.2
	C61.8,8.8,60.9,8.6,60.1,8.6z"/>
<g>
	<path fill="#7EE16D" d="M43.7,103.6l1.4-0.1c0.1,0.5,0.3,0.8,0.5,1c0.3,0.2,0.6,0.3,1,0.3c0.5,0,0.8-0.1,1.1-0.3
		c0.2-0.2,0.4-0.4,0.4-0.7c0-0.2,0-0.3-0.1-0.4c-0.1-0.1-0.3-0.2-0.5-0.3c-0.2-0.1-0.6-0.2-1.2-0.3c-0.8-0.2-1.3-0.4-1.6-0.7
		c-0.4-0.4-0.7-0.9-0.7-1.4c0-0.4,0.1-0.7,0.3-1c0.2-0.3,0.5-0.6,0.9-0.7c0.4-0.2,0.9-0.2,1.4-0.2c0.9,0,1.6,0.2,2,0.6
		c0.5,0.4,0.7,0.9,0.7,1.6l-1.4,0.1c-0.1-0.4-0.2-0.6-0.4-0.8c-0.2-0.2-0.5-0.2-0.9-0.2c-0.4,0-0.7,0.1-1,0.3
		c-0.2,0.1-0.2,0.3-0.2,0.4c0,0.2,0.1,0.3,0.2,0.4c0.2,0.2,0.6,0.3,1.3,0.5s1.2,0.3,1.6,0.5c0.3,0.2,0.6,0.4,0.8,0.7
		c0.2,0.3,0.3,0.7,0.3,1.1c0,0.4-0.1,0.8-0.3,1.2s-0.5,0.6-1,0.8c-0.4,0.2-0.9,0.3-1.6,0.3c-0.9,0-1.6-0.2-2.1-0.6
		C44.1,105.1,43.8,104.4,43.7,103.6z"/>
	<path fill="#7EE16D" d="M50.7,106v-7.2h1.4v2.8H55v-2.8h1.4v7.2H55v-3.1h-2.8v3.1H50.7z"/>
	<path fill="#7EE16D" d="M64.4,106h-1.6l-0.6-1.6h-2.9l-0.6,1.6h-1.5l2.8-7.2h1.5L64.4,106z M61.7,103.1l-1-2.7l-1,2.7H61.7z"/>
	<path fill="#7EE16D" d="M65.2,106v-7.2h3c0.8,0,1.3,0.1,1.7,0.2c0.3,0.1,0.6,0.4,0.8,0.7s0.3,0.7,0.3,1.1c0,0.5-0.2,1-0.5,1.3
		c-0.3,0.3-0.8,0.6-1.4,0.7c0.3,0.2,0.6,0.4,0.8,0.6c0.2,0.2,0.5,0.6,0.8,1.2l0.9,1.4h-1.7l-1-1.6c-0.4-0.6-0.6-0.9-0.8-1.1
		c-0.1-0.1-0.3-0.2-0.4-0.3c-0.2-0.1-0.4-0.1-0.7-0.1h-0.3v3H65.2z M66.6,101.8h1.1c0.7,0,1.1,0,1.3-0.1s0.3-0.2,0.4-0.3
		s0.1-0.3,0.1-0.5c0-0.2-0.1-0.4-0.2-0.6c-0.1-0.1-0.3-0.2-0.5-0.3c-0.1,0-0.5,0-1.1,0h-1.1V101.8z"/>
	<path fill="#7EE16D" d="M72.4,106v-7.2h5.3v1.2h-3.9v1.6h3.6v1.2h-3.6v1.9h4v1.2H72.4z"/>
</g>
</svg>
