<?xml version="1.0" encoding="utf-8"?>
<!-- Generator: Adobe Illustrator 18.1.1, SVG Export Plug-In . SVG Version: 6.00 Build 0)  -->
<svg version="1.1" id="Layer_1" xmlns="http://www.w3.org/2000/svg" xmlns:xlink="http://www.w3.org/1999/xlink" x="0px" y="0px"
	 width="120px" height="135px" viewBox="0 0 120 135" enable-background="new 0 0 120 135" xml:space="preserve">
<path fill="#C282F4" d="M59.1,128.4c-1.2,0-2.4-0.3-3.4-0.9L7.9,99.9c-2.1-1.2-3.4-3.5-3.4-5.9V38.9c0-2.4,1.3-4.7,3.4-5.9L55.7,5.5
	c2.1-1.2,4.8-1.2,6.8,0L110.3,33c2.1,1.2,3.4,3.5,3.4,5.9V94c0,2.4-1.3,4.7-3.4,5.9l-47.7,27.5C61.5,128.1,60.3,128.4,59.1,128.4z
	 M59.1,6.6c-0.8,0-1.7,0.2-2.4,0.6L8.9,34.8c-1.5,0.9-2.4,2.5-2.4,4.2V94c0,1.7,0.9,3.3,2.4,4.2l47.7,27.5c1.5,0.8,3.4,0.8,4.8,0
	l47.7-27.5c1.5-0.9,2.4-2.5,2.4-4.2V38.9c0-1.7-0.9-3.3-2.4-4.2L61.5,7.2C60.8,6.8,59.9,6.6,59.1,6.6z"/>
<g>
	<rect x="45" y="45" fill="#C282F4" width="20" height="2"/>
	<rect x="45" y="52" fill="#C282F4" width="17" height="2"/>
	<rect x="45" y="59" fill="#C282F4" width="20" height="2"/>
	<rect x="45" y="66" fill="#C282F4" width="27" height="2"/>
	<rect x="45" y="73" fill="#C282F4" width="27" height="2"/>
	<rect x="45" y="80" fill="#C282F4" width="27" height="2"/>
	<polygon fill="#C282F4" points="74.5,57.4 69.8,52.8 71.2,51.3 74.5,54.6 84.6,44.5 86,45.9 	"/>
	<path fill="#C282F4" d="M75.5,62.5c-5.2,0-9.5-4.3-9.5-9.5s4.3-9.5,9.5-9.5c5.2,0,9.5,4.3,9.5,9.5S80.7,62.5,75.5,62.5z M75.5,45.5
		c-4.1,0-7.5,3.4-7.5,7.5s3.4,7.5,7.5,7.5S83,57.2,83,53S79.6,45.5,75.5,45.5z"/>
	<polygon fill="#C282F4" points="79,89 39,89 39,38 79,38 79,42 77,42 77,40 41,40 41,87 77,87 77,66 79,66 	"/>
</g>
<g>
	<path fill="#C282F4" d="M32.7,96.8h2.6c0.6,0,1,0,1.4,0.1c0.4,0.1,0.8,0.3,1.1,0.7s0.5,0.7,0.7,1.2c0.2,0.5,0.2,1,0.2,1.7
		c0,0.6-0.1,1.1-0.2,1.5c-0.2,0.5-0.4,0.9-0.8,1.3c-0.3,0.2-0.6,0.4-1,0.6c-0.3,0.1-0.7,0.2-1.3,0.2h-2.7V96.8z M34.1,98v4.7h1.1
		c0.4,0,0.7,0,0.9-0.1c0.2-0.1,0.4-0.2,0.6-0.3c0.2-0.1,0.3-0.4,0.4-0.7c0.1-0.3,0.1-0.8,0.1-1.3s0-1-0.1-1.3s-0.2-0.5-0.4-0.7
		s-0.4-0.3-0.7-0.3c-0.2,0-0.6-0.1-1.2-0.1H34.1z"/>
	<path fill="#C282F4" d="M39.6,100.4c0-0.7,0.1-1.3,0.3-1.8c0.2-0.4,0.4-0.7,0.7-1c0.3-0.3,0.6-0.5,0.9-0.6c0.4-0.2,1-0.3,1.5-0.3
		c1.1,0,1.9,0.3,2.5,1c0.6,0.7,1,1.6,1,2.7c0,1.2-0.3,2.1-0.9,2.7c-0.6,0.7-1.5,1-2.5,1c-1.1,0-1.9-0.3-2.5-1
		C39.9,102.5,39.6,101.6,39.6,100.4z M41.1,100.4c0,0.8,0.2,1.4,0.6,1.8c0.4,0.4,0.8,0.6,1.4,0.6s1-0.2,1.4-0.6
		c0.4-0.4,0.6-1,0.6-1.9c0-0.8-0.2-1.4-0.5-1.8c-0.4-0.4-0.8-0.6-1.4-0.6s-1.1,0.2-1.4,0.6C41.3,98.9,41.1,99.6,41.1,100.4z"/>
	<path fill="#C282F4" d="M52.3,101.3l1.4,0.4c-0.2,0.8-0.6,1.4-1.1,1.7c-0.5,0.4-1.1,0.6-1.9,0.6c-1,0-1.7-0.3-2.3-1
		c-0.6-0.7-0.9-1.5-0.9-2.7c0-1.2,0.3-2.1,0.9-2.8c0.6-0.7,1.4-1,2.4-1c0.9,0,1.6,0.3,2.1,0.8c0.3,0.3,0.6,0.7,0.7,1.3l-1.4,0.3
		c-0.1-0.4-0.3-0.7-0.5-0.9c-0.3-0.2-0.6-0.3-1-0.3c-0.5,0-1,0.2-1.3,0.6c-0.3,0.4-0.5,1-0.5,1.9c0,0.9,0.2,1.5,0.5,1.9
		s0.7,0.6,1.3,0.6c0.4,0,0.7-0.1,1-0.4S52.1,101.9,52.3,101.3z"/>
	<path fill="#C282F4" d="M54.9,96.8h1.4v3.9c0,0.6,0,1,0.1,1.2c0.1,0.3,0.2,0.5,0.4,0.7c0.2,0.2,0.6,0.3,1,0.3
		c0.4,0,0.7-0.1,0.9-0.3c0.2-0.2,0.3-0.4,0.4-0.6s0.1-0.6,0.1-1.2v-4h1.4v3.8c0,0.9,0,1.5-0.1,1.8s-0.2,0.7-0.4,0.9
		c-0.2,0.2-0.5,0.4-0.8,0.6c-0.4,0.1-0.8,0.2-1.4,0.2c-0.7,0-1.2-0.1-1.6-0.2c-0.4-0.2-0.6-0.4-0.8-0.6c-0.2-0.3-0.3-0.5-0.4-0.8
		c-0.1-0.4-0.1-1-0.1-1.8V96.8z"/>
	<path fill="#C282F4" d="M62.1,104v-7.2h2.2l1.3,4.9l1.3-4.9H69v7.2h-1.3v-5.6l-1.4,5.6h-1.4l-1.4-5.6v5.6H62.1z"/>
	<path fill="#C282F4" d="M70.4,104v-7.2h5.3V98h-3.9v1.6h3.6v1.2h-3.6v1.9h4v1.2H70.4z"/>
	<path fill="#C282F4" d="M77.1,104v-7.2h1.4l2.9,4.8v-4.8h1.3v7.2h-1.5l-2.9-4.7v4.7H77.1z"/>
	<path fill="#C282F4" d="M86,104V98h-2.1v-1.2h5.7V98h-2.1v5.9H86z"/>
</g>
</svg>
