<?xml version="1.0" encoding="utf-8"?>
<!-- Generator: Adobe Illustrator 18.1.1, SVG Export Plug-In . SVG Version: 6.00 Build 0)  -->
<svg version="1.1" id="Layer_1" xmlns="http://www.w3.org/2000/svg" xmlns:xlink="http://www.w3.org/1999/xlink" x="0px" y="0px"
	 width="23px" height="22.3px" viewBox="0 0 23 22.3" enable-background="new 0 0 23 22.3" xml:space="preserve">
<g>
	<path fill="#72CEED" d="M7.2,17.3c-0.5,0-0.9-0.2-1.2-0.5l-4.9-4.9c-0.4-0.4-0.6-1.1-0.4-1.7l1.8-6.7C2.7,3,3.1,2.5,3.7,2.3
		l6.7-1.8C11,0.4,11.6,0.6,12,1l4.9,4.9c0.4,0.4,0.6,1.1,0.4,1.7l-1.8,6.7c-0.2,0.6-0.6,1.1-1.2,1.2l-6.7,1.8
		C7.6,17.3,7.4,17.3,7.2,17.3z M2.7,10.6l4.7,4.7l6.4-1.7l1.7-6.4l-4.7-4.7L4.4,4.2L2.7,10.6z"/>
	<path fill="#72CEED" d="M21.1,21c-0.8,0.8-1.9,1-2.4,0.4l-5.1-5.1c-0.6-0.6-0.4-1.6,0.4-2.4c0.8-0.8,1.9-1,2.4-0.4l5.1,5.1
		C22.1,19.2,21.9,20.2,21.1,21z"/>
</g>
</svg>
