<?xml version="1.0" encoding="utf-8"?>
<!-- Generator: Adobe Illustrator 18.1.1, SVG Export Plug-In . SVG Version: 6.00 Build 0)  -->
<svg version="1.1" id="Layer_1" xmlns="http://www.w3.org/2000/svg" xmlns:xlink="http://www.w3.org/1999/xlink" x="0px" y="0px"
	 width="120px" height="135px" viewBox="0 0 120 135" enable-background="new 0 0 120 135" xml:space="preserve">
<path fill="#66AAED" d="M52.5,79.8L48,77.4v-5.1l4.5-2.5l4.5,2.5v5.1L52.5,79.8z M50,76.2l2.5,1.4l2.5-1.4v-2.7l-2.5-1.4L50,73.5
	V76.2z"/>
<path fill="#66AAED" d="M62,86.6l-4-2.4v-4.7l4-2.4l4,2.4v4.7L62,86.6z M60,83l2,1.2l2-1.2v-2.4l-2-1.2l-2,1.2V83z"/>
<path fill="#66AAED" d="M70.5,81.6l-3.5-2v-4l3.5-2l3.5,2v4L70.5,81.6z M69,78.5l1.5,0.9l1.5-0.9v-1.7l-1.5-0.9L69,76.7V78.5z"/>
<path fill="#66AAED" d="M60.1,129.4c-1.2,0-2.4-0.3-3.4-0.9L8.9,100.9c-2.1-1.2-3.4-3.5-3.4-5.9V39.9c0-2.4,1.3-4.7,3.4-5.9
	L56.7,6.5c2.1-1.2,4.8-1.2,6.8,0L111.3,34c2.1,1.2,3.4,3.5,3.4,5.9V95c0,2.4-1.3,4.7-3.4,5.9l-47.7,27.5
	C62.5,129.1,61.3,129.4,60.1,129.4z M60.1,7.6c-0.8,0-1.7,0.2-2.4,0.6L9.9,35.8c-1.5,0.9-2.4,2.5-2.4,4.2V95c0,1.7,0.9,3.3,2.4,4.2
	l47.7,27.5c1.5,0.8,3.4,0.8,4.8,0l47.7-27.5c1.5-0.9,2.4-2.5,2.4-4.2V39.9c0-1.7-0.9-3.3-2.4-4.2L62.5,8.2
	C61.8,7.8,60.9,7.6,60.1,7.6z"/>
<g>
	<path fill="#66AAED" d="M51.4,105V99h-2.1v-1.2H55V99h-2.1v5.9H51.4z"/>
	<path fill="#66AAED" d="M55.9,105v-7.2h5.3V99h-3.9v1.6h3.6v1.2h-3.6v1.9h4v1.2H55.9z"/>
	<path fill="#66AAED" d="M62.2,102.6l1.4-0.1c0.1,0.5,0.3,0.8,0.5,1c0.3,0.2,0.6,0.3,1,0.3c0.5,0,0.8-0.1,1.1-0.3
		c0.2-0.2,0.4-0.4,0.4-0.7c0-0.2,0-0.3-0.1-0.4c-0.1-0.1-0.3-0.2-0.5-0.3c-0.2-0.1-0.6-0.2-1.2-0.3c-0.8-0.2-1.3-0.4-1.6-0.7
		c-0.4-0.4-0.7-0.9-0.7-1.4c0-0.4,0.1-0.7,0.3-1c0.2-0.3,0.5-0.6,0.9-0.7c0.4-0.2,0.9-0.2,1.4-0.2c0.9,0,1.6,0.2,2,0.6
		c0.5,0.4,0.7,0.9,0.7,1.6l-1.4,0.1c-0.1-0.4-0.2-0.6-0.4-0.8c-0.2-0.2-0.5-0.2-0.9-0.2c-0.4,0-0.7,0.1-1,0.3
		c-0.2,0.1-0.2,0.3-0.2,0.4c0,0.2,0.1,0.3,0.2,0.4c0.2,0.2,0.6,0.3,1.3,0.5s1.2,0.3,1.6,0.5c0.3,0.2,0.6,0.4,0.8,0.7
		c0.2,0.3,0.3,0.7,0.3,1.1c0,0.4-0.1,0.8-0.3,1.2s-0.5,0.6-1,0.8c-0.4,0.2-0.9,0.3-1.6,0.3c-0.9,0-1.6-0.2-2.1-0.6
		C62.6,104.1,62.3,103.4,62.2,102.6z"/>
	<path fill="#66AAED" d="M70.8,105V99h-2.1v-1.2h5.7V99h-2.1v5.9H70.8z"/>
</g>
<path fill="#66AAED" d="M83.8,90.6H36.3c-0.8,0-1.4-0.4-1.8-1.1c-0.4-0.7-0.4-1.5,0-2.1l19.2-33.1V36.1l-3.2-0.8v-5.8H69v5.3l-3.3,1
	V54l19.9,33.3c0.4,0.7,0.4,1.5,0,2.1S84.6,90.6,83.8,90.6z M52.5,33.8l3.2,0.8v20.3L36.2,88.4c0,0,0,0.1,0,0.1
	c0,0.1,0.1,0.1,0.1,0.1h47.5c0,0,0.1,0,0.1-0.1c0-0.1,0-0.1,0-0.1L63.8,54.6V34.3l3.3-1v-1.7H52.5V33.8z"/>
<rect x="58" y="35" fill="#66AAED" width="2" height="20"/>
<rect x="48" y="66" fill="#66AAED" width="18" height="2"/>
</svg>
