<svg width="53" height="60" viewBox="0 0 53 60" xmlns="http://www.w3.org/2000/svg"><g fill-rule="nonzero" fill="none"><path d="M26.457 59.712c-.576 0-1.153-.144-1.633-.432L1.873 46.032C.864 45.456.24 44.352.24 43.2V16.752c0-1.152.624-2.256 1.633-2.832L24.824.72c1.009-.576 2.305-.576 3.265 0l22.952 13.2c1.008.576 1.632 1.68 1.632 2.832V43.2c0 1.152-.624 2.256-1.632 2.832l-22.904 13.2c-.528.336-1.104.48-1.68.48z" fill="#B2ABF2"/><path d="M26.457 1.248c-.384 0-.817.096-1.153.288L2.353 14.784c-.72.432-1.153 1.2-1.153 2.016v26.4c0 .816.433 1.584 1.153 2.016l22.903 13.2c.72.384 1.633.384 2.305 0l22.904-13.2c.72-.432 1.152-1.2 1.152-2.016V16.752c0-.816-.432-1.584-1.152-2.016l-22.856-13.2c-.336-.192-.768-.288-1.152-.288z" fill="#B2ABF2"/><path d="M15.605 28.528l-4.081-2.208v-4.416l4.081-2.16 4.082 2.16v4.416l-4.082 2.208zm-3.12-2.784l3.12 1.68 3.121-1.68V22.48l-3.12-1.68-3.122 1.68v3.264zM37.452 28.816l-3.84-2.208V22.24l3.84-2.208 3.842 2.208v4.416l-3.842 2.16zm-2.88-2.736l2.88 1.632 2.881-1.632v-3.312l-2.88-1.632-2.882 1.632v3.312zM26.649 23.776l-4.082-2.16V17.2l4.082-2.16 4.081 2.16v4.416l-4.081 2.16zm-3.121-2.736l3.12 1.68 3.122-1.68v-3.264l-3.121-1.68-3.121 1.68v3.264zM26.649 45.472l-5.042-2.688V37.36l5.042-2.688 5.041 2.688v5.424l-5.041 2.688zm-4.082-3.264l4.082 2.16 4.081-2.16v-4.272l-4.081-2.16-4.082 2.16v4.272z" stroke="#FFF" stroke-width=".75" fill="#FFF"/><path stroke="#FFF" stroke-width=".5" fill="#FFF" d="M17.796 26.889l6.542 9.31-.818.576-6.542-9.311zM35.18 27.132l.82.57-6.296 9.069-.822-.57zM25.929 23.68h.96v12h-.96z"/></g></svg>