<?xml version="1.0" encoding="utf-8"?>
<!-- Generator: Adobe Illustrator 19.1.0, SVG Export Plug-In . SVG Version: 6.00 Build 0)  -->
<svg version="1.1" id="Layer_1" xmlns="http://www.w3.org/2000/svg" xmlns:xlink="http://www.w3.org/1999/xlink" x="0px" y="0px"
	 width="120px" height="130px" viewBox="246 331 120 130" style="enable-background:new 246 331 120 130;" xml:space="preserve">
<style type="text/css">
	.st0{fill:#F6F6F6;stroke:#8AC86A;stroke-width:2;stroke-miterlimit:10;}
	.st1{fill:none;stroke:#8AC86A;stroke-width:2;stroke-miterlimit:10;}
	.st2{fill:#8AC86A;}
</style>
<path class="st0" d="M356.8,429.1L309,456.6c-1.8,1-4,1-5.8,0l-47.7-27.5c-1.8-1-2.9-3-2.9-5.1v-55.1c0-2.1,1.1-4,2.9-5.1l47.7-27.5
	c1.8-1,4-1,5.8,0l47.7,27.5c1.8,1,2.9,3,2.9,5.1V424C359.7,426.1,358.6,428,356.8,429.1z"/>
<polygon class="st1" points="291,379.9 283.5,383.9 276,379.9 276,371.9 283.5,367.9 291,371.9 "/>
<polygon class="st1" points="336,380.6 329,384.6 322,380.6 322,372.6 329,368.6 336,372.6 "/>
<polygon class="st1" points="314,370.1 306.5,374.1 299,370.1 299,362.1 306.5,358.1 314,362.1 "/>
<polygon class="st1" points="316,414.2 306.5,419.2 297,414.2 297,404.1 306.5,399.1 316,404.1 "/>
<line class="st1" x1="300.9" y1="401.7" x2="287.3" y2="382.3"/>
<line class="st1" x1="311.9" y1="401.7" x2="325.1" y2="382.8"/>
<line class="st1" x1="306" y1="400" x2="306" y2="375"/>
<g>
	<path class="st2" d="M289.7,431.6l1.4-0.1c0.1,0.5,0.3,0.8,0.5,1c0.3,0.2,0.6,0.3,1,0.3c0.5,0,0.8-0.1,1.1-0.3
		c0.2-0.2,0.4-0.4,0.4-0.7c0-0.2,0-0.3-0.1-0.4s-0.3-0.2-0.5-0.3c-0.2-0.1-0.6-0.2-1.2-0.3c-0.8-0.2-1.3-0.4-1.6-0.7
		c-0.4-0.4-0.7-0.9-0.7-1.4c0-0.4,0.1-0.7,0.3-1c0.2-0.3,0.5-0.6,0.9-0.7c0.4-0.2,0.9-0.2,1.4-0.2c0.9,0,1.6,0.2,2,0.6
		c0.5,0.4,0.7,0.9,0.7,1.6l-1.4,0.1c-0.1-0.4-0.2-0.6-0.4-0.8c-0.2-0.2-0.5-0.2-0.9-0.2s-0.7,0.1-1,0.3c-0.2,0.1-0.2,0.3-0.2,0.4
		c0,0.2,0.1,0.3,0.2,0.4c0.2,0.2,0.6,0.3,1.3,0.5c0.7,0.2,1.2,0.3,1.6,0.5c0.3,0.2,0.6,0.4,0.8,0.7c0.2,0.3,0.3,0.7,0.3,1.1
		s-0.1,0.8-0.3,1.2c-0.2,0.4-0.5,0.6-1,0.8c-0.4,0.2-0.9,0.3-1.6,0.3c-0.9,0-1.6-0.2-2.1-0.6C290.1,433.1,289.8,432.4,289.7,431.6z"
		/>
	<path class="st2" d="M296.7,434v-7.2h1.4v2.8h2.9v-2.8h1.4v7.2H301v-3.1h-2.8v3.1H296.7z"/>
	<path class="st2" d="M310.4,434h-1.6l-0.6-1.6h-2.9l-0.6,1.6h-1.5l2.8-7.2h1.5L310.4,434z M307.7,431.1l-1-2.7l-1,2.7H307.7z"/>
	<path class="st2" d="M311.2,434v-7.2h3c0.8,0,1.3,0.1,1.7,0.2c0.3,0.1,0.6,0.4,0.8,0.7c0.2,0.3,0.3,0.7,0.3,1.1
		c0,0.5-0.2,1-0.5,1.3s-0.8,0.6-1.4,0.7c0.3,0.2,0.6,0.4,0.8,0.6c0.2,0.2,0.5,0.6,0.8,1.2l0.9,1.4h-1.7l-1-1.6
		c-0.4-0.6-0.6-0.9-0.8-1.1c-0.1-0.1-0.3-0.2-0.4-0.3c-0.2-0.1-0.4-0.1-0.7-0.1h-0.3v3L311.2,434L311.2,434z M312.6,429.8h1.1
		c0.7,0,1.1,0,1.3-0.1s0.3-0.2,0.4-0.3s0.1-0.3,0.1-0.5s-0.1-0.4-0.2-0.6c-0.1-0.1-0.3-0.2-0.5-0.3c-0.1,0-0.5,0-1.1,0h-1.1
		C312.6,428,312.6,429.8,312.6,429.8z"/>
	<path class="st2" d="M318.4,434v-7.2h5.3v1.2h-3.9v1.6h3.6v1.2h-3.6v1.9h4v1.2L318.4,434L318.4,434z"/>
</g>
</svg>
