<?xml version="1.0" encoding="utf-8"?>
<!-- Generator: Adobe Illustrator 18.1.1, SVG Export Plug-In . SVG Version: 6.00 Build 0)  -->
<svg version="1.1" id="Layer_1" xmlns="http://www.w3.org/2000/svg" xmlns:xlink="http://www.w3.org/1999/xlink" x="0px" y="0px"
	 width="120px" height="135px" viewBox="45 -52 120 135" enable-background="new 45 -52 120 135" xml:space="preserve">
<path fill="#7EE16D" d="M82.5,5.1L74,0.5v-9.2l8.5-4.5L91-8.7v9.2L82.5,5.1z M76-0.7l6.5,3.5L89-0.7v-6.8L82.5-11L76-7.5V-0.7z"/>
<path fill="#7EE16D" d="M128,5.7l-8-4.6V-8l8-4.6l8,4.6v9.2L128,5.7z M122,0l6,3.4l6-3.4v-6.9l-6-3.4l-6,3.4V0z"/>
<path fill="#7EE16D" d="M105.5-4.8L97-9.3v-9.2l8.5-4.5l8.5,4.5v9.2L105.5-4.8z M99-10.5l6.5,3.5l6.5-3.5v-6.8l-6.5-3.5L99-17.3
	V-10.5z"/>
<path fill="#7EE16D" d="M105.5,40.4L95,34.8V23.5l10.5-5.6l10.5,5.6v11.3L105.5,40.4z M97,33.6l8.5,4.5l8.5-4.5v-8.9l-8.5-4.5
	L97,24.7V33.6z"/>
<rect x="81.2" y="11" transform="matrix(-0.5749 -0.8182 0.8182 -0.5749 136.7704 94.9749)" fill="#7EE16D" width="23.7" height="2"/>
<rect x="116.5" y="0.7" transform="matrix(-0.8214 -0.5704 0.5704 -0.8214 207.103 89.2744)" fill="#7EE16D" width="2" height="23"/>
<rect x="104" y="-5" fill="#7EE16D" width="2" height="25"/>
<path fill="#7EE16D" stroke="#7EE16D" stroke-width="2" stroke-miterlimit="10" d="M105.1,78.4c-1.2,0-2.4-0.3-3.4-0.9L53.9,49.9
	c-2.1-1.2-3.4-3.5-3.4-5.9v-55.1c0-2.4,1.3-4.7,3.4-5.9l47.8-27.5c2.1-1.2,4.8-1.2,6.8,0L156.3-17c2.1,1.2,3.4,3.5,3.4,5.9V44
	c0,2.4-1.3,4.7-3.4,5.9l-47.7,27.5C107.5,78.1,106.3,78.4,105.1,78.4z M105.1-43.4c-0.8,0-1.7,0.2-2.4,0.6L54.9-15.2
	c-1.5,0.9-2.4,2.5-2.4,4.2v55c0,1.7,0.9,3.3,2.4,4.2l47.7,27.5c1.5,0.8,3.4,0.8,4.8,0l47.7-27.5c1.5-0.9,2.4-2.5,2.4-4.2v-55.1
	c0-1.7-0.9-3.3-2.4-4.2l-47.6-27.5C106.8-43.2,105.9-43.4,105.1-43.4z"/>
<g>
	<path fill="#7EE16D" d="M88.7,51.6l1.4-0.1c0.1,0.5,0.3,0.8,0.5,1c0.3,0.2,0.6,0.3,1,0.3c0.5,0,0.8-0.1,1.1-0.3
		c0.2-0.2,0.4-0.4,0.4-0.7c0-0.2,0-0.3-0.1-0.4c-0.1-0.1-0.3-0.2-0.5-0.3c-0.2-0.1-0.6-0.2-1.2-0.3c-0.8-0.2-1.3-0.4-1.6-0.7
		c-0.4-0.4-0.7-0.9-0.7-1.4c0-0.4,0.1-0.7,0.3-1s0.5-0.6,0.9-0.7c0.4-0.2,0.9-0.2,1.4-0.2c0.9,0,1.6,0.2,2,0.6
		c0.5,0.4,0.7,0.9,0.7,1.6l-1.4,0.1c-0.1-0.4-0.2-0.6-0.4-0.8c-0.2-0.2-0.5-0.2-0.9-0.2c-0.4,0-0.7,0.1-1,0.3
		c-0.2,0.1-0.2,0.3-0.2,0.4c0,0.2,0.1,0.3,0.2,0.4c0.2,0.2,0.6,0.3,1.3,0.5s1.2,0.3,1.6,0.5c0.3,0.2,0.6,0.4,0.8,0.7
		c0.2,0.3,0.3,0.7,0.3,1.1s-0.1,0.8-0.3,1.2c-0.2,0.4-0.5,0.6-1,0.8c-0.4,0.2-0.9,0.3-1.6,0.3c-0.9,0-1.6-0.2-2.1-0.6
		C89.1,53.1,88.8,52.4,88.7,51.6z"/>
	<path fill="#7EE16D" d="M95.7,54v-7.2h1.4v2.8h2.9v-2.8h1.4V54H100v-3.1h-2.8V54H95.7z"/>
	<path fill="#7EE16D" d="M109.4,54h-1.6l-0.6-1.6h-2.9l-0.6,1.6h-1.5l2.8-7.2h1.5L109.4,54z M106.7,51.1l-1-2.7l-1,2.7H106.7z"/>
	<path fill="#7EE16D" d="M110.2,54v-7.2h3c0.8,0,1.3,0.1,1.7,0.2c0.3,0.1,0.6,0.4,0.8,0.7s0.3,0.7,0.3,1.1c0,0.5-0.2,1-0.5,1.3
		s-0.8,0.6-1.4,0.7c0.3,0.2,0.6,0.4,0.8,0.6c0.2,0.2,0.5,0.6,0.8,1.2l0.9,1.4h-1.7l-1-1.6c-0.4-0.6-0.6-0.9-0.8-1.1
		c-0.1-0.1-0.3-0.2-0.4-0.3c-0.2-0.1-0.4-0.1-0.7-0.1h-0.3v3h-1.5V54z M111.6,49.8h1.1c0.7,0,1.1,0,1.3-0.1s0.3-0.2,0.4-0.3
		s0.1-0.3,0.1-0.5s-0.1-0.4-0.2-0.6c-0.1-0.1-0.3-0.2-0.5-0.3c-0.1,0-0.5,0-1.1,0h-1.1C111.6,48,111.6,49.8,111.6,49.8z"/>
	<path fill="#7EE16D" d="M117.4,54v-7.2h5.3V48h-3.9v1.6h3.6v1.2h-3.6v1.9h4v1.2h-5.4V54z"/>
</g>
</svg>
