<svg width="80" height="40" viewBox="280 0 30 40" xmlns="http://www.w3.org/2000/svg">
	<g fill="#fff" fill-rule="evenodd">
		<g fill-rule="nonzero">
			<path d="M291.196 28.449c0 1.908-.738 2.99-4.397 2.99-.48 0-.899-.028-1.315-.087V6.116c0-1.915.64-3.916 4.332-3.916.482 0 .931.043 1.38.146V28.45zm-7.831-3.822c0 3.548-2.28 6.143-6.902 6.651-3.37.367-8.25-.062-10.559-.329-.097-.384-.161-.861-.161-1.245 0-3.1 1.636-3.816 3.21-3.816 1.604 0 4.14.296 6.035.296 2.053 0 2.695-.71 2.695-1.392 0-.892-.834-1.262-2.438-1.57l-4.43-.863c-3.66-.715-5.618-3.279-5.618-6.007 0-3.327 2.312-6.105 6.87-6.61 3.434-.383 7.639.046 9.95.33.095.4.127.787.127 1.186 0 3.104-1.604 3.774-3.178 3.774-1.154 0-3.016-.224-5.134-.224-2.151 0-3.05.604-3.05 1.333 0 .773.867 1.083 2.184 1.333l4.236.787c4.302.8 6.163 3.296 6.163 6.366zm23.173 13.59c.483.256 1.445.549 2.698.581 2.117.042 3.273-.771 4.14-2.715l11.427-25.806c-.45-.252-1.51-.538-2.376-.548-1.445-.033-3.435.264-4.686 3.305l-3.69 8.845-7.256-11.96c-.48-.147-1.604-.352-2.439-.352-2.568 0-4.012.95-5.489 2.58l-7.029 7.822 5.65 9.032c1.06 1.652 2.44 2.494 4.654 2.494 1.477 0 2.695-.341 3.273-.623l-6.804-10.42 4.814-5.205 7.928 12.628-4.815 10.341z"/>
		</g>
	</g>
</svg>