<?xml version="1.0" encoding="utf-8"?>
<!-- Generator: Adobe Illustrator 19.1.0, SVG Export Plug-In . SVG Version: 6.00 Build 0)  -->
<svg version="1.1" id="Layer_1" xmlns="http://www.w3.org/2000/svg" xmlns:xlink="http://www.w3.org/1999/xlink" x="0px" y="0px"
	 width="120px" height="130px" viewBox="246 331 120 130" style="enable-background:new 246 331 120 130;" xml:space="preserve">
<style type="text/css">
	.st0{fill:#F6F6F6;stroke:#6DA8DB;stroke-width:2;stroke-miterlimit:10;}
	.st1{fill:none;stroke:#6DA8DB;stroke-width:2;stroke-miterlimit:10;}
	.st2{fill:#6DA8DB;}
</style>
<path class="st0" d="M356.8,429.1L309,456.6c-1.8,1-4,1-5.8,0l-47.7-27.5c-1.8-1-2.9-3-2.9-5.1v-55.1c0-2.1,1.1-4,2.9-5.1l47.7-27.5
	c1.8-1,4-1,5.8,0l47.7,27.5c1.8,1,2.9,3,2.9,5.1V424C359.7,426.1,358.6,428,356.8,429.1z"/>
<polygon class="st1" points="302,405.8 298.5,407.7 295,405.8 295,401.9 298.5,399.9 302,401.9 "/>
<polygon class="st1" points="311,412.6 308,414.4 305,412.6 305,409 308,407.2 311,409 "/>
<polygon class="st1" points="319,408 316.5,409.5 314,408 314,405.2 316.5,403.7 319,405.2 "/>
<g>
	<path class="st2" d="M297.4,434v-6h-2.1v-1.2h5.7v1.2h-2.1v5.9h-1.5V434z"/>
	<path class="st2" d="M301.9,434v-7.2h5.3v1.2h-3.9v1.6h3.6v1.2h-3.6v1.9h4v1.2L301.9,434L301.9,434z"/>
	<path class="st2" d="M308.2,431.6l1.4-0.1c0.1,0.5,0.3,0.8,0.5,1c0.3,0.2,0.6,0.3,1,0.3c0.5,0,0.8-0.1,1.1-0.3
		c0.2-0.2,0.4-0.4,0.4-0.7c0-0.2,0-0.3-0.1-0.4s-0.3-0.2-0.5-0.3s-0.6-0.2-1.2-0.3c-0.8-0.2-1.3-0.4-1.6-0.7
		c-0.4-0.4-0.7-0.9-0.7-1.4c0-0.4,0.1-0.7,0.3-1c0.2-0.3,0.5-0.6,0.9-0.7c0.4-0.2,0.9-0.2,1.4-0.2c0.9,0,1.6,0.2,2,0.6
		c0.5,0.4,0.7,0.9,0.7,1.6l-1.4,0.1c-0.1-0.4-0.2-0.6-0.4-0.8c-0.2-0.2-0.5-0.2-0.9-0.2s-0.7,0.1-1,0.3c-0.2,0.1-0.2,0.3-0.2,0.4
		c0,0.2,0.1,0.3,0.2,0.4c0.2,0.2,0.6,0.3,1.3,0.5c0.7,0.2,1.2,0.3,1.6,0.5c0.3,0.2,0.6,0.4,0.8,0.7c0.2,0.3,0.3,0.7,0.3,1.1
		s-0.1,0.8-0.3,1.2c-0.2,0.4-0.5,0.6-1,0.8c-0.4,0.2-0.9,0.3-1.6,0.3c-0.9,0-1.6-0.2-2.1-0.6C308.6,433.1,308.3,432.4,308.2,431.6z"
		/>
	<path class="st2" d="M316.8,434v-6h-2.1v-1.2h5.7v1.2h-2.1v5.9h-1.5V434z"/>
</g>
<path class="st1" d="M310.8,364v19.3l20,33.6c0.4,0.7-0.1,1.7-1,1.7h-47.5c-0.9,0-1.4-0.9-1-1.7l19.4-33.3v-19.2l-3.2-0.8v-4H314
	v3.5L310.8,364z"/>
<line class="st1" x1="305" y1="364" x2="305" y2="384"/>
<line class="st1" x1="294" y1="396" x2="312" y2="396"/>
</svg>
