<svg width="150" height="40" viewBox="150 0 100 40" xmlns="http://www.w3.org/2000/svg">
	<g fill="#fff" fill-rule="evenodd">
		<path d="M145.4 23.242c1.017-2.316 1.922-4.516 2.826-6.831.34-.927.791-1.853 1.13-2.78 2.035-4.4 7.235-4.747 10.287-1.736.566.579.792.347 1.244 0 2.26-1.853 4.86-2.548 7.687-1.621.904.347 1.809.81 2.374 1.505.452.579.678.463 1.13 0 2.487-1.968 5.2-2.663 8.14-1.39 2.373 1.043 3.73 3.127 3.73 5.79v10.768c0 1.969-1.244 3.127-3.165 3.01-1.47-.115-2.374-1.273-2.374-3.01v-8.8-.694c-.113-1.506-1.018-2.548-2.374-2.664-1.583-.231-2.826.58-3.165 1.969-.113.463-.113.926-.113 1.39v8.8c0 1.62-.792 2.778-2.035 3.126-1.696.463-3.165-.463-3.505-2.2-.113-.348-.113-.81-.113-1.158v-8.8c0-1.158-.339-2.084-1.47-2.663-1.13-.58-2.26-.464-3.164.347-.792.695-1.018 1.621-1.018 2.547v9.148c0 1.852-1.13 3.01-2.939 3.01-1.583 0-2.6-1.273-2.6-3.126V16.526v-.579c0-.463-.226-.694-.565-.81-.452-.116-.791.116-.905.463l-1.695 3.821c-1.13 2.663-2.374 5.21-3.505 7.758-.226.579-.565 1.042-.904 1.621-1.47 2.084-4.182 2.084-5.652.116-.678-.927-1.13-2.084-1.583-3.127-1.695-3.82-3.504-7.757-5.2-11.578-.678-1.622-.226-3.127 1.244-3.822 1.47-.694 3.052 0 3.73 1.622 1.47 3.589 2.94 7.063 4.409 10.652-.113.116-.113.348.113.58zM198.87 15.368c-.679 2.085-1.47 4.169-2.148 6.253-.792 2.432-1.696 4.863-2.487 7.295-.34.926-.792 1.273-1.47 1.39-.791 0-1.356-.348-1.695-1.274-1.922-5.443-3.844-10.885-5.766-16.443-.339-.926 0-1.62.792-1.968.904-.347 1.582.116 1.921 1.042 1.47 4.284 2.94 8.569 4.296 12.853.113.231.226.579.34 1.042.677-2.084 1.356-4.053 2.034-5.905.904-2.548 1.809-5.21 2.6-7.758.34-1.042.678-1.274 1.583-1.274.79 0 1.243.347 1.582 1.39 1.47 4.284 2.826 8.452 4.296 12.736.113.348.226.58.339.927.791-2.2 1.47-4.169 2.148-6.253.904-2.547 1.695-5.095 2.6-7.526.226-.58.452-1.042 1.13-1.158 1.13-.232 1.922.695 1.583 1.852-.452 1.39-1.018 2.78-1.47 4.169-1.356 4.053-2.826 7.99-4.182 12.042 0 .116-.113.232-.113.347-.34.81-.905 1.158-1.583 1.158-.678 0-1.243-.463-1.47-1.273l-2.034-5.906c-.792-2.315-1.583-4.747-2.374-7.063-.226-.347-.226-.579-.452-.695zM226.34 27.063c-1.357 1.621-2.827 2.548-4.636 2.895-2.826.579-5.426.231-7.46-1.853-2.6-2.547-2.035-6.947 1.13-8.916 1.356-.81 2.826-1.157 4.409-1.273 2.034-.116 4.07 0 6.104.579.565.116.678 0 .678-.58 0-3.01-1.695-4.862-4.635-5.094-1.808-.116-3.504 0-5.2.81-.678.348-1.47 0-1.695-.694-.226-.58 0-1.39.565-1.621 3.278-1.39 6.67-1.737 9.948-.232 2.26.927 3.278 2.895 3.617 5.327.34 2.547.113 4.978.113 7.526v4.4c0 .926-.452 1.505-1.243 1.62-.792.117-1.47-.462-1.47-1.389-.226-.231-.226-.81-.226-1.505zm-5.2-6.947c-1.357 0-2.827.116-4.07 1.042-1.922 1.39-2.035 4.284-.113 5.674 1.47 1.157 3.052 1.273 4.747.926 2.261-.463 3.957-1.505 4.635-3.937.226-.81.113-1.505.113-2.316 0-.463-.113-.694-.565-.81-1.583-.232-3.165-.463-4.748-.58zM252.452 21.39h-6.217c-.565 0-.678.115-.565.694.452 2.548 1.695 4.516 4.182 5.327 2.6.926 5.087.231 7.235-1.622.34-.347.678-.578 1.13-.578.453 0 .905.347 1.018.81.226.579 0 .926-.34 1.39-1.356 1.389-2.938 2.315-4.747 2.663-3.165.579-5.991 0-8.365-2.2-1.583-1.506-2.487-3.358-2.826-5.558-.453-3.358.113-6.484 2.486-9.032 2.261-2.547 5.2-3.358 8.479-2.431 3.278.81 5.087 3.242 5.878 6.484.226.81.34 1.737.34 2.547 0 1.158-.453 1.621-1.583 1.621-2.035-.116-4.07-.116-6.105-.116zm-.904-2.2h4.182c1.922 0 1.922 0 1.357-1.853-.904-3.474-3.957-5.21-7.009-4.284-2.6.81-3.956 3.242-4.295 5.79-.113.462.226.346.565.346h5.2zM235.27 14.905c.904-1.737 2.147-3.01 3.73-3.82.791-.348 1.696-.696 2.6-.696.791 0 1.243.464 1.357 1.274.113.81-.34 1.505-1.018 1.621-.339.116-.678.116-1.017.232-3.165.81-5.2 3.242-5.54 6.716-.339 2.779-.112 5.442-.112 8.22 0 1.043-.792 1.737-1.696 1.506-.678-.116-1.13-.695-1.13-1.505V22.2 12.01c0-1.042.565-1.736 1.356-1.736.904 0 1.47.694 1.47 1.737v2.894zM265 12.821c0 1.39-1.017 2.432-2.26 2.432-1.357 0-2.375-1.042-2.375-2.432s1.018-2.432 2.374-2.432c1.244 0 2.261 1.043 2.261 2.432zm-2.26-1.968c-1.018 0-1.81.81-1.923 1.852 0 1.042.905 1.969 1.922 1.969 1.018 0 1.809-.927 1.809-1.969 0-.926-.791-1.852-1.809-1.852z"/>
		<path d="M262.513 11.547c1.13 0 1.357.464.904 1.39-.113.231 0 .347.113.463.113.116.113.347 0 .463-.113.116-.339 0-.452-.116-.113-.115-.226-.231-.226-.347-.226-.232-.452-.463-.565.116 0 .231-.113.347-.34.347-.225 0-.225-.231-.225-.463v-1.042c0-.58.113-.926.791-.81zm.678.81c-.113-.23-.226-.23-.452-.23s-.339.115-.339.347c0 .231.113.347.34.347.112-.116.338-.232.451-.463z"/>
	</g>
</svg>